<svg id="Layer_1" data-name="Layer 1" xmlns="http://www.w3.org/2000/svg" viewBox="0 0 108 108"><defs><style>.cls-1{fill:#fff;}</style></defs><path class="cls-1" d="M18.05,60.09A2.11,2.11,0,0,0,20.17,58V19.92H58.23a2.12,2.12,0,0,0,0-4.23H18.05a2.1,2.1,0,0,0-2.11,2.11V58A2.1,2.1,0,0,0,18.05,60.09ZM90,47.41a2.11,2.11,0,0,0-2.12,2.11V87.58H49.77a2.12,2.12,0,0,0,0,4.23H90a2.1,2.1,0,0,0,2.11-2.11V49.52A2.1,2.1,0,0,0,90,47.41Z"/><path class="cls-1" d="M39.2,93.93A2.11,2.11,0,0,0,37.08,96v4.23H7.48V70.67h29.6V76a2.12,2.12,0,1,0,4.23,0v-7.4a2.1,2.1,0,0,0-2.11-2.11H24.48a13.6,13.6,0,0,1,1.33-1.6L39.26,51.39a2.11,2.11,0,1,0-3-3L22.82,61.85a15.83,15.83,0,0,0-3.17,4.59H5.36a2.11,2.11,0,0,0-2.11,2.11v33.84a2.12,2.12,0,0,0,2.11,2.11H39.2a2.11,2.11,0,0,0,2.11-2.11V96A2.1,2.1,0,0,0,39.2,93.93ZM102.64,3H68.8a2.11,2.11,0,0,0-2.11,2.11v7.41a2.12,2.12,0,0,0,4.23,0V7.23h29.6v29.6H70.92V31.55a2.12,2.12,0,1,0-4.23,0V39a2.1,2.1,0,0,0,2.11,2.11H83.51a11.94,11.94,0,0,1-1.32,1.6L68.9,56a2.11,2.11,0,1,0,2.75,3.21,2.5,2.5,0,0,0,.23-.23l13.3-13.29a15.83,15.83,0,0,0,3.17-4.59h14.29A2.11,2.11,0,0,0,104.75,39V5.11A2.12,2.12,0,0,0,102.64,3Z"/><path class="cls-1" d="M64.57,59.57A16.12,16.12,0,0,0,59.83,48.1L59.67,48a16.43,16.43,0,0,0-5.16-3.48,2.12,2.12,0,1,0-1.65,3.9h0a11.76,11.76,0,0,1,3.81,2.57l.16.16a12,12,0,0,1,0,16.91L42.91,81.94a12,12,0,0,1-16.92,0l-.16-.16a12,12,0,0,1-3.13-5.4,2.11,2.11,0,1,0-4.13.9s0,.1,0,.15a16.19,16.19,0,0,0,4.23,7.32l.16.16a16.22,16.22,0,0,0,22.92,0L59.8,71A16.08,16.08,0,0,0,64.57,59.57Z"/><path class="cls-1" d="M65.09,25.56a12,12,0,0,1,16.92,0l.16.16a12.21,12.21,0,0,1,3,5,2.12,2.12,0,1,0,4.08-1.12l0-.09a16.3,16.3,0,0,0-4.06-6.78L85,22.57a16.22,16.22,0,0,0-22.92,0L48.2,36.47a16.22,16.22,0,0,0,0,22.93h0l.15.15a16.07,16.07,0,0,0,4.72,3.28A1.89,1.89,0,0,0,54,63a2.11,2.11,0,0,0,.87-4,12,12,0,0,1-3.47-2.44l-.16-.15a12,12,0,0,1,0-16.92Z"/></svg>