<svg id="Layer_1" data-name="Layer 1" xmlns="http://www.w3.org/2000/svg" viewBox="0 0 512 356.6"><defs><style>.cls-1{fill:#fff;}</style></defs><path class="cls-1" d="M127.2,243.2l-40.8-8.8A18,18,0,0,0,64.8,252v16.8c0,13.6,10.4,16.8,23.2,16.8h44.8c8.8,0,17.6-1.6,17.6-11.2V272c0-14.4-9.6-26.4-23.2-28.8ZM80,268.8V251.2c0-1.6,1.6-3.2,3.2-2.4l40.8,8.8a14.63,14.63,0,0,1,10.4,12C106.4,269.6,82.4,269.6,80,268.8Z" transform="translate(0 -77.6)"/><path class="cls-1" d="M490.4,157.6l-57.6-27.2c-19.2-8.8-40-12-60-8L364,104.8c-6.4-16-21.6-27.2-39.2-27.2H137.6A41.79,41.79,0,0,0,98.4,104L67.2,168.8a39.08,39.08,0,0,0-32-16.8H21.6A21.51,21.51,0,0,0,0,173.6v8.8A21.51,21.51,0,0,0,21.6,204H42.4c-8.8,11.2-12.8,25.6-12.8,40v48c0,18.4,6.4,36,19.2,51.2v36A28.68,28.68,0,0,0,77.6,408h29.6A28.68,28.68,0,0,0,136,379.2V364.8H296c35.2,48,90.4,68.8,91.2,68.8,1.6.8,3.2.8,5.6,0,.8-.8,119.2-44,119.2-152V192c0-14.4-8.8-28-21.6-34.4ZM112.8,110.4a26,26,0,0,1,24.8-16.8H324.8c11.2,0,20.8,6.4,25.6,17.6l7.2,15.2a48.94,48.94,0,0,0-9.6,4l-57.6,27.2c-12.8,6.4-21.6,19.2-21.6,33.6H72.8c3.2-4.8,0,3.2,40-80.8ZM16,182.4v-8.8a5.47,5.47,0,0,1,5.6-5.6H35.2c16,0,21.6,14.4,23.2,16.8a14,14,0,0,1-3.2,4H21.6C18.4,188,16,185.6,16,182.4Zm104,196a12.64,12.64,0,0,1-12.8,12.8H76.8c-7.2.8-12.8-5.6-12.8-12.8V355.2A64.13,64.13,0,0,0,96,364h24ZM95.2,348.8c-28.8,0-51.2-28-51.2-57.6v-48c0-13.6,5.6-26.4,15.2-36.8H268.8v70.4h-88a8,8,0,0,0-8,8,7.56,7.56,0,0,0,8,8h88.8c.8,5.6.8,10.4,2.4,15.2H180.8a8,8,0,0,0-8,8,7.56,7.56,0,0,0,8,8h94.4c3.2,8.8,6.4,17.6,11.2,24.8ZM496,281.6c0,88.8-89.6,129.6-105.6,136-57.6-23.2-105.6-72.8-105.6-136V192c0-8.8,4.8-16,12.8-20l57.6-27.2a81.34,81.34,0,0,1,72,0L484.8,172c7.2,4,12.8,11.2,12.8,20v89.6Z" transform="translate(0 -77.6)"/><path class="cls-1" d="M468.8,190.4,416,165.6a59.33,59.33,0,0,0-52,0l-52,24.8c-2.4,1.6-4.8,4-4.8,7.2v84c0,63.2,55.2,97.6,79.2,109.6a11.1,11.1,0,0,0,7.2,0c24-12,79.2-46.4,79.2-109.6v-84a8.4,8.4,0,0,0-4-7.2Zm-11.2,91.2c0,51.2-44.8,81.6-67.2,93.6-26.4-14.4-67.2-43.2-67.2-93.6V202.4l48-23.2a46,46,0,0,1,38.4,0l48,23.2Z" transform="translate(0 -77.6)"/><path class="cls-1" d="M359.2,279.2c-3.2-2.4-8-1.6-11.2,1.6s-1.6,8,1.6,11.2L380,315.2c3.2,2.4,8,1.6,11.2-1.6L436,255.2c2.4-3.2,1.6-8-1.6-11.2-3.2-2.4-8-1.6-11.2,1.6l-40,52Z" transform="translate(0 -77.6)"/></svg>