<svg id="Layer_1" data-name="Layer 1" xmlns="http://www.w3.org/2000/svg" viewBox="0 0 108 108"><defs><style>.cls-1{fill:#fff;}</style></defs><path class="cls-1" d="M29.3,66.87a1.89,1.89,0,0,0,.76-2.66,2.17,2.17,0,0,0-2.84-.72,1.9,1.9,0,0,0-.76,2.67A2.15,2.15,0,0,0,29.3,66.87Z"/><path class="cls-1" d="M20.79,80.34l10.45,17a8.61,8.61,0,0,0,11.34,2.86,7.55,7.55,0,0,0,3-10.66L39.4,79.41l5.39-2.92a1.9,1.9,0,0,0,.76-2.67l-2.7-4.39L82.6,62.1c4.61-.24,7.37-5,5-8.77L80.75,42.1l4.4-6.27a1.84,1.84,0,0,0,.07-2L81.07,27a2.1,2.1,0,0,0-1.92-1l-8,.45L63.51,14a6.25,6.25,0,0,0-5.32-2.92h-.08a6.29,6.29,0,0,0-5.24,2.7L25.76,46.27,8.14,55.83C1.2,59.59-1.2,68,2.82,74.48a15,15,0,0,0,18,5.86ZM42,91.5a3.78,3.78,0,0,1-1.52,5.33,4.29,4.29,0,0,1-5.67-1.43L24.46,78.51l7.19-3.9C43.66,94.16,41.83,91.19,42,91.5ZM37.32,76l-2.08-3.37,3.6-2,2.07,3.38Zm40.8-46L81,34.68l-2.55,3.64-5-8ZM56.34,15.94a2.08,2.08,0,0,1,1.8-.93,2,2,0,0,1,1.77,1l24.14,39.3a2,2,0,0,1-1.75,2.93,6.73,6.73,0,0,0-1.13.18L55.63,16.82A8.47,8.47,0,0,0,56.34,15.94Zm-3.47,4.18,24,39.06L40.65,65.86l-11-17.93ZM6.41,72.53A9.25,9.25,0,0,1,5,67.67a9.71,9.71,0,0,1,5.19-8.46l16.18-8.78,10.37,16.9L20.59,76.1A10.76,10.76,0,0,1,6.41,72.53Z"/><path class="cls-1" d="M22.87,68.11A2.16,2.16,0,0,0,20,67.4l-3.59,1.95a2.17,2.17,0,0,1-2.84-.72,2.14,2.14,0,0,0-2.83-.71A1.89,1.89,0,0,0,10,70.58a6.46,6.46,0,0,0,8.5,2.15l3.6-2A1.89,1.89,0,0,0,22.87,68.11ZM104,15.28l-11.56,6A1.9,1.9,0,0,0,91.67,24a2.16,2.16,0,0,0,2.83.76l11.56-6a1.91,1.91,0,0,0,.81-2.66,2.15,2.15,0,0,0-2.83-.75Zm-1.21,20.2-8-2a2.09,2.09,0,0,0-2.54,1.38,1.94,1.94,0,0,0,1.47,2.39l8,2a2.1,2.1,0,0,0,2.54-1.38,1.94,1.94,0,0,0-1.47-2.39ZM82.68,8.19l-2.15,7.54A1.94,1.94,0,0,0,82,18.12a2.1,2.1,0,0,0,2.54-1.38L86.69,9.2a1.94,1.94,0,0,0-1.47-2.39,2.1,2.1,0,0,0-2.54,1.38Z"/></svg>