<svg id="Layer_1" data-name="Layer 1" xmlns="http://www.w3.org/2000/svg" viewBox="0 0 640 640"><defs><style>.cls-1{fill:#fff;}</style></defs><g id="surface1"><path class="cls-1" d="M629.33,373.34H596.61L576,74a10.69,10.69,0,0,0-10.67-10h-64a10.69,10.69,0,0,0-10.67,10L470,373.34H448v-64A10.67,10.67,0,0,0,430.66,301l-89.33,71.46V309.34A10.66,10.66,0,0,0,324,301l-89.33,71.46V309.34A10.67,10.67,0,0,0,224,298.67a10.54,10.54,0,0,0-6.66,2.34L128,372.47V309.34a10.66,10.66,0,0,0-16.16-9.14L5.17,364.2A10.66,10.66,0,0,0,0,373.34v256A10.67,10.67,0,0,0,10.67,640H629.33A10.67,10.67,0,0,0,640,629.34V384A10.67,10.67,0,0,0,629.33,373.34Zm-118-288h44.08l19.86,288H491.42ZM362.66,618.67v-128h64v128Zm256,0H448V480a10.67,10.67,0,0,0-10.67-10.66H352A10.67,10.67,0,0,0,341.33,480V618.67h-320V379.38l85.33-51.2v66.49A10.67,10.67,0,0,0,124,403l89.33-71.46v63.13A10.66,10.66,0,0,0,230.66,403L320,331.54v63.13A10.66,10.66,0,0,0,337.33,403l89.33-71.46V384a10.67,10.67,0,0,0,10.67,10.67H618.66v224Z" transform="translate(0 0)"/><path class="cls-1" d="M362.59,21.34a39.67,39.67,0,0,1,10.37,8A37.34,37.34,0,0,0,396.8,42.67,38.9,38.9,0,0,0,421.93,28.8a50.28,50.28,0,0,1,9-7.46c2.2.1,7.95,5.48,11,8.37a35.73,35.73,0,0,0,23.09,13A41.65,41.65,0,0,0,491.86,28c2.61-2.45,6.57-6.17,7.34-6.63,5.72,0,7,1.9,10.56,7a27,27,0,0,0,23.57,14.35,10.67,10.67,0,1,0,0-21.33c-2.13,0-2.55-.15-6-5.15A31.53,31.53,0,0,0,499.2,0a34.27,34.27,0,0,0-21.95,12.42c-3.55,3.34-9.48,8.92-11.74,9a43.48,43.48,0,0,1-9-7.24A39.62,39.62,0,0,0,430.93,0a37,37,0,0,0-23.59,13.19,44.39,44.39,0,0,1-10.25,8.15,41.6,41.6,0,0,1-9.59-7.57A38.73,38.73,0,0,0,362.66,0a10.67,10.67,0,0,0-.07,21.34Z" transform="translate(0 0)"/><path class="cls-1" d="M117.34,490.67H74.66A10.66,10.66,0,0,0,64,501.33v64A10.66,10.66,0,0,0,74.66,576h42.68A10.67,10.67,0,0,0,128,565.33v-64A10.67,10.67,0,0,0,117.34,490.67Zm-10.68,64H85.33V512h21.33Z" transform="translate(0 0)"/><path class="cls-1" d="M202.67,490.67H160a10.67,10.67,0,0,0-10.67,10.66v64A10.67,10.67,0,0,0,160,576h42.67a10.67,10.67,0,0,0,10.66-10.67v-64A10.67,10.67,0,0,0,202.67,490.67Zm-10.67,64H170.66V512H192Z" transform="translate(0 0)"/><path class="cls-1" d="M288,490.67H245.33a10.67,10.67,0,0,0-10.67,10.66v64A10.67,10.67,0,0,0,245.33,576H288a10.66,10.66,0,0,0,10.66-10.67v-64A10.66,10.66,0,0,0,288,490.67Zm-10.67,64H256V512h21.33Z" transform="translate(0 0)"/></g></svg>