<svg id="Layer_1" data-name="Layer 1" xmlns="http://www.w3.org/2000/svg" viewBox="0 0 50 50"><defs><style>.cls-1{fill:#006d65;}</style></defs><path class="cls-1" d="M38.12,12.7a.66.66,0,0,1-.54-1,3.32,3.32,0,0,0,.61-2,3.39,3.39,0,0,0-6.61-1,.66.66,0,0,1-1.26-.41A4.72,4.72,0,0,1,39.53,9.7a4.64,4.64,0,0,1-.87,2.72A.65.65,0,0,1,38.12,12.7Z"/><path class="cls-1" d="M43.31,20.4a.67.67,0,0,1-.67-.66.75.75,0,0,1,0-.26,4.44,4.44,0,0,0,.35-1.8,5,5,0,0,0-9.95-.12v.12a.65.65,0,0,1-.66.66.66.66,0,0,1-.67-.66,6.31,6.31,0,1,1,12.61-.13v.13A5.9,5.9,0,0,1,43.93,20,.68.68,0,0,1,43.31,20.4Z"/><path class="cls-1" d="M39.9,30.52c-.22,0-.43,0-.64,0a.66.66,0,1,1,.13-1.32h0l.51,0a5,5,0,0,0,3-8.92.67.67,0,0,1,.8-1.07A6.3,6.3,0,0,1,39.9,30.52Z"/><path class="cls-1" d="M37.45,44.49a.66.66,0,0,1-.11-1.32,5,5,0,0,0,4.16-4.9,5,5,0,0,0-.21-1.44.65.65,0,0,1,.45-.83.66.66,0,0,1,.82.45,6.29,6.29,0,0,1-5,8Z"/><path class="cls-1" d="M41.92,37.3a.65.65,0,0,1-.66-.66.67.67,0,0,1,.39-.61,5,5,0,0,0,2.92-4.52,4.89,4.89,0,0,0-1.06-3.05.67.67,0,0,1,1.05-.83,6.32,6.32,0,0,1-2.36,9.62A.87.87,0,0,1,41.92,37.3Z"/><path class="cls-1" d="M31.52,48.32a7.19,7.19,0,0,1-7.18-7.18V5.91A4.22,4.22,0,0,1,25.6,2.69a3.94,3.94,0,0,1,3.49-.91,21.4,21.4,0,0,1,8.12,3.87.67.67,0,0,1,.1.94.68.68,0,0,1-.94.1,20.15,20.15,0,0,0-7.54-3.6,2.58,2.58,0,0,0-2.32.57,3,3,0,0,0-.84,2.25V41.14a5.85,5.85,0,0,0,11.18,2.41.67.67,0,0,1,.88-.33.66.66,0,0,1,.33.88A7.2,7.2,0,0,1,31.52,48.32Z"/><path d="M11.89,12.7a.66.66,0,0,1-.54-.28,4.56,4.56,0,0,1-.86-2.72A4.72,4.72,0,0,1,19.7,8.24a.67.67,0,0,1-1.26.44v0a3.39,3.39,0,0,0-6.61,1,3.26,3.26,0,0,0,.62,2,.67.67,0,0,1-.16.93.66.66,0,0,1-.38.12Z"/><path d="M6.7,20.4A.65.65,0,0,1,6.09,20a5.91,5.91,0,0,1-.45-2.31,6.31,6.31,0,0,1,12.61-.13v.13a.67.67,0,0,1-1.33,0,5,5,0,0,0-10-.12v.12a4.62,4.62,0,0,0,.35,1.8.67.67,0,0,1-.36.87A.75.75,0,0,1,6.7,20.4Z"/><path d="M10.11,30.52A6.3,6.3,0,0,1,6.3,19.2a.67.67,0,0,1,.93.13.68.68,0,0,1-.13.94,5,5,0,0,0,3,8.92l.51,0a.66.66,0,1,1,.13,1.32C10.54,30.51,10.33,30.52,10.11,30.52Z"/><path d="M12.56,44.49h-.11a6.29,6.29,0,0,1-5-8,.67.67,0,1,1,1.28.38,5,5,0,0,0-.21,1.44,4.94,4.94,0,0,0,4.15,4.9.66.66,0,0,1-.11,1.32Z"/><path d="M8.09,37.3a.76.76,0,0,1-.27,0,6.29,6.29,0,0,1-3.15-8.32,6.14,6.14,0,0,1,.78-1.3.67.67,0,0,1,.93-.13.66.66,0,0,1,.14.93l0,0a4.89,4.89,0,0,0-1.06,3.05A5,5,0,0,0,8.36,36a.67.67,0,0,1,.33.88.63.63,0,0,1-.6.39Z"/><path d="M18.49,48.32A7.22,7.22,0,0,1,12,44.1a.66.66,0,1,1,1.21-.55,5.85,5.85,0,0,0,11.18-2.41V5.91a3,3,0,0,0-.84-2.25,2.58,2.58,0,0,0-2.32-.57,20.28,20.28,0,0,0-7.54,3.59.67.67,0,0,1-.84-1,21.4,21.4,0,0,1,8.12-3.87,3.94,3.94,0,0,1,3.49.91,4.22,4.22,0,0,1,1.26,3.22V41.14A7.19,7.19,0,0,1,18.49,48.32Z"/><path d="M25,15.66a.48.48,0,0,1-.18,0,.66.66,0,0,1-.46-.82h0c.35-1.25,1.68-3.53,4.2-3.28a.66.66,0,0,1,.6.73.67.67,0,0,1-.73.6c-2.05-.2-2.79,2.29-2.8,2.31A.67.67,0,0,1,25,15.66Z"/><path d="M25,19a.65.65,0,0,1-.64-.48h0c0-.1-.77-2.53-2.8-2.32a.66.66,0,1,1-.13-1.32c2.53-.25,3.85,2,4.2,3.28a.66.66,0,0,1-.46.82h0Z"/><path class="cls-1" d="M34.13,23.47A6.26,6.26,0,0,1,29.3,21.2a.67.67,0,0,1,1-.88l0,0a5,5,0,0,0,8.76-3.17c0-.13,0-.25,0-.38a.67.67,0,0,1,1.33-.12v0c0,.16,0,.32,0,.48A6.31,6.31,0,0,1,34.13,23.47Z"/><path class="cls-1" d="M38.07,27.34h0c-3.24-.07-4.76-2.92-5.11-4.42a.66.66,0,0,1,1.29-.3h0c0,.13.84,3.32,3.85,3.38a.68.68,0,0,1,.66.68.67.67,0,0,1-.67.66Z"/><path class="cls-1" d="M34,36.27H34a.66.66,0,0,1-.61-.71,5.13,5.13,0,0,0-1.07-3.93,6.43,6.43,0,0,0-4-1.93.67.67,0,1,1,.1-1.33,7.76,7.76,0,0,1,4.88,2.39,6.43,6.43,0,0,1,1.39,4.9A.66.66,0,0,1,34,36.27Z"/><path class="cls-1" d="M29.76,42h0a.67.67,0,0,1-.64-.69h0c.11-2.35,1.64-6.73,6.64-6.55a.67.67,0,0,1,.64.69.66.66,0,0,1-.69.64h0c-4.94-.18-5.25,5-5.26,5.28A.67.67,0,0,1,29.76,42Z"/><path d="M17.51,24.26A6.29,6.29,0,0,1,11.22,18a3.7,3.7,0,0,1,0-.48.67.67,0,0,1,1.33.07v0c0,.12,0,.25,0,.38a5,5,0,0,0,8.76,3.17.66.66,0,0,1,.94-.09.68.68,0,0,1,.09.94A6.31,6.31,0,0,1,17.51,24.26Z"/><path d="M13.57,28.13a.67.67,0,0,1-.68-.65.68.68,0,0,1,.66-.68c3-.06,3.81-3.25,3.85-3.38a.66.66,0,0,1,1.29.3c-.34,1.5-1.87,4.35-5.11,4.41Z"/><path d="M13.7,38a.66.66,0,0,1-.66-.61,6.45,6.45,0,0,1,1.39-4.91,7.67,7.67,0,0,1,4.88-2.38.67.67,0,0,1,.71.61.66.66,0,0,1-.61.71h0a6.52,6.52,0,0,0-4,1.94,5.2,5.2,0,0,0-1.07,3.92.66.66,0,0,1-.6.72Z"/><path d="M18,43.73a.66.66,0,0,1-.66-.63h0c0-.23-.34-5.47-5.26-5.28a.67.67,0,1,1,0-1.33c5-.18,6.53,4.2,6.64,6.54a.68.68,0,0,1-.64.7h0Z"/><path d="M25,41.8h0a.66.66,0,0,1-.66-.67h0a5.54,5.54,0,0,0-4.42-5.61.67.67,0,1,1,.25-1.31,7,7,0,0,1,5.5,6.93A.66.66,0,0,1,25,41.8Z"/></svg>