<svg id="Layer_1" data-name="Layer 1" xmlns="http://www.w3.org/2000/svg" viewBox="0 0 25.67 20.17"><g id="Layer_8" data-name="Layer 8"><path d="M24,16.67V4.75a1.83,1.83,0,0,0-1.83-1.83H3.83A1.83,1.83,0,0,0,2,4.75V16.67A1.83,1.83,0,0,0,.17,18.5a4.58,4.58,0,0,0,4.58,4.58h16.5a4.58,4.58,0,0,0,4.58-4.58A1.83,1.83,0,0,0,24,16.67ZM3.83,4.75H22.17V16.67H17.58a.94.94,0,0,0-.65.26L15.37,18.5H10.63L9.07,16.93a.94.94,0,0,0-.65-.26H3.83Zm17.42,16.5H4.75A2.75,2.75,0,0,1,2,18.5H8L9.6,20.07a.92.92,0,0,0,.65.26h5.5a.92.92,0,0,0,.65-.26L18,18.5h6A2.75,2.75,0,0,1,21.25,21.25Z" transform="translate(-0.17 -2.92)"/><path d="M10.25,14.83a.92.92,0,0,0-.92-.91V13a2.74,2.74,0,0,0-.71-1.83,2.79,2.79,0,0,0,.71-1.84V8.42a.92.92,0,0,0,0-1.84A1.83,1.83,0,0,0,7.5,8.42v.91a.92.92,0,0,1-.92.92.92.92,0,0,0,0,1.83A.92.92,0,0,1,7.5,13v.92a1.83,1.83,0,0,0,1.83,1.83A.92.92,0,0,0,10.25,14.83Z" transform="translate(-0.17 -2.92)"/><path d="M16.67,8.42v.91a2.79,2.79,0,0,0,.71,1.84A2.74,2.74,0,0,0,16.67,13v.92a.92.92,0,1,0,0,1.83,1.83,1.83,0,0,0,1.83-1.83V13a.92.92,0,0,1,.92-.92.92.92,0,0,0,0-1.83.92.92,0,0,1-.92-.92V8.42a1.83,1.83,0,0,0-1.83-1.84.92.92,0,1,0,0,1.84Z" transform="translate(-0.17 -2.92)"/><path d="M11.17,12.08a.92.92,0,1,0-.92-.91A.91.91,0,0,0,11.17,12.08Z" transform="translate(-0.17 -2.92)"/><path d="M14.83,12.08a.92.92,0,1,0-.91-.91A.92.92,0,0,0,14.83,12.08Z" transform="translate(-0.17 -2.92)"/></g></svg>