<svg id="Layer_1" data-name="Layer 1" xmlns="http://www.w3.org/2000/svg" viewBox="0 0 442.18 488.73"><defs><style>.cls-1{fill:#fff;}</style></defs><g id="Box"><path class="cls-1" d="M474,128.7,258.77,12.33a5.85,5.85,0,0,0-5.54,0L38,128.7a6,6,0,0,0-3.05,5.12V378.18A5.81,5.81,0,0,0,38,383.3L253.23,499.67a5.92,5.92,0,0,0,2.77.69,6.67,6.67,0,0,0,2.77-.69L474,383.3a5.81,5.81,0,0,0,3-5.12V133.82A6,6,0,0,0,474,128.7Zm-348,57.87,44.57,24.09v75L153.12,260.8a5.83,5.83,0,0,0-6.61-2.16l-20.43,6.89Zm333-52.75L256,243.57l-67.29-36.38,203-109.75Zm-79.53-43-203,109.74-44-23.76,203-109.75ZM256,24.07l67.3,36.37-203,109.75L53,133.82ZM46.55,143.58l67.89,36.7v93.35a5.83,5.83,0,0,0,5.82,5.82,5.9,5.9,0,0,0,1.86-.31l24-8.08,25.6,36.29A5.82,5.82,0,0,0,182.28,304V217l67.9,36.7V484.79L46.55,374.71ZM261.82,484.79V253.65L465.45,143.58V374.71Z" transform="translate(-34.91 -11.64)"/><path class="cls-1" d="M142.84,380.46,66.77,339.35a5.82,5.82,0,0,0-5.54,10.24L137.3,390.7a5.82,5.82,0,1,0,5.54-10.24Z" transform="translate(-34.91 -11.64)"/><path class="cls-1" d="M94.37,374.11l-27.6-14.92a5.82,5.82,0,0,0-5.54,10.24l27.61,14.92a5.82,5.82,0,0,0,5.53-10.24Z" transform="translate(-34.91 -11.64)"/></g></svg>