<svg id="svg45829" xmlns="http://www.w3.org/2000/svg" viewBox="0 0 480 480.06"><defs><style>.cls-1{fill:#fff;}</style></defs><g id="layer1"><path id="path2588" class="cls-1" d="M141,16.54l-120,48A8,8,0,0,0,16,72V88a8,8,0,0,0,8,8H48V208H40a8,8,0,0,0-8,8v24H24a8,8,0,0,0-8,8v32a8,8,0,0,0,8,8H264a8,8,0,0,0,8-8V248a8,8,0,0,0-8-8h-8V216a8,8,0,0,0-8-8h-8V96h24a8,8,0,0,0,8-8V72a8,8,0,0,0-5-7.44l-120-48a7.88,7.88,0,0,0-6,0ZM144,32.6,256,77.41V80H32V77.41ZM312,64h96a23.74,23.74,0,0,1,24,24v96c-.24,10.91,16.24,10.91,16,0V88a40.06,40.06,0,0,0-40-40h-96.4c-11.06.51-10.3,16.52.38,16ZM64,96H80V208H64ZM96,96h24V208H96ZM136,96h16V208H136Zm32,0h24V208H168Zm40,0h16V208H208ZM48,224H240v16H216c-10.43.24-10.43,15.77,0,16h40v16H32V256H184c10.43-.25,10.43-15.77,0-16H48Zm432,48V472a7.9,7.9,0,0,1-8,8.05H328a7.83,7.83,0,0,1-8-8.05v-8H456c10.67,0,10.67-16,0-16H320V296c.24-10.91-16.24-10.91-16,0V472A24.14,24.14,0,0,0,328,496H472A24.21,24.21,0,0,0,496,472V248a24.16,24.16,0,0,0-24-24H328a24.09,24.09,0,0,0-24,24v16a8,8,0,0,0,8,8ZM328,240H472a7.82,7.82,0,0,1,8,8v8H320v-8A7.76,7.76,0,0,1,328,240Zm71.88,47.89A8,8,0,0,0,392,296v9.17A31.91,31.91,0,0,0,400,368a16,16,0,1,1-16,16c-.23-10.44-15.76-10.44-16,0a32.09,32.09,0,0,0,24,30.87V424c0,10.67,16,10.67,16,0v-9.18A31.94,31.94,0,0,0,400,352a16,16,0,1,1,16-16c0,10.68,16,10.68,16,0a32,32,0,0,0-24-30.8V296A8,8,0,0,0,399.88,287.9Zm-328,32A8,8,0,0,0,64,328v96a40,40,0,0,0,40,40H264c10.91.24,10.91-16.24,0-16H104a23.72,23.72,0,0,1-24-24V328a8,8,0,0,0-8.15-8.09Z" transform="translate(-16.02 -15.95)"/></g></svg>