<svg id="_Layer_" data-name="&lt;Layer&gt;" xmlns="http://www.w3.org/2000/svg" viewBox="0 0 480 448"><defs><style>.cls-1{fill:#fff;}</style></defs><g id="healthcare_medical_protection" data-name="healthcare, medical, protection"><path class="cls-1" d="M383.94,360.1a8,8,0,0,1-6.39-12.82A150.69,150.69,0,0,0,408,256a153,153,0,0,0-3.18-31,8,8,0,1,1,15.66-3.25A168.45,168.45,0,0,1,424,256a166.71,166.71,0,0,1-33.66,100.91,8,8,0,0,1-6.4,3.19Z" transform="translate(-16 -32)"/><path class="cls-1" d="M99.46,297.34A8,8,0,0,1,91.63,291,171.25,171.25,0,0,1,88,256a166.51,166.51,0,0,1,33.38-100.51,8,8,0,1,1,12.81,9.58A150.59,150.59,0,0,0,104,256a153.34,153.34,0,0,0,3.3,31.7,8,8,0,0,1-6.18,9.47,7.31,7.31,0,0,1-1.66.17Z" transform="translate(-16 -32)"/><path class="cls-1" d="M280,336H232a8,8,0,0,1-8-8V288H184a8,8,0,0,1-8-8V232a8,8,0,0,1,8-8h40V184a8,8,0,0,1,8-8h48a8,8,0,0,1,8,8v40h40a8,8,0,0,1,8,8v48a8,8,0,0,1-8,8H288v40A8,8,0,0,1,280,336Zm-40-16h32V280a8,8,0,0,1,8-8h40V240H280a8,8,0,0,1-8-8V192H240v40a8,8,0,0,1-8,8H192v32h40a8,8,0,0,1,8,8Z" transform="translate(-16 -32)"/><path class="cls-1" d="M290.26,480H206.4A105,105,0,0,1,161,469.63L105,442.4A104.26,104.26,0,0,0,59.54,432H24a8,8,0,0,1,0-16H59.54a120.16,120.16,0,0,1,52.4,12l56,27.22A89.3,89.3,0,0,0,206.4,464h82.26l69.87-28.83c0-.67.94-6.87-2.13-12.13-4.69-8.06-15.52-8.32-23.73-7.12-11.92,1.84-21.77,5.15-30.46,8.08l-3.3,1.1a8,8,0,0,1-5-15.18l3.23-1.07c9.32-3.14,19.86-6.69,33.2-8.74,33-4.8,41.24,15.81,43,22.23,2.93,10.57.5,23.8-8.64,27.63L293.3,479.42A8.51,8.51,0,0,1,290.26,480Z" transform="translate(-16 -32)"/><path class="cls-1" d="M186.16,366a8,8,0,0,1-7.26-4.62c-15.68-33.75-56.42-38.58-86.71-26a8,8,0,0,1-3.07.61H24a8,8,0,0,1,0-16H87.57c43.31-17.2,88.57-2.43,105.85,34.67a8,8,0,0,1-3.88,10.64,8.46,8.46,0,0,1-3.38.72Z" transform="translate(-16 -32)"/><path class="cls-1" d="M262,442a8,8,0,0,1-3.05-.61l-91.62-38a8,8,0,1,1,6.15-14.79L257,423.23c3.51-16.49-5.52-29.33-27-38.21L183,365.47a8,8,0,1,1,6.14-14.78l47.07,19.55c33,13.66,45.07,38,33.19,66.75a8,8,0,0,1-4.34,4.34A7.6,7.6,0,0,1,262,442Z" transform="translate(-16 -32)"/><path class="cls-1" d="M172.34,112.62c-25.17,0-32.05-17.18-33.65-22.94-2.93-10.58-.5-23.81,8.64-27.63L218.7,32.59a8.31,8.31,0,0,1,3-.59h83.84A105,105,0,0,1,351,42.37L407,69.6A104.34,104.34,0,0,0,452.46,80H488a8,8,0,0,1,0,16H452.46a120.16,120.16,0,0,1-52.4-12L344,56.8A89,89,0,0,0,305.6,48H223.34L153.46,76.83c0,.67-1,6.87,2.12,12.13,4.71,8.06,15.51,8.32,23.73,7.12,11.92-1.84,21.78-5.15,30.47-8.08l3.29-1.1a8,8,0,0,1,5,15.18l-3.23,1.07c-9.31,3.14-19.86,6.69-33.2,8.74A62.29,62.29,0,0,1,172.34,112.62Z" transform="translate(-16 -32)"/><path class="cls-1" d="M388.14,199.12c-30.24,0-57.15-15.1-69.56-41.79a8,8,0,1,1,14.52-6.75c15.67,33.72,56.39,38.54,86.71,26a8.42,8.42,0,0,1,3.07-.59H488a8,8,0,0,1,0,16H424.43a98.59,98.59,0,0,1-36.29,7.12Z" transform="translate(-16 -32)"/><path class="cls-1" d="M326,161.92a8,8,0,0,1-3.07-.61l-47.07-19.55c-33-13.66-45.07-38-33.19-66.75A8,8,0,0,1,247,70.67a8.08,8.08,0,0,1,6.13,0l91.61,38a8,8,0,0,1-6.14,14.79L255,88.8c-3.5,16.5,5.52,29.33,27,38.21L329,146.56A8,8,0,0,1,326,161.92Z" transform="translate(-16 -32)"/><path class="cls-1" d="M360.24,384.56a8,8,0,0,1-5.66-13.65c3.13-3.12,8.75-3.68,11.87-.56s3.68,7.63.56,10.75l-1.12,1.12A7.94,7.94,0,0,1,360.24,384.56Z" transform="translate(-16 -32)"/><path class="cls-1" d="M152.24,144.56a8,8,0,0,1-5.62-13.7l1.14-1.12A8,8,0,0,1,159,141.14l-1.13,1.12A8,8,0,0,1,152.24,144.56Z" transform="translate(-16 -32)"/></g></svg>