<svg id="Layer_1" data-name="Layer 1" xmlns="http://www.w3.org/2000/svg" viewBox="0 0 50 50"><defs><style>.cls-1,.cls-2{fill:none;stroke-linecap:round;stroke-linejoin:round;stroke-width:2px;}.cls-1{stroke:#000;}.cls-2{stroke:#006d65;}</style></defs><g id="g4162"><g id="g4168"><path id="path4170" class="cls-1" d="M32.83,9.93A7.94,7.94,0,1,1,24.9,2,7.94,7.94,0,0,1,32.83,9.93Z"/></g><g id="g4180"><path id="path4182" class="cls-1" d="M36.27,23.12a14.95,14.95,0,0,0-22.75,0"/></g><g id="g4184"><path id="path4186" class="cls-1" d="M39.83,28.13V21.79L24.9,27.39V47l14.93-5.6V34.67"/></g><g id="g4188"><path id="path4190" class="cls-1" d="M10,34.67v6.72L24.9,47V27.39L10,21.79v6.34"/></g><g id="g4176"><path id="path4178" class="cls-2" d="M9.5,34.67h1.4a.94.94,0,0,0,.93-.94V29.07a.94.94,0,0,0-.93-.94H9.5a3.27,3.27,0,1,0,0,6.54Z"/></g><g id="g4172"><path id="path4174" class="cls-2" d="M39.36,34.67H38a.94.94,0,0,1-.93-.94V29.07a.94.94,0,0,1,.93-.94h1.4a3.27,3.27,0,1,1,0,6.54Z"/></g></g></svg>