<svg id="Layer_1" data-name="Layer 1" xmlns="http://www.w3.org/2000/svg" viewBox="0 0 495.84 429.12"><defs><style>.cls-1{fill:#fff;}</style></defs><g id="Layer_10" data-name="Layer 10"><path class="cls-1" d="M474.4,449.28a37.33,37.33,0,0,0,20.16-61.12,29.58,29.58,0,0,0,1.76-10.08,30,30,0,0,0-60,0,29.58,29.58,0,0,0,1.76,10.08,36.92,36.92,0,0,0-9.28,24.48,37.44,37.44,0,0,0,29.44,36.64V484h-34.4V152.48L224,70.72v75.2L39.2,70.72V483.84H8v16H496v-16H474.4ZM445,412.64a21.28,21.28,0,0,1,8-16l5.6-4.48-3.84-6.08a13.92,13.92,0,1,1,23.52,0l-3.84,6.08,5.44,4.48a21.44,21.44,0,1,1-34.88,16ZM240,94.56,408.32,163.2V452.8H240Zm-16,92.8H198.4v16H224V243H198.4v16H224v39.68H198.4v16H224v46.4H198.4v16H224v44H148v-12h23.84v-16H148v-42.4h23.84v-16H148v-42.4h23.84v-16H148V234.08h23.84v-16H148V176h23.84V160H148V132.48l76,30.88ZM115.2,437v46.88H97.44V437.12Zm16,0H148v46.88H130.72Zm33.28,0h17.28v46.88H164Zm-32-311.2V421.12H55.2V94.56ZM55.2,437.12H81.44V484H55.2ZM197.28,484V437.12H224V484Zm42.24,0V469H407.84v15Z" transform="translate(-8 -70.72)"/><path class="cls-1" d="M71.52,206.4H100v16H71.52Z" transform="translate(-8 -70.72)"/><path class="cls-1" d="M71.52,243H100v16H71.52Z" transform="translate(-8 -70.72)"/><path class="cls-1" d="M71.52,279.68H100v16H71.52Z" transform="translate(-8 -70.72)"/><path class="cls-1" d="M71.52,316.32H100v16H71.52Z" transform="translate(-8 -70.72)"/><path class="cls-1" d="M71.52,353H100v16H71.52Z" transform="translate(-8 -70.72)"/><path class="cls-1" d="M350.08,206.4h28.48v16H350.08Z" transform="translate(-8 -70.72)"/><path class="cls-1" d="M350.08,243h28.48v16H350.08Z" transform="translate(-8 -70.72)"/><path class="cls-1" d="M350.08,279.68h28.48v16H350.08Z" transform="translate(-8 -70.72)"/><path class="cls-1" d="M350.08,316.32h28.48v16H350.08Z" transform="translate(-8 -70.72)"/><path class="cls-1" d="M350.08,353h28.48v16H350.08Z" transform="translate(-8 -70.72)"/><path class="cls-1" d="M350.08,389.6h28.48v16H350.08Z" transform="translate(-8 -70.72)"/><path class="cls-1" d="M268.8,206.4h28.48v16H268.8Z" transform="translate(-8 -70.72)"/><path class="cls-1" d="M268.8,243h28.48v16H268.8Z" transform="translate(-8 -70.72)"/><path class="cls-1" d="M268.8,279.68h28.48v16H268.8Z" transform="translate(-8 -70.72)"/><path class="cls-1" d="M268.8,316.32h28.48v16H268.8Z" transform="translate(-8 -70.72)"/><path class="cls-1" d="M268.8,353h28.48v16H268.8Z" transform="translate(-8 -70.72)"/><path class="cls-1" d="M268.8,389.6h28.48v16H268.8Z" transform="translate(-8 -70.72)"/><path class="cls-1" d="M71.52,389.6H100v16H71.52Z" transform="translate(-8 -70.72)"/></g></svg>