<svg id="Layer_1" data-name="Layer 1" xmlns="http://www.w3.org/2000/svg" viewBox="0 0 50 50"><defs><style>.cls-1{fill:#006d65;}</style></defs><path d="M37.72,26.31A12.82,12.82,0,0,1,26.34,37.75a.45.45,0,0,0-.45.44h0v9.55a.89.89,0,0,1-1.78,0V44.28a.47.47,0,0,0-.45-.44A18.82,18.82,0,0,1,6.86,29.38a.89.89,0,0,1,.61-1.11.91.91,0,0,1,1.11.61s0,0,0,.06A17,17,0,0,0,23.6,42c.12.06.23,0,.34-.11a.33.33,0,0,0,.17-.33V38.2a.44.44,0,0,0-.44-.45h0A12.78,12.78,0,0,1,12.29,26.32a.47.47,0,0,0-.45-.4H2.3a.92.92,0,1,1,0-1.83H5.92a.48.48,0,0,0,.45-.4A19,19,0,0,1,20.31,6.5a.92.92,0,0,1,1.08.73.93.93,0,0,1-.63,1.06A17,17,0,0,0,8.2,23.58a.42.42,0,0,0,.33.51h3.29a.46.46,0,0,0,.45-.39A12.83,12.83,0,0,1,23.66,12.25a.45.45,0,0,0,.45-.44h0V2.25a.89.89,0,0,1,1.78,0V13.08A.9.9,0,0,1,25,14h-.09c-9.7,0-14.55,11.89-7.69,18.75S35.82,34.74,36,25a.87.87,0,0,1,.87-.89H47.7a.92.92,0,1,1,0,1.83H44.13a.44.44,0,0,0-.44.4,19,19,0,0,1-14.34,17A.91.91,0,0,1,29,41.59,17.08,17.08,0,0,0,41.85,26.42a.43.43,0,0,0-.33-.51H38.17a.45.45,0,0,0-.45.39Z"/><path class="cls-1" d="M45.65,7.61H42.19a.47.47,0,0,1-.45-.44V3.65A.91.91,0,0,0,40.17,3L33.75,9.44a1,1,0,0,0-.28.67v4.31a.29.29,0,0,1-.16.28l-7.65,7.71A.91.91,0,0,0,27,23.69L34.59,16a.82.82,0,0,1,.33-.12h4.3a.89.89,0,0,0,.61-.28l6.45-6.41h0a.89.89,0,0,0,.28-.68A.92.92,0,0,0,45.65,7.61Zm-3,2.55L38.93,13.9v0c-.05.11-.16.11-.28.11h-3a.44.44,0,0,1-.44-.44V10.7a.47.47,0,0,1,.17-.33l3.68-3.74a.44.44,0,0,1,.31-.13.47.47,0,0,1,.47.46V8.49a.92.92,0,0,0,1,.89h1.57a.46.46,0,0,1,.31.15A.44.44,0,0,1,42.67,10.16Z"/><path d="M32.58,25A7.59,7.59,0,1,1,25,17.44h0a.9.9,0,0,1,.83,1,.92.92,0,0,1-.83.83,5.77,5.77,0,0,0,0,11.54h0c3.35,0,5.58-2.5,5.74-5.77a.93.93,0,0,1,1.85-.08V25Z"/></svg>