<svg id="Layer_1" data-name="Layer 1" xmlns="http://www.w3.org/2000/svg" viewBox="0 0 800 900"><defs><style>.cls-1,.cls-4{fill:#ebebeb;}.cls-15,.cls-2{fill:#fff;}.cls-3{fill:#dbdbdb;}.cls-15,.cls-4{fill-rule:evenodd;}.cls-5{fill:#263238;}.cls-6{fill:#f7a9a0;}.cls-7{fill:#ffc727;}.cls-8{fill:#37474f;}.cls-10,.cls-9{isolation:isolate;}.cls-9{opacity:0.1;}.cls-10{opacity:0.2;}.cls-11{fill:#455a64;}.cls-12{fill:#ff9abb;}.cls-13{fill:#c7c7c7;}.cls-14{fill:#a6a6a6;}.cls-16{fill:#ad6359;}.cls-17{fill:#008f6b;}.cls-18{fill:#ff383b;}</style></defs><g id="freepik--background-complete--inject-2"><path class="cls-1" d="M711.37,109.69l24.52-.52,12.43-.22c4.15,0,8.33,0,12.49-.1h.84v22.67h-.93L736,131.39c-8.24,0-16.47-.21-24.72-.3h-.51v-.49c0-3.54.17-7.07.25-10.56Zm0,0,.27,10.55c.09,3.48.22,6.91.26,10.35l-.53-.53c8.26,0,16.49-.3,24.72-.3l24.72-.11-.93.94.11-20.9.82.83H748.6l-12.28-.25Z"/><path class="cls-1" d="M739,83.35l24.51-.52,12.44-.23h13.33v.84l.09,20.9v.93h-1l-24.64-.22c-8.23,0-16.47-.21-24.72-.3h-.5v-.51c0-3.54.16-7.07.24-10.56Zm0,0,.28,10.55c0,3.47.21,6.91.24,10.34l-.52-.52c8.25-.09,16.49-.3,24.72-.3l24.64-.11-.91.93.09-20.89.82.79c-4.07,0-8.12,0-12.21-.1l-12.28-.22Z"/><path class="cls-1" d="M683.76,83.35l24.52-.52,12.43-.23H734v.84l.15,20.8v.94h-.93l-24.72-.12c-8.24,0-16.49-.2-24.72-.29h-.5v-.51c0-3.55.14-7.07.24-10.57Zm0,0L684,93.9c0,3.47.21,6.91.25,10.34l-.51-.52c8.24-.09,16.49-.3,24.72-.3l24.72-.11-.93.93.11-20.89.82.82c-4.07,0-8.14,0-12.21-.09l-12.29-.22Z"/><path class="cls-1" d="M84,83.35l24.49-.52,12.44-.23h13.33v.84l.11,20.9v.93h-.93l-24.67-.22c-8.25,0-16.48-.21-24.72-.3h-.52v-.51c0-3.54.17-7.07.24-10.56Zm0,0,.26,10.55c0,3.47.2,6.91.24,10.34l-.5-.52c8.23-.09,16.46-.3,24.72-.3l24.72-.11-.94.93.1-20.89.84.82c-4.13,0-8.14,0-12.23,0l-12.29-.23Z"/><path class="cls-1" d="M84,641.9l24.49-.53,12.44-.2c4.16-.1,8.34,0,12.51-.11h.82v.84l.11,20.89v.93h-.93l-24.67-.13c-8.25,0-16.48-.21-24.72-.3h-.52v-.5c0-3.55.17-7.08.24-10.57Zm0,0,.26,10.54c0,3.48.2,6.93.24,10.35l-.5-.53c8.23-.09,16.46-.28,24.72-.29l24.72-.12-.94.94.1-20.89.84.82c-4.07,0-8.14,0-12.23-.1l-12.29-.26Z"/><path class="cls-1" d="M56.46,615.55,81,615l12.44-.21c4.16-.09,8.32,0,12.5-.11h.83v.84l.11,20.89v.94h-.94l-24.71-.13c-8.26,0-16.49-.21-24.72-.3h-.53v-.51c0-3.54.17-7.07.25-10.56Zm0,0,.26,10.55c0,3.47.2,6.93.24,10.34l-.5-.52c8.23-.09,16.46-.28,24.72-.3l24.71-.11-.93.93V615.55l.84.82c-4.09,0-8.14,0-12.23-.09l-12.28-.2Z"/><path class="cls-1" d="M739,641.88l24.51-.53,12.44-.22h13.33V642l.09,20.89v.94h-1l-24.72-.12c-8.23,0-16.46-.2-24.71-.3h-.51v-.5c0-3.55.17-7.08.24-10.57Zm0,0,.28,10.55c0,3.47.21,6.9.24,10.34l-.52-.52c8.25,0,16.49-.3,24.72-.3l24.72-.12-.92.94.1-20.89.82.82c-4.07,0-8.12,0-12.21-.1l-12.29-.22Z"/><path class="cls-1" d="M592.28,307.54l-24.49.52-12.44.23c-4.16,0-8.34,0-12.51.09H542v-.84l-.15-20.89v-.88h.94l24.71.11c8.24,0,16.49.21,24.72.3h.53v.49c0,3.54-.15,7.07-.25,10.56Zm0,0L592,297c-.09-3.47-.21-6.91-.24-10.34l.5.52c-8.23.09-16.49.3-24.72.3l-24.72.11.94-.93v20.89l-.84-.82c4.07,0,8.14,0,12.22.09l12.29.22Z"/><path class="cls-1" d="M232.23,454.26l-24.51.51-12.43.22c-4.15,0-8.33,0-12.49.1H182V432.42h.95l24.72.11c8.23,0,16.46.21,24.72.3h.5v.51c0,3.52-.17,7.05-.24,10.54Zm0,0L232,443.7c0-3.48-.22-6.91-.26-10.33l.52.51c-8.25,0-16.48.3-24.72.3l-24.71.11.93-.92-.11,20.88-.82-.83H195l12.28.23Z"/><path class="cls-1" d="M564.72,333.88l-24.51.52-12.43.23c-4.15,0-8.33,0-12.49.09h-.83v-.84L514.37,313v-.93h.93l24.72.11c8.24,0,16.49.2,24.72.3h.51v.5c0,3.55-.15,7.08-.25,10.57Zm0,0-.26-10.55c-.09-3.47-.22-6.9-.24-10.34l.5.52c-8.23,0-16.48.3-24.72.3l-24.71.11.93-.93-.11,20.89-.82-.82H527.5l12.28.22Z"/><polygon class="cls-1" points="567.54 187.79 726.48 158.5 705.59 54.1 546.67 83.39 567.54 187.79"/><polygon class="cls-2" points="572.86 180.08 718.58 153.21 700.28 61.81 554.57 88.69 572.86 180.08"/><path class="cls-3" d="M573.48,114.74a16.27,16.27,0,0,0,18.95,12.65,15.74,15.74,0,0,0,12.81-18.2l-.06-.3a16.29,16.29,0,0,0-18.95-12.66,15.75,15.75,0,0,0-12.81,18.21Z"/><polygon class="cls-1" points="618.14 171.87 718.51 153.36 655.03 95.79 618.14 171.87"/><polygon class="cls-3" points="578.78 179.16 661.66 163.87 611.57 127.99 578.78 179.16"/><polygon class="cls-1" points="641.16 284.01 763.41 298.63 771.83 217.96 649.58 203.34 641.16 284.01"/><polygon class="cls-2" points="646.78 279.59 758.87 293 766.23 222.37 654.13 208.96 646.78 279.59"/><path class="cls-3" d="M662,232.21a12.39,12.39,0,0,0,10.92,13.48,12,12,0,0,0,13.45-10.32,1.13,1.13,0,0,0,0-.25,12.42,12.42,0,0,0-10.94-13.5A12,12,0,0,0,662,232Z"/><polygon class="cls-1" points="681.56 283.87 758.78 293.11 725.62 236.85 681.56 283.87"/><polygon class="cls-3" points="651.29 280.28 715.03 287.9 686.71 250.47 651.29 280.28"/><g id="freepik--xsrjP0--inject-2"><path class="cls-4" d="M80.86,558.35c-1.87-.73-3.74-2-6-1.31-.86.26-.83-.5-.92-1-1.77-8.64-3.51-17.27-5.28-25.91-.11-.62-.19-1.14.43-1.63,5.92-4.66,7.46-11.8,10.36-18.2a26.36,26.36,0,0,0,.82-20.54,2.6,2.6,0,0,1,1.13-3.51A2.63,2.63,0,0,1,82,486a4.4,4.4,0,0,1,5.24.54,34.93,34.93,0,0,1,6.07,10.57c1,3.19.52,6.63.77,10,.18,2.43.11,4.89.15,7.47a2.49,2.49,0,0,0,1.86-.17Q107,512.21,118,510c3.08-.61,4.76,0,5.6,1.87a6,6,0,0,1-1.86,7c-.49.38-1.52.34-1.42,1.2s1.12.6,1.7.84c3,1.27,3.26,5.11.65,7.9-.63.65-2.11.71-1.87,1.86s1.5.6,2.23,1.07c2.55,1.68,2.29,5.82-.58,8.06a8.55,8.55,0,0,0-1.18.77c-.32.32-.62.65.19,1,3.62,1.62,4.18,4.78,1.47,7.71-.26.3-.54.58-.82.87a6.27,6.27,0,0,1-3.73,1.63L84,558.7A4.08,4.08,0,0,1,80.86,558.35Z"/><path class="cls-4" d="M45.26,549.65c-1.12-5.49-2.21-11-3.37-16.47-.22-1.1-.22-1.68,1.14-1.87q10.08-1.86,20.09-4.07c1.31-.28,1.61.13,1.87,1.31q3.3,16.58,6.72,33.14c.3,1.4,0,1.87-1.42,2.13-6.51,1.25-13.07,2.54-19.47,4-1.61.35-2-.17-2.22-1.59C47.51,560.63,46.36,555.14,45.26,549.65Z"/></g><g id="freepik--xsrjp0--inject-2-2" data-name="freepik--xsrjp0--inject-2"><path class="cls-4" d="M322,115.37c-1.23-1.14-2.2-2.61-4.09-2.78-.71,0-.45-.64-.37-1q1.86-10.47,3.88-20.91c.09-.5.19-.91.8-1.08,5.83-1.7,9.11-6.56,13.22-10.46a21.18,21.18,0,0,0,6.8-15.08c0-1.61.93-2.17,2.41-2.22a3.56,3.56,0,0,1,3.73,2,28.79,28.79,0,0,1,1.32,9.71,33,33,0,0,1-2.42,7.64c-.6,1.87-1.4,3.73-2.13,5.6.41.43,1,.35,1.47.45l17.67,3.3c2.48.47,3.56,1.4,3.6,3.12a4.82,4.82,0,0,1-3.51,4.63c-.49.13-1.25-.22-1.44.47s.66.76,1,1.12c1.87,1.86.9,4.8-1.87,6.08-.67.32-1.86,0-2,.77s.94.88,1.33,1.46c1.4,2,0,5-2.84,5.84a8.47,8.47,0,0,0-1.12.2c-.32.15-.65.32-.17.83,2.23,2.29,1.68,4.81-1.21,6.18l-.9.28a5.17,5.17,0,0,1-3.23.11l-27.68-5.17A3.34,3.34,0,0,1,322,115.37Z"/><path class="cls-4" d="M298,98.18c.82-4.43,1.66-8.85,2.46-13.28.15-.89.34-1.32,1.44-1.1q8.06,1.59,16.18,3c1.07.19,1.16.58,1,1.52-1.69,8.9-3.37,17.81-5,26.73-.21,1.12-.58,1.38-1.72,1.16-5.23-1-10.45-2-15.7-2.91-1.31-.23-1.4-.71-1.18-1.87C296.42,107,297.3,102.62,298,98.18Z"/></g><g id="freepik--xsrjp0--inject-2-3" data-name="freepik--xsrjp0--inject-2"><path class="cls-4" d="M111.09,398.72c1.23-1.14,2.2-2.61,4.08-2.78.71,0,.45-.64.4-1q-2-10.46-3.91-20.89a1,1,0,0,0-.8-1.1c-5.82-1.68-9.11-6.53-13.22-10.44a21.16,21.16,0,0,1-6.79-15.1c0-1.61-.94-2.18-2.41-2.24a3.61,3.61,0,0,0-3.74,2,29.15,29.15,0,0,0-1.32,9.69,33.09,33.09,0,0,0,2.43,7.65c.59,1.87,1.4,3.74,2.12,5.6-.41.43-1,.36-1.47.45l-17.66,3.3c-2.48.47-3.57,1.4-3.61,3.12a4.79,4.79,0,0,0,3.51,4.61c.49.15,1.26-.2,1.44.49s-.65.76-1,1.12c-1.86,1.87-.89,4.8,1.87,6.09.67.29,1.87,0,2,.76s-.93.88-1.33,1.46c-1.4,2,0,5,2.86,5.84a6.89,6.89,0,0,1,1.1.21c.34.15.66.3.17.82-2.22,2.29-1.68,4.81,1.23,6.18l.86.41a5,5,0,0,0,3.23.09q13.83-2.55,27.69-5.15A3.42,3.42,0,0,0,111.09,398.72Z"/><path class="cls-4" d="M135,381.53c-.82-4.43-1.66-8.85-2.47-13.28-.15-.89-.33-1.32-1.43-1.1q-8.07,1.59-16.19,3c-1.06.18-1.16.57-1,1.51,1.68,8.9,3.36,17.81,5,26.71.2,1.14.57,1.4,1.71,1.18q7.84-1.57,15.7-2.91c1.31-.23,1.4-.73,1.18-1.87C136.74,390.32,135.86,386,135,381.53Z"/></g></g><g id="freepik--Floor--inject-2"><polygon class="cls-5" points="44.77 832.81 139.16 832.36 233.58 832.2 422.38 831.88 611.19 832.2 705.61 832.35 800 832.81 705.61 833.26 611.19 833.43 422.38 833.75 233.58 833.43 139.16 833.26 44.77 832.81"/></g><g id="freepik--character-1--inject-2"><path class="cls-6" d="M69,831.32c4,1.36,118.47,1.62,122.84-1.14,1.68-1,2.69-17.7,3.33-37.9,0-.2,1-74.68,1-74.68l-75.59-.82.75,73.8v1.27s-43.88,19.49-48.36,23S65,830,69,831.32Z"/><path class="cls-7" d="M102.12,799.32a1.07,1.07,0,0,0,.45-.23Z"/><path class="cls-5" d="M194.61,804.79c-.63,14.17-1.55,24.57-2.85,25.37-4.37,2.76-118.85,2.5-122.85,1.14s-.45-12.83,4-16.35c2.83-2.24,21.41-10.87,34.68-16.9-11.2,6-24.9,12.06-16,13.61S160.24,813,194.61,804.79Z"/><path class="cls-5" d="M235.93,385.88s-39.82,200-42.62,214.7c-.47,2.37,10,82.54,10.56,127.2a54.43,54.43,0,0,1-8.4,30.5l-78.93,3.57s-8.67-11.69-8.85-23.71c-.6-38.63,7-118.56,9.71-141,3.56-29.52,48.67-211.27,48.67-211.27Z"/><path class="cls-8" d="M191.25,743.7c-12.58.17-9,0-21.56.24-6.16.15-46.67,1.18-52.37,2.32-.13,0-.13.24,0,.26,5.79.77,46.26-1,52.41-1.23,12.58-.56,9-.54,21.54-1.23a.2.2,0,0,0,.23-.14.17.17,0,0,0-.13-.22Z"/><path class="cls-8" d="M183,601.29c.9-11,3.4-21.92,5.47-32.75s4.22-22.22,6.33-33.34c4.18-22,8.27-44,12.49-66,4.78-24.85,11.58-49.16,16.6-73.95.13-.58,1-.32.88.26-7.81,44.12-18.17,87.56-26.5,131.58l-6.32,33.33c-2.06,10.83-4.35,21.66-6.13,32.54A90.45,90.45,0,0,0,184.59,610c.15,5.4.71,10.78,1.19,16.14q1.58,16.91,3.06,33.81,1.64,18.66,3.22,37.21c1.06,12.6,2.24,25.22,2.87,37.86a.15.15,0,1,1-.3,0c-2.95-22.24-4.7-44.68-6.83-67q-1.59-16.9-3.14-33.83C183.67,623.28,182.11,612.19,183,601.29Z"/><path class="cls-8" d="M174.39,385.88,199.26,570.3c11.84-59.75,36.67-184.42,36.67-184.42Z"/><path class="cls-6" d="M200.42,836.3c4.11,1,118.07-10.13,122.14-13.33,1.55-1.17.91-17.86-.45-38v-.63c-.28-4.15-.58-8.42-.93-12.75a9.4,9.4,0,0,0-.13-1.87l-6.95-59.48-76.25,7.2,8.87,58.83.17,2.41,1.49,12.1.15,1.25s-41.63,23.66-45.74,27.73S196.31,835.37,200.42,836.3Z"/><path class="cls-7" d="M230.24,801.17a1,1,0,0,0,.43-.26Z"/><path class="cls-5" d="M322.56,823c-4.07,3.2-118,14.29-122.14,13.33s-1.7-12.71,2.37-16.67c2.65-2.57,21-13.4,33.61-20.74-10,7.88-22.2,16.17-13.26,16.13s66.6-10.66,99.25-24.51C323.57,808.09,324,821.91,322.56,823Z"/><path class="cls-5" d="M245.36,768.81l76.69-8.51s7.47-20.15,2.86-39.21c-9.71-40.36-37.34-102.42-39.21-109.51-3-10.85-9.7-98.24-16.2-152.26,0,0,12.34-29.25-10.76-73.42H166s6.2,42,16.81,68.68c0,0-2-1.49,10.53,5.4,0,0,7.67,137.24,13.27,163.23,4.63,21.43,12.7,90.19,22.27,124.94C232.29,760.36,245.36,768.81,245.36,768.81Z"/><path class="cls-8" d="M316.88,743.42c-12.54,1.16-9,.66-21.49,1.87-6.12.65-46.39,4.87-52,6.48-.13,0-.09.24,0,.24,5.84.3,46-4.63,52.14-5.38,12.51-1.55,8.91-1.25,21.38-2.93a.19.19,0,0,0,.26,0,.18.18,0,0,0,0-.26A.2.2,0,0,0,316.88,743.42Z"/><path class="cls-8" d="M179.32,452.68a153.81,153.81,0,0,1,24.11,11.2.27.27,0,0,1,.13.35.26.26,0,0,1-.36.13c-8.12-3.47-16.41-6.81-24.27-10.75a.54.54,0,0,1,0-.76A.51.51,0,0,1,179.32,452.68Z"/><path class="cls-8" d="M176.73,396.93c0-.28.52-.34.52,0a267.52,267.52,0,0,0,1.36,27.15c.38,4.18,3.74,27.31,11,25.63,1.21-.28,1.87-1.48,2-3.32a29.17,29.17,0,0,0-1-7.08c-.8-4.85-1.45-9.71-1.86-14.6a130.23,130.23,0,0,1,.3-27.35.25.25,0,0,1,.3-.17.23.23,0,0,1,.16.17,249.76,249.76,0,0,0,2.21,37.77c.91,6,3.94,15.06-2.36,16s-10.54-14.23-11.33-18.37A138.74,138.74,0,0,1,176.73,396.93Z"/><path class="cls-8" d="M189.4,450.29a36.73,36.73,0,0,1,1.65,4.8,10.52,10.52,0,0,1,.67,3.93c0,.27-.35.28-.5.12a13.61,13.61,0,0,1-1.68-3.85c-.56-1.47-1.14-3-1.65-4.44a.82.82,0,0,1,.48-1,.8.8,0,0,1,1,.48Z"/><path class="cls-8" d="M252.62,390.32a77.76,77.76,0,0,1,10.18,28,86.51,86.51,0,0,1-1,30.06A66.89,66.89,0,0,0,260.48,466c.43,6,1.23,12,1.87,18.05q2,17.69,3.94,35.32c2.59,23.47,5,47,8.06,70.39a289.75,289.75,0,0,0,6.46,34.07c2.84,11.09,6.22,22,9.62,32.95,7,22.52,14,45.05,20.74,67.66.84,2.84,1.66,5.6,2.46,8.5a.18.18,0,0,1-.14.23.19.19,0,0,1-.23-.14h0c-7.6-22.22-14.32-44.81-21.36-67.21-6.89-21.9-13.87-43.74-17.45-66.46-1.87-11.58-3.07-23.23-4.39-34.86s-2.67-23.54-4-35.32-2.67-23.32-3.95-35c-.64-5.88-1.29-11.78-1.87-17.66a123.71,123.71,0,0,1-1.22-17,130.22,130.22,0,0,1,2.45-16.68,78,78,0,0,0,.9-15.42,80.64,80.64,0,0,0-7.19-30c-1.07-2.32-1.66-4.73-2.91-6.93C251.87,390.06,252.25,389.69,252.62,390.32Z"/><path class="cls-8" d="M225.29,394.24c1.47,3.92,3.17,7.77,5,11.56a29.33,29.33,0,0,0,6.16,9.33,23.33,23.33,0,0,0,9.34,4.74,48.29,48.29,0,0,0,6.07,1.33,43.08,43.08,0,0,1,6.16,1.14.42.42,0,0,1,.27.51.41.41,0,0,1-.27.27,27.76,27.76,0,0,1-6.63.19,41.08,41.08,0,0,1-6.35-.86,23.11,23.11,0,0,1-10.27-5.25A27.39,27.39,0,0,1,228.48,407a69.24,69.24,0,0,1-3.73-12.64.28.28,0,0,1,.28-.27A.27.27,0,0,1,225.29,394.24Z"/><path class="cls-5" d="M156.55,325.22l6.66.45a18.43,18.43,0,0,1,1.87-5c3.4-6.05,9.33-10.53,14.08-15.18h0A61.41,61.41,0,0,0,167.51,322a16.38,16.38,0,0,0-1.26,3.87l4.17.28A24.93,24.93,0,0,1,175,315.23c0-.09.22,0,.15.17a24.12,24.12,0,0,0-3.27,10.81L208,328.56a61.33,61.33,0,0,0,2.09-9.75c0-.37.58-.28.52.12a83.88,83.88,0,0,1-1.68,9.69l3,.18a66.17,66.17,0,0,0,1.21-17,.13.13,0,0,1,.13-.13.13.13,0,0,1,.13.13h0a78.84,78.84,0,0,1,0,17.1l25,1.65a70.58,70.58,0,0,1-2.31-11.43c0-.32.41-.37.47,0a52.29,52.29,0,0,0,3.3,11.56l3.73.24a58.51,58.51,0,0,1-3.39-20.22.24.24,0,0,1,.46,0c.13,7.47,3.1,13.95,6,20.41l9.34.61c-2.65-6-7.75-11.78-7.84-18.67,0-7.61,7.2-10.45,9.95-16.56,4.61-10.25.09-18.67-5.88-26.64-5.47-7.37-4-14.93-4.62-23.67a55.3,55.3,0,0,0-4.21-19.4,29.4,29.4,0,0,0-26.95-17.33,23,23,0,0,0-12.32,2.32h0a4.77,4.77,0,0,0-.76.43,30.45,30.45,0,0,0-10.78,10.38h0a46.5,46.5,0,0,0-2.48,4.27,83.22,83.22,0,0,0-3.34,10.8,1,1,0,0,1,0,.24,32.33,32.33,0,0,1-14.49,18.67c-10.81,6.78-9.44,19.51-2.78,32.91,2.8,5.6,2.56,9.08.88,11.84h0c-.24.37-.47.69-.73,1.05-2.3,3-6.12,5.43-9,9.55A25.7,25.7,0,0,0,156.55,325.22Z"/><path class="cls-5" d="M232.16,213.65a32.23,32.23,0,0,1,13.53,20.53c1.35,6.73.77,13.82,2.8,20.39,1.87,6.22,6,11.2,9,16.8,4.07,7.32,6.2,16,1.35,23.27-3,4.52-9.06,8.66-9.47,14.8-.47,7.17,5,14.75,7.6,21,.13.31-.32.57-.47.28-3.73-7.17-10.68-16.81-7-25.26,1.68-3.87,4.69-6.63,7.19-9.81,4.85-6.16,4.8-13.34,1.53-20.53-4.42-9.8-11-16.54-12.13-27.9-.68-6.47-.53-13.06-3.07-19.15a32.4,32.4,0,0,0-11.11-14C231.73,213.89,232,213.5,232.16,213.65Z"/><path class="cls-5" d="M163.75,310.51c3.16-3.46,6.84-5.85,6-11.69-.56-4.05-2.89-7.73-4.37-11.45-3.73-9.33-5-20.53.64-29,3.21-4.78,7.8-5.6,12-8.81,5.07-4,7.57-10.72,9.8-16.92,3.34-9.33,7.46-19.88,17.6-21m0,.17c-13.07,2.2-14.93,18.35-19.9,29.1a25.6,25.6,0,0,1-6.94,9.52c-4.84,3.74-10.27,4.65-13.32,11A29.34,29.34,0,0,0,164.11,281c1.38,5.6,4.57,10.55,5.86,16.15a11.4,11.4,0,0,1-1.31,9.46c-1.53,2.17-3.86,3.48-5.47,5.61a18.34,18.34,0,0,0-3.6,9.83c0,.38-.56.27-.52-.11a18.39,18.39,0,0,1,4.68-11.42Z"/><path class="cls-6" d="M193.89,313.77c-17.72,37.9-43.11,76.79-58.85,77.63-2.73.15-13.71-1.14-18.19-11.35-7.46-17.23-14.74-51.6-15.79-68-.47-7.25,48.24-14.7,49.75-7.06,2.1,10.68,3.25,22.16,4.39,22,1.87-.23,6.48-5.08,25.3-25.06C204,277.18,200.48,299.72,193.89,313.77Z"/><path class="cls-6" d="M93.93,292.58c1.25,10.22,12,30.06,16.43,33.85s38.79-13.35,40-19.21-5.75-39.9-13.28-47.21S92.62,282,93.93,292.58Z"/><path class="cls-6" d="M150.16,301.21a85.8,85.8,0,0,1,9.75-22.8c5.49-8.25,14.54-19.9,10.21-23-8.89-6.38-31.52,22.67-31.52,22.67s-7.89,14.41.36,21.51A10.79,10.79,0,0,0,150.16,301.21Z"/><polygon class="cls-7" points="121.97 292.68 109.42 286.03 128.67 249.64 144.58 258.06 121.97 292.68"/><polygon class="cls-7" points="144.58 258.06 135.95 271.26 121.97 292.68 109.41 286.03 128.67 249.64 144.58 258.06"/><polygon class="cls-9" points="144.58 258.06 135.95 271.26 121.33 263.51 128.67 249.64 144.58 258.06"/><rect class="cls-7" x="128.82" y="240.27" width="17.01" height="22.39" transform="translate(-149.17 255.16) rotate(-62.1)"/><polygon class="cls-7" points="167.32 250.71 151.15 244.12 164.01 219.81 178.58 229.48 167.32 250.71"/><polygon class="cls-7" points="158.66 210.81 139.67 246.68 112.24 236.13 40.63 226.44 86.25 140.26 134.52 194.06 158.66 210.81"/><ellipse class="cls-7" cx="62.04" cy="182.62" rx="48.99" ry="15.76" transform="translate(-128.38 152) rotate(-62.1)"/><path class="cls-10" d="M73.11,187.53c-11.2,21.23-25.45,35.73-31.74,32.39s-2.29-23.24,9-44.47,25.45-35.73,31.74-32.39S84.35,166.28,73.11,187.53Z"/><path class="cls-7" d="M71.26,186.54c-1.49,2.82-3.06,5.6-4.63,8.08a9.7,9.7,0,0,1-10.47-14.09l2.16-4.07a9.74,9.74,0,0,1,17.52.67C74.47,180.21,72.94,183.37,71.26,186.54Z"/><polygon class="cls-7" points="152.51 256.03 121.22 243.28 146.13 196.25 174.26 214.96 152.51 256.03"/><polygon class="cls-10" points="152.51 256.03 121.22 243.28 146.13 196.25 174.26 214.96 152.51 256.03"/><path class="cls-10" d="M87.17,148.3a30.58,30.58,0,0,1,0,11A68.34,68.34,0,0,1,84.65,170c-.52,1.75-1.2,3.47-1.87,5.21s-1.36,3.41-2.11,5.07-1.49,3.36-2.31,5-1.65,3.3-2.5,4.91a121.13,121.13,0,0,1-12,18.48,62.77,62.77,0,0,1-7.56,8,26,26,0,0,1-9.45,5.6,26.64,26.64,0,0,0,9.11-5.9,62.49,62.49,0,0,0,7.32-8.1A128.43,128.43,0,0,0,75,189.83a131.66,131.66,0,0,0,8.9-20,67.49,67.49,0,0,0,2.8-10.55A31.78,31.78,0,0,0,87.17,148.3Z"/><path class="cls-5" d="M56.46,129.6c1.42,2.13,2.7,4.29,4,6.48s2.52,4.4,3.74,6.62,2.35,4.46,3.47,6.78l1.66,3.44c.52,1.15,1.08,2.29,1.57,3.47-.73-1-1.38-2.15-2.07-3.21L67,149.91c-1.31-2.18-2.52-4.41-3.73-6.63s-2.39-4.46-3.51-6.74S57.39,132,56.46,129.6Z"/><path class="cls-5" d="M47.12,204.56c-2.85-.17-5.71-.45-8.55-.77s-5.6-.69-8.51-1.06-5.6-.84-8.48-1.35l-4.33-.74c-1.4-.3-2.82-.56-4.2-.9,1.42,0,2.86.22,4.28.34l4.27.42c2.84.3,5.6.7,8.51,1.09s5.61.82,8.46,1.32S44.25,203.92,47.12,204.56Z"/><path class="cls-5" d="M0,178.88c4.09,1,8.16,2.08,12.21,3.18s8.08,2.3,12.12,3.49,8,2.43,12,3.73l6,2c2,.7,4,1.35,6,2.08-2.06-.49-4.07-1-6.13-1.53l-6.08-1.67c-4-1.1-8.09-2.29-12.12-3.47s-8-2.44-12-3.73S4,180.3,0,178.88Z"/><path class="cls-5" d="M33.81,123.17c2.71,3.31,5.32,6.69,7.9,10.07s5.13,6.81,7.67,10.23,5,6.91,7.47,10.4l3.64,5.26c1.18,1.87,2.39,3.53,3.55,5.32-1.37-1.64-2.67-3.32-4-5l-3.9-5.08c-2.59-3.38-5.13-6.8-7.65-10.23s-5-6.91-7.47-10.4S36.13,126.76,33.81,123.17Z"/><path class="cls-5" d="M54.91,178.4c-4.45-2.13-8.81-4.39-13.18-6.65s-8.7-4.63-13.07-6.92-8.63-4.75-12.92-7.17l-6.41-3.74c-2.1-1.25-4.25-2.48-6.34-3.73,2.22,1.06,4.4,2.18,6.61,3.27L16.19,157c4.37,2.26,8.7,4.61,13.07,6.92S37.9,168.6,42.18,171,50.69,175.84,54.91,178.4Z"/><path class="cls-6" d="M146.35,273.58c-2.22,5-6.81-.51-6.81-.51s4.7,9.47.43,13.71-9.34-2.73-9.82-3.21c.24.5,4.35,9.33-.4,13.07s-9.07-3.74-9.33-4.3c0,.56,1,7.81-3.21,9.9-7.32,3.56-10.29-14.94-15.78-18.54,0,0-7.22,8.6-7.47,8.81S90.77,275,96.09,267.85A5.6,5.6,0,0,1,103,266s-1.64-5.6,2-8.66c1.87-1.61,6.09,0,6.09,0a7.09,7.09,0,0,1,2.24-7c2.71-2.08,6.52-.17,6.52-.17s.91-4.82,4.36-6C131.14,241.62,151.11,262.94,146.35,273.58Z"/><path class="cls-5" d="M120.44,250.3v-.13a50.35,50.35,0,0,1,19.28,23.17c.14.29-.31.61-.5.31A104,104,0,0,0,120.44,250.3Z"/><path class="cls-5" d="M110.94,257.19s0-.21.15-.15a47.37,47.37,0,0,1,19.47,26.58c.11.39-.19.82-.34.39C127.76,276.71,118.07,263.5,110.94,257.19Z"/><path class="cls-5" d="M120.35,293.24c-3.16-10.63-9.34-19.18-17-27-.11-.11,0-.24.15-.16,4.8,2.81,9.17,8.34,12.19,12.91a29,29,0,0,1,5.06,14.29A.18.18,0,0,1,120.35,293.24Z"/><path class="cls-5" d="M139.72,273.13c.15.37-.54.17-.41.54.53,1.55,3,11.2,0,13.07-2.42,1.49-6.1-.75-7.17-2.17l-2.7-3.56,1.29,4.29a18.24,18.24,0,0,1,.84,5.86,6.52,6.52,0,0,1-2,4.95,3.73,3.73,0,0,1-4.69.34,11.32,11.32,0,0,1-3.6-4.37l-2.39-4.72.73,5.22a17.75,17.75,0,0,1,0,4.37,7,7,0,0,1-1.49,3.74,3.33,3.33,0,0,1-3.38,1.06,7.31,7.31,0,0,1-3.23-2.61,57.07,57.07,0,0,1-4.76-7.84c-.75-1.35-1.5-2.73-2.3-4.06a11.31,11.31,0,0,0-3-3.52,11.94,11.94,0,0,1,2.64,3.73c.69,1.36,1.32,2.78,2,4.18a50.54,50.54,0,0,0,4.43,8.27,8.76,8.76,0,0,0,3.73,3.25,4.74,4.74,0,0,0,5-1.38,8.69,8.69,0,0,0,2-4.67,18.2,18.2,0,0,0,0-4.89l-1.68.5a13,13,0,0,0,4.2,5.21,5.67,5.67,0,0,0,3.55.94,6.21,6.21,0,0,0,3.31-1.48,8.26,8.26,0,0,0,2.55-6.25,19.82,19.82,0,0,0-1-6.44l-1.4.72c1.43,1.76,5.26,4.71,9.33,2.88C145.05,285.21,140.66,274.94,139.72,273.13Z"/><path class="cls-5" d="M139.54,273.07a10.87,10.87,0,0,0,2.89,1.68,2.53,2.53,0,0,0,2.54-.33,5,5,0,0,0,1.35-2.6c.26-1.06.48-2.2.67-3.38a8.51,8.51,0,0,1,.5,3.57,5.12,5.12,0,0,1-1.53,3.58,3.46,3.46,0,0,1-4,.25A5.91,5.91,0,0,1,139.54,273.07Z"/><path class="cls-11" d="M93.16,325.29l57.77-22.06s3.94,23,4.63,23.09,14.09-17.21,32.28-32.3,14.45,6.44,6.81,21.3-43.2,75.13-56.61,79.57-20.38-8.79-23.41-14.43C110.47,372.68,93.16,325.29,93.16,325.29Z"/><path class="cls-5" d="M111.83,374.17c1.18,2.86,2.15,5.06,2.8,6.27,3,5.6,10,18.92,23.41,14.45s49-64.72,56.61-79.57c5.83-11.33,9.34-26.56,2.67-26.45Z"/><path class="cls-5" d="M100.65,332.28c1.87-1,20-7.58,23.91-8.93l11.86-4c4.09-1.38,8.18-3,12.38-4a.15.15,0,0,1,.09.28c-3.9,1.87-8.1,3.14-12.15,4.61l-12,4.41c-4,1.44-22,7.47-24,7.95C100.56,332.59,100.54,332.44,100.65,332.28Z"/><path class="cls-5" d="M155.54,326.6c.39,3.12.6,6.25.76,9.34s.21,6.27.19,9.33-.11,6.27-.37,9.33a83.64,83.64,0,0,1-1.18,9.34c0-1.57.11-3.14.11-4.71V331.17A28.94,28.94,0,0,0,155.54,326.6Z"/><path class="cls-1" d="M169,363.27l-4.43,28.54L262.24,393s-6.59-70.12-30.12-98.15c-11.76-14-26.36-13.68-36.05-4.7-2.46,2.26-27.74,32.71-31.35,46.67C161.59,349.25,169,363.27,169,363.27Z"/><path class="cls-5" d="M206.49,361.74a113.53,113.53,0,0,0-17.1-.3c-2.82.2-5.6.54-8.44.93-1.4.19-2.8.34-4.2.49a19.3,19.3,0,0,1-4.43,0c-.13,0-.15.16,0,.2a30.66,30.66,0,0,0,4.15.67,27.38,27.38,0,0,0,4.05,0c2.87-.16,5.73-.48,8.6-.69,5.79-.41,11.58-.82,17.39-.82C206.73,362.2,206.75,361.76,206.49,361.74Z"/><path class="cls-5" d="M219.41,369.19A125.21,125.21,0,0,0,205.65,366c-2.32-.39-4.65-.65-7-.86-1.13-.09-2.26-.16-3.38-.22s-2.49,0-3.74,0a.1.1,0,1,0,0,.19c1.16.11,2.3.43,3.46.61l3.47.52c2.31.38,4.63.77,7,1.11,4.65.69,9.34,1.4,13.89,2.26A.22.22,0,0,0,219.41,369.19Z"/><path class="cls-11" d="M217.82,284.74s-10.57,54.63-11,66-.19,75.48-.19,75.48l67.83-12.62S258,344.92,246.2,316.26,217.82,284.74,217.82,284.74Z"/><path class="cls-8" d="M216,322.49l4.17,13.22-13.48,52.87c0-16.16,0-32.56.22-37.8.41-11.2,10.66-64.36,11-66h0l6.57,31.74Z"/><path class="cls-11" d="M199.73,287.11s-22.74,44.46-23.3,54.67-8.36,84.55-8.36,84.55l-14.21-3.73L169,363.34s-7.13-12.34-5.08-24.08C166.42,325.18,193,289.32,199.73,287.11Z"/><path class="cls-8" d="M199.71,287.15C199,288.5,177,331.72,176.43,341.7c-.26,4.76-2.13,23.75-4,42.55l-.19-52.91,9.67-11.67-4.41-4.61Z"/><path class="cls-6" d="M236.62,307.93c10.14,39.21,12.6,84.33,5.6,92.71-7.75,9.21-49.83,34.15-73.71,40.57-6.29,1.7-16.5-48.8-9.84-50.89,12.81-4,48.43-17.27,52.52-22.63,3.74-5,2.62-26.14,7.62-54C222.62,292.3,231.49,288,236.62,307.93Z"/><path class="cls-6" d="M96.77,400.44a7.77,7.77,0,0,0,3.37,8.21,11.58,11.58,0,0,0-3.52,7c-.34,4.75,6.94,7.36,6.94,7.36a14.13,14.13,0,0,0-2.54,8c.13,4.58,7.12,8.25,7.12,8.25a12.41,12.41,0,0,0,2.18,8.42c4.85,6.37,17,5.23,24.77,4.6s29.11-9.71,33.37-11l-3.74-49.75s-35.45-7-44.51-4.87C112.63,388.23,98.3,394.58,96.77,400.44Z"/><path class="cls-5" d="M100.42,407.83c7.62-3.73,16-5.08,24.16-6.85.19,0,.25.24,0,.28-8.21,1.68-16,4.95-24.1,6.95a.22.22,0,0,1-.15-.25A.25.25,0,0,1,100.42,407.83Z"/><path class="cls-5" d="M103.67,422.34a21.67,21.67,0,0,1,5.6-1.33c2-.33,4.06-.63,6.09-.89q6.15-.83,12.29-1.29a.14.14,0,1,1,0,.28c-4.07.54-8.13,1.14-12.16,1.87l-6,1.1a26.61,26.61,0,0,1-5.75.84.3.3,0,0,1,0-.58Z"/><path class="cls-5" d="M108.3,439.2a15.3,15.3,0,0,1,5.14-.92l5.6-.65c3.73-.45,7.47-.9,11.2-1.48.19,0,.24.27,0,.28-3.73.62-7.47,1.27-11.2,1.87l-5.6.8a14,14,0,0,1-5.08.3.1.1,0,1,1-.06-.2Z"/><path class="cls-11" d="M162.35,387.86l21.4,54.74s58.12-26.72,63.48-44.81-1.11-62.13-7.9-88.59-16.69-20.31-21.77-.45-6,52.43-6.85,56.68S162.35,387.86,162.35,387.86Z"/><path class="cls-5" d="M185.28,409.72c1.66,4.12,8.23,20.72,9.54,24.94,0,0,0,.11-.11,0-2-3.85-9-20.09-10.66-24.27a255.69,255.69,0,0,1-9.34-25c0-.15.19-.26.26-.11C178.89,393.27,181.94,401.52,185.28,409.72Z"/><path class="cls-5" d="M218.49,423.93a130.2,130.2,0,0,0,23.1-18.41,32,32,0,0,0,4.37-5.86,17.58,17.58,0,0,0,1.86-7,116.83,116.83,0,0,0,.36-14.73c-.36-9.84-1.12-19.7-2.3-29.5s-2.54-19.58-4.27-29.31a277.66,277.66,0,0,1,5.45,29.16A269.76,269.76,0,0,1,249.48,378a105,105,0,0,1-.56,14.94,19.8,19.8,0,0,1-2.14,7.24,31.16,31.16,0,0,1-4.6,5.94,87.44,87.44,0,0,1-11.29,9.67C226.86,418.64,222.75,421.39,218.49,423.93Z"/><path class="cls-5" d="M245.66,327.72a24.9,24.9,0,0,1,0,5.32,25.66,25.66,0,0,1-.4,2.63,15.39,15.39,0,0,1-.72,2.6,41.08,41.08,0,0,1,.2-5.32A31.81,31.81,0,0,1,245.66,327.72Z"/><path class="cls-6" d="M216.08,289.65c-.59,1.87-10.43,12.85-18.76,11.67-2.72-.39-1.27-15.27-1.27-15.27l-.13-1.12-2-15.74,19.2-9.91,2.76-1.29s.26,4.33.54,9.74v1.65c0,.8.09,1.64.13,2.46s0,1.23,0,1.87v1.87A103.28,103.28,0,0,1,216.08,289.65Z"/><path class="cls-5" d="M216.4,267.73a31.71,31.71,0,0,1-20.54,17.2l-2-15.74L213,259.28,215.8,258S216.12,262.32,216.4,267.73Z"/><path class="cls-6" d="M178.88,237c-11.06,25.54,3,35,8.49,37.34,5,2.17,22.31,8.87,36-15.38s5.24-37.47-5.94-42.94S189.93,211.48,178.88,237Z"/><path class="cls-5" d="M223.44,261.13c-4.65-1.35-2.15-11.21-2.15-11.21s-9.2-3.41-7.3-17.77a21.63,21.63,0,0,0,0,12.45s-15.57-7.78-17.32-23.89c0,0,.13,7.91,1.77,11.33a20.25,20.25,0,0,1-7.35-11.2s-5.77,6.77-8.76,8.12c0,0,11.2-28.14,36.44-15.29,0,0,16.06,7.26,17.1,22.4S223.44,261.13,223.44,261.13Z"/><path class="cls-6" d="M218.42,259.26s8.51-6.33,11.55-3-5.26,13.8-10.19,14a4.72,4.72,0,0,1-5.17-4.23,1.1,1.1,0,0,1,0-.18Z"/><path class="cls-5" d="M227.51,259.18v.13c-3.51.23-6.07,2.54-8.2,5.12a2.61,2.61,0,0,1,3.67.22,2.13,2.13,0,0,1,.25.34s0,.19-.14.13a2.9,2.9,0,0,0-3.35,0,15.58,15.58,0,0,0-2.26,2c-.24.24-.69,0-.46-.35h0C218.29,262.66,223.18,258.18,227.51,259.18Z"/><path class="cls-5" d="M186.87,236.28c.67.11,1.28.11,2,.16a3.1,3.1,0,0,0,2-.2,1,1,0,0,0,.38-1.18,2.55,2.55,0,0,0-2.21-1.29,3.76,3.76,0,0,0-2.57.58,1.08,1.08,0,0,0-.21,1.52A1.07,1.07,0,0,0,186.87,236.28Z"/><path class="cls-5" d="M205.65,242.06c-.6-.28-1.12-.61-1.7-.95a3.15,3.15,0,0,1-1.57-1.31,1,1,0,0,1,.36-1.17,2.52,2.52,0,0,1,2.53.17,3.69,3.69,0,0,1,1.87,1.86,1.08,1.08,0,0,1-.54,1.43A1.06,1.06,0,0,1,205.65,242.06Z"/><path class="cls-5" d="M200.07,246.06s.11.13.09.2c-.67,1.87-1.14,4,.32,5.16v.11C198.5,250.56,199.13,247.66,200.07,246.06Z"/><path class="cls-5" d="M202.34,244.7c3,.76,1.29,6.75-1.51,6S199.8,244,202.34,244.7Z"/><path class="cls-5" d="M203.43,245.33c.41.5.76,1.25,1.36,1.49s1.46-.18,2.11-.65v.09c-.32,1.16-1.1,2.21-2.37,2s-1.68-1.42-1.65-2.65C203,245.41,203.24,245.14,203.43,245.33Z"/><path class="cls-5" d="M189.55,241.28s-.16,0-.18.13c-.47,1.87-1.31,3.94-3.16,4.09v.11C188.32,245.89,189.42,243.13,189.55,241.28Z"/><path class="cls-5" d="M188.43,238.87c-2.91-1.06-4.83,4.87-2.12,5.86S190.88,239.77,188.43,238.87Z"/><path class="cls-5" d="M187.15,238.87c-.56.17-1.22.58-1.78.43s-1-1-1.16-1.7h-.11c-.41,1.14-.41,2.43.62,3s1.87-.23,2.59-1.27C187.37,239.09,187.31,238.8,187.15,238.87Z"/><path class="cls-5" d="M193.81,260.3c-.56.32-1.16.83-1.87.71a4.84,4.84,0,0,1-1.86-.95m-.12,0a2.67,2.67,0,0,0,2.15,1.61,2.06,2.06,0,0,0,1.87-1.31.09.09,0,0,0-.09-.09.11.11,0,0,0-.08,0Z"/><path class="cls-5" d="M188.1,251.29s-1.23,2.65-1.63,3.94c0,.13.27.28.71.44h0a6.44,6.44,0,0,0,6.72-.48c.13-.11,0-.28-.15-.24a9.63,9.63,0,0,1-6.14-.1c0-.37,2.24-4.46,2-4.53a12,12,0,0,0-3.16-.23c2.37-5.6,5.6-10.73,7.9-16.33,0-.21-.21-.36-.32-.19a98.2,98.2,0,0,0-9.33,17.23C184.53,251.51,187.5,251.34,188.1,251.29Z"/><path class="cls-5" d="M187.44,255.23a8.07,8.07,0,0,0,2.11,3.36,3.57,3.57,0,0,0,1.87.85c1.59.17,2.13-1.15,2.28-2.38a8.36,8.36,0,0,0,0-2A10.22,10.22,0,0,1,187.44,255.23Z"/><path class="cls-12" d="M189.55,258.59a3.57,3.57,0,0,0,1.87.85c1.59.17,2.13-1.15,2.28-2.38A3.62,3.62,0,0,0,189.55,258.59Z"/></g><g id="freepik--Device--inject-2"><path class="cls-8" d="M575.79,138.93H269a31.35,31.35,0,0,0-31,31.63V802.18a31.36,31.36,0,0,0,31,31.62H575.79a31.37,31.37,0,0,0,31.07-31.62V170.56A31.37,31.37,0,0,0,575.79,138.93Zm11.65,643.72c0,16.63-12.45,30.07-27.81,30.07H285.18c-15.4,0-27.85-13.44-27.85-30.07V194.55c0-33.87,12.45-35.47,27.85-35.47h55c3.2,0,5.81,3.62,5.81,8.12v1.86c0,10.55,5.77,10.59,12.86,10.59h127c7.15,0,12.9,0,12.9-10.59V167.2c0-4.5,2.58-8.12,5.83-8.12h55c15.37,0,27.82,4.5,27.82,35.47Z"/><path class="cls-2" d="M587,194.79V783.34c0,16.63-12.47,30.09-27.84,30.09H284.44c-15.4,0-27.85-13.46-27.85-30.09V194.79c0-33.88,12.45-35.47,27.85-35.47h55c3.2,0,5.81,3.62,5.81,8.12v1.87c0,10.56,5.77,10.6,12.88,10.6H485.39c7.15,0,12.88,0,12.88-10.6v-1.87c0-4.5,2.57-8.12,5.82-8.12h55C574.48,159.26,587,163.76,587,194.79Z"/><path class="cls-1" d="M587.56,194.79V238.7H257.1V194.79c0-33.88,12.47-35.47,27.88-35.47h55c3.19,0,5.8,3.62,5.8,8.12v1.87c0,10.56,5.79,10.6,12.87,10.6H485.9c7.17,0,12.9,0,12.9-10.6v-1.87c0-4.5,2.58-8.12,5.83-8.12h55C575.1,159.26,587.56,163.76,587.56,194.79Z"/><polygon class="cls-2" points="290.65 217.27 280.89 208.12 290.65 198.99 292.16 200.6 284.12 208.12 292.16 215.66 290.65 217.27"/><path class="cls-2" d="M562,202.43a1.87,1.87,0,1,1-1.87-1.87A1.87,1.87,0,0,1,562,202.43Z"/><path class="cls-2" d="M562,209.22a1.87,1.87,0,1,1-1.87-1.86A1.87,1.87,0,0,1,562,209.22Z"/><path class="cls-2" d="M562,216.09a1.87,1.87,0,1,1-1.87-1.86A1.87,1.87,0,0,1,562,216.09Z"/><g id="freepik--u5Zjqx--inject-2"><path class="cls-2" d="M330.59,172.48c-.17.17-.36.34-.53.52l-.3.3a7.22,7.22,0,0,0-10.21,0l0,0a2.78,2.78,0,0,1-.29-.3l-.53-.52h0l.68-.6a9.35,9.35,0,0,1,1.56-1,8.19,8.19,0,0,1,2.06-.69l1-.13h1.61a8.64,8.64,0,0,1,1.87.45,7.84,7.84,0,0,1,1.28.6A7.45,7.45,0,0,1,330,172l.56.5Z"/><path class="cls-2" d="M321.19,175l-.84-.84a6.06,6.06,0,0,1,8.56,0l-.84.84a4.87,4.87,0,0,0-3.44-1.42A4.78,4.78,0,0,0,321.19,175Z"/><path class="cls-2" d="M327.17,175.8c-.28.28-.54.56-.84.84a2.42,2.42,0,0,0-1.76-.72,2.45,2.45,0,0,0-1.75.72l-.84-.82A3.74,3.74,0,0,1,327.17,175.8Z"/><path class="cls-2" d="M325.4,177.48a.77.77,0,0,1-.77.75.75.75,0,0,1-.75-.75.76.76,0,0,1,.75-.76A.79.79,0,0,1,325.4,177.48Z"/></g><path class="cls-2" d="M278.76,174.09a2.19,2.19,0,1,1,2.18,2.18h0A2.19,2.19,0,0,1,278.76,174.09Z"/><path class="cls-2" d="M285.65,174.09a2.19,2.19,0,1,1,2.18,2.18h0A2.19,2.19,0,0,1,285.65,174.09Z"/><path class="cls-2" d="M292.54,174.09a2.2,2.2,0,1,1,2.22,2.18h0A2.2,2.2,0,0,1,292.54,174.09Z"/><path class="cls-2" d="M299.44,174.09a2.19,2.19,0,1,1,2.19,2.18h0A2.19,2.19,0,0,1,299.44,174.09Z"/><path class="cls-2" d="M306.33,174.09a2.21,2.21,0,1,1,2.23,2.18h0A2.19,2.19,0,0,1,306.33,174.09Z"/><path class="cls-2" d="M562.8,178.87H545V170.6H562.8Zm-16.91-.94h16v-6.4h-16Z"/><rect class="cls-2" x="546.45" y="172.01" width="11.48" height="5.45"/><rect class="cls-2" x="562.8" y="172.52" width="1.59" height="4.42"/><polygon class="cls-1" points="307.4 777.46 304.9 777.46 304.9 789 300.21 789 300.21 783.11 291.88 783.11 291.88 789 287.2 789 287.2 777.46 284.68 777.46 296.05 765.71 307.4 777.46"/><rect class="cls-1" x="532.72" y="765.71" width="27.39" height="3.92"/><rect class="cls-1" x="532.72" y="775.4" width="27.39" height="3.92"/><rect class="cls-1" x="532.72" y="785.07" width="27.39" height="3.92"/><polygon class="cls-1" points="430.19 775.79 422.38 784.1 414.62 775.79 415.98 774.51 422.38 781.36 428.81 774.51 430.19 775.79"/><path class="cls-1" d="M422.39,792.69a14.15,14.15,0,1,1,14.15-14.15v0A14.15,14.15,0,0,1,422.39,792.69Zm0-26.42a12.29,12.29,0,1,0,12.28,12.29h0A12.28,12.28,0,0,0,422.39,766.27Z"/><path class="cls-3" d="M554.34,681a4.66,4.66,0,0,1-1.4.58,4.75,4.75,0,0,1-3.73-.58,4.88,4.88,0,0,1-2.15-3,4.82,4.82,0,1,1,7.23,3Z"/><path class="cls-2" d="M553.26,676.34a1.48,1.48,0,0,1-3,0,1.48,1.48,0,0,1,1.46-1.5h0A1.46,1.46,0,0,1,553.26,676.34Z"/><path class="cls-2" d="M554.34,680.39v.6a4.66,4.66,0,0,1-1.4.58,4.75,4.75,0,0,1-3.73-.58v-.6a2.54,2.54,0,1,1,5.08,0h.05Z"/><path class="cls-3" d="M306.45,319.77a17.9,17.9,0,1,1,5.81-5.82A17.92,17.92,0,0,1,306.45,319.77Z"/><path class="cls-2" d="M302.49,302.57a5.46,5.46,0,1,1-5.45-5.45h0A5.45,5.45,0,0,1,302.49,302.57Z"/><path class="cls-2" d="M306.45,317.51v2.26a17.92,17.92,0,0,1-18.8,0v-2.26a9.4,9.4,0,0,1,18.8,0Z"/><path d="M557.18,304.18a.9.9,0,0,1,.88.89.88.88,0,1,1-1.76,0A.9.9,0,0,1,557.18,304.18Z"/><path d="M559.89,304.18a.9.9,0,0,1,.88.89.88.88,0,1,1-1.76,0A.9.9,0,0,1,559.89,304.18Z"/><path d="M562.6,304.18a.91.91,0,0,1,.89.89.87.87,0,0,1-.89.86h0a.85.85,0,0,1-.86-.86A.89.89,0,0,1,562.6,304.18Z"/><polygon class="cls-13" points="279.15 340.85 314.81 340.45 350.45 340.21 421.77 340.02 493.07 340.21 528.73 340.43 564.39 340.85 528.73 341.26 493.07 341.48 421.77 341.67 350.45 341.48 314.81 341.26 279.15 340.85"/><path class="cls-13" d="M279.15,348.41c17.31-.34,34.6-.51,51.88-.64l51.89-.19,51.9.19,25.93.23,25.95.41-25.95.41-25.93.22-51.9.19L331,349C313.75,348.91,296.46,348.74,279.15,348.41Z"/><path class="cls-13" d="M279.15,356c11.56-.34,23.1-.51,34.65-.64s23.1-.13,34.65-.18,23.1,0,34.64.18l17.32.23c5.79.15,11.56.22,17.33.41-5.77.18-11.54.26-17.33.41l-17.32.22c-11.54.13-23.1.13-34.64.19s-23.11,0-34.65-.19S290.71,356.3,279.15,356Z"/><path class="cls-7" d="M279.15,371.09c20.29-.35,40.57-.5,60.86-.63l60.85-.21,60.86.19,30.42.24,30.43.41-30.43.39-30.42.25-60.86.18L340,371.65Q309.54,371.65,279.15,371.09Z"/><path class="cls-7" d="M279.15,378.63c13.57-.33,27.13-.48,40.68-.63l40.68-.19,40.68.19,20.35.24,20.34.39-20.34.41-20.35.23-40.68.2-40.68-.2C306.28,379.12,292.72,379,279.15,378.63Z"/><path class="cls-5" d="M328.79,304.55c5.29-.39,10.59-.58,15.87-.73s10.57-.18,15.87-.2,10.57,0,15.85.2l7.94.26c2.65.15,5.28.25,7.93.47-2.65.21-5.28.3-7.93.45l-7.94.26c-5.28.17-10.56.19-15.85.21s-10.58,0-15.87-.21S334.08,304.92,328.79,304.55Z"/><path class="cls-13" d="M328.79,317.51c5.29-.39,10.59-.56,15.87-.71s10.57-.21,15.87-.23,10.57,0,15.85.23l7.94.26c2.65.15,5.28.24,7.93.45-2.65.2-5.28.3-7.93.46l-7.94.27c-5.28.16-10.56.18-15.85.2s-10.58,0-15.87-.22S334.08,318,328.79,317.51Z"/><rect class="cls-1" x="298.94" y="720.42" width="265.11" height="12.77"/><path class="cls-3" d="M289.64,733a6.84,6.84,0,0,1-2.05.85,7.13,7.13,0,1,1,2.05-.85Z"/><path class="cls-2" d="M288.07,726.1a2.18,2.18,0,1,1-2.18-2.19,2.18,2.18,0,0,1,2.18,2.19Z"/><path class="cls-2" d="M289.64,732.09v.9a6.84,6.84,0,0,1-2.05.85,7.14,7.14,0,0,1-5.45-.85v-.9a3.74,3.74,0,0,1,7.47,0Z"/><path class="cls-14" d="M309.08,728h-2.32l-.46,1.21a.18.18,0,0,1-.17.11h0a.18.18,0,0,1-.11-.22l1.86-4.7a.19.19,0,0,1,.36,0l1.75,4.7a.16.16,0,0,1-.08.22h0a.18.18,0,0,1-.17-.11Zm-2.2-.36H309l-1-2.72Z"/><path class="cls-14" d="M313.56,728.65a1.68,1.68,0,0,1-1.36.69,1.86,1.86,0,0,1,0-3.56,1.65,1.65,0,0,1,1.36.71v-2a.19.19,0,0,1,.19-.17.17.17,0,0,1,.16.17v4.72a.19.19,0,0,1-.16.19.21.21,0,0,1-.19-.19Zm0-1v-.11a1.42,1.42,0,1,0,0,.11Z"/><path class="cls-14" d="M318.36,728.65a1.71,1.71,0,0,1-1.37.69,1.87,1.87,0,0,1-1.23-2.33,1.89,1.89,0,0,1,1.23-1.23,1.69,1.69,0,0,1,1.37.71v-2a.17.17,0,0,1,.16-.17h0a.17.17,0,0,1,.17.17v4.72a.19.19,0,0,1-.17.19.18.18,0,0,1-.18-.19h0Zm0-1v-.11a1.42,1.42,0,1,0,0,.11Z"/><path class="cls-14" d="M325.47,726v3.19a.18.18,0,0,1-.17.18.18.18,0,0,1-.18-.18v-.52a1.64,1.64,0,0,1-1.33.7,1.86,1.86,0,0,1,0-3.56,1.62,1.62,0,0,1,1.33.71V726a.18.18,0,0,1,.18-.19h0a.17.17,0,0,1,.17.17Zm-.35,1.58a1.39,1.39,0,0,0-1.33-1.42,1.44,1.44,0,1,0-.22,2.87,1.43,1.43,0,0,0,1.54-1.32S325.12,727.59,325.12,727.55Z"/><path class="cls-14" d="M328.91,727.55a1.86,1.86,0,0,1,3-1.38.17.17,0,0,1,0,.24h0a.17.17,0,0,1-.24,0h0a1.39,1.39,0,0,0-.92-.31,1.43,1.43,0,1,0-.32,2.85h.32a1.39,1.39,0,0,0,.92-.31.17.17,0,0,1,.24,0h0a.17.17,0,0,1,0,.23l0,0a1.89,1.89,0,0,1-3-1.35Z"/><path class="cls-14" d="M334.73,725.78A1.86,1.86,0,1,1,333.5,727,1.86,1.86,0,0,1,334.73,725.78Zm0,3.21a1.44,1.44,0,1,0-1.34-1.53v.09A1.39,1.39,0,0,0,334.73,729Z"/><path class="cls-14" d="M342.83,727.23a1.1,1.1,0,0,0-2.2,0v1.87h0l-.09.1h-.3v-1.87a1.1,1.1,0,0,0-2.19-.29,1.41,1.41,0,0,0,0,.29v1.87a.15.15,0,0,1,0,.13h-.11a.47.47,0,0,1-.15-.13V726a.17.17,0,0,1,.17-.17c.11,0,.19,0,.19.17v.43a1.37,1.37,0,0,1,1.08-.51,1.41,1.41,0,0,1,1.27.75,1.5,1.5,0,0,1,1.29-.75,1.43,1.43,0,0,1,1.44,1.4v1.91a.17.17,0,0,1-.17.16.16.16,0,0,1-.17-.16Z"/><path class="cls-14" d="M349.74,727.23a1.1,1.1,0,0,0-2.2,0v1.87h0v.1h-.26v-1.87a1.1,1.1,0,0,0-2.19-.29,1.41,1.41,0,0,0,0,.29v1.87a.17.17,0,0,1-.09.13h-.11a.32.32,0,0,1-.15-.13V726a.16.16,0,0,1,.17-.17c.11,0,.18,0,.18.17v.43a1.43,1.43,0,0,1,2.35.24,1.5,1.5,0,0,1,1.29-.75,1.42,1.42,0,0,1,1.44,1.4v1.91a.17.17,0,0,1-.17.16.17.17,0,0,1-.17-.16Z"/><path class="cls-14" d="M351.31,727.57a1.72,1.72,0,0,1,3.43-.13h0a.17.17,0,0,1-.16.17h-2.92A1.36,1.36,0,0,0,353,729h0a1.3,1.3,0,0,0,1.15-.65.2.2,0,0,1,.23,0,.19.19,0,0,1,0,.26,1.66,1.66,0,0,1-1.44.8A1.75,1.75,0,0,1,351.31,727.57Zm.37-.28h2.69a1.38,1.38,0,0,0-1.34-1.16,1.41,1.41,0,0,0-1.35,1.16Z"/><path class="cls-14" d="M358.53,727.23a1.1,1.1,0,1,0-2.2,0v2h-.24V726a.16.16,0,0,1,.17-.17h0a.16.16,0,0,1,.16.17v.43a1.4,1.4,0,0,1,1.1-.51,1.44,1.44,0,0,1,1.44,1.44v1.87a.17.17,0,0,1-.16.17.17.17,0,0,1-.17-.17h0Z"/><path class="cls-14" d="M361.67,726a.19.19,0,0,1-.17.16h-.45v2.6a.29.29,0,0,0,.27.26.2.2,0,0,1,.12.24.19.19,0,0,1-.12.11.62.62,0,0,1-.64-.59v-2.62h-.45c-.16,0-.16-.09-.16-.16s0-.19.16-.19h.54v-1.27a.23.23,0,0,1,.17-.17.21.21,0,0,1,.21.17v1.32h.45A.19.19,0,0,1,361.67,726Z"/><path class="cls-14" d="M363.63,728.62a.34.34,0,0,1,.36.31v0a.35.35,0,0,1-.34.37h0a.37.37,0,0,1-.37-.37h0a.35.35,0,0,1,.35-.35Z"/><path class="cls-14" d="M365.29,728.62a.36.36,0,0,1,.38.33v0a.37.37,0,0,1-.38.37h0a.35.35,0,0,1-.35-.35v0a.33.33,0,0,1,.31-.35Z"/><path class="cls-14" d="M367,728.62a.34.34,0,0,1,.36.31v0a.35.35,0,0,1-.34.37h0a.37.37,0,0,1-.37-.37h0a.35.35,0,0,1,.35-.35Z"/><rect class="cls-1" x="274.32" y="414.33" width="296.14" height="227.55"/><path class="cls-2" d="M312.55,469a19.86,19.86,0,1,0,23.37-15.59,19.6,19.6,0,0,0-7.78,0A19.86,19.86,0,0,0,312.55,469Z"/><polygon class="cls-2" points="356.43 593.86 570.46 593.86 463.44 492.67 356.43 593.86"/><polygon class="cls-3" points="274.31 593.95 451.02 593.95 362.66 528.07 274.31 593.95"/><rect class="cls-3" x="274.32" y="593.86" width="296.14" height="48.04"/><path class="cls-11" d="M279,676.47a6.43,6.43,0,1,1,0,.06Z"/><g id="freepik--xsrjp0--inject-2-4" data-name="freepik--xsrjp0--inject-2"><path class="cls-15" d="M284.77,677.72c-.19-.11-.34-.28-.58-.24s0,0,0-.11v-2.69a.14.14,0,0,1,0-.15,4.29,4.29,0,0,0,1.38-1.61,2.58,2.58,0,0,0,.49-2,.28.28,0,0,1,.21-.33h0a.45.45,0,0,1,.52.15,4.44,4.44,0,0,1,.4,1.18,4.9,4.9,0,0,1-.13,1,4.57,4.57,0,0,1-.14.72.31.31,0,0,0,.19,0h2.28c.32,0,.47.1.5.3a.59.59,0,0,1-.31.66s-.17,0-.17.09.09,0,.15.11.22.58-.1.8-.22,0-.22.14.13.09.2.14a.5.5,0,0,1-.08.71l-.14.08h-.13s0,0,0,.11a.44.44,0,0,1,.22.57.45.45,0,0,1-.22.21H289a.56.56,0,0,1-.39.1h-3.55A.4.4,0,0,1,284.77,677.72Z"/><path class="cls-15" d="M281.39,676.15v-1.69c0-.12,0-.17.15-.17h2.07c.13,0,.15,0,.15.17v3.41c0,.15,0,.19-.18.19h-2c-.17,0-.21,0-.21-.21C281.41,677.29,281.39,676.73,281.39,676.15Z"/></g><rect class="cls-1" x="279.06" y="694.53" width="284.99" height="0.47"/><rect class="cls-1" x="279.06" y="267.17" width="284.99" height="0.47"/><rect class="cls-1" x="279.06" y="712.24" width="284.99" height="0.47"/><rect class="cls-1" x="279.06" y="761.89" width="284.99" height="0.47"/><path class="cls-14" d="M349.42,706.53h0a.2.2,0,0,1-.2-.21v-5.41a.2.2,0,0,1,.2-.2.2.2,0,0,1,.21.2v5.21h2.78a.21.21,0,1,1,0,.41Z"/><path class="cls-14" d="M353.79,701.32a.2.2,0,0,1,.21-.2.2.2,0,0,1,.2.2v.21a.2.2,0,0,1-.2.2.2.2,0,0,1-.21-.2Zm0,1.35a.21.21,0,0,1,.21-.21.2.2,0,0,1,.2.21v3.73a.2.2,0,0,1-.2.2.2.2,0,0,1-.21-.2Z"/><path class="cls-14" d="M356.13,700.91a.19.19,0,0,1,.18-.19h0c.13,0,.23,0,.23.19v3.92l2.39-2.41a.24.24,0,0,1,.3,0,.21.21,0,0,1,0,.28l-1.57,1.57,1.57,1.87a.21.21,0,0,1,0,.29H359l-1.57-1.87-.82.82v.93a.21.21,0,0,1-.21.21h0a.22.22,0,0,1-.19-.21Z"/><path class="cls-14" d="M360.27,704.5a2,2,0,0,1,3.94-.15h0a.18.18,0,0,1-.19.18h-3.25a1.61,1.61,0,0,0,1.57,1.57,1.52,1.52,0,0,0,1.31-.75.21.21,0,0,1,.26,0,.24.24,0,0,1,0,.3,2,2,0,0,1-1.64.92,2,2,0,0,1-2-2Zm.43-.32h3.08a1.57,1.57,0,0,0-1.53-1.33,1.61,1.61,0,0,0-1.48,1.33Z"/><g id="freepik--xsrjp0--inject-2-5" data-name="freepik--xsrjp0--inject-2"><path class="cls-14" d="M331.69,707.46a.67.67,0,0,1-.47-.15l-.15-.09a.66.66,0,0,0-.39-.17.3.3,0,0,1-.26,0,.28.28,0,0,1,0-.28v-3.36a.38.38,0,0,1,.22-.39,3.55,3.55,0,0,0,1.25-1.36c.11-.17.23-.36.36-.53a3.07,3.07,0,0,0,.56-2.29.54.54,0,0,1,.39-.66h.07a.75.75,0,0,1,.88.31,4.37,4.37,0,0,1,.51,1.5,3.32,3.32,0,0,1,0,.89v1h2.7c.19,0,.75,0,.86.54a1,1,0,0,1-.41,1,.74.74,0,0,1,.22.52,1,1,0,0,1-.42.77h0a.76.76,0,0,1,.18.63.92.92,0,0,1-.45.66.68.68,0,0,1,.19.5.82.82,0,0,1-.39.67H337a.86.86,0,0,1-.6.15H332Zm-.88-.87a1.18,1.18,0,0,1,.54.26H336a.69.69,0,0,0,.35,0l.12-.1a.4.4,0,0,0,.2-.29.37.37,0,0,0-.19-.3.3.3,0,0,1-.15-.25.35.35,0,0,1,.15-.26h.15a.51.51,0,0,0,.32-.35.33.33,0,0,0,0-.24.35.35,0,0,1,0-.7.5.5,0,0,0,.28-.39.2.2,0,0,0-.13-.2.33.33,0,0,1-.33-.34.34.34,0,0,1,.33-.34.48.48,0,0,0,.3-.52c0-.09,0-.18-.41-.18h-2.77a.59.59,0,0,1-.37,0l-.11-.1v-.43l.11-.59a3.08,3.08,0,0,1,0-.43,3.14,3.14,0,0,0,0-.75,4.71,4.71,0,0,0-.47-1.35.35.35,0,0,0-.35,0c-.17.12-.13,0-.13.15a3.41,3.41,0,0,1-.64,2.64l-.33.5a3.71,3.71,0,0,1-1.4,1.51Zm0,.09h0Z"/><path class="cls-14" d="M327.47,707.71a.29.29,0,0,1-.41-.36v-4.14a.39.39,0,0,1,.11-.34.38.38,0,0,1,.3-.11H330a.49.49,0,0,1,.31.11.42.42,0,0,1,.12.34v4.16a.41.41,0,0,1-.12.36.55.55,0,0,1-.33.11h-2.47Zm0-2.56v2.07h2.42v-4.14h-2.44v2Z"/></g><path class="cls-14" d="M492.55,700.63a3,3,0,0,1,1.86.64.2.2,0,0,1,0,.29h0a.18.18,0,0,1-.26,0l0,0a2.63,2.63,0,0,0-1.62-.56,2.54,2.54,0,1,0,0,5.08,2.46,2.46,0,0,0,1.6-.56.19.19,0,0,1,.27,0h0c.1,0,0,.21,0,.28a3,3,0,0,1-1.86.64,3,3,0,1,1,0-5.9h0Z"/><path class="cls-14" d="M497.74,702.46a2,2,0,1,1-1.86,2.2.92.92,0,0,1,0-.16A2,2,0,0,1,497.74,702.46Zm0,3.73a1.64,1.64,0,1,0-1.53-1.75v.11a1.6,1.6,0,0,0,1.53,1.59Z"/><path class="cls-14" d="M507,704.12a1.29,1.29,0,0,0-1.27-1.27,1.28,1.28,0,0,0-1.26,1.27v2.22h0l-.11.12h-.2v-2.23a1.25,1.25,0,0,0-2.5,0h0v2.23a.18.18,0,0,1-.1.14h-.13a.26.26,0,0,1-.17-.14v-3.74a.2.2,0,0,1,.19-.2.2.2,0,0,1,.21.16v.43a1.55,1.55,0,0,1,1.25-.59,1.62,1.62,0,0,1,1.45.87,1.7,1.7,0,0,1,1.46-.87,1.66,1.66,0,0,1,1.66,1.66h0v2.22a.21.21,0,0,1-.2.19.19.19,0,0,1-.19-.19h0Z"/><path class="cls-14" d="M514.91,704.12a1.27,1.27,0,0,0-2.52-.31,1.6,1.6,0,0,0,0,.31v2.22h0l-.11.12H512v-2.23a1.25,1.25,0,0,0-2.5,0h0v2.23a.17.17,0,0,1,0,.14h-.13a.24.24,0,0,1-.17-.14v-3.74a.2.2,0,0,1,.19-.2.18.18,0,0,1,.2.16v.43a1.56,1.56,0,0,1,1.25-.59,1.65,1.65,0,0,1,1.46.87,1.69,1.69,0,0,1,1.45-.87,1.66,1.66,0,0,1,1.67,1.66h0v2.22a.21.21,0,0,1-.21.19.2.2,0,0,1-.19-.19h0Z"/><path class="cls-14" d="M516.7,704.5a2,2,0,0,1,2-2h0a2,2,0,0,1,1.87,1.87h0a.16.16,0,0,1-.15.18H517a1.63,1.63,0,0,0,1.59,1.57,1.6,1.6,0,0,0,1.31-.74.19.19,0,0,1,.26,0,.23.23,0,0,1,0,.29,2,2,0,0,1-3.62-1.12Zm.42-.32h3.08a1.56,1.56,0,0,0-1.52-1.33A1.61,1.61,0,0,0,517.12,704.18Z"/><path class="cls-14" d="M525,704.12a1.25,1.25,0,0,0-1.25-1.25h0a1.29,1.29,0,0,0-1.27,1.25v2.24a.17.17,0,0,1,0,.1.19.19,0,0,1-.15,0h0a.2.2,0,0,1-.13-.12h0v-3.73a.21.21,0,0,1,.2-.21.2.2,0,0,1,.19.19V703a1.71,1.71,0,0,1,1.27-.6,1.64,1.64,0,0,1,1.64,1.65v2.22a.2.2,0,0,1-.19.2.2.2,0,0,1-.2-.2Z"/><path class="cls-14" d="M528.56,702.67a.21.21,0,0,1-.21.18h-.52v3a.32.32,0,0,0,.3.3.22.22,0,0,1,.21.2.21.21,0,0,1-.21.21.69.69,0,0,1-.71-.67v-3h-.48c-.21,0-.21,0-.21-.18s0-.21.21-.21h.5V701a.21.21,0,0,1,.21-.21.2.2,0,0,1,.2.21v1.51h.52A.21.21,0,0,1,528.56,702.67Z"/><path class="cls-14" d="M475.56,707c-2.64,0-4.78-1.61-4.78-3.59s2.14-3.56,4.78-3.56,4.76,1.6,4.76,3.56a2.8,2.8,0,0,1-.43,1.48l.74,1.69-1.86-.5A5.62,5.62,0,0,1,475.56,707Zm0-6.69c-2.37,0-4.32,1.38-4.32,3.1s1.87,3.12,4.32,3.12a5.26,5.26,0,0,0,3-.88h0l1.22.32-.47-1v-.09a2.57,2.57,0,0,0,.41-1.34c.15-1.8-1.77-3.18-4.14-3.18Z"/><path class="cls-13" d="M280,260.71v-5.19a.49.49,0,0,1,.49-.48.48.48,0,0,1,.48.48v2.11h2.28v-2.11a.49.49,0,0,1,.59-.39.5.5,0,0,1,.4.39v5.19a.49.49,0,0,1-.59.4.5.5,0,0,1-.4-.4V258.6h-2.28v2.11a.48.48,0,0,1-.48.49.49.49,0,0,1-.49-.49Z"/><path class="cls-13" d="M286.53,260.57a2.19,2.19,0,0,1-.6-1.55,2.26,2.26,0,0,1,.6-1.55,2.05,2.05,0,0,1,1.51-.66,2,2,0,0,1,1.47.66,2.24,2.24,0,0,1,.62,1.55,2.17,2.17,0,0,1-.62,1.55,2,2,0,0,1-1.47.67A2.08,2.08,0,0,1,286.53,260.57Zm.35-1.55a1.39,1.39,0,0,0,.32.93,1.24,1.24,0,0,0,.84.32,1.13,1.13,0,0,0,.8-.32,1.39,1.39,0,0,0,0-1.87,1.23,1.23,0,0,0-.88-.32,1.31,1.31,0,0,0-.84.34A1.42,1.42,0,0,0,286.88,259Z"/><path class="cls-13" d="M295.3,258.62v2.11a.47.47,0,1,1-.93,0v-2.11a.91.91,0,0,0-.92-.87.9.9,0,0,0-.88.91h0v2.15h0a.49.49,0,0,1-.44.28h0a.52.52,0,0,1-.4-.47v-2.07h0v-1.36a.47.47,0,0,1,.47-.47.45.45,0,0,1,.43.26,1.79,1.79,0,0,1,.93-.26,1.87,1.87,0,0,0,2.64.12l.13-.12a1.87,1.87,0,0,1,1.86,1.87v2.07a.47.47,0,1,1-.93,0v-2.07a.94.94,0,1,0-1.87,0Z"/><path class="cls-13" d="M299.69,259a2.18,2.18,0,0,1,2.14-2.19,2.09,2.09,0,0,1,2.13,2h0v.09a.42.42,0,0,1-.45.34h-2.8a1.33,1.33,0,0,0,.3.59,1.39,1.39,0,0,0,1.76.17.5.5,0,0,1,.67,0,.4.4,0,0,1,0,.56h0a2.21,2.21,0,0,1-1.59.58A2.17,2.17,0,0,1,299.69,259Zm1-.43h2.48a1.51,1.51,0,0,0-1.31-.94,1.24,1.24,0,0,0-1.17.94Z"/><path class="cls-7" d="M333.7,258.81h-1.06v1.87a.5.5,0,0,1-1,0v-5.16a.49.49,0,0,1,.49-.48h1.56a1.89,1.89,0,0,1,0,3.77Zm-1.06-1h1.06a.94.94,0,1,0,0-1.87h-1.06Z"/><path class="cls-7" d="M337,260.57a2.21,2.21,0,0,1-.62-1.55,2.28,2.28,0,0,1,.62-1.55,2,2,0,0,1,1.51-.66,1.86,1.86,0,0,1,1.46.66,2.18,2.18,0,0,1,.62,1.55,2.14,2.14,0,0,1-.62,1.55,1.9,1.9,0,0,1-1.46.67A2.08,2.08,0,0,1,337,260.57Zm.36-1.55a1.49,1.49,0,0,0,.29.93,1.31,1.31,0,0,0,.86.32,1.21,1.21,0,0,0,.81-.32,1.38,1.38,0,0,0,.33-.93,1.15,1.15,0,0,0-1.14-1.26,1.39,1.39,0,0,0-.86.34A1.5,1.5,0,0,0,337.33,259Z"/><path class="cls-7" d="M341.86,260a.46.46,0,0,1,.64,0l0,0a1.64,1.64,0,0,0,1,.39,1.12,1.12,0,0,0,.59-.17c.12-.11.15-.18.15-.26v-.09l-.11-.11a2.5,2.5,0,0,0-.71-.25h0a2.88,2.88,0,0,1-.76-.22,1.6,1.6,0,0,1-.62-.5,1.15,1.15,0,0,1-.15-.56,1.24,1.24,0,0,1,.52-1,1.9,1.9,0,0,1,1.09-.31,2.14,2.14,0,0,1,1.3.48.47.47,0,0,1,.26.61.48.48,0,0,1-.61.26.56.56,0,0,1-.15-.1,1.41,1.41,0,0,0-.8-.32.84.84,0,0,0-.53.15.25.25,0,0,0-.15.21h.1a1.58,1.58,0,0,0,.63.22h0a2.54,2.54,0,0,1,.82.26,1.17,1.17,0,0,1,.25,2.11,2,2,0,0,1-1.14.36,2.57,2.57,0,0,1-1.57-.6A.45.45,0,0,1,341.86,260Z"/><path class="cls-7" d="M348.51,257.3a.49.49,0,0,1-.49.46h-.22v2.47a.49.49,0,0,1,0,1,1,1,0,0,1-1-1h0v-2.47h-.26a.48.48,0,1,1-.19-.95h.45v-1.29a.49.49,0,0,1,1,0v1.29H348A.49.49,0,0,1,348.51,257.3Z"/><path class="cls-7" d="M349.83,260a.5.5,0,0,1,.68,0,1.64,1.64,0,0,0,1,.39,1.12,1.12,0,0,0,.59-.17c.12-.11.15-.18.15-.26v-.09l-.11-.11a2.5,2.5,0,0,0-.71-.25h0a3.31,3.31,0,0,1-.76-.22,1.54,1.54,0,0,1-.6-.5,1.15,1.15,0,0,1-.15-.56,1.24,1.24,0,0,1,.52-1,1.9,1.9,0,0,1,1.09-.31,2.14,2.14,0,0,1,1.3.48.47.47,0,1,1-.35.87.56.56,0,0,1-.15-.1,1.47,1.47,0,0,0-.86-.38,1,1,0,0,0-.54.15.24.24,0,0,0-.13.21h.09a1.44,1.44,0,0,0,.64.22h0a3.4,3.4,0,0,1,.82.26,1.22,1.22,0,0,1,.8,1.11,1.24,1.24,0,0,1-.56,1,1.93,1.93,0,0,1-1.14.36,2.53,2.53,0,0,1-1.57-.6A.47.47,0,0,1,349.83,260Z"/><path class="cls-13" d="M390.53,261.11h0L388.37,256a.48.48,0,0,1,.27-.63h0a.46.46,0,0,1,.61.25h0l1.72,4.07,1.72-4.07a.47.47,0,0,1,.63-.26.5.5,0,0,1,.27.63l-2.19,5.14h-.88Z"/><path class="cls-13" d="M395.82,255.71a.49.49,0,0,1-.38.57.48.48,0,0,1-.57-.38.31.31,0,0,1,0-.19v-.19a.48.48,0,0,1,.38-.57.49.49,0,0,1,.57.38.6.6,0,0,1,0,.19Zm0,1.59v3.43a.47.47,0,0,1-.57.38.45.45,0,0,1-.38-.38V257.3a.47.47,0,0,1,.38-.57.48.48,0,0,1,.57.38A.61.61,0,0,1,395.82,257.3Z"/><path class="cls-13" d="M401.33,260.73a.49.49,0,0,1-1,.1,2.17,2.17,0,0,1-2.25-3.7,2.09,2.09,0,0,1,1.06-.32,2,2,0,0,1,1.17.36v-1.65a.49.49,0,0,1,1,0V259h0Zm-2.15-3a1.15,1.15,0,0,0-.82.36,1.29,1.29,0,0,0,0,1.77,1.11,1.11,0,0,0,1.64,0,1.29,1.29,0,0,0,0-1.77A1.11,1.11,0,0,0,399.18,257.76Z"/><path class="cls-13" d="M402.71,259a2.15,2.15,0,0,1,2.11-2.19h0a2.07,2.07,0,0,1,2.11,2h0V259a.39.39,0,0,1-.44.33h-2.8a1.09,1.09,0,0,0,.29.6,1.43,1.43,0,0,0,.84.39,1.47,1.47,0,0,0,.92-.22.48.48,0,0,1,.65,0,.38.38,0,0,1,0,.55h0a2.22,2.22,0,0,1-1.57.58,2.16,2.16,0,0,1-2.14-2.18Zm1-.43h2.5a1.51,1.51,0,0,0-1.31-.94,1.25,1.25,0,0,0-1.13.94Z"/><path class="cls-13" d="M408.77,260.57a2.23,2.23,0,0,1-.59-1.55,2.3,2.3,0,0,1,.59-1.55,2.09,2.09,0,0,1,1.52-.66,1.9,1.9,0,0,1,1.47.66,2.24,2.24,0,0,1,.62,1.55,2.17,2.17,0,0,1-.62,1.55,1.88,1.88,0,0,1-1.47.67A2.14,2.14,0,0,1,408.77,260.57Zm.36-1.55a1.39,1.39,0,0,0,.32.93,1.24,1.24,0,0,0,.84.32,1.19,1.19,0,0,0,.82-.32,1.29,1.29,0,0,0,.33-.93,1.34,1.34,0,0,0-.33-.92,1.4,1.4,0,0,0-.82-.34,1.37,1.37,0,0,0-.84.34,1.4,1.4,0,0,0-.32.92Z"/><path class="cls-13" d="M413.67,260a.48.48,0,0,1,.67,0,1.67,1.67,0,0,0,1,.39,1.07,1.07,0,0,0,.6-.17c.13-.11.17-.18.17-.26a.14.14,0,0,0,0-.09l-.12-.11a1.85,1.85,0,0,0-.69-.25h0a3.31,3.31,0,0,1-.76-.22,1.46,1.46,0,0,1-.6-.5,1.15,1.15,0,0,1-.15-.56,1.26,1.26,0,0,1,.51-1,2,2,0,0,1,1.08-.31,2.18,2.18,0,0,1,1.32.48.49.49,0,0,1,.15.64.47.47,0,0,1-.64.13h0a1.47,1.47,0,0,0-.82-.32.86.86,0,0,0-.52.15.26.26,0,0,0-.14.21h.1a1.58,1.58,0,0,0,.63.22h0a2.91,2.91,0,0,1,.82.26,1.22,1.22,0,0,1,.62.52,1.12,1.12,0,0,1,.17.58,1.26,1.26,0,0,1-.54,1,2,2,0,0,1-1.16.36,2.51,2.51,0,0,1-1.55-.6A.47.47,0,0,1,413.67,260Z"/><path class="cls-13" d="M451.73,258.81h-1.08v1.87a.49.49,0,1,1-1,0h0v-5.16a.49.49,0,0,1,.49-.48h1.56a1.89,1.89,0,0,1,0,3.77Zm-1.08-1h1.08a.94.94,0,1,0,0-1.87h-1.08Z"/><path class="cls-13" d="M455.69,260.71a.48.48,0,0,1-.95.14.33.33,0,0,1,0-.14v-5.19a.49.49,0,0,1,1,0h0v1.54a2.05,2.05,0,0,1,.93-.25,1.87,1.87,0,0,1,1.87,1.87v2a.46.46,0,0,1-.45.48h0a.48.48,0,0,1-.49-.48h0v-2a1,1,0,0,0-1-.95h0a1,1,0,0,0-.94.95Z"/><path class="cls-13" d="M460.53,260.57a2.17,2.17,0,0,1-.62-1.55,2.24,2.24,0,0,1,.62-1.55,2,2,0,0,1,1.51-.66,1.88,1.88,0,0,1,1.46.66,2.17,2.17,0,0,1,.61,1.55,2.09,2.09,0,0,1-.61,1.55,1.9,1.9,0,0,1-1.46.67A2,2,0,0,1,460.53,260.57Zm.33-1.55a1.52,1.52,0,0,0,.32.93,1.29,1.29,0,0,0,.86.32,1.19,1.19,0,0,0,.8-.32,1.34,1.34,0,0,0,.34-.93,1.3,1.3,0,0,0-.34-.92,1.32,1.32,0,0,0-.8-.34,1.36,1.36,0,0,0-.86.34A1.58,1.58,0,0,0,460.86,259Z"/><path class="cls-13" d="M467.44,257.3a.48.48,0,0,1-.51.46h-.2v2.47a.49.49,0,0,1,.48.48h0a.49.49,0,0,1-.48.49h0a1,1,0,0,1-1-.95v-2.49h-.25a.48.48,0,0,1-.57-.38.49.49,0,0,1,.38-.57h.44v-1.29a.49.49,0,0,1,.59-.39.5.5,0,0,1,.4.39v1.29h.2a.48.48,0,0,1,.5.47Z"/><path class="cls-13" d="M469.25,260.57a2.19,2.19,0,0,1-.6-1.55,2.26,2.26,0,0,1,.6-1.55,2.07,2.07,0,0,1,1.51-.66,1.88,1.88,0,0,1,1.47.66,2.24,2.24,0,0,1,.62,1.55,2.17,2.17,0,0,1-.62,1.55,2,2,0,0,1-1.47.67A2.1,2.1,0,0,1,469.25,260.57Zm.35-1.55a1.39,1.39,0,0,0,.32.93,1.24,1.24,0,0,0,.84.32,1.13,1.13,0,0,0,.8-.32,1.37,1.37,0,0,0,0-1.87,1.15,1.15,0,0,0-.8-.33,1.25,1.25,0,0,0-.84.33A1.4,1.4,0,0,0,469.6,259Z"/><path class="cls-13" d="M474.14,260a.44.44,0,0,1,.63,0l0,0a1.84,1.84,0,0,0,1,.39,1.07,1.07,0,0,0,.6-.17c.13-.11.17-.18.17-.26a.14.14,0,0,0,0-.09l-.11-.11a2.16,2.16,0,0,0-.71-.25h0a2.84,2.84,0,0,1-.77-.22,1.68,1.68,0,0,1-.62-.5,1.25,1.25,0,0,1-.14-.56,1.24,1.24,0,0,1,.52-1,1.89,1.89,0,0,1,1.08-.31,2.23,2.23,0,0,1,1.33.48.48.48,0,0,1,.13.64.45.45,0,0,1-.62.14h0a1.63,1.63,0,0,0-.82-.32.8.8,0,0,0-.52.15.3.3,0,0,0-.15.21h.11a1.57,1.57,0,0,0,.64.22h0a3.4,3.4,0,0,1,.82.26,1.29,1.29,0,0,1,.61.52,1.12,1.12,0,0,1,.17.58,1.24,1.24,0,0,1-.56,1,2,2,0,0,1-1.14.36,2.59,2.59,0,0,1-1.57-.6A.47.47,0,0,1,474.14,260Z"/><path class="cls-13" d="M505.93,258a3.22,3.22,0,0,1,3.23-3.17,3.29,3.29,0,0,1,2,.69.5.5,0,0,1,.09.69.52.52,0,0,1-.71.11,2.15,2.15,0,0,0-1.4-.48,2.3,2.3,0,0,0-1.58.63,2.13,2.13,0,0,0-.06,3l.06.06a2.37,2.37,0,0,0,1.58.63,2.1,2.1,0,0,0,1.4-.49.53.53,0,0,1,.71,0,.51.51,0,0,1-.09.7,3.25,3.25,0,0,1-5.25-2.38Z"/><path class="cls-13" d="M513.21,260.57a2.2,2.2,0,0,1-.61-1.55,2.27,2.27,0,0,1,.61-1.55,2,2,0,0,1,1.52-.66,1.86,1.86,0,0,1,1.45.66,2.14,2.14,0,0,1,.62,1.55,2.1,2.1,0,0,1-.62,1.55,1.88,1.88,0,0,1-1.45.67A2.08,2.08,0,0,1,513.21,260.57Zm.36-1.55a1.39,1.39,0,0,0,.32.93,1.2,1.2,0,0,0,1.64,0,1.39,1.39,0,0,0,0-1.87,1.27,1.27,0,0,0-.8-.33,1.21,1.21,0,0,0-.84.33A1.4,1.4,0,0,0,513.57,259Z"/><path class="cls-13" d="M522,258.62v2.11a.47.47,0,0,1-.47.47.48.48,0,0,1-.48-.47v-2.11a.9.9,0,0,0-.9-.87.91.91,0,0,0-.9.91v2.15h0a.46.46,0,0,1-.43.28h-.09a.51.51,0,0,1-.37-.47v-2.07h0v-1.36a.45.45,0,0,1,.43-.47h0a.43.43,0,0,1,.42.26,1.83,1.83,0,0,1,.95-.26,1.89,1.89,0,0,0,2.76,0,1.87,1.87,0,0,1,1.87,1.87v2.07a.47.47,0,0,1-.47.47.48.48,0,0,1-.48-.47v-2.07a.9.9,0,0,0-.88-.92h0a.91.91,0,0,0-1,.84Z"/><path class="cls-13" d="M530.35,258.62v2.11a.47.47,0,1,1-.93,0v-2.11a.89.89,0,0,0-.92-.87h0a.91.91,0,0,0-.87.91v2.15h0a.51.51,0,0,1-.45.28h0a.5.5,0,0,1-.39-.47v-2.07h0v-1.36a.47.47,0,0,1,.46-.47.43.43,0,0,1,.43.26,1.85,1.85,0,0,1,.94-.26,1.89,1.89,0,0,0,2.76,0,1.87,1.87,0,0,1,1.87,1.87v2.07a.47.47,0,0,1-.94,0v-2.07a.93.93,0,1,0-1.86,0Z"/><path class="cls-13" d="M538.74,258.62v2.11a.47.47,0,1,1-.94,0v-2.11a.91.91,0,0,0-.91-.87.89.89,0,0,0-.88.91h0v2.15h0a.53.53,0,0,1-.45.28h-.09a.51.51,0,0,1-.38-.47v-2.07h0v-1.36a.47.47,0,0,1,.9-.21,1.81,1.81,0,0,1,.93-.26,1.88,1.88,0,0,0,2.64.13l.13-.13a1.87,1.87,0,0,1,1.86,1.87v2.07a.46.46,0,0,1-.46.47.47.47,0,0,1-.47-.47v-2.07a.94.94,0,1,0-1.87,0Z"/><path class="cls-13" d="M545.18,261.2a1.87,1.87,0,0,1-1.87-1.87v-2.09a.47.47,0,0,1,.93,0v2.09a.88.88,0,0,0,.86.9h0a.94.94,0,0,0,.93-.9v-2.09a.44.44,0,0,1,.43-.46h0a.48.48,0,0,1,.49.46v2.09A1.87,1.87,0,0,1,545.18,261.2Z"/><path class="cls-13" d="M552.29,258.64v2.09a.46.46,0,0,1-.37.55.47.47,0,0,1-.55-.36.61.61,0,0,1,0-.19v-2.09a.9.9,0,0,0-.91-.89.88.88,0,0,0-.88.87v2.11h0a.49.49,0,0,1-.46.38.45.45,0,0,1-.47-.43v-3.49a.45.45,0,0,1,.43-.47h0a.47.47,0,0,1,.42.26,1.73,1.73,0,0,1,.94-.26,1.87,1.87,0,0,1,1.81,1.92Z"/><path class="cls-13" d="M554.94,255.71a.48.48,0,1,1-1,0h0v-.19a.49.49,0,0,1,.48-.48h0a.48.48,0,0,1,.47.48Zm0,1.59v3.43a.47.47,0,0,1-.47.47.48.48,0,0,1-.48-.47V257.3a.49.49,0,0,1,.48-.49h0a.47.47,0,0,1,.47.47Z"/><path class="cls-13" d="M558.47,257.3a.49.49,0,0,1-.49.46h-.22v2.47a.49.49,0,0,1,.49.48h0a.47.47,0,0,1-.45.49h0a1,1,0,0,1-1-1v-2.47h-.26a.48.48,0,0,1-.19-.95h.47v-1.29a.48.48,0,0,1,.48-.48h0a.49.49,0,0,1,.49.48h0v1.29H558A.49.49,0,0,1,558.47,257.3Z"/><path class="cls-13" d="M563.34,257.28v3.32a2.07,2.07,0,0,1-2.05,2.09h-.06a2.1,2.1,0,0,1-.89-.2.5.5,0,0,1-.25-.64.51.51,0,0,1,.64-.18,1.25,1.25,0,0,0,.5.11,1.16,1.16,0,0,0,1.1-.8,1.62,1.62,0,0,1-.84.22,1.87,1.87,0,0,1-1.86-1.87v-2.07a.46.46,0,0,1,.44-.47.46.46,0,0,1,.47.43v2.11a.94.94,0,1,0,1.87,0v-2.07a.42.42,0,0,1,.39-.46h.06a.47.47,0,0,1,.48.45Z"/><polygon class="cls-13" points="559.76 675.78 564.18 675.78 561.96 678.49 559.76 675.78"/><rect class="cls-7" x="331.65" y="266.95" width="21.41" height="0.93"/><rect class="cls-9" x="306.69" y="197.37" width="231.41" height="22.55"/><path class="cls-2" d="M395.48,213.67l-1.87,1.38-3.37-4.46L389,208.94a2.58,2.58,0,0,0,.71-.39,2.87,2.87,0,0,0,.94-1.21l1.3,1.73Z"/><path class="cls-2" d="M391.88,203.16a5,5,0,1,0-1.61,7.46,5.4,5.4,0,0,0,.69-.44,5,5,0,0,0,.93-7v-.05Zm-2.13,5.39a3,3,0,0,1-4.18-.54,2.94,2.94,0,1,1,5.08-.65A2.86,2.86,0,0,1,389.75,208.55Z"/><path class="cls-2" d="M404.85,211.09a.91.91,0,0,1,1.26-.11,5.57,5.57,0,0,0,3.28,1.31,3.59,3.59,0,0,0,2.13-.64,1.53,1.53,0,0,0,.75-1.23.91.91,0,0,0-.17-.54,1.72,1.72,0,0,0-.51-.53,7.19,7.19,0,0,0-2.35-.8h0a9.78,9.78,0,0,1-2.2-.65,3.73,3.73,0,0,1-1.59-1.35,2.55,2.55,0,0,1-.39-1.4,3.17,3.17,0,0,1,1.36-2.5,5.07,5.07,0,0,1,2.9-.89,6.52,6.52,0,0,1,3.73,1.38.89.89,0,0,1,.24,1.21.87.87,0,0,1-1.21.26l0,0a4.92,4.92,0,0,0-2.74-1.08,3.28,3.28,0,0,0-1.87.58,1.31,1.31,0,0,0-.65,1.08.66.66,0,0,0,.13.47,1.35,1.35,0,0,0,.44.45,5.89,5.89,0,0,0,2.15.76h0a10.12,10.12,0,0,1,2.35.71,4,4,0,0,1,1.72,1.42,2.78,2.78,0,0,1,.41,1.46,3.29,3.29,0,0,1-1.47,2.65,5.41,5.41,0,0,1-3.16,1,7.52,7.52,0,0,1-4.39-1.72A.94.94,0,0,1,404.85,211.09Z"/><path class="cls-2" d="M415.87,209.73a4.24,4.24,0,0,1,4.18-4.28,4.09,4.09,0,0,1,4.13,4h0a.48.48,0,0,1,0,.17.83.83,0,0,1-.9.67h-5.43a2.08,2.08,0,0,0,.58,1.14,2.62,2.62,0,0,0,1.64.76,2.64,2.64,0,0,0,1.77-.43,1,1,0,0,1,1.29,0,.77.77,0,0,1,0,1.09l0,0a4.31,4.31,0,0,1-3.06,1.13A4.25,4.25,0,0,1,415.87,209.73Zm1.87-.84h4.85a2.83,2.83,0,0,0-2.54-1.87A2.4,2.4,0,0,0,417.74,208.89Z"/><path class="cls-2" d="M434.15,209.75v3.36a.92.92,0,0,1-.92.91h0a.94.94,0,0,1-.89-.75,3.69,3.69,0,0,1-2.28.75,4,4,0,0,1-2.91-1.25,4.39,4.39,0,0,1-1.16-3,4.31,4.31,0,0,1,1.16-3,3.9,3.9,0,0,1,5.19-.54.93.93,0,0,1,.89-.75.92.92,0,0,1,.92.92v3.38Zm-1.87,0a2.53,2.53,0,0,0-.65-1.76,2.19,2.19,0,0,0-1.61-.71,2.06,2.06,0,0,0-1.59.71,2.53,2.53,0,0,0-.65,1.76,2.59,2.59,0,0,0,.65,1.86,2.19,2.19,0,0,0,1.59.68,2.29,2.29,0,0,0,1.61-.68,2.6,2.6,0,0,0,.69-1.86Z"/><path class="cls-2" d="M442.77,206.37a.91.91,0,0,1-.91.89,1.74,1.74,0,0,0-1,.34,2.45,2.45,0,0,0-.78.82,5.22,5.22,0,0,0-.71,1.44v3.25a.94.94,0,0,1-1.87,0v-6.74a.94.94,0,1,1,1.87,0v.11a2,2,0,0,1,.37-.34,3.75,3.75,0,0,1,2.15-.67.89.89,0,0,1,.91.88Z"/><path class="cls-2" d="M444,209.75a4.36,4.36,0,0,1,4.35-4.3,4.55,4.55,0,0,1,2.72.94.91.91,0,1,1-1.1,1.45,2.65,2.65,0,0,0-1.62-.56,2.56,2.56,0,0,0-2.54,2.47,2.52,2.52,0,0,0,2.54,2.44,2.72,2.72,0,0,0,1.62-.54.93.93,0,0,1,1.29.19,1,1,0,0,1-.19,1.27,4.82,4.82,0,0,1-2.72.91A4.33,4.33,0,0,1,444,209.75Z"/><path class="cls-2" d="M456.27,213.07a1,1,0,0,1-1.87,0V203a1,1,0,0,1,1.87,0v3a3.73,3.73,0,0,1,5.6,3.24v3.87a1,1,0,0,1-.74,1.12,1,1,0,0,1-1.13-.75,1.15,1.15,0,0,1,0-.37v-3.85a1.87,1.87,0,0,0-3.73,0Z"/><path class="cls-5" d="M439.73,166.45H405a2.13,2.13,0,0,1-2.15-2h0a2.13,2.13,0,0,1,2.11-2.15h34.73a2.13,2.13,0,0,1,2.13,2.13v0h0A2.13,2.13,0,0,1,439.73,166.45Z"/></g><g id="freepik--character-2--inject-2"><polygon class="cls-3" points="613.75 625.65 609.33 652.22 579.32 832.96 574.47 832.96 596.29 652.22 599.52 625.65 613.75 625.65"/><polygon class="cls-14" points="599.52 625.65 613.75 625.65 609.33 652.22 596.29 652.22 599.52 625.65"/><polygon class="cls-3" points="708.01 832.96 703.18 832.96 673.16 652.22 668.73 625.65 682.96 625.65 686.19 652.22 708.01 832.96"/><polygon class="cls-14" points="682.96 625.65 686.19 652.22 673.16 652.22 668.73 625.65 682.96 625.65"/><polygon class="cls-3" points="798.04 832.96 793.2 832.96 763.18 652.22 758.76 625.65 772.99 625.65 776.22 652.22 798.04 832.96"/><polygon class="cls-14" points="776.22 652.22 763.18 652.22 758.76 625.65 772.99 625.65 776.22 652.22"/><polygon class="cls-3" points="790.37 638.12 570.44 638.12 570.44 614.96 652.77 614.96 680.44 453.96 781.98 453.96 790.37 638.12"/><polygon class="cls-14" points="790.37 638.12 778.38 638.12 770.56 453.96 781.98 453.96 790.37 638.12"/><path class="cls-16" d="M581.88,839.85c4.15.52,118.24-23.09,121.91-26.66.45-.39-1.47-10.75-4.33-24.89V788c-1.77-9-32.63-81.92-32.63-81.92l-74,18.28,31.37,67.79s-14.12,9.56-26.25,18.67h0a163.15,163.15,0,0,0-15.35,12.28C578.91,827.49,577.74,839.37,581.88,839.85Z"/><path class="cls-1" d="M581.88,839.85c4.15.52,118.22-23.09,121.91-26.66.45-.39-1.47-10.75-4.33-24.89V788c-.65-3.32-5.37-15.59-11-29.63-12.17,2.9-55.84,13.32-71.71,17.7l7.47,16.08s-14.12,9.58-26.25,18.67h0a163.67,163.67,0,0,0-15.35,12.3C578.91,827.51,577.74,839.38,581.88,839.85Z"/><path class="cls-7" d="M581.49,840.39c4.27.49,118.44-23.43,122.21-27.09,1.44-1.38-.52-19.34-6.18-38.48L624,790.32s-38.2,28.43-41.9,32.9S577.23,839.89,581.49,840.39Z"/><path class="cls-5" d="M582.18,835.48c19-4.48,96.24-20.76,115.42-23.75.15,0,.16,0,0,.14-18.79,4.85-96.12,20.53-115.38,23.91C581.84,835.86,581.77,835.58,582.18,835.48Z"/><path class="cls-5" d="M618.42,793.59c7.63-1.72,17.08-.88,23.15,4.38.24.21,0,.55-.3.47a108.58,108.58,0,0,0-22.78-3.88.49.49,0,1,1-.07-1Z"/><path class="cls-5" d="M612.91,797c7.64-1.7,17.08-.86,23.17,4.41.22.2,0,.54-.32.46A108.61,108.61,0,0,0,613,798a.49.49,0,0,1-.07-1Z"/><path class="cls-5" d="M607.48,800.59c7.63-1.7,17.08-.86,23.17,4.4.22.21,0,.53-.32.47a108,108,0,0,0-22.78-3.9.49.49,0,1,1-.07-1Z"/><path class="cls-5" d="M602,804.14c7.66-1.72,17.11-.86,23.17,4.4.23.21,0,.52-.31.47a108.07,108.07,0,0,0-22.78-3.9.49.49,0,0,1-.08-1Z"/><path class="cls-9" d="M581.51,840.37c1.32.15,13.33-2,29.35-5.3l-10.31-27c-8.7,6.72-16.8,13.22-18.5,15.18C578.37,827.66,577.23,839.87,581.51,840.37Z"/><path class="cls-11" d="M621.16,794l78.58-18.56S632.18,620.59,637.93,613c2.89-3.82,76.06-4.94,99.32-24.7,30.23-25.63,10-64.82,10-64.82L665.48,521s1,17.1-2.2,19.68c-2.09,1.71-99.45,9.89-110.15,42.75C540,623.69,621.16,794,621.16,794Z"/><path class="cls-5" d="M621.2,781.81c2-1,22.4-6.95,27-8.12,9.18-2.36,18.41-4.65,27.65-6.78,4.83-1.1,15.18-3.51,15.81-3.4.3,0,.36.58,0,.67-9,3-18,5.47-27.15,8s-40.4,10.08-43.14,10.27C621.14,782.39,620.9,782,621.2,781.81Z"/><path class="cls-5" d="M624,606.16a12.68,12.68,0,0,1,6.16-1.87q17.7-2.92,35.47-5.93c11-1.87,22.14-3.49,33.12-5.6,9.09-1.76,18.35-4.13,26.14-9.06a38,38,0,0,0,16.07-21,68.09,68.09,0,0,0,2.08-27c-.21-2.18-.62-4.38-1-6.55,0-.17.24-.22.26,0,3,16.8,3.27,36.2-9.33,49.57-6.13,6.5-14.53,10.32-23.1,12.81a263.4,263.4,0,0,1-29.72,5.78l-35.4,5.87c-5.6,1-11.44,1.68-17.08,2.85a6.08,6.08,0,0,0-3.06,1.36,4.37,4.37,0,0,0-.51,4.11c.56,2.78,1.33,5.6,2.11,8.25,6.44,22,56,138.57,57.24,141a.22.22,0,0,1-.14.28.23.23,0,0,1-.25-.07c-10.83-19.31-48.39-112-55.54-132.78A132.21,132.21,0,0,1,622.88,612C622.47,609.88,622.15,607.64,624,606.16Z"/><path class="cls-16" d="M465,844.82c4,1.32,120.46.89,124.77-1.87.52-.3.69-10.83.71-25.26v-.28c0-9.13,2.85-87.21,2.85-87.21l-72.9-.59-4.56,76.88s-15.74,6.55-29.44,13.07h0a161.87,161.87,0,0,0-17.47,9C464.54,832.1,461.05,843.51,465,844.82Z"/><path class="cls-1" d="M465,844.8c4,1.34,120.46.91,124.77-1.87.52-.28.69-10.83.73-25.24v-5.64c.15-6.07.44-15.92.82-26.71L517,784.85l-1.27,21.69S500,813.1,486.33,819.61h0a166.69,166.69,0,0,0-17.48,9C464.56,832.1,461,843.51,465,844.8Z"/><path class="cls-7" d="M464.52,845.25c4.09,1.34,120.72.63,125.09-2.21,1.68-1.06,3.32-19.06,1.61-38.94l-75.21.54s-43.09,20.26-47.6,23.9S460.43,844,464.52,845.25Z"/><path class="cls-5" d="M466.17,840.58c19.54-.6,98.46-1.18,117.82-.28.17,0,.17.11,0,.11-19.36,1-98.28,1-117.82.49C465.75,840.88,465.75,840.58,466.17,840.58Z"/><path class="cls-5" d="M510,806.66c7.83-.15,16.92,2.55,21.83,8.92.19.26-.17.52-.41.39a108,108,0,0,0-21.55-8.34.5.5,0,0,1,.13-1Z"/><path class="cls-5" d="M503.93,809.05c7.83-.17,16.92,2.53,21.83,8.9.19.26-.17.52-.41.41A108.07,108.07,0,0,0,503.8,810a.49.49,0,0,1-.33-.6A.48.48,0,0,1,503.93,809.05Z"/><path class="cls-5" d="M497.9,811.44c7.83-.17,16.92,2.53,21.83,8.92.19.24-.17.5-.39.39a108.85,108.85,0,0,0-21.57-8.36.49.49,0,0,1-.33-.6A.48.48,0,0,1,497.9,811.44Z"/><path class="cls-5" d="M491.87,813.83c7.85-.17,16.92,2.53,21.83,8.92.19.24-.17.5-.39.39a108.24,108.24,0,0,0-21.57-8.36.49.49,0,0,1-.33-.6A.48.48,0,0,1,491.87,813.83Z"/><path class="cls-11" d="M511.83,807.59H594S593,655.28,599.39,647C608,636,728.21,636.29,754,600.45c23.15-32.19,3.6-77.72,3.6-77.72L666.55,520A191.22,191.22,0,0,0,675,548.7s-109.67,20.23-140.4,53.88C513.87,625.32,511.83,807.59,511.83,807.59Z"/><path class="cls-5" d="M659.06,542.48a42.52,42.52,0,0,1,7.71,2.48c2.62,1,5.19,2.13,7.71,3.36a155.57,155.57,0,0,1,14.4,8.14c.15.1,0,.3-.15.23-4.91-2.56-10-4.88-15.11-7.06l-7.35-3.17a80.18,80.18,0,0,1-7.47-3.29.37.37,0,0,1-.14-.51A.36.36,0,0,1,659.06,542.48Z"/><path class="cls-5" d="M664.51,520c1,4.14,2,8.34,3.16,12.45a48.39,48.39,0,0,0,1.87,5.6c.59,1.53,1.51,3.31,3.3,3.74s2.65-1.38,2.48-3.08-.67-3.74-1-5.6c-.43-2.17-.88-4.32-1.27-6.48-.19-1.09-.39-2.17-.58-3.25a27.47,27.47,0,0,0-.39-2.95.12.12,0,0,1-.11.09h0a.14.14,0,0,1-.14-.11.25.25,0,0,1,.12-.3h.18c.4.23.41.77.54,1.16.34,1,.68,2.09,1,3.15.58,2,1.14,4,1.65,6s1,4,1.47,6a9.23,9.23,0,0,1,.41,4.63,3.52,3.52,0,0,1-3.26,2.65l.22.41c.19.41.32.84.47,1.25s.3.86.43,1.31a4.62,4.62,0,0,1,.11.63V548a.35.35,0,0,1-.32.39.39.39,0,0,1-.34-.16c-.11-.21-.26-.38-.39-.58a4.23,4.23,0,0,1-.3-.69c-.13-.41-.26-.84-.35-1.25s-.24-.86-.32-1.27a5,5,0,0,1,0-.77,5,5,0,0,1-2.41-.91,8.12,8.12,0,0,1-2.48-3.74c-.62-1.72-1.1-3.51-1.59-5.28A76.5,76.5,0,0,1,664,520.37C663.73,519.7,664.4,519.52,664.51,520Z"/><path class="cls-5" d="M718.66,530.18c.37,2.07.61,4.16,1.1,6.19s1,4,1.66,6a21.41,21.41,0,0,0,2.54,5.36,20.38,20.38,0,0,0,4,4.11,34.89,34.89,0,0,0,9.76,5.43,44.76,44.76,0,0,0,5.42,1.58c1,.21,1.87.38,2.89.51a6.11,6.11,0,0,1,2.34.54.47.47,0,0,1,.16.64.49.49,0,0,1-.16.16,8.33,8.33,0,0,1-4.32.15,31.58,31.58,0,0,1-4.61-.82,33,33,0,0,1-8.72-3.73,27.51,27.51,0,0,1-7.28-6,20.81,20.81,0,0,1-3.9-8.53,42,42,0,0,1-1.27-11.61C718.28,530,718.62,530,718.66,530.18Z"/><path class="cls-5" d="M582.24,700.8q1.18-19.42,3.21-38.72c.33-3.18.65-6.37,1-9.54a29.49,29.49,0,0,1,1.61-7.25c1.86-4.83,5.92-7.28,10.79-8.51,5.75-1.46,11.71-2.33,17.55-3.27s12-1.86,18-2.69c12.15-1.68,24.27-3.24,36.42-5.28a289.11,289.11,0,0,0,35.75-8.06c10.76-3.25,21.79-7.27,30.4-14.72,18.54-16.07,19.21-42.94,17-65.51-.32-3.17-.71-6.35-1.1-9.52,0-.17.24-.22.26,0,1.46,12.68,3.17,25.45,1.87,38.22a62.58,62.58,0,0,1-10.12,29.61c-6.27,9-15.57,14.8-25.6,18.85a201.21,201.21,0,0,1-34.11,9.84c-24,5-48.54,7.17-72.72,11.3-3,.52-6,1.06-8.92,1.64a37,37,0,0,0-8.07,2.15c-5.49,2.46-7,7.8-7.67,13.33-1.59,12.82-2.65,25.74-3.58,38.63-1.87,26-2.86,52.08-2.82,78.13v21c0,.3-.43.26-.43,0C580.26,764.26,580.59,726.84,582.24,700.8Z"/><path class="cls-5" d="M515.73,795.45a48.76,48.76,0,0,1,6.82-.57c2.39-.14,4.78-.28,7.19-.38q7.05-.27,14.13-.32c9.5,0,19,0,28.49.21,4.95.11,15.55.3,16.15.58a.36.36,0,0,1-.09.65c-9.34.67-18.84.88-28.29,1.1s-18.84.43-28.27.19c-2.61,0-5.2-.19-7.82-.3a58.37,58.37,0,0,1-8.25-.48C515.47,796,515.36,795.45,515.73,795.45Z"/><path class="cls-5" d="M594.3,706c.11-8.88.37-17.75.56-26.64.18-8.38,0-16.8,1.62-25.16.67-3.33,1.27-7.75,4.84-9.34a41.81,41.81,0,0,1,5.82-1.72c2.09-.54,4.22-1.08,6.35-1.55,9.8-2.11,19.73-3.43,29.68-4.78.17,0,.25.25,0,.28-8.4,1.63-16.8,3.27-25.16,5.18-4.17,1-8.35,1.86-12.47,3.08-1.68.46-4,.78-5.18,2.18a13.91,13.91,0,0,0-2,5.6c-1.87,8.1-1.77,16.56-2,24.83q-.33,12.88-.67,25.75c-.28,9.61-.54,19.27-1.2,28.88a.21.21,0,0,1-.2.21.22.22,0,0,1-.21-.21h0C593.92,723.82,594.15,714.93,594.3,706Z"/><path class="cls-5" d="M674.43,549a303.47,303.47,0,0,0-49.66,10.2,348.31,348.31,0,0,0-47.93,17.34c-8.72,3.92-17.16,8.31-25.5,12.9-.17.1,0,.34.15.24a389.55,389.55,0,0,1,46.67-20.35,375.69,375.69,0,0,1,48.54-14.09c9.34-2,18.67-3.59,28-5.14A.57.57,0,0,0,674.43,549Z"/><path class="cls-16" d="M667.76,426.91c1.68,34.56-7.22,79.7-12,83.46-8.46,6.62-60.21,20.53-71.21,22-4.31.59-7.93,1-10.49,1.34-6.33.75-19-40.64-14.81-46,1-1.23,5.12-2.37,11-3.44,19.64-3.54,62.75-6.94,65.14-8.27,2.93-1.62,4.91-26.79,15.55-51.9C658.37,406.49,667,408.54,667.76,426.91Z"/><path class="cls-17" d="M581.88,482.31l10.4,53.63s49.49-13.18,64.6-24c8.12-5.8,13.07-64.15,12.24-83.23-.85-18.78-9.68-28.39-19-7.05-8.8,20.16-13.95,51.28-15.42,52.44S581.88,482.31,581.88,482.31Z"/><path class="cls-5" d="M595.44,506.07q-1.29-5.6-2.64-11.2c-.89-3.73-1.66-7.47-2.84-11.2,0-.17-.33-.13-.31,0,.45,3.73,1.32,7.32,2.05,11s1.57,7.69,2.39,11.52c1.61,7.6,3.51,15.1,5.6,22.61a.15.15,0,0,0,.28-.1C598.59,521.14,597.17,513.54,595.44,506.07Z"/><path class="cls-9" d="M624,526.25c4.65-1.56,9.33-3.26,13.8-5l2-.78.78-.32c2.46-1,4.84-2,7-3.08,1.1-.5,2.15-1,3.14-1.51l2-1.09,2.08-1.21c.74-.45,1.43-.91,2.05-1.36,8.12-5.81,13.07-64.15,12.23-83.23v-1.09c-.82-13.36-5.81-21.67-12-16.61C647.52,442.82,632,499.44,624,526.25Z"/><path class="cls-17" d="M644.29,545.62c3,2.24,122.2-2.62,122.65-3.46s-39.21-125.38-83.61-138.72c-7-2.1-18.18-.48-24.6,6.07C639.7,428.91,642.39,544.2,644.29,545.62Z"/><path class="cls-16" d="M663.79,425.9c8.58,0,16.35-12.54,18.18-21.58.13-.61-2.41-5.95-5.19-12.56-1.68-4-3.45-8.55-4.76-12.81l-24.61,14.73a70.41,70.41,0,0,1,7.62,15.5,9.11,9.11,0,0,1,.35,1.86v.3C655.93,414.74,657.31,425.9,663.79,425.9Z"/><path class="cls-5" d="M647.41,393.66a71.07,71.07,0,0,1,7.62,15.5,9.11,9.11,0,0,1,.35,1.86v.3a15,15,0,0,0,2.79-.69c16-5.75,13.61-25.44,12.64-30.91Z"/><path class="cls-16" d="M662.25,345.64c6.86,7.73,14,35.85,10.27,44.57-5.41,12.62-20.2,20.37-32.43,12.51-11.85-7.62-20.53-44.42-15.79-53C631.24,337.2,652.12,334.31,662.25,345.64Z"/><path class="cls-5" d="M643.73,373.72s.17,0,.19.13c.37,1.87,1.14,4,3,4.26m0,.11c-2.15.19-3.12-2.63-3.18-4.5Z"/><path class="cls-5" d="M645,371.35c3-.93,4.63,5.12,1.86,6S642.46,372.14,645,371.35Z"/><path class="cls-5" d="M632.74,376.71s-.13.13-.1.21c.56,1.86.92,4.08-.61,5.17h0C634.06,381.32,633.58,378.37,632.74,376.71Z"/><path class="cls-5" d="M630.53,375.22c-3.08.59-1.66,6.7,1.18,6.14S633.11,374.71,630.53,375.22Z"/><path class="cls-5" d="M646.25,369.67a22.05,22.05,0,0,1-2.57-.19,4.21,4.21,0,0,1-2.58-.69,1.32,1.32,0,0,1-.22-1.6A3.29,3.29,0,0,1,644,366a5,5,0,0,1,3.25,1.27,1.43,1.43,0,0,1,0,2A1.39,1.39,0,0,1,646.25,369.67Z"/><path class="cls-5" d="M627.36,372.81a20.23,20.23,0,0,0,2.22-1.27,4.18,4.18,0,0,0,2-1.74,1.33,1.33,0,0,0-.51-1.55,3.32,3.32,0,0,0-3.32.28,4.75,4.75,0,0,0-2.35,2.56,1.4,1.4,0,0,0,.87,1.78A1.46,1.46,0,0,0,627.36,372.81Z"/><path class="cls-5" d="M650.25,389.72c-.22.62-.36,1.38-1,1.74a5.26,5.26,0,0,1-2.09.5m0,.13a2.64,2.64,0,0,0,2.67-.16,2.06,2.06,0,0,0,.61-2.23.12.12,0,0,0-.13-.11.12.12,0,0,0-.11.13h0Z"/><path class="cls-5" d="M646.42,385a6.56,6.56,0,0,1-3.47,4,8.44,8.44,0,0,1-2.26.74l-.88.11a.47.47,0,0,1-.48-.31h0l-1-4c-.45.42-2.8,2.36-3,1.59a98.87,98.87,0,0,1-2.8-20,.19.19,0,0,1,.23-.12.2.2,0,0,1,.12.12c1.52,6.05,2,12.31,3.4,18.39a12.19,12.19,0,0,1,2.76-1.73c.12,0,1.07,5,1.09,5a9.21,9.21,0,0,0,6-3.85C646.29,384.72,646.42,384.72,646.42,385Z"/><path class="cls-5" d="M672.37,366.05c-6.61,3.43-13.7-3.16-14.93-10.38,0,0-17.1,10.27-24.27-3.9a15.63,15.63,0,0,1-9,11.65l.29,6.25c-2.09.26-6.36-4.16-3.62-10.29a18.88,18.88,0,0,1,.64-14.07,10.77,10.77,0,0,1,10-6.13,16.43,16.43,0,0,1,9.77-7.46,13.92,13.92,0,0,1,12.45,2.85s9.75-2.18,14,3.53a14.45,14.45,0,0,1,2.88,11.43s3.34,1.53,4.55,7.46C676,360.86,674.43,365,672.37,366.05Z"/><path class="cls-5" d="M633,350.31a19.5,19.5,0,0,0,1.51,3.59,16,16,0,0,0,2.15,3.13,10,10,0,0,0,6.48,3.42,16.34,16.34,0,0,0,7.47-1.23c1.15-.55,2.37-1,3.51-1.63s2.24-1.29,3.39-1.86c-1,.78-2.1,1.51-3.17,2.29a26.32,26.32,0,0,1-3.47,1.87,16.07,16.07,0,0,1-7.79,1.47,10.38,10.38,0,0,1-6.9-3.84A15.92,15.92,0,0,1,633,350.31Z"/><path class="cls-5" d="M653.7,334.61a18.61,18.61,0,0,1,7.32-1.46,11.08,11.08,0,0,1,7.13,2.52,12.11,12.11,0,0,1,2.34,3,11.13,11.13,0,0,1,1.34,3.56,10.23,10.23,0,0,1-1.21,7.3,11.18,11.18,0,0,0,.52-7.13,12.46,12.46,0,0,0-3.6-6.08,9.31,9.31,0,0,0-3-1.87,14.39,14.39,0,0,0-3.51-.71A23.1,23.1,0,0,0,653.7,334.61Z"/><path class="cls-5" d="M631.49,339.2a18.45,18.45,0,0,0-5.77,1.29,11.16,11.16,0,0,0-4.63,3.36,11.43,11.43,0,0,0-2.21,5.27,21,21,0,0,0,0,5.93,15.1,15.1,0,0,1-.69-6,10.76,10.76,0,0,1,2.19-5.77,10.89,10.89,0,0,1,5.09-3.45A14.12,14.12,0,0,1,631.49,339.2Z"/><path class="cls-5" d="M627.27,362.78a20.83,20.83,0,0,0,4.22-5.34,12.52,12.52,0,0,0,1.15-3.13,15.75,15.75,0,0,0,.34-3.42,8.61,8.61,0,0,1,.35,3.53,8.82,8.82,0,0,1-1,3.43,11.23,11.23,0,0,1-2.15,2.88A10.24,10.24,0,0,1,627.27,362.78Z"/><path class="cls-14" d="M631.71,387.37c-2.84.78-6.09-2.09-7.26-6.37s.2-8.4,3-9.16,6.09,2.09,7.25,6.36S634.53,386.59,631.71,387.37Zm-4-14.49c-2.26.62-3.28,4.13-2.28,7.84s3.74,6.22,5.94,5.6,3.27-4.12,2.26-7.84S630,372.27,627.75,372.88Z"/><path class="cls-14" d="M649.13,382.65a8.09,8.09,0,1,1,5-10.3,5,5,0,0,1,.17.55A7.8,7.8,0,0,1,649.13,382.65Zm-3.94-14.51a7,7,0,1,0,8.17,5.59,5.41,5.41,0,0,0-.12-.55,6.73,6.73,0,0,0-8-5Z"/><path class="cls-14" d="M639.91,376.06c-4.26-.32-5.6,1.43-5.6,1.45l-.86-.65s1.7-2.24,6.62-1.87Z"/><path class="cls-14" d="M653.55,372.36l-.46-1c.65-.3,15.7-7.47,17.42-8.1s6.66.63,7.2.76l-.26,1.05a20.33,20.33,0,0,0-6.53-.81h0C669.54,364.74,659,369.78,653.55,372.36Z"/><path class="cls-16" d="M666.08,371.37s2.24-11,7-10.59,5.6,14.64,1.87,18.28a5,5,0,0,1-7.07.36l-.16-.15Z"/><path class="cls-5" d="M673.23,365c-2.59,2.65-3,6.31-2.84,9.85a2.75,2.75,0,0,1,3-2.42,3.89,3.89,0,0,1,.47.09c.11,0,0,.19,0,.21a3,3,0,0,0-2.67,2.33,14.53,14.53,0,0,0-.4,3.15.32.32,0,0,1-.63,0h0c-1.79-4-1.1-11,3-13.33Z"/><path class="cls-17" d="M655.31,410.39l9.63,14.69,15.8-24.27,6.92,5.34s-12.93,36.05-13.36,34.63L665,428.33l-7.58,11.5-4.09-24.27Z"/><path class="cls-5" d="M654.67,428c-.54-4-1.19-8.06-1.55-12.09,0-.15.19-.27.27-.1,1.56,3.74,3.54,19.06,4.29,22.7h0c.32-.5,7.11-10.21,7.23-10.1,1.86,1.87,8.71,11,9.24,11.8,2-5.71,11-28.47,13.68-34,0-.15.32,0,.26.09-1.62,5.94-13.07,35.88-13.36,35.87A148.22,148.22,0,0,1,664.91,429c-1.09,2-7.75,12.8-7.9,12.21A125.19,125.19,0,0,1,654.67,428Z"/><path class="cls-16" d="M704.77,417c23.37,26.74,52,76.55,46.67,89.84-7,17.66-91.16,27.5-105,28.85-5.9.57-2.22-50.17,4.07-50.9,5.49-.65,51.4-6.92,53.3-9.67,1.1-1.6-5.49-16.48-15.31-52.93C682.21,398.63,698.4,409.66,704.77,417Z"/><path class="cls-16" d="M668,489.76a188.78,188.78,0,0,1-18.48-6.3c-10.68-3.95-39.21-6.74-60.53,17.2-8.16,9.17-5.28,18.89,4.87,10.86,7.17-5.6,11.64-10.17,14.49-11.37,0,0-3.19,13.6,2.17,19.66a149.13,149.13,0,0,0,15.12,14.94,28.74,28.74,0,0,0,3-2.6,17,17,0,0,0,17.78,3.57Z"/><path class="cls-16" d="M638.77,481.32c-5.6,2.12-17.35,6.83-25.62,14-9.2,8-24.75,25.86-18.8,32.58,4.39,4.93,10.92-1.37,10.92-1.37s-4.87,8.74,0,12.33c4.48,3.28,9.34-1.87,9.34-1.87s-2.05,5.82,2.87,8.14c5.94,2.78,9.34-9.86,17.7-12.21C637.09,532.36,638.77,481.32,638.77,481.32Z"/><path class="cls-5" d="M623.22,503.65a48.42,48.42,0,0,0-18,22.66c0,.22,0,.41.18.22a120,120,0,0,1,17.89-22.81S623.27,503.61,623.22,503.65Z"/><path class="cls-5" d="M631,513.17c-4,2.89-13.37,13-16.6,23.69,0,.22,0,.41.19.2a128.41,128.41,0,0,1,16.49-23.82S631.06,513.13,631,513.17Z"/><path class="cls-17" d="M650.16,483.11l20.27,54.29s74.94-12.79,82.41-28.34c6.37-13.07-24.44-64.22-35.47-78.41C695,402,682.51,400.29,687.18,421.8c5.41,25,15.25,51.1,14.08,52.42S650.16,483.11,650.16,483.11Z"/><path class="cls-5" d="M671.27,509Q669,503,666.75,497c-1.53-4-2.91-8.1-4.68-12-.1-.18-.38-.11-.32.1,1.06,4,2.54,8,3.86,11.87s2.86,8.33,4.3,12.47c2.86,8.22,6,16.28,9.33,24.27.1.21.34,0,.28-.13C676.93,525.34,674.24,517.14,671.27,509Z"/><path class="cls-5" d="M650.32,482.4c17-3.21,34.21-5.27,51.2-8.42-1.87-6.61-4.3-13.07-6.33-19.66-.38-1.16-.71-2.35-1.07-3.53-1.64-3.1-3.24-6.22-4.72-9.33,0,0,0-.12.09,0,1.44,2.55,2.79,5.13,4.11,7.74q-2.28-7.57-4.48-15.21c0-.13.13-.19.17,0,2.35,6.7,4.72,13.38,7,20.12s4.09,13.63,6.52,20.3a.59.59,0,0,1-.34.73c-8.53,1.86-17.21,3.15-25.86,4.5s-17.17,2.72-25.84,3.73v1.44a.25.25,0,0,1-.32.18.24.24,0,0,1-.18-.18l-.32-1.87A.53.53,0,0,1,650.32,482.4Z"/><path class="cls-5" d="M668.83,532.92l1.86,4.42-.22-.13c7.47-1.6,14.93-3.21,22.4-5s14.85-3.58,22.2-5.6a209.43,209.43,0,0,0,21.71-7.13,69.1,69.1,0,0,0,10.25-5,25,25,0,0,0,4.52-3.4,9.06,9.06,0,0,0,2.84-4.79,8.88,8.88,0,0,1-2.48,5.13,26.64,26.64,0,0,1-4.41,3.73,67,67,0,0,1-10.17,5.51,173.57,173.57,0,0,1-21.83,7.62c-7.47,2.09-14.94,3.73-22.4,5.43s-15.07,2.88-22.69,3.87h-.16v-.15Z"/><rect class="cls-11" x="586.36" y="545.48" width="105.32" height="4.72"/><rect class="cls-14" x="620" y="545.48" width="71.67" height="4.72"/><polygon class="cls-14" points="621.97 550.21 538.01 550.21 523.5 480.51 607.46 480.51 621.97 550.21"/><polygon class="cls-3" points="617.32 550.21 533.34 550.21 518.85 480.51 602.81 480.51 617.32 550.21"/><path class="cls-2" d="M573.42,515.41a4.73,4.73,0,0,1-4.06,5.3,5.79,5.79,0,0,1-.72,0,6.09,6.09,0,0,1-5.91-5.34,4.71,4.71,0,0,1,4.79-5.36A6.06,6.06,0,0,1,573.42,515.41Z"/><path class="cls-16" d="M510.86,481.8c-1.49,7.28-7.3,17.29-6.63,22.78a6.33,6.33,0,0,0,5,5.6s-4.65,3.94-3.23,8.81c.74,2.52,5.39,3.55,5.39,3.55a7.47,7.47,0,0,0-2.07,7.58c1.23,3.4,5.71,3.92,5.71,3.92s-2,4.82.4,7.86c4.76,6.2,34.81-1.18,36.74-13.39.89-5.69-6.35-3.49-6.35-3.49s9.65-5.6,8.29-11.91-10.61-2.82-10.61-2.82,9.34-5.6,7.25-11.89S540,496.74,540,496.74s5.61-6.16,2.88-10.64c-4.44-7.47-14.62,5.77-21.62,5.82l-6.31-10Z"/><path class="cls-16" d="M507.16,492.69c.83-7-9.09-13.07-9.33-19.83-.26-9.22,11.71-3.06,17,9.13l2.46,10.17Z"/><path class="cls-5" d="M515.73,534.38a53.66,53.66,0,0,0,30.51-9.45c.28-.21,0-.75-.28-.58a110.22,110.22,0,0,1-30.23,9.86Z"/><path class="cls-5" d="M511.27,522.61c-.13,0-.09.23,0,.23a50.2,50.2,0,0,0,32.64-12.38c.3-.28.3-.84,0-.54C537.47,515,521.15,521,511.27,522.61Z"/><path class="cls-5" d="M540.43,496c-8.92,7.62-19.39,11.63-30.75,14.19-.14,0,0,.22,0,.24,5.89.26,12.94-2.13,18.28-4.44a31.14,31.14,0,0,0,12.68-9.67C540.83,496.14,540.62,495.82,540.43,496Z"/></g><g id="freepik--marketing-icons--inject-2"><circle class="cls-7" cx="555.11" cy="284.2" r="10.49"/><path class="cls-7" d="M527.68,307.5A10.51,10.51,0,1,1,517.17,297a10.5,10.5,0,0,1,10.51,10.51Z"/><path class="cls-7" d="M565.6,330.78a10.51,10.51,0,1,1-10.53-10.49h0A10.51,10.51,0,0,1,565.6,330.78Z"/><polygon class="cls-7" points="554.29 333.23 514.35 307.46 554.31 282.91 555.89 285.49 520.01 307.52 555.91 330.71 554.29 333.23"/><g id="freepik--aiZGp2--inject-2"><path class="cls-18" d="M478.53,401.88A46.26,46.26,0,0,0,475.44,416H463v-.35a3,3,0,0,1,.1-1,32.46,32.46,0,0,1,.82-4.91,36.72,36.72,0,0,1,2.78-7.68.25.25,0,0,1,.3-.18h11.54Z"/><path class="cls-18" d="M478.15,433.26H466.71a.25.25,0,0,1-.28-.19A36.15,36.15,0,0,1,463,420v-.51h12.25c.22,0,.2,0,.22.22a27.37,27.37,0,0,0,.24,3,37.89,37.89,0,0,0,.77,4.73,42.13,42.13,0,0,0,1.62,5.6Z"/><path class="cls-18" d="M526.3,437l-.09.17a32.24,32.24,0,0,1-3.25,4.2,30.92,30.92,0,0,1-4.76,4.39,33.29,33.29,0,0,1-5.42,3.36,32.46,32.46,0,0,1-5.71,2.22,37,37,0,0,1-4.78,1h-.74l-.27-.17.3-.22a36.36,36.36,0,0,0,9-8.76,42.92,42.92,0,0,0,3.73-6.12.25.25,0,0,1,.28-.17h11.71Z"/><path class="cls-18" d="M514.23,415.94H498.14v-14H510.7a.22.22,0,0,1,.25.16,38.94,38.94,0,0,1,2.55,8.24,35.18,35.18,0,0,1,.62,4.46Z"/><path class="cls-18" d="M514.76,419.69v1a17,17,0,0,1-.24,2.35c-.15,1.08-.32,2.15-.52,3.21a36.79,36.79,0,0,1-2.09,6.87.27.27,0,0,1-.3.21H498.73V419.69Z"/><path class="cls-18" d="M495.2,402v14.08H479.5V415c.09-.78.15-1.57.28-2.35.18-1.19.39-2.39.65-3.57a36.12,36.12,0,0,1,2.26-6.92A.25.25,0,0,1,483,402Z"/><path class="cls-18" d="M495.2,419.87v13.39H482.65a.26.26,0,0,1-.28-.19,35.8,35.8,0,0,1-2.15-7.09c-.22-1.25-.41-2.5-.56-3.73-.11-.83-.13-1.67-.18-2.49v-.09H495C495.2,419.67,495.2,419.73,495.2,419.87Z"/><path class="cls-18" d="M531.28,416.05H518.1A45.91,45.91,0,0,0,515,401.88h12.29a.24.24,0,0,1,.28.16,34.39,34.39,0,0,1,3,8.82,39,39,0,0,1,.64,4.94Z"/><path class="cls-18" d="M531.92,419.59v.92a32.75,32.75,0,0,1-.43,3.55,34.31,34.31,0,0,1-2.43,7.91c-.16.41-.37.81-.54,1.22,0,0-.09.13-.2.13H516.07l.45-1.24a41.62,41.62,0,0,0,1.62-6.42,40.21,40.21,0,0,0,.56-4.78v-1.14c0-.37,0-.15.13-.13H531.9Z"/><path class="cls-18" d="M525.32,398.29H513.61a.29.29,0,0,1-.28-.17,40,40,0,0,0-5.71-8.47,32.39,32.39,0,0,0-4.39-4c-.78-.6-1.6-1.16-2.4-1.76l-.13-.09.14-.11a1,1,0,0,0,0-.25,34.45,34.45,0,0,1,24.57,14.94Z"/><path class="cls-18" d="M492.9,452.21a1,1,0,0,1-.34,0,30,30,0,0,1-3.73-.73,32.52,32.52,0,0,1-6.68-2.48,34.52,34.52,0,0,1-6.82-4.46,31.84,31.84,0,0,1-4.1-4.11,30.73,30.73,0,0,1-2.56-3.55v-.09h10.92c.15,0,.2,0,.28.19a41.09,41.09,0,0,0,3.94,6.42,38.7,38.7,0,0,0,4.63,5.11,34,34,0,0,0,4.44,3.59Z"/><path class="cls-18" d="M492.14,383.79,490.52,385a41.85,41.85,0,0,0-5.21,4.84,37.54,37.54,0,0,0-5.45,7.78l-.28.54a.25.25,0,0,1-.17.11h-11a34.27,34.27,0,0,1,23.68-14.73v.13Z"/><path class="cls-18" d="M510.13,437a36.64,36.64,0,0,1-5.32,7.17,33.23,33.23,0,0,1-6.07,5.16V437Z"/><path class="cls-18" d="M495.2,437v12.1A35,35,0,0,1,484.28,437Z"/><path class="cls-18" d="M509.68,398.24H498.14V386.72a23.71,23.71,0,0,1,6.77,5.13A38.09,38.09,0,0,1,509.68,398.24Z"/><path class="cls-18" d="M494.57,387.07v11.2H484.08A33.46,33.46,0,0,1,494.57,387.07Z"/></g><ellipse class="cls-18" cx="652.63" cy="267.32" rx="34.45" ry="33.92" transform="translate(185.74 795.9) rotate(-70.82)"/><path class="cls-2" d="M679.11,266.86a27,27,0,0,1-26.32,27.25,26.34,26.34,0,0,1-26.68-26v-.38a27,27,0,0,1,26.32-27.25,26.33,26.33,0,0,1,26.68,26Z"/><path class="cls-18" d="M671.72,267a19.44,19.44,0,0,1-19,19.64,19,19,0,0,1-19.23-18.78v-.25a19.47,19.47,0,0,1,19-19.64,19,19,0,0,1,19.23,18.75Z"/><path class="cls-2" d="M664.25,267.1a11.85,11.85,0,0,1-11.55,12A11.56,11.56,0,0,1,641,267.66v-.17a11.83,11.83,0,0,1,11.56-12,11.56,11.56,0,0,1,11.7,11.41Z"/><path class="cls-18" d="M657.79,267.21a5.26,5.26,0,0,1-5.13,5.32,5.15,5.15,0,0,1-5.23-5.08v-.07a5.26,5.26,0,0,1,5.15-5.32,5.13,5.13,0,0,1,5.21,5.06Z"/><polygon class="cls-5" points="652.34 267.4 616.77 248.71 617.04 248.19 652.62 266.89 652.34 267.4"/><polygon class="cls-5" points="614.66 249.61 614.8 249.55 617.09 248.86 612.59 246.51 610.15 247.25 614.66 249.61"/><path class="cls-5" d="M612.05,243.63l.8,2.37,4.5,2.34a11.32,11.32,0,0,1-.8-2.36Z"/><polygon class="cls-5" points="653.7 266.71 652.77 268.41 650.27 268.18 651.91 266.84 652.08 264.73 653.7 266.71"/><rect class="cls-18" x="728.08" y="296.88" width="6.65" height="42.72"/><rect class="cls-18" x="739.51" y="303.99" width="6.65" height="35.62"/><rect class="cls-18" x="750.92" y="316.93" width="6.65" height="22.67"/><rect class="cls-18" x="762.34" y="303.36" width="6.65" height="36.24"/><rect class="cls-18" x="773.75" y="309.31" width="6.65" height="30.28"/><rect class="cls-18" x="785.18" y="290.92" width="6.65" height="48.67"/><path class="cls-5" d="M724.24,288v51.62l-.17-.2h61.87l11.93.13-11.93.13H772.48c-16.15,0-32.28.11-48.41,0h-.17V300.72Z"/><path class="cls-5" d="M722.76,290.92a4.66,4.66,0,0,1,1.48-.22,4,4,0,0,1,1.45.22,3.78,3.78,0,0,1-1.45.24A4,4,0,0,1,722.76,290.92Z"/><path class="cls-5" d="M722.76,296.06a4.42,4.42,0,0,1,1.48-.25,4.21,4.21,0,0,1,1.45.25,4.45,4.45,0,0,1-1.45.24A4.68,4.68,0,0,1,722.76,296.06Z"/><path class="cls-5" d="M722.76,301.17a4.16,4.16,0,0,1,1.48-.22,4,4,0,0,1,1.45.22,3.78,3.78,0,0,1-1.45.24A4,4,0,0,1,722.76,301.17Z"/><path class="cls-5" d="M722.76,306.31a4.42,4.42,0,0,1,1.48-.25,4,4,0,0,1,1.45.25,4.45,4.45,0,0,1-1.45.24A4.68,4.68,0,0,1,722.76,306.31Z"/><path class="cls-5" d="M722.76,311.42a4.68,4.68,0,0,1,1.48-.24,4.45,4.45,0,0,1,1.45.24,3.78,3.78,0,0,1-1.45.24A4.41,4.41,0,0,1,722.76,311.42Z"/><path class="cls-5" d="M722.76,316.56a4,4,0,0,1,1.48-.25,3.79,3.79,0,0,1,1.45.25,4,4,0,0,1-1.45.22A4.16,4.16,0,0,1,722.76,316.56Z"/><path class="cls-5" d="M722.76,321.67a4.68,4.68,0,0,1,1.48-.24,4.45,4.45,0,0,1,1.45.24,4.2,4.2,0,0,1-1.45.24A4.41,4.41,0,0,1,722.76,321.67Z"/><path class="cls-5" d="M722.76,326.84a4.18,4.18,0,0,1,1.48-.24,4,4,0,0,1,1.45.24,4,4,0,0,1-1.45.23A4.67,4.67,0,0,1,722.76,326.84Z"/><path class="cls-5" d="M722.76,331.92a4.68,4.68,0,0,1,1.48-.24,4.45,4.45,0,0,1,1.45.24,4.2,4.2,0,0,1-1.45.24A4.41,4.41,0,0,1,722.76,331.92Z"/><path class="cls-7" d="M556.81,478.07c-.28-.56-.54-1.14-.79-1.7l.84-.39.79,1.7Z"/><path class="cls-7" d="M554.57,472.86c-.47-1.18-.94-2.35-1.37-3.55l.88-.32c.43,1.18.88,2.36,1.35,3.51ZM552,465.73c-.39-1.2-.76-2.41-1.12-3.62l.9-.27c.35,1.22.73,2.41,1.12,3.61Zm-2.11-7.28c-.3-1.22-.59-2.45-.86-3.74l.92-.18c.26,1.23.54,2.44.86,3.73Zm-1.6-7.47c-.23-1.25-.43-2.48-.6-3.74l.92-.13c.18,1.25.39,2.49.59,3.74Zm-1.08-7.47c-.15-1.25-.27-2.52-.36-3.73h.93c.1,1.25.21,2.5.36,3.73Zm-.58-7.56v-3.73h.93V436Zm.87-7.47h-.93c0-1.25.09-2.52.17-3.73h.93a28.83,28.83,0,0,0-.15,3.66Zm.47-7.47H547c.11-1.27.26-2.52.41-3.73l.93.11c-.17.93-.3,2.26-.41,3.51Zm1-7.46-.91-.15c.2-1.25.43-2.51.67-3.74l.91.19c-.23,1.16-.46,2.35-.67,3.58Zm1.48-7.38-.9-.22c.28-1.24.6-2.45.94-3.74l.89.25c-.33,1.15-.63,2.39-.93,3.6Zm2-7.26-.88-.26c.37-1.22.76-2.43,1.19-3.63l.88.3c-.45,1.09-.8,2.28-1.19,3.48Zm2.5-7.11-.88-.34c.47-1.2.95-2.35,1.44-3.53l.86.37c-.49,1.05-1,2.21-1.42,3.38Zm3-6.93-.84-.39q.81-1.74,1.68-3.42l.82.43c-.56,1-1.12,2.13-1.66,3.23Zm3.45-6.7-.82-.47c.62-1.1,1.25-2.19,1.87-3.27l.8.47a35.26,35.26,0,0,0-1.85,3.15Zm3.88-6.44-.78-.53c.71-1.06,1.42-2.1,2.13-3.13l.76.54a36.58,36.58,0,0,0-2.11,3Zm4.34-6.17-.75-.56c.76-1,1.55-2,2.35-3l.73.6a34.17,34.17,0,0,0-2.33,2.85Zm4.74-5.86-.71-.6c.84-1,1.68-1.86,2.54-2.81l.69.61c-.84.86-1.68,1.76-2.52,2.69Zm163.26-2.24c-.85-.93-1.71-1.87-2.59-2.74l.67-.66c.88.92,1.76,1.87,2.62,2.77Zm-158.13-3.27-.67-.65c.9-.9,1.87-1.87,2.73-2.63l.63.67a31.49,31.49,0,0,0-2.69,2.5Zm152.85-2.11c-.89-.85-1.87-1.71-2.76-2.53l.61-.71c1,.83,1.88,1.69,2.8,2.57ZM584.81,349l-.61-.71c.95-.82,1.86-1.64,2.91-2.45l.58.73Zm141.76-2c-1-.81-1.87-1.59-2.93-2.35l.56-.75q1.51,1.17,3,2.37Zm-135.93-2.8-.56-.73c1-.77,2-1.51,3.06-2.26l.54.77C592.65,342.69,591.65,343.44,590.64,344.19Zm130-1.87c-1-.75-2.06-1.46-3.1-2.15l.52-.78c1.05.71,2.09,1.42,3.12,2.16Zm-123.84-2.41-.52-.78,3.21-2,.48.81C598.89,338.49,597.88,339.16,596.78,339.91Zm117.62-1.64c-1.07-.67-2.13-1.31-3.23-1.87l.47-.82c1.1.64,2.18,1.29,3.26,1.87ZM603.24,336l-.45-.8c1.08-.62,2.2-1.23,3.32-1.87l.43.84c-1.19.58-2.27,1.16-3.36,1.78Zm104.64-1.46c-1.12-.59-2.24-1.15-3.38-1.69l.41-.84c1.14.54,2.28,1.12,3.4,1.69Zm-98-2.09-.41-.84q1.71-.81,3.45-1.56l.37.85Zm91.2-1.28c-1.16-.51-2.31-1-3.47-1.46l.33-.88c1.18.47,2.36,1,3.51,1.48Zm-84.33-1.7-.34-.88,3.55-1.33.32.88c-1.18.47-2.36.9-3.53,1.36Zm77.33-1.1c-1.18-.43-2.35-.85-3.57-1.22l.3-.89c1.25.38,2.44.79,3.59,1.23Zm-70.24-1.42-.28-.9c1.25-.37,2.46-.73,3.64-1.06l.25.89-3.61,1.1Zm63.07-.9c-1.2-.34-2.41-.67-3.62-1l.2-.92c1.24.32,2.47.64,3.74,1Zm-55.82-1.12-.23-.91,3.74-.83.18.92c-1.25.3-2.48.56-3.69.88Zm48.54-.69c-1.23-.26-2.47-.5-3.74-.71l.15-.93c1.25.22,2.51.46,3.74.72Zm-41.07-.82-.17-.92c1.25-.22,2.5-.41,3.73-.58l.13.94c-1.4.26-2.56.39-3.79.59Zm33.71-.49c-1.23-.17-2.48-.32-3.73-.45l.09-.93c1.27.13,2.52.28,3.74.47ZM646,322.4v-.92c1.26-.13,2.52-.24,3.74-.31v.93l-3.83.34Zm18.79-.26c-1.24-.1-2.51-.15-3.74-.21V321c1.27,0,2.52.11,3.74.2Zm-11.21-.23V321h3.81v.93h-.31c-1.29,0-2.51,0-3.66,0Z"/><path class="cls-7" d="M741.23,361.64,740,360.22l.71-.61c.41.47.82.95,1.22,1.44Z"/><path class="cls-7" d="M547,422.45h-3.73v-.93H547Zm-7.47,0h-3v-.93h3Z"/><path class="cls-7" d="M579.08,353.69l-2.65-2.58.67-.65,2.63,2.63Zm-5.28-5.26-2.65-2.66.67-.65,2.63,2.63Z"/><path class="cls-7" d="M734.62,353.69,734,353l2.65-2.64.65.66Zm5.28-5.26-.67-.68,2.65-2.63.65.65Z"/><path class="cls-7" d="M657.31,321.43h-.94v-3.74h.94Zm0-7.47h-.94v-3.73h.94Z"/></g><g id="freepik--social-media-icons--inject-2"><circle class="cls-7" cx="277.53" cy="154.44" r="36.26"/><polygon class="cls-2" points="264.01 168.37 264.01 140.52 297.2 154.45 264.01 168.37"/><circle class="cls-17" cx="192.88" cy="117.55" r="48.95"/><path class="cls-2" d="M191.68,104c-.11,3.1,0,6.25,0,9.63h12.18c-.53,4-1,7.71-1.57,11.37,0,.38-1,.83-1.48.86h-9.05v40.59a47.68,47.68,0,0,1-12.94-2V126H168.18V113.75H178.6c0-.94.11-1.68.11-2.38,0-3.22,0-6.45.26-9.63.67-7,5-11.95,11.91-12.9a98.23,98.23,0,0,1,13.29-.11V99.84h-4.81a20.23,20.23,0,0,0-4.26.3A4,4,0,0,0,191.68,104Z"/><circle class="cls-17" cx="311.3" cy="240.38" r="48.95"/><path class="cls-2" d="M284.56,263.37a27.43,27.43,0,0,0,17.65-5.44c-7.3-2.22-10.21-4.44-11.2-8.59l4.89-.24c-5.77-2.22-9.15-6.08-9.6-12.39l5,1.32c-5.28-6.65-6.35-11.8-3.19-16.6A36.3,36.3,0,0,0,314,234.35a10.66,10.66,0,0,0-.12-2A12.56,12.56,0,0,1,334.56,222a2.49,2.49,0,0,0,2.78.56l6.11-2.24a12.41,12.41,0,0,1-4.8,6.16l.13.36,6.05-1.55.24.24c-1.56,1.57-3.06,3.21-4.7,4.69a3.21,3.21,0,0,0-1.33,2.71,35.87,35.87,0,0,1-53.21,31.19C285.37,263.87,285,263.61,284.56,263.37Z"/><circle class="cls-7" cx="274.4" cy="325.02" r="36.2"/><path class="cls-2" d="M296,313.12a9,9,0,0,0-8.34-9.71,9.3,9.3,0,0,0-1.18,0q-12.08-.15-24.18,0a9,9,0,0,0-9.47,8.59c0,.31,0,.62,0,.94v23.87c0,6,3.73,9.84,9.67,9.9q12,.15,23.91,0A9.16,9.16,0,0,0,296,338c0-.35,0-.69,0-1Q296,325,296,313.12Zm-3.85,23.94a5.27,5.27,0,0,1-4.7,5.8,5.36,5.36,0,0,1-1.06,0H262.46a5.24,5.24,0,0,1-5.77-4.66,5.34,5.34,0,0,1,0-1.13V313a5.31,5.31,0,0,1,4.73-5.82,5.79,5.79,0,0,1,1,0h23.92a5.32,5.32,0,0,1,5.79,4.8,4.77,4.77,0,0,1,0,1V325C292.14,329,292.18,333,292.14,337.06Z"/><path class="cls-2" d="M274.43,313.77a11.56,11.56,0,1,0,.24,0Zm-.13,18.67a7.63,7.63,0,0,1-7.47-7.46,7.53,7.53,0,1,1,15.05,0A7.63,7.63,0,0,1,274.3,332.44Z"/><path class="cls-2" d="M289.06,313.44a2.58,2.58,0,0,1-5.13-.47,2.5,2.5,0,0,1,2.55-2.42h.16a2.55,2.55,0,0,1,2.45,2.63A2.13,2.13,0,0,1,289.06,313.44Z"/></g></svg>