<svg id="Layer_1" data-name="Layer 1" xmlns="http://www.w3.org/2000/svg" viewBox="0 0 800 900"><defs><style>.cls-1{fill:#263238;}.cls-2{fill:#ffc727;}.cls-10,.cls-3{isolation:isolate;}.cls-10,.cls-3,.cls-8{opacity:0.1;}.cls-4{fill:#37474f;}.cls-5{fill:#455a64;}.cls-6{fill:#fff;}.cls-7{fill:#ebebeb;}.cls-9{fill:#f7a9a0;}.cls-10{fill:#020100;}.cls-11{fill:#008f6b;}.cls-12{fill:#057253;}.cls-13{fill:#c7c7c7;}.cls-14{fill:#a6a6a6;}</style></defs><g id="freepik--Floor--inject-2"><path class="cls-1" d="M785.83,833.91l-109.67.49-109.65.19-219.32.35-120.1-.19H227l-99.17-.16h-7.22L18.22,834.4,0,834.32v-.84l18.22-.08h8.24l67.93-.11h0l25.44,0h9.89l133.2-.22h0l84.22-.13,219.32.35,109.65.17Z"/></g><g id="freepik--Cloud--inject-2"><path class="cls-2" d="M507.75,148.6A33.75,33.75,0,0,0,539,182.24H730a39.64,39.64,0,0,0,3.72-79.11A66.79,66.79,0,0,0,604.32,82.22a39.63,39.63,0,0,0-57.3,33,36,36,0,0,0-5.48-.45,33.77,33.77,0,0,0-33.79,33.75Z"/><path class="cls-3" d="M507.75,148.6A33.75,33.75,0,0,0,539,182.24H730a39.64,39.64,0,0,0,3.72-79.11A66.79,66.79,0,0,0,604.32,82.22a39.63,39.63,0,0,0-57.3,33,36,36,0,0,0-5.48-.45,33.77,33.77,0,0,0-33.79,33.75Z"/><path class="cls-2" d="M488.71,148.6a33.75,33.75,0,0,0,31.22,33.64h191a39.64,39.64,0,0,0,3.7-79.11A66.79,66.79,0,0,0,585.24,82.22a39.2,39.2,0,0,0-17.72-4.11,39.67,39.67,0,0,0-39.6,37.2,34.74,34.74,0,0,0-5.48-.46A33.76,33.76,0,0,0,488.71,148.6Z"/><path class="cls-4" d="M606.46,182.32H651.9v36.29a9.16,9.16,0,0,1-9.15,9.16H615.62a9.16,9.16,0,0,1-9.16-9.16V182.32Z"/><rect class="cls-5" x="618.45" y="227.77" width="21.48" height="6.63"/><path class="cls-6" d="M625.21,212.41a4.11,4.11,0,1,1-4.11-4.11A4.1,4.1,0,0,1,625.21,212.41Z"/><path class="cls-2" d="M641.37,212.41a4.11,4.11,0,1,1-4.11-4.11A4.1,4.1,0,0,1,641.37,212.41Z"/><polygon class="cls-6" points="631.49 188.89 626.58 196.2 629.03 196.2 626.58 202.51 631.8 194.91 629.09 194.91 631.49 188.89"/><path class="cls-2" d="M619.68,559.92H548.46v-6.16h71.16a6.43,6.43,0,0,0,6.43-6.43h0V234.42h6.16V547.33A12.6,12.6,0,0,1,619.68,559.92Z"/></g><g id="freepik--Server--inject-2"><rect class="cls-1" x="171.74" y="329.14" width="133.86" height="504.77"/><rect class="cls-4" x="305.6" y="329.14" width="246.37" height="504.77"/><rect class="cls-4" x="324.09" y="768.44" width="212.5" height="49.06"/><rect class="cls-5" x="333.02" y="776.55" width="120.94" height="4.15"/><rect class="cls-5" x="333.02" y="783.72" width="120.94" height="4.15"/><rect class="cls-5" x="333.02" y="790.91" width="120.94" height="4.15"/><rect class="cls-5" x="333.02" y="798.09" width="120.94" height="4.15"/><rect class="cls-5" x="333.02" y="805.26" width="120.94" height="4.15"/><circle class="cls-2" cx="471.91" cy="780.66" r="4.11"/><path class="cls-2" d="M489.58,780.66a4.11,4.11,0,1,1-4.11-4.11A4.1,4.1,0,0,1,489.58,780.66Z"/><path class="cls-2" d="M503.11,780.66a4.11,4.11,0,1,1-4.11-4.11A4.1,4.1,0,0,1,503.11,780.66Z"/><circle class="cls-7" cx="512.54" cy="780.66" r="4.11"/><path class="cls-2" d="M530.2,780.66a4.11,4.11,0,1,1-4.11-4.11A4.1,4.1,0,0,1,530.2,780.66Z"/><path class="cls-7" d="M476,793a4.11,4.11,0,1,1-4.11-4.11A4.11,4.11,0,0,1,476,793Z"/><path class="cls-2" d="M489.58,793a4.11,4.11,0,1,1-4.11-4.11A4.11,4.11,0,0,1,489.58,793Z"/><path class="cls-2" d="M503.11,793a4.11,4.11,0,1,1-4.11-4.11A4.11,4.11,0,0,1,503.11,793Z"/><path class="cls-7" d="M516.65,793a4.11,4.11,0,1,1-4.11-4.11A4.11,4.11,0,0,1,516.65,793Z"/><path class="cls-7" d="M530.2,793a4.11,4.11,0,1,1-4.11-4.11A4.11,4.11,0,0,1,530.2,793Z"/><circle class="cls-2" cx="471.91" cy="805.3" r="4.11"/><path class="cls-7" d="M489.58,805.3a4.11,4.11,0,1,1-4.11-4.11A4.11,4.11,0,0,1,489.58,805.3Z"/><path class="cls-2" d="M503.11,805.3a4.11,4.11,0,1,1-4.11-4.11A4.11,4.11,0,0,1,503.11,805.3Z"/><circle class="cls-2" cx="512.54" cy="805.3" r="4.11"/><path class="cls-2" d="M530.2,805.3a4.11,4.11,0,1,1-4.11-4.11A4.11,4.11,0,0,1,530.2,805.3Z"/><rect class="cls-1" x="460.02" y="776.55" width="2.36" height="32.86"/><rect class="cls-4" x="324.09" y="709.29" width="212.5" height="49.06"/><rect class="cls-5" x="333.02" y="717.4" width="120.94" height="4.15"/><rect class="cls-5" x="333.02" y="724.59" width="120.94" height="4.15"/><rect class="cls-5" x="333.02" y="731.76" width="120.94" height="4.15"/><rect class="cls-5" x="333.02" y="738.95" width="120.94" height="4.15"/><rect class="cls-5" x="333.02" y="746.11" width="120.94" height="4.15"/><path class="cls-7" d="M476,721.59a4.11,4.11,0,1,1-4.11-4.11A4.11,4.11,0,0,1,476,721.59Z"/><path class="cls-2" d="M489.58,721.59a4.11,4.11,0,1,1-4.11-4.11A4.11,4.11,0,0,1,489.58,721.59Z"/><path class="cls-2" d="M503.11,721.59a4.11,4.11,0,1,1-4.11-4.11A4.11,4.11,0,0,1,503.11,721.59Z"/><path class="cls-7" d="M516.65,721.59a4.11,4.11,0,1,1-4.11-4.11A4.11,4.11,0,0,1,516.65,721.59Z"/><path class="cls-2" d="M530.2,721.59a4.11,4.11,0,1,1-4.11-4.11A4.11,4.11,0,0,1,530.2,721.59Z"/><path class="cls-2" d="M476,733.91a4.11,4.11,0,1,1-4.11-4.1A4.11,4.11,0,0,1,476,733.91Z"/><path class="cls-2" d="M489.58,733.91a4.11,4.11,0,1,1-4.11-4.1A4.11,4.11,0,0,1,489.58,733.91Z"/><path class="cls-7" d="M503.11,733.91a4.11,4.11,0,1,1-4.11-4.1A4.11,4.11,0,0,1,503.11,733.91Z"/><path class="cls-7" d="M516.65,733.91a4.11,4.11,0,1,1-4.11-4.1A4.11,4.11,0,0,1,516.65,733.91Z"/><path class="cls-2" d="M530.2,733.91a4.11,4.11,0,1,1-4.11-4.1A4.11,4.11,0,0,1,530.2,733.91Z"/><path class="cls-2" d="M476,746.24a4.11,4.11,0,1,1-4.11-4.11A4.1,4.1,0,0,1,476,746.24Z"/><path class="cls-7" d="M489.58,746.24a4.11,4.11,0,1,1-4.11-4.11A4.1,4.1,0,0,1,489.58,746.24Z"/><path class="cls-2" d="M503.11,746.24a4.11,4.11,0,1,1-4.11-4.11A4.1,4.1,0,0,1,503.11,746.24Z"/><path class="cls-2" d="M516.65,746.24a4.11,4.11,0,1,1-4.11-4.11A4.1,4.1,0,0,1,516.65,746.24Z"/><path class="cls-7" d="M530.2,746.24a4.11,4.11,0,1,1-4.11-4.11A4.1,4.1,0,0,1,530.2,746.24Z"/><rect class="cls-1" x="460.02" y="717.4" width="2.36" height="32.86"/><rect class="cls-4" x="324.09" y="650.14" width="212.5" height="49.06"/><rect class="cls-5" x="333.02" y="658.25" width="120.94" height="4.15"/><rect class="cls-5" x="333.02" y="665.44" width="120.94" height="4.15"/><rect class="cls-5" x="333.02" y="672.61" width="120.94" height="4.15"/><rect class="cls-5" x="333.02" y="679.8" width="120.94" height="4.15"/><rect class="cls-5" x="333.02" y="686.99" width="120.94" height="4.15"/><circle class="cls-7" cx="471.91" cy="662.36" r="4.11"/><path class="cls-2" d="M489.58,662.36a4.11,4.11,0,1,1-4.11-4.11A4.11,4.11,0,0,1,489.58,662.36Z"/><path class="cls-7" d="M503.11,662.36a4.11,4.11,0,1,1-4.11-4.11A4.11,4.11,0,0,1,503.11,662.36Z"/><circle class="cls-2" cx="512.54" cy="662.36" r="4.11"/><path class="cls-2" d="M530.2,662.36a4.11,4.11,0,1,1-4.11-4.11A4.11,4.11,0,0,1,530.2,662.36Z"/><path class="cls-2" d="M476,674.68a4.11,4.11,0,1,1-4.11-4.1A4.11,4.11,0,0,1,476,674.68Z"/><path class="cls-7" d="M489.58,674.68a4.11,4.11,0,1,1-4.11-4.1A4.11,4.11,0,0,1,489.58,674.68Z"/><path class="cls-7" d="M503.11,674.68a4.11,4.11,0,1,1-4.11-4.1A4.11,4.11,0,0,1,503.11,674.68Z"/><path class="cls-2" d="M516.65,674.68a4.11,4.11,0,1,1-4.11-4.1A4.11,4.11,0,0,1,516.65,674.68Z"/><path class="cls-7" d="M530.2,674.68a4.11,4.11,0,1,1-4.11-4.1A4.11,4.11,0,0,1,530.2,674.68Z"/><path class="cls-7" d="M476,687a4.11,4.11,0,1,1-4.11-4.11A4.1,4.1,0,0,1,476,687Z"/><path class="cls-2" d="M489.58,687a4.11,4.11,0,1,1-4.11-4.11A4.1,4.1,0,0,1,489.58,687Z"/><path class="cls-2" d="M503.11,687A4.11,4.11,0,1,1,499,682.9,4.1,4.1,0,0,1,503.11,687Z"/><path class="cls-7" d="M516.65,687a4.11,4.11,0,1,1-4.11-4.11A4.1,4.1,0,0,1,516.65,687Z"/><path class="cls-2" d="M530.2,687a4.11,4.11,0,1,1-4.11-4.11A4.1,4.1,0,0,1,530.2,687Z"/><rect class="cls-1" x="460.02" y="658.25" width="2.36" height="32.86"/><rect class="cls-4" x="324.09" y="591.01" width="212.5" height="49.06"/><rect class="cls-5" x="333.02" y="599.11" width="120.94" height="4.15"/><rect class="cls-5" x="333.02" y="606.29" width="120.94" height="4.15"/><rect class="cls-5" x="333.02" y="613.46" width="120.94" height="4.15"/><rect class="cls-5" x="333.02" y="620.65" width="120.94" height="4.15"/><rect class="cls-5" x="333.02" y="627.84" width="120.94" height="4.15"/><path class="cls-2" d="M476,603.21a4.11,4.11,0,1,1-4.11-4.1A4.11,4.11,0,0,1,476,603.21Z"/><path class="cls-2" d="M489.58,603.21a4.11,4.11,0,1,1-4.11-4.1A4.11,4.11,0,0,1,489.58,603.21Z"/><path class="cls-2" d="M503.11,603.21a4.11,4.11,0,1,1-4.11-4.1A4.11,4.11,0,0,1,503.11,603.21Z"/><path class="cls-2" d="M516.65,603.21a4.11,4.11,0,1,1-4.11-4.1A4.11,4.11,0,0,1,516.65,603.21Z"/><path class="cls-7" d="M530.2,603.21a4.11,4.11,0,1,1-4.11-4.1A4.11,4.11,0,0,1,530.2,603.21Z"/><circle class="cls-7" cx="471.91" cy="615.54" r="4.11"/><path class="cls-7" d="M489.58,615.54a4.11,4.11,0,1,1-4.11-4.11A4.1,4.1,0,0,1,489.58,615.54Z"/><path class="cls-2" d="M503.11,615.54a4.11,4.11,0,1,1-4.11-4.11A4.1,4.1,0,0,1,503.11,615.54Z"/><circle class="cls-7" cx="512.54" cy="615.54" r="4.11"/><path class="cls-2" d="M530.2,615.54a4.11,4.11,0,1,1-4.11-4.11A4.1,4.1,0,0,1,530.2,615.54Z"/><path class="cls-2" d="M476,627.86a4.11,4.11,0,1,1-4.11-4.11A4.11,4.11,0,0,1,476,627.86Z"/><path class="cls-2" d="M489.58,627.86a4.11,4.11,0,1,1-4.11-4.11A4.11,4.11,0,0,1,489.58,627.86Z"/><path class="cls-7" d="M503.11,627.86a4.11,4.11,0,1,1-4.11-4.11A4.11,4.11,0,0,1,503.11,627.86Z"/><path class="cls-2" d="M516.65,627.86a4.11,4.11,0,1,1-4.11-4.11A4.11,4.11,0,0,1,516.65,627.86Z"/><path class="cls-7" d="M530.2,627.86a4.11,4.11,0,1,1-4.11-4.11A4.11,4.11,0,0,1,530.2,627.86Z"/><rect class="cls-1" x="460.02" y="599.11" width="2.36" height="32.86"/><rect class="cls-4" x="324.09" y="531.87" width="212.5" height="49.06"/><rect class="cls-5" x="333.02" y="539.96" width="120.94" height="4.15"/><rect class="cls-5" x="333.02" y="547.15" width="120.94" height="4.15"/><rect class="cls-5" x="333.02" y="554.34" width="120.94" height="4.15"/><rect class="cls-5" x="333.02" y="561.5" width="120.94" height="4.15"/><rect class="cls-5" x="333.02" y="568.69" width="120.94" height="4.15"/><path class="cls-2" d="M476,544.07a4.11,4.11,0,1,1-4.11-4.11A4.11,4.11,0,0,1,476,544.07Z"/><path class="cls-2" d="M489.58,544.07a4.11,4.11,0,1,1-4.11-4.11A4.11,4.11,0,0,1,489.58,544.07Z"/><path class="cls-2" d="M503.11,544.07A4.11,4.11,0,1,1,499,540,4.11,4.11,0,0,1,503.11,544.07Z"/><path class="cls-2" d="M516.65,544.07a4.11,4.11,0,1,1-4.11-4.11A4.11,4.11,0,0,1,516.65,544.07Z"/><path class="cls-7" d="M530.2,544.07a4.11,4.11,0,1,1-4.11-4.11A4.11,4.11,0,0,1,530.2,544.07Z"/><path class="cls-7" d="M476,556.39a4.11,4.11,0,1,1-4.11-4.11A4.11,4.11,0,0,1,476,556.39Z"/><path class="cls-2" d="M489.58,556.39a4.11,4.11,0,1,1-4.11-4.11A4.11,4.11,0,0,1,489.58,556.39Z"/><path class="cls-2" d="M503.11,556.39a4.11,4.11,0,1,1-4.11-4.11A4.11,4.11,0,0,1,503.11,556.39Z"/><path class="cls-7" d="M516.65,556.39a4.11,4.11,0,1,1-4.11-4.11A4.11,4.11,0,0,1,516.65,556.39Z"/><path class="cls-2" d="M530.2,556.39a4.11,4.11,0,1,1-4.11-4.11A4.11,4.11,0,0,1,530.2,556.39Z"/><path class="cls-7" d="M476,568.71a4.11,4.11,0,1,1-4.11-4.11A4.11,4.11,0,0,1,476,568.71Z"/><path class="cls-7" d="M489.58,568.71a4.11,4.11,0,1,1-4.11-4.11A4.11,4.11,0,0,1,489.58,568.71Z"/><path class="cls-2" d="M503.11,568.71A4.11,4.11,0,1,1,499,564.6,4.11,4.11,0,0,1,503.11,568.71Z"/><path class="cls-2" d="M516.65,568.71a4.11,4.11,0,1,1-4.11-4.11A4.11,4.11,0,0,1,516.65,568.71Z"/><path class="cls-7" d="M530.2,568.71a4.11,4.11,0,1,1-4.11-4.11A4.11,4.11,0,0,1,530.2,568.71Z"/><rect class="cls-1" x="460.02" y="539.96" width="2.36" height="32.86"/><rect class="cls-4" x="324.09" y="472.72" width="212.5" height="49.06"/><rect class="cls-5" x="333.02" y="480.83" width="120.94" height="4.15"/><rect class="cls-5" x="333.02" y="488" width="120.94" height="4.15"/><rect class="cls-5" x="333.02" y="495.19" width="120.94" height="4.15"/><rect class="cls-5" x="333.02" y="502.35" width="120.94" height="4.15"/><rect class="cls-5" x="333.02" y="509.54" width="120.94" height="4.15"/><path class="cls-7" d="M476,484.94a4.11,4.11,0,1,1-4.11-4.11A4.11,4.11,0,0,1,476,484.94Z"/><path class="cls-2" d="M489.58,484.94a4.11,4.11,0,1,1-4.11-4.11A4.11,4.11,0,0,1,489.58,484.94Z"/><path class="cls-2" d="M503.11,484.94a4.11,4.11,0,1,1-4.11-4.11A4.11,4.11,0,0,1,503.11,484.94Z"/><path class="cls-7" d="M516.65,484.94a4.11,4.11,0,1,1-4.11-4.11A4.11,4.11,0,0,1,516.65,484.94Z"/><path class="cls-2" d="M530.2,484.94a4.11,4.11,0,1,1-4.11-4.11A4.11,4.11,0,0,1,530.2,484.94Z"/><path class="cls-2" d="M476,497.26a4.11,4.11,0,1,1-4.11-4.11A4.11,4.11,0,0,1,476,497.26Z"/><path class="cls-7" d="M489.58,497.26a4.11,4.11,0,1,1-4.11-4.11A4.11,4.11,0,0,1,489.58,497.26Z"/><path class="cls-2" d="M503.11,497.26a4.11,4.11,0,1,1-4.11-4.11A4.11,4.11,0,0,1,503.11,497.26Z"/><path class="cls-2" d="M516.65,497.26a4.11,4.11,0,1,1-4.11-4.11A4.11,4.11,0,0,1,516.65,497.26Z"/><path class="cls-7" d="M530.2,497.26a4.11,4.11,0,1,1-4.11-4.11A4.11,4.11,0,0,1,530.2,497.26Z"/><path class="cls-2" d="M476,509.58a4.11,4.11,0,1,1-4.11-4.1A4.11,4.11,0,0,1,476,509.58Z"/><path class="cls-2" d="M489.58,509.58a4.11,4.11,0,1,1-4.11-4.1A4.11,4.11,0,0,1,489.58,509.58Z"/><path class="cls-7" d="M503.11,509.58a4.11,4.11,0,1,1-4.11-4.1A4.11,4.11,0,0,1,503.11,509.58Z"/><path class="cls-7" d="M516.65,509.58a4.11,4.11,0,1,1-4.11-4.1A4.11,4.11,0,0,1,516.65,509.58Z"/><path class="cls-2" d="M530.2,509.58a4.11,4.11,0,1,1-4.11-4.1A4.11,4.11,0,0,1,530.2,509.58Z"/><rect class="cls-1" x="460.02" y="480.83" width="2.36" height="32.86"/><rect class="cls-5" x="324.09" y="354.42" width="212.5" height="49.06"/><rect class="cls-6" x="343.88" y="373.54" width="107.76" height="10.82"/><rect class="cls-2" x="343.88" y="373.54" width="66.07" height="10.82"/><path class="cls-2" d="M477.89,379a5.71,5.71,0,1,1-5.71-5.71h0A5.71,5.71,0,0,1,477.89,379Z"/><path class="cls-6" d="M499.74,379a5.71,5.71,0,1,1-5.71-5.71h0A5.7,5.7,0,0,1,499.74,379Z"/><path class="cls-6" d="M521.59,379a5.71,5.71,0,1,1-5.7-5.71h0A5.7,5.7,0,0,1,521.59,379Z"/><rect class="cls-5" x="324.09" y="413.57" width="212.5" height="49.06"/><rect class="cls-6" x="343.88" y="432.69" width="107.76" height="10.82"/><rect class="cls-2" x="343.88" y="432.69" width="86.42" height="10.82"/><path class="cls-2" d="M477.89,438.18a5.71,5.71,0,1,1-5.71-5.71h0a5.68,5.68,0,0,1,5.71,5.66Z"/><path class="cls-6" d="M499.74,438.18a5.71,5.71,0,1,1-5.71-5.71h0a5.67,5.67,0,0,1,5.71,5.66Z"/><path class="cls-6" d="M521.59,438.18a5.71,5.71,0,1,1-5.7-5.71h0a5.68,5.68,0,0,1,5.68,5.68Z"/><rect class="cls-5" x="324.09" y="472.72" width="212.5" height="49.06"/><rect class="cls-6" x="343.88" y="491.84" width="107.76" height="10.82"/><rect class="cls-2" x="343.88" y="491.84" width="18.18" height="10.82"/><path class="cls-2" d="M477.89,497.26a5.71,5.71,0,1,1-5.71-5.71h0a5.69,5.69,0,0,1,5.71,5.67Z"/><path class="cls-6" d="M499.74,497.26a5.71,5.71,0,1,1-5.73-5.69h0a5.69,5.69,0,0,1,5.71,5.67Z"/><path class="cls-6" d="M521.59,497.26a5.71,5.71,0,1,1-5.7-5.71h0a5.68,5.68,0,0,1,5.68,5.69Z"/><rect class="cls-5" x="324.09" y="531.87" width="212.5" height="49.06"/><rect class="cls-6" x="343.88" y="550.99" width="107.76" height="10.82"/><rect class="cls-2" x="343.88" y="550.99" width="66.07" height="10.82"/><path class="cls-2" d="M477.89,556.39a5.71,5.71,0,1,1-5.73-5.69h0a5.69,5.69,0,0,1,5.71,5.67Z"/><path class="cls-6" d="M499.74,556.39A5.71,5.71,0,1,1,494,550.7h0a5.69,5.69,0,0,1,5.71,5.67Z"/><path class="cls-6" d="M521.59,556.39a5.71,5.71,0,1,1-5.73-5.69h0A5.68,5.68,0,0,1,521.59,556.39Z"/><rect class="cls-5" x="324.09" y="591.01" width="212.5" height="49.06"/><rect class="cls-6" x="343.88" y="610.14" width="107.76" height="10.82"/><rect class="cls-2" x="343.88" y="610.14" width="89.81" height="10.82"/><path class="cls-2" d="M477.89,615.54a5.71,5.71,0,1,1-5.73-5.69h0a5.69,5.69,0,0,1,5.71,5.67Z"/><path class="cls-6" d="M499.74,615.54a5.71,5.71,0,1,1-5.73-5.69h0a5.68,5.68,0,0,1,5.71,5.67Z"/><path class="cls-6" d="M521.59,615.54a5.71,5.71,0,1,1-5.73-5.69h0A5.68,5.68,0,0,1,521.59,615.54Z"/><rect class="cls-5" x="324.09" y="650.14" width="212.5" height="49.06"/><rect class="cls-6" x="343.88" y="669.28" width="107.76" height="10.82"/><rect class="cls-2" x="343.88" y="669.28" width="73.75" height="10.82"/><path class="cls-2" d="M477.89,674.68a5.71,5.71,0,1,1-5.71-5.71h0A5.71,5.71,0,0,1,477.89,674.68Z"/><path class="cls-6" d="M499.74,674.68A5.71,5.71,0,1,1,494,669h0A5.71,5.71,0,0,1,499.74,674.68Z"/><path class="cls-6" d="M521.59,674.68a5.71,5.71,0,1,1-5.7-5.71h0A5.71,5.71,0,0,1,521.59,674.68Z"/><rect class="cls-5" x="324.09" y="709.29" width="212.5" height="49.06"/><rect class="cls-6" x="343.88" y="728.43" width="107.76" height="10.82"/><rect class="cls-2" x="343.88" y="728.43" width="38.96" height="10.82"/><path class="cls-2" d="M477.89,733.91a5.71,5.71,0,1,1-5.71-5.71h0A5.71,5.71,0,0,1,477.89,733.91Z"/><path class="cls-6" d="M499.74,733.91A5.71,5.71,0,1,1,494,728.2h0A5.71,5.71,0,0,1,499.74,733.91Z"/><path class="cls-6" d="M521.59,733.91a5.71,5.71,0,1,1-5.7-5.71h0A5.71,5.71,0,0,1,521.59,733.91Z"/><rect class="cls-5" x="324.09" y="768.44" width="212.5" height="49.06"/><rect class="cls-6" x="343.88" y="787.56" width="107.76" height="10.82"/><rect class="cls-2" x="343.88" y="787.56" width="76.38" height="10.82"/><path class="cls-2" d="M477.89,793a5.71,5.71,0,1,1-5.71-5.71h0A5.71,5.71,0,0,1,477.89,793Z"/><path class="cls-6" d="M499.74,793a5.71,5.71,0,1,1-5.75-5.67h0A5.71,5.71,0,0,1,499.74,793Z"/><path class="cls-6" d="M521.59,793a5.71,5.71,0,1,1-5.7-5.71h0A5.7,5.7,0,0,1,521.59,793Z"/><rect class="cls-1" x="221.81" y="313.57" width="280.11" height="15.57"/></g><g id="freepik--Folder--inject-2"><polygon class="cls-2" points="549.01 833.91 741.61 833.91 720.54 700.77 527.92 700.77 549.01 833.91"/><polygon class="cls-2" points="650.28 686.97 718.34 686.97 720.54 700.77 648.56 700.77 650.28 686.97"/><g class="cls-8"><polygon points="549.01 833.91 741.61 833.91 720.54 700.77 527.92 700.77 549.01 833.91"/><polygon points="650.28 686.97 718.34 686.97 720.54 700.77 648.56 700.77 650.28 686.97"/></g><polygon class="cls-2" points="548.91 833.91 741.53 833.91 756.38 711.82 563.78 711.82 548.91 833.91"/><polygon class="cls-2" points="689.86 699.16 757.92 699.16 756.38 711.82 684.41 711.82 689.86 699.16"/></g><g id="freepik--Character--inject-2"><path class="cls-9" d="M26.81,833.54c4.66,1.52,141.11.27,146.14-3,1.93-1.21-8.21-130.57-8.21-130.57l-86.82.55,9,86.57S36.32,810.33,31.18,814.5,22.15,832,26.81,833.54Z"/><path class="cls-2" d="M26.81,833.54c4.64,1.5,141.11.27,146.12-3,.62-.37,1-13.47-1-30.6-24.79,3.84-113.27,16.29-120.09,12.16-4.76-2.87-.47-7.23,3.49-10.15C44,807.44,33.42,812.72,31.24,814.5,26.13,818.65,22.17,832,26.81,833.54Z"/><path class="cls-10" d="M93.55,833.91c37.28-.47,76.75-1.64,79.4-3.37.6-.35,1-13.47-1-30.6-8.21,1.28-23.51,3.51-40.5,5.75Z"/><path class="cls-11" d="M80.2,766.3h95.71s-18-203.69-17.25-207.59c.94-5,6.59-27.6,14.11-57.16,2.36-9.24,4.91-19.16,7.55-29.45,7.13-27.78,15-58.16,21.84-84.61,10.26-39.6,18.32-70.36,18.32-70.36H139.39s-9.44,30-21.36,68.92c-19.4,63.34-45.32,150.52-47.89,171.71C66,592,80.2,766.3,80.2,766.3Z"/><path class="cls-1" d="M84.48,750c14.62-.28,10.41-.41,25-.55,7.15,0,54.14-.47,60.81.62a.16.16,0,0,1,.1.21.15.15,0,0,1-.1.09c-6.67,1.11-53.66.7-60.81.64-14.62-.14-10.41-.27-25-.57C84.31,750.34,84.31,750,84.48,750Z"/><path class="cls-1" d="M140.65,545c3.14-13.82,7.82-27.38,11.91-41q12.44-41.37,25-82.71,6.28-20.67,12.63-41.3,3.21-10.42,6.45-20.84c2.06-6.8,4.56-13.52,6.47-20.38.78-2.79,1.21-1.25.21,2.28-2.06,7.15-4,14.38-6.16,21.4q-6.16,21.13-12.45,42.27-12.45,42.06-25.1,84L147,530.86a166.17,166.17,0,0,0-5.17,20.35A93,93,0,0,0,141,573c.91,14.65,2.61,29.25,4,43.85s2.71,29.27,4.11,43.91c2.71,29.12,4.1,38.49,6.77,67.63.33,3.68.66,7.37.93,11.07,0,1.23-1.77,1.15-1.89,0-3.17-28.75-4.32-38-7-66.79l-8.05-86c-.65-7.21-1.43-14.38-1.43-21.67A89.62,89.62,0,0,1,140.65,545Z"/><path class="cls-12" d="M148.59,317.13c5.63,43.54,16.43,125.28,24.18,184.42,18.3-71.88,47.71-184.42,47.71-184.42Z"/><path class="cls-9" d="M121.57,835.12c4.66,1.52,141.11.29,146.14-3,1.93-1.21-2-130.57-2-130.57l-86.83.57,3,86.57S131.16,812,126,816.06,116.93,833.62,121.57,835.12Z"/><path class="cls-2" d="M121.57,835.12c4.66,1.52,141.11.29,146.14-3,.6-.36.62-13.14.37-30.6-24.79,3.84-114.64,16.29-121.46,12.16-4.76-2.87-.47-7.23,3.51-10.14C138.78,809,128.2,814.3,126,816.1,120.89,820.17,116.93,833.64,121.57,835.12Z"/><path class="cls-11" d="M142,317.13s1.87,38.79,10.74,69.52c.72,2.54,1.48,5,2.32,7.43a143.78,143.78,0,0,1,23.38,12s.92,31.19,1.86,66c1,39-5,82.32-5.21,91.54-.82,34.44,3.37,202.27,3.37,202.27l95.64.39s-16.43-189.95-16.25-202.58c.19-20.27-6.94-161.36-5.75-164.52,15.41-40.26-5-82.15-5-82.15Z"/><path class="cls-1" d="M181.76,748.91c14.6-.25,10.41-.39,25-.46,7.14,0,54.15-.26,60.83.89a.14.14,0,0,1,.14.14.15.15,0,0,1-.14.15c-6.7,1.08-53.69.47-60.83.37-14.63-.21-10.42-.31-25-.66-.09.08-.27,0-.35-.07a.22.22,0,0,1,0-.32A.35.35,0,0,1,181.76,748.91Z"/><path class="cls-1" d="M151.1,391.78a175,175,0,0,1,27.33,14.38.3.3,0,0,1,.13.41.31.31,0,0,1-.39.14c-9.24-4.48-18.65-8.79-27.62-13.78a.63.63,0,0,1-.3-.85.64.64,0,0,1,.85-.3Z"/><path class="cls-1" d="M165.5,378.76q-.44-6.56-1-13.12c-.88-10-1.91-20-3.66-29.8-.14-.78-1.23-.5-1.17.24.68,7.75,1.56,15.47,2.28,23.21s1.67,15.45,1.79,23.13c0,2.32,0,6.26-3,6.9-3.82.86-5.62-4.11-6.55-6.9a128.14,128.14,0,0,1-4.8-21.1c-1.26-8.21-1.94-16.43-2.72-24.52,0-.31-.51-.24-.51,0,0,16.23.19,33.21,6.16,48.53,1.19,3,3.25,6,6.72,6.43h.16a.71.71,0,0,0,0,.29,8.07,8.07,0,0,0,.27,1.35c.08.46.14.76.23,1.13.16.78.28,1.58.47,2.37a.6.6,0,0,0,1.19-.13.53.53,0,0,0,.33-.49,12.7,12.7,0,0,0-1.05-4.58,5.79,5.79,0,0,0,4.11-3.53C166.17,385.27,165.7,381.86,165.5,378.76Z"/><path class="cls-1" d="M242.45,399.15a178.51,178.51,0,0,1,4.11-19.94c3.53-14.85,1.15-35-2.67-49.57a.34.34,0,0,1,.65-.15c3.82,12.32,6.6,30.23,5.1,43.13-.7,6.16-5.67,24.93-5.51,31.63.31,13.2-.74,125.81.15,171.79.57,30.17,6.84,131.34,7.78,161.51,0,.27-.45.27-.47,0-3.49-53.77-8.05-108.71-8.77-161.4C242.18,525,241.57,406.53,242.45,399.15Z"/><path class="cls-1" d="M195.21,333c.41,4.62.6,9.27,1.28,13.87a18.49,18.49,0,0,0,5.17,11.21,27.46,27.46,0,0,0,10.76,6.16c5.26,1.58,21.24,1.6,26.7.82,1.38-.18,1.26.86-1.33,1.44a162.72,162.72,0,0,1-17.64,1.27,39.4,39.4,0,0,1-8.61-.59,24.24,24.24,0,0,1-12.46-6.49,20.09,20.09,0,0,1-5.14-12.57,75.49,75.49,0,0,1,.58-15.1C194.56,332.59,195.21,332.61,195.21,333Z"/><path class="cls-1" d="M252.16,153.44c1.52,7.52,3.08,15.06,4.32,22.6.76,4.62,1.23,9.24,1.56,13.88a29,29,0,0,1-4.56,5.15c0-1.17-.17-2.34-.25-3.49-.37-5.56-1.21-11-2-16.43,0-.18-.27-.1-.25,0,.74,5.65,1.07,11.44,1.36,17.15V196a40.9,40.9,0,0,1-5.14,3.65,40.32,40.32,0,0,0-.14-4.1c-.12-3.17-.31-6.31-.58-9.45a179.69,179.69,0,0,0-2.58-18.48c0-.25-.35-.13-.33.12.84,6.33,1.48,12.71,1.93,19.08.2,3,.37,6.16.47,9.08v4.39A63.2,63.2,0,0,1,235.65,205c-10.14,3.62-21.36,3.45-31.87,1.83a55.26,55.26,0,0,1-25.59-10.72,60.56,60.56,0,0,0,4.93-15.71c0-.19-.17-.25-.23,0q-1.66,5.24-3.72,10.27c-.63,1.58-1.35,3.12-2,4.66l-.35-.29c-.74-.59-1.52-1.25-2.28-1.95a97.28,97.28,0,0,0,3.47-9.84,88.47,88.47,0,0,0,3.37-14.37c0-.33-.33-.45-.43-.15-1.38,4.6-2.65,9.27-4.11,13.85-1,3.22-2.24,6.38-3.33,9.57a12.71,12.71,0,0,1-4.25-8.57,25,25,0,0,1,1.93-8.21c1-3,1.83-6,2.53-9.08a102.83,102.83,0,0,0,2.55-19.45c.2-6.16-.5-12.32-.19-18.3a22.72,22.72,0,0,1,4.81-13.94,21.6,21.6,0,0,1,9.65-6.43c0-.14,17.17-18.83,41.22-9.14,19.63,7.93,30.81,69.83,30.81,76a26.11,26.11,0,0,1-3.39,13c-.31-3.92-.89-7.83-1.5-11.6-1.3-7.85-3.25-15.47-5.26-23.11C252.41,153.1,252.1,153.2,252.16,153.44Z"/><path class="cls-9" d="M207.54,206.74c-36.64,32.41-77,54.44-92.07,48.53S67.16,194.42,65.6,177.76c-.68-7.19,40.4-36.12,44.51-29.61,4.84,7.68,23.45,53.39,26.7,56.76,2.42,2.42,36.55-11.95,62.51-19.78C215.87,180.14,226.74,189.67,207.54,206.74Z"/><path class="cls-2" d="M174.68,236.91l-5.38-42.82a319.27,319.27,0,0,1,32.08-10.58c15.62-3.59,23.92,1.32,12.32,17.25C206.08,211.46,174.68,236.91,174.68,236.91Z"/><path class="cls-6" d="M211.65,203.35l-.18-.43c-.09-.21-.18-.41-.26-.62l-.06-.13a17.4,17.4,0,0,0-2.67-4.22,18,18,0,0,0,.57,2.41,17.38,17.38,0,0,0,.66,1.83c.09.22.19.44.29.65s.16.33.25.49l.29.57a4.92,4.92,0,0,0,.24.45l0,.06h0l.22-.25h0l.64-.72h0A.25.25,0,0,0,211.65,203.35Zm-36.71-11.42-1.35.49s0,0,0,0a12.19,12.19,0,0,0-.34,1.42,12.77,12.77,0,0,0-.25,1.83c.22-.3.44-.62.64-.94.06-.1.12-.2.17-.3a9.49,9.49,0,0,0,.54-1,1.93,1.93,0,0,0,.19-.38,10,10,0,0,0,.5-1.17s0,0,0,0Z"/><path class="cls-1" d="M178.21,232c-.35-6.3-.78-12.57-1.5-18.81-.37-3.12-.78-6.16-1.23-9.35s-1.23-6.16-1.62-9.28c0-.16-.31-.12-.27,0,.57,3.08.72,6.16,1.13,9.37s.78,6.16,1.15,9.36c.74,6.16,1.48,12.47,2,18.71C178,232.21,178.23,232.16,178.21,232Z"/><path class="cls-10" d="M213.8,200.8c-7.72,10.66-39,36-39,36L171,206.92l46.33-22.59C220.45,187,219.86,192.32,213.8,200.8Z"/><path class="cls-9" d="M46.19,155.64c4.79,10.44,22.92,28,28.92,30.5s36.78-27.27,36-33.93-19.55-40.58-30-45.78S41.18,144.84,46.19,155.64Z"/><path class="cls-9" d="M109,145.89a95.41,95.41,0,0,1,2.71-27.56c3-10.62,8.75-26.07,3.1-27.91-11.6-3.8-25.86,34.7-25.86,34.7s-3.55,18,7.62,22.8A12,12,0,0,0,109,145.89Z"/><path class="cls-9" d="M95.61,117.79c-.7,6-7.42,1.77-7.42,1.77s8.22,8.48,5.08,14.37-11,.29-11.55-.1c.44.45,7.75,8.44,4.11,14.11s-10.94-1-11.4-1.42c.27.56,3.74,7.95,0,11.61-6.59,6.16-16-12.33-23-14.38,0,0-4.81,11.6-5,11.91,0,0-9.28-17.56-6-27A6.38,6.38,0,0,1,47,124.36s-3.62-5.34-.81-9.87c1.46-2.35,6.47-2.06,6.47-2.06a8,8,0,0,1,0-8.21c2.18-3.1,6.88-2.39,6.88-2.39s-.65-5.42,2.61-7.86C68.62,88.87,97.07,104.81,95.61,117.79Z"/><path class="cls-1" d="M60.18,101.71v-.14a56.47,56.47,0,0,1,28.34,18.15c.23.27-.14.76-.45.49A117,117,0,0,0,60.18,101.71Z"/><path class="cls-1" d="M52.4,112.25c-.13,0,0-.25.1-.21a52.9,52.9,0,0,1,29.76,21.73c.24.37,0,.94-.23.53C76.88,127.36,62,116.6,52.4,112.25Z"/><path class="cls-1" d="M74.54,147.49c-6.93-10.27-16.43-17.25-27.24-23-.14,0,0-.27,0-.23,6.16,1.38,12.57,5.79,17.34,9.63a32.77,32.77,0,0,1,10.27,13.39C75,147.45,74.7,147.69,74.54,147.49Z"/><path class="cls-1" d="M88.42,119.52c.27.33-.53.35-.27.69,1.09,1.48,6.94,10.93,4.36,13.93-2.06,2.4-6.76,1.25-8.38.1L80,131.37l2.81,4.1a20.11,20.11,0,0,1,2.86,6,7.26,7.26,0,0,1-.47,5.94,4.12,4.12,0,0,1-4.87,2,12.59,12.59,0,0,1-5.3-3.45l-4.11-4.21,2.53,5.32A19.26,19.26,0,0,1,75,151.72a7.9,7.9,0,0,1-.29,4.54,3.79,3.79,0,0,1-3.24,2.28,8.38,8.38,0,0,1-4.34-1.69,65.69,65.69,0,0,1-7.7-6.73c-1.25-1.21-2.51-2.41-3.82-3.54a12.46,12.46,0,0,0-4.37-2.77,13.06,13.06,0,0,1,4.1,3.12c1.22,1.22,2.37,2.51,3.54,3.78A55,55,0,0,0,66.36,158a9.81,9.81,0,0,0,5.14,2.2A5.33,5.33,0,0,0,76.4,157a9.75,9.75,0,0,0,.52-5.65,21.07,21.07,0,0,0-1.62-5.2l-1.63,1.11a14.63,14.63,0,0,0,6.16,4.11,6,6,0,0,0,4.11-.18,6.91,6.91,0,0,0,3-2.69,9.16,9.16,0,0,0,.62-7.52,22.56,22.56,0,0,0-3.27-6.59l-1.25,1.25c2,1.38,7.19,3.22,10.9,0C98.11,130.57,90,121.14,88.42,119.52Z"/><path class="cls-1" d="M88.19,119.52a12.65,12.65,0,0,0,3.64.82,2.83,2.83,0,0,0,2.59-1.23A5.65,5.65,0,0,0,95,115.9c-.08-1.23-.23-2.5-.43-3.82a9.59,9.59,0,0,1,1.75,3.62,5.73,5.73,0,0,1-.44,4.33,4,4,0,0,1-1.89,1.5,4.18,4.18,0,0,1-2.3.12A6.42,6.42,0,0,1,88.19,119.52Z"/><path class="cls-2" d="M159.85,262.33,135.49,323.7s88.54,1.87,115.79,1.58c0,0,17.13-99.52-10.27-133-13.65-16.72-25.57-15.77-37.15-5.34-2.94,2.65-41.65,32.12-46.11,48.57A42,42,0,0,0,159.85,262.33Z"/><path class="cls-1" d="M179.19,259.29a115.7,115.7,0,0,1,16.43,2.86c2.7.72,5.32,1.56,7.95,2.44,1.32.45,2.63.85,4,1.24a18,18,0,0,0,4.25.84.1.1,0,0,1,0,.2,31.3,31.3,0,0,1-4.11-.12,26.88,26.88,0,0,1-3.88-.76c-2.73-.7-5.42-1.52-8.22-2.26-5.48-1.46-11-2.92-16.55-4a.25.25,0,0,1-.14-.33.25.25,0,0,1,.32-.15Z"/><path class="cls-1" d="M165.41,264.1a119.62,119.62,0,0,1,13.78-.53,62.58,62.58,0,0,1,6.88.47,24.21,24.21,0,0,1,3.29.39c1.09.14,2.38.49,3.57.64a.1.1,0,0,1,0,.2c-1.13-.1-2.3,0-3.43,0l-3.45-.12c-2.3,0-4.58-.13-6.88-.23-4.6-.18-9.18-.35-13.78-.37a.23.23,0,0,1,0-.45Z"/><path class="cls-6" d="M211.69,203.42l0-.08-.18-.44c-.08-.2-.18-.4-.27-.6l0-.08s0,0,0-.05a18.34,18.34,0,0,0-2.71-4.3.24.24,0,0,0,0,.08,18,18,0,0,0,.57,2.41,16.72,16.72,0,0,0,.68,1.83c.08.19.16.38.25.56l.27.58.29.57.25.44,0,.06h0a17.69,17.69,0,0,0,1.88,2.68A17.84,17.84,0,0,0,211.69,203.42Zm17,62.1,0-.08c-.2-.47-.43-.92-.67-1.37a17.37,17.37,0,0,0-2-3,17.92,17.92,0,0,0,.77,3.07,19.32,19.32,0,0,0,.75,1.82,18.2,18.2,0,0,0,2.71,4.33A17,17,0,0,0,228.71,265.52ZM175.35,250.4l-.06-.08a17.51,17.51,0,0,0-2.71-4.33,19.42,19.42,0,0,0,1.5,4.88,17.83,17.83,0,0,0,2.73,4.32A18.19,18.19,0,0,0,175.35,250.4Zm-21.91,45.74c-.11-.29-.24-.58-.37-.86l-.06-.09a18.45,18.45,0,0,0-2.69-4.33,17.54,17.54,0,0,0,1.5,4.89l.18.39a17.19,17.19,0,0,0,2.53,3.94A18,18,0,0,0,153.44,296.14Zm53.56,26-.06-.08a13,13,0,0,0,.72,2.87h1.23A15,15,0,0,0,207,322.1Zm-9.69-99.51a17.32,17.32,0,0,0-2.77,1.09l-.07-.08a18.08,18.08,0,0,0-4.31,2.71,19.6,19.6,0,0,0,7.32-2.84,16.71,16.71,0,0,0,1.88-1.37A16.08,16.08,0,0,0,197.31,222.59Zm-13.25,55.73a17.33,17.33,0,0,0-3.41,1.29l-.06-.09a18.2,18.2,0,0,0-4.31,2.71,19.8,19.8,0,0,0,7.54-3,17.68,17.68,0,0,0,1.66-1.22C185,278.09,184.53,278.19,184.06,278.32Zm61.14,11-.06-.08a17.5,17.5,0,0,0-2.38,1.27,16.89,16.89,0,0,0-1.95,1.44,17.6,17.6,0,0,0,4.71-1.44l.17-.08a16.72,16.72,0,0,0,4.32-2.71A17.79,17.79,0,0,0,245.2,289.28Zm-88.78,34.83h1a12.18,12.18,0,0,0,.31-2.18A15.3,15.3,0,0,0,156.42,324.11ZM228.07,232a18.43,18.43,0,0,0-1.15,5,17.59,17.59,0,0,0,2.41-4.5,19.6,19.6,0,0,0,1.15-5A18.48,18.48,0,0,0,228.07,232Zm-22.24,57.77,0,0c-.09.24-.17.48-.25.72a18.7,18.7,0,0,0-.86,4.27,17.65,17.65,0,0,0,2.26-4.27c0-.09.07-.18.1-.27a17.63,17.63,0,0,0,1.15-5A19.14,19.14,0,0,0,205.83,289.73Zm20.6-109.15-.25-.11h0c-.26.54-.48,1.07-.69,1.62-.06.14-.11.29-.17.44a17.47,17.47,0,0,0-1.13,5,17.67,17.67,0,0,0,2.36-4.54l.21-.57c.17-.49.31-1,.43-1.49Q226.8,180.75,226.43,180.58Zm16.86,28.62,0,0a17.55,17.55,0,0,0-4.91-1.08,17.73,17.73,0,0,0,4.54,2.38,17.34,17.34,0,0,0,5,1.13A18.81,18.81,0,0,0,243.29,209.2ZM183.4,310.65a4.94,4.94,0,0,0-.57-.26l-.21-.09c-.32-.14-.65-.26-1-.38v0a17.64,17.64,0,0,0-4.91-1.09,18,18,0,0,0,4.52,2.36l.16.06.17.06a5.84,5.84,0,0,0,.59.2,17,17,0,0,0,4.05.83A17.32,17.32,0,0,0,183.4,310.65Zm-15.21-91.18v0a4.31,4.31,0,0,0-.39.46c.43,0,.84.12,1.29.14A5.31,5.31,0,0,0,168.19,219.47Zm60.95,90.45v0a17.6,17.6,0,0,0-5-1.13,18.5,18.5,0,0,0,4.54,2.36,17.71,17.71,0,0,0,5,1.15A18.18,18.18,0,0,0,229.14,309.92Zm-23-62.74a18.37,18.37,0,0,0-4.26-1.08l-.73-.07c.27.2.54.38.82.57a20.3,20.3,0,0,0,8.67,3A17.49,17.49,0,0,0,206.1,247.18Z"/><path class="cls-9" d="M258.41,207.05c20.54,24.91,42.88,69.6,36.33,92.42-6.29,22-104.17,18.87-120.74,16.53-7.15-1,1-50.48,8.69-49.95,12.71.9,64.81-3.51,65.72-3.51,0,0-8-23.5-13.91-48.94C226.45,179,243.93,189.43,258.41,207.05Z"/><path class="cls-1" d="M248,262.11a45.05,45.05,0,0,1,11.4,4.52,41.43,41.43,0,0,1,9.8,7.25c-3.6-2.06-7-4-10.6-5.92S251.51,264.14,248,262.11Z"/><rect class="cls-13" x="154.73" y="290.47" width="126.31" height="5.67"/><rect class="cls-14" x="154.73" y="290.47" width="63.56" height="5.67"/><polygon class="cls-13" points="211.46 296.14 88.38 296.14 72.28 212.53 195.38 212.53 211.46 296.14"/><path class="cls-6" d="M149.37,254.32a6.76,6.76,0,0,1-6,7.46,7.32,7.32,0,0,1-.81,0,8.34,8.34,0,0,1-8.22-7.5,6.76,6.76,0,0,1,6-7.45,6.12,6.12,0,0,1,.86,0A8.37,8.37,0,0,1,149.37,254.32Z"/><path class="cls-9" d="M197.08,300.74c-8.34,4.11-18.48,14.52-25.42,15.5a8,8,0,0,1-8.5-4.23s-3.27,7-9.66,6.82c-3.28,0-6.06-5.36-6.06-5.36s-2.85,5.44-8.52,5c-4.52-.39-6.61-5.65-6.61-5.65s-5.2,4-9.68,2.06c-9-3.76-10-42.64,4.21-49,6.62-3,6.31,6.55,6.31,6.55s3.74-13.58,11.73-14,6.88,11.94,6.88,11.94,3.73-13.11,12.07-12.68c8.69.46,5.45,12.59,5.45,12.59s5.64-8.79,12-7c10.41,3-2.06,22.86.12,31.36l13.89.41Z"/><path class="cls-9" d="M185.05,308c8.21-3.29,11.95,2.63,20.54,1.76,9.46-.94,6.73-12.11-9.78-14.56l-14.38-.41Z"/><path class="cls-1" d="M131.86,312c0,.15-.17.19-.21,0A67.43,67.43,0,0,1,133.11,272c.14-.39.88-.33.8.16A137.48,137.48,0,0,0,131.86,312Z"/><path class="cls-1" d="M147.36,313.66a.14.14,0,0,1-.27,0c-3.45-13.13-2.81-30,4.32-43.65.24-.45.92-.63.68,0C148,279.38,145.92,301.17,147.36,313.66Z"/><path class="cls-1" d="M170.1,269.56c-6.31,13.33-7.73,27.34-7.13,41.92,0,.21-.25.18-.31,0-2.24-7.06-1.66-16.43-.59-23.64a38.71,38.71,0,0,1,7.57-18.48C169.81,269.13,170.24,269.28,170.1,269.56Z"/><path class="cls-1" d="M173.2,315.9a29.94,29.94,0,0,0,6.92-3.76c2.18-1.5,4.11-3.21,6.47-4.64a6,6,0,0,1,1.93-.91,6.65,6.65,0,0,1,2.18,0c1.33.23,2.62.56,3.92.91a56.72,56.72,0,0,0,7.62,1.72c2.48.29,5.23.25,6.86-1.4a4.59,4.59,0,0,0,1.29-3.08,4.76,4.76,0,0,0-1.29-3.14,17.08,17.08,0,0,0-6.31-4.29,25.1,25.1,0,0,0-7.53-2.16,21.42,21.42,0,0,1,7.84,1.42,17.58,17.58,0,0,1,7,4.11,5.72,5.72,0,0,1,0,8.07,6.6,6.6,0,0,1-3.92,1.93,14.89,14.89,0,0,1-4.11,0,53.85,53.85,0,0,1-7.8-1.93c-1.28-.37-2.51-.8-3.76-1.07a5.28,5.28,0,0,0-1.77-.16,5.81,5.81,0,0,0-1.68.72C182.67,311,178.37,314.54,173.2,315.9Z"/><path class="cls-2" d="M282.68,235.53l-44.6,1.58a332.05,332.05,0,0,1-7.85-34c-2.28-16.43,3.31-21.13,18.65-7.8C259.17,204.25,282.68,235.53,282.68,235.53Z"/><path class="cls-6" d="M253.91,200.27q-.66.12-1.32.27a24.55,24.55,0,0,0-5.39,1.92,23.38,23.38,0,0,0-2.88,1.63,20.66,20.66,0,0,0,3.31-.67,18.28,18.28,0,0,0,2.05-.69,24.27,24.27,0,0,0,3.46-1.63c.33-.2.66-.39,1-.6Zm9.48,30.95a24.94,24.94,0,0,0-8.66-3.53,20.86,20.86,0,0,0,4.75,2.81,19,19,0,0,0,1.81.73,20.54,20.54,0,0,0,3.46.93C264.31,231.83,263.85,231.51,263.39,231.22Z"/><path class="cls-1" d="M242.45,236.91a39.82,39.82,0,0,0-4.37,0c-.66-2.57-1.3-5.14-2.06-7.68-.35-1.28-.72-2.55-1.09-3.8s-.84-3-1.21-4.23c0-.19-.31-.15-.27,0,.33,1.64.62,2.85.93,4.29.2,1,.43,2,.68,3l-.37-.72c-.66-1.29-1.42-2.51-2.06-3.84,0-.16-.35,0-.26.1.65,1.32,1.11,2.69,1.72,4a20.22,20.22,0,0,0,1.5,2.93c.51,2.18.84,4.67,1.48,6.74a34.35,34.35,0,0,0,5.24-.7S242.55,237,242.45,236.91Z"/><path class="cls-1" d="M278,231.47c-6.51-.23-13-.35-19.51-.19-3.25,0-16.2,1.09-19.45,1.23-.16,0-.14.27,0,.27,4.11.23,16.88-.2,20.13-.31,6.49-.18,12.32-.7,18.83-.74A.13.13,0,1,0,278,231.47Z"/><path class="cls-9" d="M230.58,192.16c-1.07,2-14.77,12.59-24.11,9.47-3-1,1.81-17.89,1.81-17.89v-1.32l1-18.48,24.22-7.33,3.45-.91s-.62,5.06-1.46,11.36v.88a3.09,3.09,0,0,1-.12,1l-.37,2.86a12.3,12.3,0,0,1-.35,2.19c-.15.76-.25,1.5-.35,2.28A117.93,117.93,0,0,1,230.58,192.16Z"/><path class="cls-1" d="M237.07,155.62s-.62,5-1.46,11.36v.88a3.09,3.09,0,0,1-.12,1l-.37,2.85a12.27,12.27,0,0,1-.35,2.2c-.14.76-.25,1.5-.35,2.28-.41,2.38-.9,4.77-1.38,6.94-13.63,0-21.91-9.73-23.94-12.32l.39-6.88,24.23-7.33Z"/><path class="cls-9" d="M253.64,138.16c2.49,32.54-16.71,37.69-23.72,38.22-6.36.48-28.11,1.3-33.95-30.8s8.51-43.54,23-45.41S251.16,105.65,253.64,138.16Z"/><path class="cls-1" d="M246.56,130.42a15.94,15.94,0,0,1-2.26-.31,3.79,3.79,0,0,1-2.22-.76,1.16,1.16,0,0,1-.1-1.43,2.91,2.91,0,0,1,2.81-.87,4.34,4.34,0,0,1,2.77,1.32,1.24,1.24,0,0,1-.16,1.76A1.21,1.21,0,0,1,246.56,130.42Z"/><path class="cls-1" d="M224.91,134.22c.76-.12,1.46-.37,2.2-.55a3.73,3.73,0,0,0,2-1,1.17,1.17,0,0,0,0-1.42,2.91,2.91,0,0,0-2.89-.57,4.09,4.09,0,0,0-2.61,1.62A1.25,1.25,0,0,0,224,134,1.23,1.23,0,0,0,224.91,134.22Z"/><path class="cls-1" d="M230.52,141.33a7.23,7.23,0,0,0-.23-1.38l-.15.43a8.51,8.51,0,0,1-.36,3.76,0,0,0,0,1,0,0,3,3,0,0,1-1.48,1.69l0,.15C230.21,145.58,230.7,143.3,230.52,141.33Zm-.39-1.15a1.21,1.21,0,0,1,0,.19l.15-.42S230.13,140.07,230.13,140.18Zm-1.89,5.69,0,0,.31-.92,1.54-4.54-1.57,4.54Z"/><path class="cls-1" d="M228.07,137.75c-3.61,0-3.45,7.19,0,7.23S231.18,137.79,228.07,137.75Z"/><path class="cls-1" d="M226.74,138.16c-.62.44-1.23,1.18-2.05,1.26a2.52,2.52,0,0,1-2.06-1.34h-.12c0,1.38.57,2.8,2.05,3s2.32-1.09,2.63-2.49C227.23,138.33,227,138,226.74,138.16Z"/><path class="cls-1" d="M245.83,144a3.1,3.1,0,0,1-1.82-1.81,9,9,0,0,1-.58-3.39l-.19-.39v0c-.33,2.16.16,5.56,2.67,5.77Zm-.34-.84-2.06-4.36,2,4.36.39.84.07,0Zm-2.07-4.6a.16.16,0,0,0-.17-.17h0v0l.19.38A1.77,1.77,0,0,1,243.42,138.51Z"/><path class="cls-1" d="M245.12,136c3.59-.43,4.11,6.77.86,7.16S242.12,136.28,245.12,136Z"/><path class="cls-1" d="M246.66,136.28c.62.32,1.23,1,1.91,1s1.31-.84,1.77-1.62h0c.16,1.37-.19,2.85-1.48,3.22s-2.18-.78-2.61-2.05C246.27,136.56,246.43,136.15,246.66,136.28Z"/><path class="cls-1" d="M234.2,158.33a5.63,5.63,0,0,1-2.22.43,2.76,2.76,0,0,1-1.62-1.11l-.06-.06-.17-.18a.19.19,0,0,0-.2-.14.17.17,0,0,0-.13.2,2.34,2.34,0,0,0,0,.26.15.15,0,0,1,0,.07,2.4,2.4,0,0,0,1.67,1.72,3,3,0,0,0,2.88-1.15Zm-3.46-.8-.15,0-.46-.09.44.1.14,0,3.49.79.2-.08Z"/><path class="cls-1" d="M240.21,148.6s.58,3.35.64,4.93a8.53,8.53,0,0,1-8.4-2.26c-.12-.15,0-.33.22-.23a11.49,11.49,0,0,0,7,1.73c0-.46-1.19-5.69-.95-5.73a13.57,13.57,0,0,1,3.62.7c-1-7-3.15-13.79-4.11-20.77a.23.23,0,0,1,.23-.22.22.22,0,0,1,.18.1A114.32,114.32,0,0,1,243.93,149C244.15,149.89,240.85,148.82,240.21,148.6Z"/><path class="cls-1" d="M198,148.89c6.16.59,7.39-13.66,7.39-13.66s26.31-5.3,27.89-26.91a36.4,36.4,0,0,0,19,19.39s-1.67-23.58-20.54-27.6c0,0-23.48-7.74-36,11.09S193.76,148.6,198,148.89Z"/><path class="cls-1" d="M233.27,106.74a23.5,23.5,0,0,1-.88,9.86,24.46,24.46,0,0,1-4.73,8.85,18.61,18.61,0,0,1-1.72,1.83l-.91.9a9.58,9.58,0,0,1-1,.78c-.35.25-1.32,1-2.06,1.52l-2.17,1.28c-.37.18-.72.41-1.11.59l-1.15.5-2.28,1c-1.6.49-3.2.9-4.79,1.29,1.5-.71,3-1.27,4.5-2l2.16-1.13,1.07-.57c.35-.21.67-.46,1-.68l2.06-1.34c.63-.49,1.23-1,1.84-1.54l.93-.76.82-.86a17,17,0,0,0,1.62-1.77,29.25,29.25,0,0,0,6.16-12.89A26.4,26.4,0,0,0,233.27,106.74Z"/><path class="cls-9" d="M201.38,147.69s-7-10.26-11.67-7.76.55,17.31,6,19.39A5.54,5.54,0,0,0,203,156.6a1.42,1.42,0,0,0,.08-.18Z"/><path class="cls-1" d="M191.27,144.14s-.1.12,0,.14c3.8,1.59,5.77,5.14,7.13,8.79a3,3,0,0,0-4.11-1.15,3.23,3.23,0,0,0-.43.29s0,.23.1.21a3.37,3.37,0,0,1,3.72,1.21,15.24,15.24,0,0,1,1.74,3c.19.35.81.16.68-.23h0C200.16,151.51,196.47,144.67,191.27,144.14Z"/></g></svg>