<svg id="Layer_1" data-name="Layer 1" xmlns="http://www.w3.org/2000/svg" viewBox="0 0 800 900"><defs><style>.cls-1{fill:#ebebeb;}.cls-2{fill:#fff;}.cls-3{fill:#dbdbdb;}.cls-4{fill:#c7c7c7;}.cls-12,.cls-5{fill:#263238;}.cls-6{fill:#455a64;}.cls-7{fill:#008f6b;}.cls-8{fill:#f8f8f8;}.cls-9{fill:#ff383b;}.cls-10{fill:#ffc727;}.cls-11{fill:#37474f;}.cls-12{isolation:isolate;opacity:0.1;}.cls-13{fill:#ad6359;}.cls-14{fill:#ff9cbd;}.cls-15{fill:#a6a6a6;}</style></defs><path class="cls-1" d="M220.82,127.62V108.75h3.1v18.87Zm1.28-7.78v-3h6.5a2,2,0,0,0,1.6-.71,2.86,2.86,0,0,0,.61-1.87,2.73,2.73,0,0,0-.61-1.86,2,2,0,0,0-1.6-.71h-6.5v-3h6.59a5.52,5.52,0,0,1,2.81.69,4.76,4.76,0,0,1,1.87,1.93,6.17,6.17,0,0,1,.67,2.92,6.06,6.06,0,0,1-.68,2.92,4.82,4.82,0,0,1-1.87,1.93,5.37,5.37,0,0,1-2.8.7Zm9,7.78-4.45-8.37,3.21-.59,5,9Z"/><path class="cls-1" d="M243,127.81a5.48,5.48,0,0,1-6-4.91,5,5,0,0,1,0-1.09V120.3a6.62,6.62,0,0,1,1.51-4.66,5.56,5.56,0,0,1,4.28-1.65,4.75,4.75,0,0,1,4,1.92,8.82,8.82,0,0,1,1.42,5.38v.89h-9.14v-2.27h6.27v-.15a3.84,3.84,0,0,0-.79-2.18,2.22,2.22,0,0,0-1.78-.79,2.73,2.73,0,0,0-2.15.88,3.6,3.6,0,0,0-.78,2.48v1.71a2.88,2.88,0,0,0,2.59,3.14,2.72,2.72,0,0,0,.57,0,4.1,4.1,0,0,0,1.51-.29,4.37,4.37,0,0,0,1.34-.81l2,1.89a7.58,7.58,0,0,1-2.3,1.49A6.77,6.77,0,0,1,243,127.81Z"/><path class="cls-1" d="M255.58,127.81a5.14,5.14,0,0,1-3.47-1,4,4,0,0,1-1.16-3.14,3.68,3.68,0,0,1,1.17-3,5.27,5.27,0,0,1,3.5-1h3.6l.18,2.41h-3.77a2.07,2.07,0,0,0-1.38.39,1.43,1.43,0,0,0-.46,1.19,1.41,1.41,0,0,0,.6,1.25,3.23,3.23,0,0,0,1.8.41,5.63,5.63,0,0,0,2.19-.32,1.09,1.09,0,0,0,.73-1l.27,1.92a2.17,2.17,0,0,1-.79,1.09,3.93,3.93,0,0,1-1.34.63A7.23,7.23,0,0,1,255.58,127.81Zm3.53-.19v-8.53a2.3,2.3,0,0,0-.67-1.76,2.7,2.7,0,0,0-1.89-.62A4.83,4.83,0,0,0,255,117a4.34,4.34,0,0,0-1.35.7L251.59,116a5.15,5.15,0,0,1,2.07-1.43,7.55,7.55,0,0,1,2.86-.52,5.71,5.71,0,0,1,4,1.31A4.81,4.81,0,0,1,262,119v8.65Z"/><path class="cls-1" d="M271.3,127.81a5.88,5.88,0,0,1-4.39-1.58,6,6,0,0,1-1.57-4.46v-1.83a6,6,0,0,1,1.56-4.41,5.91,5.91,0,0,1,4.4-1.57,7.51,7.51,0,0,1,2.92.56,5,5,0,0,1,2.08,1.6l-2.1,2a3.42,3.42,0,0,0-1.23-.86,3.9,3.9,0,0,0-1.5-.3,3.08,3.08,0,0,0-2.24.79,3,3,0,0,0-.79,2.22v1.83a3.15,3.15,0,0,0,.79,2.27,3,3,0,0,0,2.24.8,3.67,3.67,0,0,0,1.5-.32,3.58,3.58,0,0,0,1.23-.92l2.1,2.1a5,5,0,0,1-2.09,1.56A7.22,7.22,0,0,1,271.3,127.81Z"/><path class="cls-1" d="M277.92,116.87v-2.71h6.33v2.71Zm4.67,10.81a3.07,3.07,0,0,1-2.5-.92,4,4,0,0,1-.78-2.64V110.24h3.1v13.45a1.32,1.32,0,0,0,.2.75.67.67,0,0,0,.57.27h1.07v3Z"/><g id="freepik--background-complete--inject-2"><rect class="cls-1" x="604.82" y="161.09" width="130.77" height="130.77"/><path class="cls-2" d="M672.37,182a4.4,4.4,0,0,1,4.44,4.37v2.35a37.48,37.48,0,0,1,16,5.68,5.53,5.53,0,0,1,3.09,5,5.7,5.7,0,0,1-5.7,5.7h-.09a6,6,0,0,1-3.09-.94,37.83,37.83,0,0,0-10.62-4.55v19.85c15.71,3.93,22.44,10.24,22.44,21.24,0,11.36-8.85,18.92-22,20.16V267a4.4,4.4,0,0,1-4.37,4.45h-.07a4.5,4.5,0,0,1-4.55-4.45h0v-6.4a44.66,44.66,0,0,1-21.24-8.08,5.71,5.71,0,1,1,6.3-9.5A36.42,36.42,0,0,0,668.22,250V229.81c-15.1-3.93-22.12-9.63-22.12-21.24,0-11.07,8.85-18.71,21.7-19.74v-2.18a4.49,4.49,0,0,1,4.35-4.63A1.61,1.61,0,0,1,672.37,182Zm-4.13,35.4V199c-6.62.62-9.93,4.15-9.93,8.7S660.28,214.76,668.24,217.42Zm8.16,14.37v18.82c6.62-.73,10.23-4,10.23-9,0-4.62-2.26-7.42-10.23-9.9Z"/><rect class="cls-1" x="76.62" y="129.23" width="130.77" height="130.77"/><path class="cls-2" d="M171,220.64H110l-15-54.18h85.76l3.1-12.5h9.7v3.54H186.7Zm-58.29-3.54h55.53L180,169.93H99.72Z"/><polygon class="cls-2" points="118.61 231.37 115.35 229.99 120.8 217.03 162.31 217.03 166.81 230.09 163.46 231.24 159.8 220.57 123.16 220.57 118.61 231.37"/><rect class="cls-2" x="101.26" y="178.78" width="77.88" height="3.54"/><rect class="cls-2" x="104.51" y="192.06" width="70.47" height="3.54" transform="translate(-0.84 0.61) rotate(-0.25)"/><rect class="cls-2" x="108.22" y="205.65" width="63.85" height="3.54"/><rect class="cls-2" x="139.21" y="168.46" width="3.54" height="50.39"/><rect class="cls-2" x="127.46" y="168.4" width="3.54" height="50.57" transform="matrix(1, -0.08, 0.08, 1, -15.05, 10.94)"/><rect class="cls-2" x="114.86" y="168.03" width="3.54" height="51.24" transform="translate(-33.1 24.29) rotate(-10.42)"/><rect class="cls-2" x="127.19" y="191.88" width="50.57" height="3.54" transform="translate(-52.76 330.14) rotate(-85.41)"/><rect class="cls-2" x="139.46" y="191.9" width="51.24" height="3.54" transform="matrix(0.18, -0.98, 0.98, 0.18, -55.23, 321.04)"/><path class="cls-2" d="M117,238.31a7.63,7.63,0,1,1,7.63-7.63h0A7.65,7.65,0,0,1,117,238.31Zm0-11.72a4.09,4.09,0,1,0,4.09,4.09h0a4.11,4.11,0,0,0-4.09-4.09Z"/><path class="cls-2" d="M165,238.31a7.63,7.63,0,1,1,7.63-7.63h0A7.65,7.65,0,0,1,165,238.31Zm0-11.72a4.09,4.09,0,1,0,4.09,4.09h0a4.11,4.11,0,0,0-4.09-4.09Z"/><path class="cls-1" d="M120.91,538.25s20.32-73,36.57-97.8,46.5-52,46.5-52S203.27,501,120.91,538.25Z"/><path class="cls-2" d="M122.36,537a352.29,352.29,0,0,0,18.53-35.4A246.9,246.9,0,0,1,151,463.23a.2.2,0,0,1,.25-.12.19.19,0,0,1,.12.25c-2.7,11.54-5.84,23-8.69,34.46,8.22-17.7,15.93-35.76,25.79-52.54a111.79,111.79,0,0,1,9.42-23.36c.11-.21.46-.09.35.14a148.62,148.62,0,0,0-6.33,17.51,172.2,172.2,0,0,1,15.45-21.25c.35-.42,1.06,0,.71.48C175,435.49,166,454.47,157.37,473.68a292.62,292.62,0,0,0,25.51-31.87.1.1,0,0,1,.15,0,.11.11,0,0,1,0,.15,264.52,264.52,0,0,1-27.32,35.4c-6.26,14.07-12.39,28.21-19.87,41.6,14.9-12.61,26.37-28.91,37.72-44.65a.34.34,0,0,1,.47-.08.33.33,0,0,1,.09.47c-11.34,17.26-23,33.53-39.43,46.31a181.31,181.31,0,0,1-10.93,17,.88.88,0,1,1-1.43-1Z"/><path class="cls-1" d="M114.61,544.89s36.55-67.27,25.93-132.6-22-88.51-22-88.51S61.1,425.3,114.61,544.89Z"/><path class="cls-2" d="M99.6,439a318.68,318.68,0,0,0,14.16,54.35c.1-23.95.56-47.9,1.2-71.83a185,185,0,0,1-6.9-44.59c0-.45.65-.43.69,0a253.87,253.87,0,0,0,6.39,38.35q.84-29.62,1.93-59.24a.26.26,0,0,1,.32-.19.28.28,0,0,1,.19.19c0,30.85,0,61.71-.19,92.56A249.84,249.84,0,0,0,128,412c0-.11.21-.09.21,0-1.1,14.41-5.49,28.32-10.8,41.72-.14,19.72-.35,39.44-.8,59.16,6.2-21,12.8-41.28,14.59-63.43a.23.23,0,0,1,.46,0c-.48,24.45-6.78,49.25-14.83,72.22a1.46,1.46,0,0,1-.41.57c-.19,7.22-.39,14.43-.64,21.63a.81.81,0,0,1-1.61,0c-.28-14.74-.37-29.49-.35-44.25-8.22-19-12.59-40.09-14.41-60.57C99.26,438.89,99.58,438.86,99.6,439Z"/><path class="cls-2" d="M102.11,428.63a128.56,128.56,0,0,1,2.55,17.7.18.18,0,0,1-.18.17.18.18,0,0,1-.18-.17,128,128,0,0,1-3-17.7C101.24,428.27,102,428.18,102.11,428.63Z"/><path class="cls-2" d="M123.48,379.44c0-.2.33-.13.33,0A45.42,45.42,0,0,1,122,391.7a.26.26,0,0,1-.36.1.24.24,0,0,1-.13-.24C122.29,387.56,122.84,383.49,123.48,379.44Z"/><path class="cls-1" d="M101.28,550s1.48-70.25-18.68-105.16S29,392.11,29,392.11,42.51,515.93,101.28,550Z"/><path class="cls-2" d="M64.55,489.91C73,502.1,81.44,513.86,91.83,524.48q-6.06-21.57-14-42.38c-11.31-9.89-22.5-20.16-29.44-33.63a.2.2,0,0,1,.34-.2c7.43,12,17.4,21.62,27.89,30.86A544.3,544.3,0,0,0,48.62,418a.45.45,0,1,1,.78-.44,337.59,337.59,0,0,1,17.57,32c-1.87-7.5-3.39-15.18-5.31-22.63a.18.18,0,0,1,.12-.21.16.16,0,0,1,.2.12h0c3.54,9.38,7.08,19.75,8.29,29.79A360.3,360.3,0,0,1,88,504.78c-.53-10.52-1.19-21-2.27-31.51,0-.2.3-.25.36,0a170.9,170.9,0,0,1,3,35.4c2.9,10.46,5.31,21.06,7.31,31.74,0,.28-.37.4-.44.12-1.1-4.48-2.29-8.85-3.54-13.34a.33.33,0,0,1-.23-.09c-10.75-11-21-23.33-27.78-37.09C64.42,489.89,64.42,489.84,64.55,489.91Z"/><path class="cls-2" d="M41.2,432.75c2.25,2.43,4.3,5,6.48,7.47A59.55,59.55,0,0,1,53.49,447c0,.09,0,.21-.16.16a33.94,33.94,0,0,1-6.71-6.62A57.45,57.45,0,0,1,40.88,433C40.76,432.8,41,432.57,41.2,432.75Z"/><path class="cls-3" d="M161.14,541.35l-2.55,33.27L151,675.2H84.2L76.53,574.62,74,541.35Z"/><path class="cls-4" d="M161.14,541.35l-2.55,33.27H76.53L74,541.35Z"/><rect class="cls-3" x="68.05" y="525.06" width="99" height="25.51"/></g><g id="freepik--Shadows--inject-2"><ellipse class="cls-1" cx="186.37" cy="751.46" rx="187.22" ry="29.79"/><ellipse class="cls-1" cx="613.63" cy="731.19" rx="187.22" ry="29.79"/><ellipse class="cls-1" cx="402.51" cy="700.32" rx="188.41" ry="21.35"/></g><g id="freepik--Floor--inject-2"><polygon class="cls-5" points="4.33 675.45 103.86 675.01 203.41 674.87 402.51 674.56 601.61 674.87 701.15 675.01 800.7 675.45 701.15 675.87 601.61 676.03 402.51 676.33 203.41 676.03 103.86 675.87 4.33 675.45"/></g><g id="freepik--credit-card--inject-2"><path class="cls-5" d="M770.34,368.19,753.68,509.71a14.44,14.44,0,0,1-15.93,12.66L513.22,496a14.44,14.44,0,0,1-12.64-16l16.65-141.61a13.45,13.45,0,0,1,14.91-11.75l226.43,26.55A13.44,13.44,0,0,1,770.36,368C770.35,368.08,770.35,368.14,770.34,368.19Z"/><path class="cls-6" d="M719.56,485.48a13.28,13.28,0,1,1-11.65-14.73h0A13.28,13.28,0,0,1,719.56,485.48Z"/><path class="cls-7" d="M735.77,487.39a13.27,13.27,0,1,1-11.64-14.73h0A13.27,13.27,0,0,1,735.77,487.39Z"/><rect class="cls-7" x="542.51" y="347.16" width="33.07" height="47.85" rx="7.43" transform="translate(125.18 882.94) rotate(-83.29)"/><path class="cls-6" d="M737.66,393.74l-21.48-2.53a9.08,9.08,0,0,1-7.95-10.08h0a9.05,9.05,0,0,1,10-7.94l21.51,2.53a9.09,9.09,0,0,1,8,10.07h0A9.1,9.1,0,0,1,737.66,393.74Z"/><path class="cls-8" d="M530.16,414.36,528.77,426a1.1,1.1,0,0,1-2.18-.23v0l1.13-9.69-.83.36a.94.94,0,0,1-.57.1,1.06,1.06,0,0,1-.87-.67,1,1,0,0,1,.47-1.4l.07,0,2.58-1.15h.74a.11.11,0,0,1,.11,0h.12v.17h0a.21.21,0,0,1,0,.11.14.14,0,0,0,0,.09v.25Z"/><path class="cls-8" d="M540.17,427.32a1.07,1.07,0,0,1-1.19.95h0l-7-.83h0a1,1,0,0,1-.76-.44,1.09,1.09,0,0,1,.22-1.54h0l6.44-4.59A2.47,2.47,0,0,0,539,419.1a2.54,2.54,0,0,0-2.21-2.84h0a2.66,2.66,0,0,0-1.77.45l-.67.49a1.1,1.1,0,0,1-1.27-1.77l.67-.48a4.7,4.7,0,0,1,3.33-.85,4.75,4.75,0,0,1,3.31,2,4.65,4.65,0,0,1,.85,3.31,4.84,4.84,0,0,1-2,3.33l-4.12,2.92,4.19.49A1.1,1.1,0,0,1,540.17,427.32Z"/><path class="cls-8" d="M551.2,421.23a4.8,4.8,0,0,1,1,3.54,4.93,4.93,0,0,1-8.75,2.48,1.13,1.13,0,0,1,1.77-1.39,2.66,2.66,0,0,0,1.77,1,2.73,2.73,0,0,0,2-.53,2.79,2.79,0,0,0,1-1.77,2.72,2.72,0,0,0-2.34-3,1,1,0,0,1-.76-.44h0a1.13,1.13,0,0,1,.14-1.59l2.25-1.77-3.19-.37a1.14,1.14,0,0,1-1-1.25,1.11,1.11,0,0,1,1.25-1h0l5.8.69a1.09,1.09,0,0,1,1,1.19v0a1.25,1.25,0,0,1-.19.53,1.79,1.79,0,0,1-.23.25L550,420.11A4.49,4.49,0,0,1,551.2,421.23Z"/><path class="cls-8" d="M565.73,427.71a1.11,1.11,0,0,1-1.23,1h-.2l-.18,1.51a1.09,1.09,0,0,1-2.16-.27l.16-1.49-6.16-.72h0a1,1,0,0,1-.63-.32,1.05,1.05,0,0,1,0-1.5.08.08,0,0,1,0,0l8.35-8.2h.2a.13.13,0,0,1,.12,0m.09,0h.53a.08.08,0,0,0,.09,0h.12l.09.09H565a.21.21,0,0,1,0,.11h0v.1a.14.14,0,0,0,0,.09v.13h0v.21h0l-.94,7.95h.2a1.12,1.12,0,0,1,1.45.62,1.16,1.16,0,0,1,0,.78ZM563,421.35l-4.48,4.39,3.91.46Z"/><path class="cls-8" d="M587.88,425.55a5,5,0,0,1-.75,6.92,4.75,4.75,0,0,1-3.54,1h0a4.7,4.7,0,0,1-3.25-1.77,1.08,1.08,0,0,1,.11-1.52l.06-.05a1.12,1.12,0,0,1,1.57.18h0a2.58,2.58,0,0,0,1.77,1,2.68,2.68,0,0,0,.62-5.33,2.66,2.66,0,0,0-2,.55,1.14,1.14,0,0,1-1.58-.17l-.18-.29h0a.17.17,0,0,0,0-.1.38.38,0,0,0,0-.15h0v-.33l1.21-5a1.11,1.11,0,0,1,.58-.72h0a1.19,1.19,0,0,1,.53,0l5.81.69a1.11,1.11,0,0,1-.18,2.22h-.09l-4.83-.57-.48,1.93a6.09,6.09,0,0,1,1.35,0A5,5,0,0,1,587.88,425.55Z"/><path class="cls-8" d="M601.67,430.8a4.82,4.82,0,0,1-9.6-.62h0a4.71,4.71,0,0,1,.09-1.13,11.91,11.91,0,0,1,1.17-4,7.09,7.09,0,0,1,2.94-3.07,5.68,5.68,0,0,1,3.06-.58,1.12,1.12,0,0,1,1,1.19,1.18,1.18,0,0,1-1.21,1,3.6,3.6,0,0,0-1.91.32,4.16,4.16,0,0,0-1.4,1.24,2.46,2.46,0,0,0-.31.48,4.47,4.47,0,0,1,1.92-.18A4.83,4.83,0,0,1,601.67,430.8Zm-2.2-.24a2.6,2.6,0,0,0-5.16-.68.15.15,0,0,1,0,.07,2.6,2.6,0,0,0,5.17.61Z"/><path class="cls-8" d="M613.93,424.63l-6.28,11.06a1,1,0,0,1-1.08.53,1.48,1.48,0,0,1-.41-.12,1.14,1.14,0,0,1-.42-1.49l5.43-9.61-5.06-.59a1.12,1.12,0,0,1-1-1.24,1.1,1.1,0,0,1,1.21-.95l6.76.79h.19l.39.22h0v.09h0v.4a1.69,1.69,0,0,1,0,.45Z"/><path class="cls-8" d="M624.78,433.62a4.72,4.72,0,1,1-6.83-4.78,3.22,3.22,0,0,1-.42-2,3.27,3.27,0,0,1,6.49.78,3.08,3.08,0,0,1-.88,1.77A4.75,4.75,0,0,1,624.78,433.62Zm-2.14-.27a2.55,2.55,0,0,0-2.21-2.85h0a2.57,2.57,0,1,0,2.23,2.87Zm-3-6.28a1.16,1.16,0,0,0,1,1.26,1.1,1.1,0,1,0,.17-2.19,1.12,1.12,0,0,0-1.16.93Z"/><path class="cls-8" d="M640.31,431.05a4.81,4.81,0,0,1,9.59.62h0a4.75,4.75,0,0,1-.09,1.12,11,11,0,0,1-1.16,4,6.86,6.86,0,0,1-2.92,3.06,5.72,5.72,0,0,1-3.07.59,1.12,1.12,0,0,1-1-1.19,1.15,1.15,0,0,1,1.2-1,3.67,3.67,0,0,0,1.91-.33,4.38,4.38,0,0,0,1.4-1.24,3.08,3.08,0,0,0,.32-.48,4.79,4.79,0,0,1-6.16-5.1Zm2.18.25a2.63,2.63,0,0,0,2.3,2.9,2.6,2.6,0,1,0-2.3-2.9Z"/><path class="cls-8" d="M652.66,434.66a8.67,8.67,0,0,1,1.9-4.55,4.45,4.45,0,0,1,3.93-1.77,4.52,4.52,0,0,1,3.38,2.6,8.61,8.61,0,0,1,.76,4.87,8.41,8.41,0,0,1-1.88,4.55,4.16,4.16,0,0,1-5.79,1,4.1,4.1,0,0,1-1.5-1.91A8.54,8.54,0,0,1,652.66,434.66Zm7.79.9a6.74,6.74,0,0,0-.53-3.54,2.31,2.31,0,0,0-1.77-1.41,2.39,2.39,0,0,0-2,1,6.45,6.45,0,0,0-1.36,3.38,6.24,6.24,0,0,0,.53,3.54,2.4,2.4,0,0,0,1.77,1.45,2.3,2.3,0,0,0,2-1,6.34,6.34,0,0,0,1.4-3.4Z"/><path class="cls-8" d="M671.32,431,670,442.57a1.09,1.09,0,0,1-1.22,1h0a1.09,1.09,0,0,1-1-1.19h0l1.15-9.7-.85.37a1.06,1.06,0,0,1-.56,0,1.1,1.1,0,0,1-.34-2.09l2.64-1.08h1a.14.14,0,0,1,0,.09h0V430h0v.46Z"/><path class="cls-8" d="M681.36,444a1.09,1.09,0,0,1-1.19,1h0l-7-1h0a1,1,0,0,1-.76-.44,1.1,1.1,0,0,1,.23-1.52l6.46-4.61a2.57,2.57,0,0,0,1-1.77,2.6,2.6,0,0,0-.45-1.77,2.47,2.47,0,0,0-1.77-1,2.65,2.65,0,0,0-1.77.44l-.67.48a1.07,1.07,0,0,1-1.49-.22l0-.05a1.07,1.07,0,0,1,.24-1.5l0,0,.68-.48a4.69,4.69,0,0,1,3.31-.85,4.84,4.84,0,0,1,3.32,2,4.7,4.7,0,0,1,.85,3.33,4.76,4.76,0,0,1-2,3.31l-4.19,3,4.19.5a1.1,1.1,0,0,1,1,1.21A.13.13,0,0,0,681.36,444Z"/><path class="cls-8" d="M704.19,439.23a4.91,4.91,0,0,1-.79,6.89h0a4.93,4.93,0,0,1-6.92-.8h0a1.14,1.14,0,0,1,.19-1.58,1.12,1.12,0,0,1,1.57.19h0a2.57,2.57,0,0,0,1.77,1,2.71,2.71,0,0,0,2-.53,2.66,2.66,0,0,0,1-1.77,2.52,2.52,0,0,0-.57-2,2.66,2.66,0,0,0-1.77-1,1.07,1.07,0,0,1-.78-.45h0a1.12,1.12,0,0,1,.15-1.57h0l2.25-1.77-3.19-.37a1.12,1.12,0,0,1-1-1.24v0a1.1,1.1,0,0,1,1.21-1h0l5.81.69a1.11,1.11,0,0,1,1,1.21h0a1.3,1.3,0,0,1-.22.53,1.34,1.34,0,0,1-.23.25l-2.78,2.26A4.82,4.82,0,0,1,704.19,439.23Z"/><path class="cls-8" d="M718.71,445.76a1.11,1.11,0,0,1-1.24.94h-.2l-.17,1.5a1.1,1.1,0,0,1-1.22.95,1.08,1.08,0,0,1-.94-1.21l.17-1.49-6.16-.72h0a1.06,1.06,0,0,1-.63-.32,1.08,1.08,0,0,1,0-1.53h0l8.35-8.2h.92a.11.11,0,0,0,.11,0h.1l.09.11H718V436a.14.14,0,0,0,0,.09.24.24,0,0,1,0,.12v.09a.11.11,0,0,1,0,.11v.11h0l-.94,8h.2a1.12,1.12,0,0,1,1.47,1.31Zm-2.77-6.35-4.49,4.39,3.91.46Z"/><path class="cls-8" d="M729,442.22a4.83,4.83,0,0,1,1.05,3.54,5,5,0,0,1-1.77,3.28,4.87,4.87,0,0,1-3.54,1h0a4.8,4.8,0,0,1-3.26-1.77,1.09,1.09,0,0,1,.13-1.52l.05,0a1.15,1.15,0,0,1,1.59.18,2.66,2.66,0,0,0,3.73.46l0,0a2.76,2.76,0,0,0,1-1.77,2.69,2.69,0,0,0-4.32-2.42,1.17,1.17,0,0,1-1.59-.2,1.67,1.67,0,0,0-.18-.28h0a.11.11,0,0,0,0-.11v-.14h0a1,1,0,0,1,0-.34l.94-5.2a1.32,1.32,0,0,1,.59-.74h0a.89.89,0,0,1,.51,0l5.8.69a1.11,1.11,0,0,1,1,1.22v0a1.14,1.14,0,0,1-1.24,1l-4.85-.57-.46,1.91a4.94,4.94,0,0,1,4.6,1.77Z"/><path class="cls-8" d="M742.83,447.42a4.8,4.8,0,0,1-9.57-.63h0a4.92,4.92,0,0,1,.09-1.14,11.34,11.34,0,0,1,1.16-3.94,6.87,6.87,0,0,1,2.94-3.07,5.7,5.7,0,0,1,3.06-.58,1.1,1.1,0,0,1,1,1.17,1.15,1.15,0,0,1-1.18,1,3.48,3.48,0,0,0-1.93.33,3.92,3.92,0,0,0-1.4,1.22,5.29,5.29,0,0,0-.32.5,4.59,4.59,0,0,1,1.95-.18A4.78,4.78,0,0,1,742.83,447.42Zm-2.17-.26a2.61,2.61,0,1,0-2.9,2.29,2.62,2.62,0,0,0,2.9-2.29Z"/><rect class="cls-8" x="582.38" y="400.18" width="5.95" height="121.02" transform="translate(59.42 988.2) rotate(-83.29)"/><rect class="cls-8" x="563.27" y="428.93" width="5.95" height="85.67" transform="translate(31.55 979.01) rotate(-83.29)"/><rect class="cls-8" x="667.74" y="340.4" width="5.95" height="60.36" transform="translate(224.3 993.39) rotate(-83.29)"/></g><g id="freepik--Device--inject-2"><path class="cls-6" d="M565,146.61V669.24a27.65,27.65,0,0,1-27.37,27.87H267.35A27.63,27.63,0,0,1,240,669.25V146.61a27.61,27.61,0,0,1,27.35-27.86H537.66A27.62,27.62,0,0,1,565,146.61Z"/><path class="cls-2" d="M547.93,172.9V652c0,14.64-11,26.55-24.48,26.55H281.6c-13.54,0-24.52-11.86-24.52-26.55V172.9c0-29.84,11-36.43,24.52-36.43h48.45c2.81,0,5.11,3.19,5.11,7.08v1.77c0,9.29,5.08,9.33,11.33,9.33h112c6.3,0,11.35,0,11.35-9.33v-1.77c0-4,2.26-7.08,5.11-7.08h48.47C537,136.47,547.93,145.57,547.93,172.9Z"/><path class="cls-2" d="M417.79,143.07H387.24a1.89,1.89,0,0,1-1.9-1.89h0a1.89,1.89,0,0,1,1.9-1.89h30.55a1.88,1.88,0,0,1,1.89,1.89h0a1.88,1.88,0,0,1-1.89,1.89Z"/><rect class="cls-1" x="290.4" y="226.09" width="224.22" height="263.28"/><path class="cls-9" d="M513,521.4c-2.76,5.06-9.38,9.52-9.38,9.52s-6.62-4.46-9.37-9.52c-3.11-5.72-1.4-11.58,3.08-11.58,5,0,6.29,6.23,6.29,6.23s1.31-6.23,6.28-6.23C514.42,509.82,516.15,515.68,513,521.4Z"/><rect class="cls-3" x="290.4" y="177.75" width="25.65" height="4.21"/><rect class="cls-3" x="290.4" y="186.19" width="25.65" height="4.21"/><rect class="cls-3" x="290.4" y="194.62" width="25.65" height="4.21"/><rect class="cls-3" x="441.15" y="184.89" width="3.54" height="14.28" transform="translate(-26.08 306.45) rotate(-37.15)"/><path class="cls-3" d="M443.1,180.49a7.68,7.68,0,1,1-10.78-1.41A7.68,7.68,0,0,1,443.1,180.49Z"/><path class="cls-2" d="M440.66,182.37a4.6,4.6,0,1,1-6.45-.84h0A4.6,4.6,0,0,1,440.66,182.37Z"/><path class="cls-9" d="M481.94,189.33c-2.76,5.06-9.38,9.52-9.38,9.52s-6.62-4.46-9.37-9.52c-3.11-5.72-1.4-11.58,3.08-11.58,5,0,6.29,6.23,6.29,6.23s1.31-6.23,6.28-6.23C483.32,177.75,485.05,183.61,481.94,189.33Z"/><polygon class="cls-3" points="498.36 182.81 512.84 182.81 514.61 198.85 496.59 198.85 498.36 182.81"/><path class="cls-3" d="M501.09,184.72c0-.16-.5-4,1.35-6.1a3.83,3.83,0,0,1,3-1.31,4,4,0,0,1,3.06,1.29,9.3,9.3,0,0,1,1.67,6.09l-1.77-.13a7.49,7.49,0,0,0-1.19-4.76,2.44,2.44,0,0,0-3.45-.08l-.09.08a7.11,7.11,0,0,0-.92,4.73Z"/><rect class="cls-3" x="290.4" y="514" width="140.95" height="3.98"/><rect class="cls-3" x="290.4" y="521.45" width="121.22" height="3.98"/><polygon class="cls-4" points="276.24 363.06 270.57 357.75 276.24 352.42 277.15 353.4 272.5 357.75 277.15 362.09 276.24 363.06"/><path class="cls-4" d="M275.07,367.22a9.49,9.49,0,1,1,9.47-9.5v0A9.49,9.49,0,0,1,275.07,367.22Zm0-17.19a7.72,7.72,0,1,0,7.7,7.74v0A7.73,7.73,0,0,0,275.07,350Z"/><polygon class="cls-4" points="528.79 363.06 527.87 362.09 532.51 357.75 527.87 353.4 528.79 352.42 534.46 357.75 528.79 363.06"/><path class="cls-4" d="M530,367.22a9.49,9.49,0,1,1,9.49-9.49v0A9.49,9.49,0,0,1,530,367.22ZM530,350a7.72,7.72,0,1,0,7.72,7.72h0A7.72,7.72,0,0,0,530,350Z"/><path class="cls-5" d="M299.64,542a.9.9,0,0,1,.9.9v.48a7.93,7.93,0,0,1,3.29,1.17,1.15,1.15,0,0,1,.64,1,1.17,1.17,0,0,1-1.17,1.16h0a1.25,1.25,0,0,1-.64-.19,8,8,0,0,0-2.19-.94v4.09c3.24.8,4.62,2.09,4.62,4.37s-1.77,3.88-4.53,4.14v1.28a.9.9,0,0,1-.9.9h0a.92.92,0,0,1-.94-.9h0v-1.33a9.19,9.19,0,0,1-4.36-1.64,1.2,1.2,0,0,1-.56-1,1.14,1.14,0,0,1,1.13-1.17h0a1.14,1.14,0,0,1,.69.23,7.44,7.44,0,0,0,3.16,1.43v-4.19c-3.1-.8-4.55-2-4.55-4.37a4.27,4.27,0,0,1,4.46-4.06v-.44a.92.92,0,0,1,.92-.92Zm-.85,7.24v-3.75c-1.37.12-2,.85-2,1.77s.39,1.45,2,2Zm1.66,3v3.86c1.36-.15,2.11-.82,2.11-1.77s-.46-1.58-2.11-2.09Z"/><path class="cls-5" d="M316.88,557.05a1.14,1.14,0,0,1-1.14,1.16h-7.59a1.19,1.19,0,0,1-.87-.38,1.2,1.2,0,0,1,0-1.67l6.29-5.68a2.68,2.68,0,0,0,.9-2,2.75,2.75,0,0,0-4.59-2l-.65.58a1.18,1.18,0,0,1-1.67-.09,1.2,1.2,0,0,1,.09-1.68h0l.66-.6a5,5,0,0,1,3.42-1.31,5.09,5.09,0,0,1,3.42,8.86h0l-4,3.63h4.66a1.18,1.18,0,0,1,1.1,1.23Z"/><path class="cls-5" d="M319.81,550.78a9.14,9.14,0,0,1,1.44-5.08,4.49,4.49,0,0,1,6.07-1.81,4.63,4.63,0,0,1,1.81,1.81,9.69,9.69,0,0,1,0,10.14,4.45,4.45,0,0,1-7.88,0A9.24,9.24,0,0,1,319.81,550.78Zm8.39,0a7,7,0,0,0-1-3.79,2.49,2.49,0,0,0-2-1.29,2.58,2.58,0,0,0-2,1.29,7.54,7.54,0,0,0,0,7.54,2.54,2.54,0,0,0,2,1.31,2.44,2.44,0,0,0,2-1.31,6.87,6.87,0,0,0,1-3.75Z"/><path class="cls-5" d="M336.4,555.19a1.59,1.59,0,0,1,.34,3.17h-.34a1.59,1.59,0,0,1,0-3.17Z"/><path class="cls-5" d="M338.93,550.78a9.14,9.14,0,0,1,1.44-5.08,4.49,4.49,0,0,1,6.07-1.81,4.54,4.54,0,0,1,1.8,1.81,9.69,9.69,0,0,1,0,10.14,4.46,4.46,0,0,1-6,1.85,4.38,4.38,0,0,1-1.84-1.85A9.08,9.08,0,0,1,338.93,550.78Zm8.39,0a7.12,7.12,0,0,0-1-3.79,2.49,2.49,0,0,0-2-1.29,2.61,2.61,0,0,0-2,1.29,7.61,7.61,0,0,0,0,7.54,2.55,2.55,0,0,0,2,1.31,2.47,2.47,0,0,0,2-1.31A6.88,6.88,0,0,0,347.32,550.78Z"/><path class="cls-5" d="M354,550.78a9.14,9.14,0,0,1,1.44-5.08,4.49,4.49,0,0,1,6.07-1.81,4.54,4.54,0,0,1,1.8,1.81,9.65,9.65,0,0,1,0,10.14,4.45,4.45,0,0,1-7.87,0A9.08,9.08,0,0,1,354,550.78Zm8.39,0a7.12,7.12,0,0,0-1-3.79,2.49,2.49,0,0,0-2-1.29,2.58,2.58,0,0,0-2,1.29,7.54,7.54,0,0,0,0,7.54,2.54,2.54,0,0,0,2,1.31,2.45,2.45,0,0,0,2-1.31,6.88,6.88,0,0,0,1-3.75Z"/><rect class="cls-5" x="309.67" y="575.62" width="180.55" height="39.63"/><path class="cls-2" d="M338,600.13h-5.17l-1,2.76a1.2,1.2,0,0,1-1.11.75h-.41a1.21,1.21,0,0,1-.69-1.53l4.69-12.51a1.23,1.23,0,0,1,1.6-.65,1.25,1.25,0,0,1,.65.65l4.69,12.51a1.21,1.21,0,0,1-.71,1.53,1.27,1.27,0,0,1-.39,0,1.16,1.16,0,0,1-1.08-.75Zm-.87-2.34-1.77-4.56-1.77,4.56Z"/><path class="cls-2" d="M344.1,602.47V589.94a1.15,1.15,0,0,1,1.13-1.17h2.53a7.44,7.44,0,0,1,0,14.87h-2.42a1.19,1.19,0,0,1-1.24-1.1Zm2.35-1.21h1.31a5.08,5.08,0,0,0,0-10.14h-1.31Z"/><path class="cls-2" d="M358.81,602.47V589.94a1.15,1.15,0,0,1,1.13-1.17h2.53a7.44,7.44,0,0,1,0,14.87H360a1.17,1.17,0,0,1-1.22-1.08Zm2.35-1.21h1.31a5.08,5.08,0,0,0,0-10.14h-1.31Z"/><path class="cls-2" d="M389.54,591.12h-3.38v11.35a1.17,1.17,0,1,1-2.34,0V591.12h-3.34a1.17,1.17,0,0,1-1.17-1.17h0a1.14,1.14,0,0,1,1.13-1.17h9.1a1.17,1.17,0,0,1,1.17,1.17h0A1.19,1.19,0,0,1,389.54,591.12Z"/><path class="cls-2" d="M404.76,590.61a7.83,7.83,0,0,1,2.14,5.31,7.72,7.72,0,0,1-2.14,5.31,6.91,6.91,0,0,1-10.26,0,7.62,7.62,0,0,1-2.11-5.31,7.71,7.71,0,0,1,2.11-5.31,7,7,0,0,1,5.18-2.27A6.88,6.88,0,0,1,404.76,590.61Zm-.28,5.31A5.51,5.51,0,0,0,403,592.2a4.57,4.57,0,0,0-6.47-.32l-.32.32a5.5,5.5,0,0,0,0,7.42,4.55,4.55,0,0,0,6.42.37,4.31,4.31,0,0,0,.37-.37,5.49,5.49,0,0,0,1.44-3.63Z"/><path class="cls-2" d="M416.82,596a7.78,7.78,0,0,1,7.78-7.65,7.92,7.92,0,0,1,4.91,1.67,1.22,1.22,0,0,1-1.49,1.93,5.32,5.32,0,0,0-3.42-1.17,5.54,5.54,0,0,0-3.82,1.52,5.21,5.21,0,0,0,0,7.38v0a5.65,5.65,0,0,0,3.82,1.52A5.32,5.32,0,0,0,428,600a1.3,1.3,0,0,1,1.77.23,1.25,1.25,0,0,1-.18,1.75l0,0a7.91,7.91,0,0,1-4.9,1.67,7.77,7.77,0,0,1-7.86-7.69Z"/><path class="cls-2" d="M441.1,600.13H436l-1,2.76a1.22,1.22,0,0,1-1.1.75,1.41,1.41,0,0,1-.41,0,1.22,1.22,0,0,1-.71-1.53l4.69-12.51a1.22,1.22,0,0,1,1.14-.74,1.17,1.17,0,0,1,1.13.74l4.69,12.51a1.21,1.21,0,0,1-.71,1.53,1.34,1.34,0,0,1-.4,0,1.17,1.17,0,0,1-1.08-.75Zm-.87-2.34-1.77-4.56-1.77,4.56Z"/><path class="cls-2" d="M457.09,601.87a1.19,1.19,0,0,1-.75,1.48,1.93,1.93,0,0,1-.48,0h0a1.55,1.55,0,0,1-.83-.25,2.07,2.07,0,0,1-.67-.74,5.57,5.57,0,0,1-.44-2.55,1.61,1.61,0,0,0-.27-.9,1.9,1.9,0,0,0-.64-.62,4.14,4.14,0,0,0-1.18-.51h-2.5v4.62a1.18,1.18,0,0,1-1.18,1.16,1.14,1.14,0,0,1-1.17-1.13V589.86a1.15,1.15,0,0,1,1.13-1.16h3.82a4.55,4.55,0,0,1,2.89,8,3.05,3.05,0,0,1,.74.78,4,4,0,0,1,.71,2.28,5.31,5.31,0,0,0,.09,1.26A1.24,1.24,0,0,1,457.09,601.87Zm-3-8.54a2.19,2.19,0,0,0-2.18-2.21h-2.62v4.37h2.61a2.17,2.17,0,0,0,2.19-2.16Z"/><path class="cls-2" d="M469.19,591.12h-3.38v11.35a1.17,1.17,0,1,1-2.33,0V591.12h-3.35A1.17,1.17,0,0,1,459,590h0a1.15,1.15,0,0,1,1.13-1.17h9.1a1.17,1.17,0,0,1,1.17,1.17h0A1.19,1.19,0,0,1,469.19,591.12Z"/><path class="cls-10" d="M472.57,456.82c-.16,1.26-11,13.67-21.33,13.63-20.74,0-30.87,9.4-48.73,9.4s-28-9.45-48.74-9.4c-10.34,0-21.25-12.39-21.25-13.63s30.56-131,30.56-131a8.68,8.68,0,0,1-2.66-5.95c-.3-4.07,7-41.53,7.08-46.24s-4-32.9-3.54-35.1S376,235,376.35,236s2.8,28.83,4.21,31.49,14.43,4.76,21.95,4.76,20.54-2,21.95-4.71,3.91-30.39,4.22-31.49,11.91.32,12.39,2.52-3.69,30.39-3.54,35.1,7.45,42.16,7.08,46.23a8.73,8.73,0,0,1-2.68,5.95S472.73,455.57,472.57,456.82Z"/><path class="cls-2" d="M379.27,293.32a2,2,0,1,1,2-2,2,2,0,0,1-2,2Zm0-3.54a1.5,1.5,0,1,1,0,.05Zm-2.33,34.14a2,2,0,1,1,2-2h0a2,2,0,0,1-1.93,2h-.05Zm0-3.54a1.54,1.54,0,1,0,1.54,1.54h0a1.55,1.55,0,0,0-1.54-1.44Zm-14.41.62a2,2,0,1,1,2-2v0a2,2,0,0,1-1.91,2h-.05Zm0-3.54A1.55,1.55,0,0,0,361,319a1.54,1.54,0,0,0,3.08,0v0a1.53,1.53,0,0,0-1.52-1.41Zm16.16,22.09a2,2,0,1,1,2-2,2,2,0,0,1-2,2Zm0-3.54a1.49,1.49,0,1,1,0,.09Zm-17.05,5.9a2,2,0,1,1,2-2v0a2,2,0,0,1-1.9,2.07h-.07Zm0-3.54a1.54,1.54,0,1,0,1.52,1.56v0a1.54,1.54,0,0,0-1.52-1.4Zm19.47-30.77a2,2,0,1,1,2-2v0a2,2,0,0,1-1.88,2.05H381Zm0-3.54a1.54,1.54,0,1,0,1.54,1.54h0a1.53,1.53,0,0,0-1.62-1.45h0Zm6.61,26.82a2,2,0,1,1,2-2v0a2,2,0,0,1-1.81,2.14h-.24Zm0-3.54a1.54,1.54,0,1,0,1.52,1.56v0a1.51,1.51,0,0,0-1.61-1.32Zm13.59,25.3a2,2,0,1,1,2-2v0a2,2,0,0,1-1.75,2.15,1.71,1.71,0,0,1-.32,0Zm0-3.54a1.54,1.54,0,1,0,1.54,1.54h0a1.54,1.54,0,0,0-1.63-1.31ZM430,360.8a2,2,0,1,1,2-2h0A2,2,0,0,1,430,360.8Zm0-3.54a1.52,1.52,0,1,0,1.53,1.52h0A1.53,1.53,0,0,0,430,357.26Zm-36.34,5.84a2,2,0,1,1,2-2v0a2,2,0,0,1-2,2Zm0-3.54a1.54,1.54,0,0,0,0,3.08,1.55,1.55,0,0,0,1.56-1.53h0a1.53,1.53,0,0,0-1.53-1.51Zm-21,19.72a2,2,0,1,1,2-2,2,2,0,0,1-2,2h0Zm0-3.54a1.52,1.52,0,1,0,1.52,1.52,1.53,1.53,0,0,0-1.5-1.44Zm-17.93,19.71a2,2,0,1,1,2-2v0A2,2,0,0,1,354.72,395.45Zm0-3.54a1.54,1.54,0,1,0,0,3.08,1.53,1.53,0,0,0,1.55-1.52v0a1.54,1.54,0,0,0-1.52-1.49Zm28.94,10.62a2,2,0,1,1,2-2v0a2,2,0,0,1-1.95,2h-.07Zm0-3.54a1.54,1.54,0,1,0,0,3.08,1.53,1.53,0,0,0,1.55-1.52v0a1.51,1.51,0,0,0-1.57-1.45ZM377,264.75a2,2,0,1,1,2-2v0a2,2,0,0,1-1.89,2h-.14Zm0-3.54a1.54,1.54,0,1,0,1.54,1.54h0a1.54,1.54,0,0,0-1.59-1.43Zm8.42,20.69a2,2,0,1,1,2-2,2,2,0,0,1-1.89,2.07h-.13Zm0-3.54a1.53,1.53,0,1,0,1.53,1.52,1.54,1.54,0,0,0-1.58-1.36Zm21.72,20.92a2,2,0,1,1,2-2,2,2,0,0,1-1.8,2.12h-.24Zm0-3.54a1.21,1.21,0,1,1-.05.22Zm-8.76,13.72a2,2,0,1,1,2-2v0a2,2,0,0,1-2,2Zm0-3.54a1.54,1.54,0,1,0,1.54,1.54h0A1.54,1.54,0,0,0,398.37,305.92Zm14,24.36a2,2,0,1,1,2-2v0a2,2,0,0,1-1.93,2h0Zm0-3.54a1.54,1.54,0,1,0,1.52,1.56v0a1.54,1.54,0,0,0-1.52-1.43Zm17.24,18.12a2,2,0,1,1,2-2h0A2,2,0,0,1,429.58,344.86Zm0-3.54a1.54,1.54,0,1,0,1.54,1.54h0A1.55,1.55,0,0,0,429.58,341.32Zm16.85,18.38a2,2,0,1,1,2-2h0a2,2,0,0,1-1.94,2h0Zm0-3.54A1.54,1.54,0,1,0,448,357.7h0a1.54,1.54,0,0,0-1.54-1.49ZM387.11,317a2,2,0,1,1,2-2v0A2,2,0,0,1,387.11,317Zm0-3.54a1.54,1.54,0,1,0,1.53,1.56v0a1.54,1.54,0,0,0-1.53-1.5ZM399.5,336.7a2,2,0,1,1,2-2v0a2,2,0,0,1-2,2h0Zm0-3.54a1.54,1.54,0,1,0,1.53,1.56v0a1.53,1.53,0,0,0-1.54-1.46Zm-17.7,24.1a2,2,0,1,1,2-2h0a2,2,0,0,1-1.91,2Zm0-3.54a1.54,1.54,0,0,0,0,3.08,1.56,1.56,0,0,0,1.56-1.53v0a1.55,1.55,0,0,0-1.47-1.42Zm-9.7,11.8a1.4,1.4,0,1,1,.13.11h-.07Zm0-3.54a2.39,2.39,0,1,1,.06.16Zm-16.85,18.75a2,2,0,1,1,2-2v0a2,2,0,0,1-1.84,2.12h-.07Zm0-3.54a1.54,1.54,0,1,0,1.52,1.55h0a1.53,1.53,0,0,0-1.46-1.35Zm7.21-4.46a2,2,0,1,1,2-2h0a2,2,0,0,1-1.78,2.17h-.15Zm0-3.54a1.54,1.54,0,1,0,1.54,1.54v0a1.54,1.54,0,0,0-1.49-1.29Zm.86-12.39a2,2,0,1,1,2-2v0a2,2,0,0,1-1.78,2.13h-.15Zm0-3.54a1.54,1.54,0,1,0,1.54,1.54h0a1.53,1.53,0,0,0-1.48-1.33Zm20.24,32.92a2,2,0,1,1,2-2v0a2,2,0,0,1-1.74,2.17h-.17Zm0-3.54a1.54,1.54,0,1,0,1.52,1.56v0a1.51,1.51,0,0,0-1.47-1.29ZM364.21,388a2,2,0,1,1,2-2v0a2,2,0,0,1-1.76,2.15h-.15Zm0-3.54a1.54,1.54,0,1,0,1.52,1.56v0a1.51,1.51,0,0,0-1.47-1.31ZM347.64,403.1a2,2,0,1,1,2-2v0A2,2,0,0,1,347.64,403.1Zm0-3.54a1.54,1.54,0,1,0,1.52,1.56v0a1.54,1.54,0,0,0-1.52-1.48Zm15.68,3.54a2,2,0,1,1,2-2h0a2,2,0,0,1-1.93,2Zm0-3.54a1.54,1.54,0,1,0,1.54,1.54v0a1.52,1.52,0,0,0-1.48-1.48Zm-18.18,19a2,2,0,1,1,2-2v0a2,2,0,0,1-1.91,2Zm0-3.54a1.54,1.54,0,1,0,1.53,1.56v0a1.53,1.53,0,0,0-1.47-1.45Zm18.18,3.54a2,2,0,1,1,2-2h0a2,2,0,0,1-1.93,2Zm0-3.54a1.54,1.54,0,1,0,1.54,1.54v0a1.54,1.54,0,0,0-1.48-1.45Zm-19.18,19a2,2,0,1,1,2-2v0a2,2,0,0,1-1.89,2h0Zm0-3.54a1.54,1.54,0,1,0,1.52,1.56v0a1.52,1.52,0,0,0-1.47-1.43Zm12.19-65.76a2,2,0,1,1,2-2h0a2,2,0,0,1-1.87,2.09h-.06Zm0-3.54a1.54,1.54,0,1,0,1.54,1.54h0a1.55,1.55,0,0,0-1.49-1.39Zm15.28-11.66a2,2,0,1,1,2-2v0a2,2,0,0,1-1.83,2.12h-.08Zm0-3.54a1.54,1.54,0,1,0,1.52,1.56v0a1.54,1.54,0,0,0-1.47-1.35Zm-4.06-14.73a2,2,0,1,1,2-2v0a2,2,0,0,1-1.82,2.13h-.09Zm0-3.54a1.54,1.54,0,1,0,1.53,1.56v0a1.56,1.56,0,0,0-1.47-1.33Zm2.92-25a2,2,0,1,1,2-2v0a2,2,0,0,1-1.74,2.17h-.17Zm0-3.54a1.54,1.54,0,0,0,0,3.08,1.55,1.55,0,0,0,1.56-1.53h0a1.53,1.53,0,0,0-1.47-1.3Zm40.06-15.69a2,2,0,1,1,2-2v0a2,2,0,0,1-1.7,2.2h-.21Zm0-3.54a1.54,1.54,0,1,0,1.52,1.56v0a1.51,1.51,0,0,0-1.46-1.25ZM430,286a2,2,0,1,1,2-2v0a2,2,0,0,1-1.7,2.23l-.27,0Zm0-3.54a1.54,1.54,0,1,0,1.53,1.56v0a1.55,1.55,0,0,0-1.53-1.13Zm-7.89,38.95a2,2,0,1,1,2-2v0a2,2,0,0,1-1.76,2.19h-.2Zm0-3.54a1.54,1.54,0,1,0,1.52,1.55h0a1.54,1.54,0,0,0-1.52-1.28Zm-11.52,26.95a2,2,0,1,1,2-2v0a2,2,0,0,1-1.95,2Zm0-3.54a1.55,1.55,0,0,0-1.56,1.53,1.54,1.54,0,0,0,3.08,0v0a1.53,1.53,0,0,0-1.52-1.53Zm-27.81,29.3a2,2,0,1,1,2-2,2,2,0,0,1-2,2h0Zm0-3.54a1.52,1.52,0,1,0,1.52,1.52,1.51,1.51,0,0,0-1.52-1.45Zm9.89,11.1a1.39,1.39,0,1,1,.07.07h-.07Zm0-3.54a1.52,1.52,0,1,0,1.52,1.52,1.5,1.5,0,0,0-1.52-1.4Zm38.15,3a2,2,0,1,1,2-2h0a2,2,0,0,1-1.83,2.09h-.11Zm0-3.54a1.52,1.52,0,1,0,1.52,1.52h0a1.51,1.51,0,0,0-1.5-1.35Zm20.42,15.26a2,2,0,1,1,2-2h0a2,2,0,0,1-1.82,2.14h-.15Zm0-3.54a1.52,1.52,0,1,0,1.53,1.52h0a1.53,1.53,0,0,0-1.53-1.29Zm-5.55,27.25a2,2,0,1,1,2-2v0A2,2,0,0,1,446,413.3a1.15,1.15,0,0,1-.26,0Zm0-3.54a1.54,1.54,0,1,0,1.54,1.54h0a1.55,1.55,0,0,0-1.54-1.27Zm3.54,17.71a1.4,1.4,0,1,1,.22.18h-.26Zm0-3.54a1.52,1.52,0,1,0,1.54,1.52,1.54,1.54,0,0,0-1.58-1.28Zm14.69,25.86a2,2,0,1,1,2-2h0a2,2,0,0,1-1.72,2.22,1.29,1.29,0,0,1-.28,0Zm0-3.54a1.54,1.54,0,1,0,1.52,1.55v0a1.54,1.54,0,0,0-1.56-1.24Zm-11.84-2a2,2,0,1,1,2-2h0A2,2,0,0,1,452.08,444Zm0-3.54A1.52,1.52,0,1,0,453.6,442h0A1.52,1.52,0,0,0,452.08,440.45Zm5.31-22.89a2,2,0,1,1,2-2v0a2,2,0,0,1-2,1.95Zm0-3.54a1.54,1.54,0,1,0,1.52,1.56v0a1.55,1.55,0,0,0-1.52-1.52Zm-39.12,26.43a2,2,0,1,1,2-2v0A2,2,0,0,1,418.27,440.45Zm0-3.54a1.54,1.54,0,1,0,1.52,1.56v0A1.55,1.55,0,0,0,418.27,436.91ZM396.44,455.8a2,2,0,1,1,2-2h0a2,2,0,0,1-2,2h0Zm0-3.54a1.52,1.52,0,1,0,1.52,1.52h0a1.53,1.53,0,0,0-1.52-1.45Zm11.38,11.2a2,2,0,1,1,2-2v0a2,2,0,0,1-2,2Zm0-3.54a1.54,1.54,0,1,0,1.54,1.54h0A1.54,1.54,0,0,0,407.82,459.92Zm.3,19.37a2,2,0,1,1,2-2v0a2,2,0,0,1-1.95,1.91Zm0-3.54a1.54,1.54,0,0,0,0,3.08,1.55,1.55,0,0,0,1.56-1.53h0a1.54,1.54,0,0,0-1.51-1.56Zm-11.7-34.5a2,2,0,1,1,2-2h0a2,2,0,0,1-1.95,2Zm0-3.54a1.54,1.54,0,0,0,0,3.08,1.55,1.55,0,0,0,1.56-1.53v0a1.55,1.55,0,0,0-1.51-1.51Zm15.21-59.48a2,2,0,1,1,2-2h0a2,2,0,0,1-1.94,2Zm0-3.54a1.53,1.53,0,1,0,1.52,1.52h0a1.53,1.53,0,0,0-1.5-1.45Zm1.77,20a2,2,0,1,1,2-2v0a2,2,0,0,1-1.91,2.05h-.05Zm0-3.54a1.54,1.54,0,1,0,1.52,1.56v0a1.54,1.54,0,0,0-1.52-1.42Zm.69,18.58a2,2,0,1,1,2-2v0a2,2,0,0,1-1.89,2.07h-.07Zm0-3.54a1.55,1.55,0,0,0-1.56,1.53,1.54,1.54,0,0,0,3.08,0v0a1.53,1.53,0,0,0-1.52-1.39Zm-3.54-45a2,2,0,1,1,2-2v0a2,2,0,0,1-1.81,2.1h-.11Zm0-3.54a1.54,1.54,0,1,0,1.52,1.56v0a1.52,1.52,0,0,0-1.48-1.36Zm-7.61,12.13a2,2,0,1,1,2-2h0a2,2,0,0,1-1.8,2.15H403Zm0-3.54a1.54,1.54,0,1,0,1.54,1.54v0a1.54,1.54,0,0,0-1.51-1.31Zm-.43,20.8a2,2,0,1,1,2-2v0A2,2,0,0,1,402.51,387.05Zm0-3.54a1.54,1.54,0,0,0,0,3.08,1.55,1.55,0,0,0,1.56-1.53h0a1.55,1.55,0,0,0-1.53-1.51Zm-28.6,11.91a2,2,0,1,1,2-2h0a2,2,0,0,1-1.95,2h0Zm0-3.54a1.54,1.54,0,1,0,1.54,1.54v0a1.54,1.54,0,0,0-1.54-1.45Zm10.62,26.66a2,2,0,1,1,2-2h0a2,2,0,0,1-1.87,2.06h-.09Zm0-3.54a1.54,1.54,0,1,0,1.52,1.55v0a1.52,1.52,0,0,0-1.52-1.42Zm-22,18.62a2,2,0,1,1,2-2h0A2,2,0,0,1,362.51,433.62Zm0-3.54a1.54,1.54,0,1,0,1.54,1.54v0a1.54,1.54,0,0,0-1.54-1.49ZM394.69,427a2,2,0,1,1,2-2v0a2,2,0,0,1-1.94,2h0Zm0-3.54a1.54,1.54,0,1,0,1.52,1.56v0a1.54,1.54,0,0,0-1.52-1.45ZM405.52,434a2,2,0,1,1,2-2v0a2,2,0,0,1-1.9,2h-.07Zm0-3.54a1.54,1.54,0,1,0,1.52,1.56v0a1.52,1.52,0,0,0-1.52-1.43ZM383.61,448a2,2,0,1,1,2-2h0a2,2,0,0,1-1.87,2.09h-.09Zm0-3.54a1.54,1.54,0,1,0,1.52,1.55v0a1.51,1.51,0,0,0-1.52-1.38Zm0,18.81a2,2,0,1,1,2-2v0a2,2,0,0,1-1.72,2.18h-.24Zm0-3.54a1.54,1.54,0,1,0,1.52,1.56v0a1.52,1.52,0,0,0-1.52-1.31ZM396.44,472a2,2,0,1,1,2-2h0a2,2,0,0,1-1.8,2.15h-.17Zm0-3.54A1.54,1.54,0,1,0,398,470v0a1.53,1.53,0,0,0-1.52-1.31Zm-41.72-56.88a2,2,0,1,1,2-2v0A2,2,0,0,1,354.72,411.56Zm0-3.54a1.54,1.54,0,1,0,1.52,1.56v0a1.53,1.53,0,0,0-1.52-1.5Zm-1.11,17.84a2,2,0,1,1,2-2,2,2,0,0,1-2,2Zm0-3.54a1.09,1.09,0,1,1-.06.09Zm50.21-19.84a2,2,0,1,1,2-2h0a2,2,0,0,1-1.9,2.07h-.14Zm0-3.54a1.54,1.54,0,1,0,1.54,1.54v0a1.52,1.52,0,0,0-1.59-1.39Zm-8.39,11.75a2,2,0,1,1,2-2,2,2,0,0,1-2,2Zm0-3.54a1.5,1.5,0,1,1,0,.06Zm-11.2,26.91a2,2,0,1,1,2-2v0a2,2,0,0,1-1.91,2h-.07Zm0-3.54a1.54,1.54,0,1,0,1.54,1.54h0a1.54,1.54,0,0,0-1.54-1.45ZM363.82,448a2,2,0,1,1,2-2h0a2,2,0,0,1-1.89,2.07h-.09Zm0-3.54a1.54,1.54,0,1,0,1.54,1.54h0a1.53,1.53,0,0,0-1.54-1.4Zm-.44,20a1.39,1.39,0,1,1,.14.12.66.66,0,0,1-.14,0Zm0-3.54a1.52,1.52,0,1,0,0,3,1.43,1.43,0,1,0,0-2.86Zm9.68-6.05a2,2,0,1,1,2-2v0a2,2,0,0,1-1.81,2.14h-.15Zm0-3.54a1.54,1.54,0,1,0,1.52,1.55h0a1.53,1.53,0,0,0-1.52-1.33Zm2.09,21.43a2,2,0,1,1,2-2v0a2,2,0,0,1-1.74,2.16,1,1,0,0,1-.24,0Zm0-3.54a1.54,1.54,0,1,0,1.54,1.54h0a1.54,1.54,0,0,0-1.54-1.29Zm-36.82-28.32a2,2,0,1,1,2-2h0a2,2,0,0,1-1.64,2.27,1.87,1.87,0,0,1-.34,0Zm0-3.54a1.54,1.54,0,1,0,1.54,1.54v0a1.55,1.55,0,0,0-1.54-1.17Zm78.18-11.17a2,2,0,1,1,2-2,1.84,1.84,0,0,1,0,.33,2,2,0,0,1-1.92,2h0Zm0-3.54a1.54,1.54,0,1,0,1.53,1.56v0a1.54,1.54,0,0,0-1.52-1.13Zm11.74,8.85a2,2,0,1,1,2-2v0a2,2,0,0,1-1.6,2.3,1.55,1.55,0,0,1-.37,0Zm0-3.54a1.54,1.54,0,1,0,1.52,1.56v0a1.53,1.53,0,0,0-1.52-1.13Zm-18.36,20.22a2,2,0,1,1,2-2v0a2,2,0,0,1-1.54,2.32,3,3,0,0,1-.43,0Zm0-3.54a1.54,1.54,0,0,0,0,3.08,1.55,1.55,0,0,0,1.56-1.53h0a1.53,1.53,0,0,0-1.53-1.12Zm23.19,16.94a2,2,0,1,1,2-2h0a2,2,0,0,1-1.51,2.36,1.75,1.75,0,0,1-.46.05Zm0-3.54a1.54,1.54,0,1,0,1.53,1.55v0a1.54,1.54,0,0,0-1.53-1.06Zm-1.77-11.69a2,2,0,1,1,2-2,2,2,0,0,1-1.45,2.37,1.84,1.84,0,0,1-.52.05Zm0-3.54a1.33,1.33,0,1,1,0,.52ZM430,249.88a2,2,0,1,1,2-2v0a2,2,0,0,1-1.4,2.43,2,2,0,0,1-.55.06Zm0-3.54a1.54,1.54,0,1,0,1.52,1.56v0a1.55,1.55,0,0,0-1.51-1Zm-33,29.17a2,2,0,1,1,2-1.94,2.09,2.09,0,0,1-.08.49,2,2,0,0,1-1.93,2Zm0-3.54a1.54,1.54,0,1,0,1.52,1.56v0a1.55,1.55,0,0,0-1.51-.92Zm23.33,33.95a2,2,0,1,1,2-2h0A2,2,0,0,1,420.36,305.92Zm0-3.54a1.53,1.53,0,1,0,1.52,1.52h0a1.53,1.53,0,0,0-1.52-1.41ZM399.49,324a2,2,0,1,1,2-2v0A2,2,0,0,1,399.49,324Zm0-3.54A1.54,1.54,0,1,0,401,322v0a1.55,1.55,0,0,0-1.52-1.49Zm31.06-8.85a2,2,0,1,1,2-2h0a2,2,0,0,1-1.9,2.07h-.07Zm0-3.54a1.54,1.54,0,1,0,1.52,1.55v0a1.54,1.54,0,0,0-1.52-1.4Zm2.53,22.16a2,2,0,1,1,2-2v0a2,2,0,0,1-1.86,2.1h-.11Zm0-3.54a1.54,1.54,0,1,0,1.53,1.56v0a1.54,1.54,0,0,0-1.53-1.36Zm-43,20a2,2,0,1,1,2-2h0A2,2,0,0,1,390.12,346.64Zm0-3.55a1.54,1.54,0,1,0,1.54,1.54h0A1.54,1.54,0,0,0,390.12,343.09Zm50.79-2.84a2,2,0,1,1,2-2v0a2,2,0,0,1-1.91,2Zm0-3.55a1.56,1.56,0,0,0-1.56,1.53,1.54,1.54,0,0,0,3.08,0v0a1.55,1.55,0,0,0-1.47-1.49Zm-50.79-37.26a2,2,0,1,1,2-2,2,2,0,0,1-2,2Zm0-3.54a1.5,1.5,0,1,1,0,.06Zm-19.65,19.24a1.39,1.39,0,1,1,.06.06h0Zm0-3.54a1.53,1.53,0,1,0,1.53,1.53,1.51,1.51,0,0,0-1.47-1.42Zm61.23-45.13a2,2,0,1,1,2-2v0a2,2,0,0,1-1.89,2.07h0Zm0-3.54a1.54,1.54,0,1,0,1.52,1.55h0a1.53,1.53,0,0,0-1.46-1.4Zm-12,30.25a2,2,0,1,1,2-2h0a2,2,0,0,1-1.82,2.11h-.09Zm0-3.54a1.52,1.52,0,1,0,1.52,1.52h0a1.52,1.52,0,0,0-1.47-1.33Zm-51.21-36.47a2,2,0,1,1,2-2v0a2,2,0,0,1-1.76,2.15h-.15Zm0-3.54a1.55,1.55,0,0,0-1.56,1.53,1.54,1.54,0,0,0,3.08,0v0a1.53,1.53,0,0,0-1.47-1.31Zm29.15,40.72a2,2,0,1,1,2-2h0a2,2,0,0,1-1.74,2.2l-.18,0Zm0-3.54a1.54,1.54,0,1,0,1.52,1.55v0a1.54,1.54,0,0,0-1.47-1.26Zm11.1,27.54a2,2,0,1,1,2-2v0a2,2,0,0,1-1.69,2.23h-.22Zm0-3.54a1.54,1.54,0,1,0,1.52,1.56v0a1.52,1.52,0,0,0-1.47-1.22Zm11.52,26.73a2,2,0,1,1,2-2h0a2,2,0,0,1-1.74,2.2h-.17Zm0-3.54a1.52,1.52,0,1,0,1.53,1.52h0a1.54,1.54,0,0,0-1.47-1.17Zm18.25,17.7a2,2,0,1,1,2-2h0A2,2,0,0,1,439,352a1.55,1.55,0,0,1-.37,0Zm0-3.54a1.54,1.54,0,1,0,1.54,1.54h0a1.54,1.54,0,0,0-1.48-1.14Zm11.76,28.34a2,2,0,1,1,2-2h0A2,2,0,0,1,450.31,376.5Zm0-3.54a1.52,1.52,0,1,0,1.52,1.52h0a1.52,1.52,0,0,0-1.52-1.47Zm-30.52-19.19a2,2,0,1,1,2-2v0a2,2,0,0,1-1.91,2h0Zm0-3.54a1.54,1.54,0,1,0,1.52,1.56v0a1.53,1.53,0,0,0-1.52-1.45Zm1.77,19.65a2,2,0,1,1,2-2h0a2,2,0,0,1-1.89,2.07h-.09Zm0-3.54a1.54,1.54,0,1,0,1.52,1.55v0a1.54,1.54,0,0,0-1.54-1.4Zm17.7,2.42a2,2,0,1,1,2-2h0a2,2,0,0,1-1.88,2.08h-.14Zm0-3.54a1.53,1.53,0,1,0,1.52,1.52h0a1.52,1.52,0,0,0-1.57-1.34Zm-17.1,19.9a2,2,0,1,1,2-2h0a2,2,0,0,1-1.82,2.14h-.2Zm0-3.54a1.52,1.52,0,1,0,1.52,1.52h0a1.51,1.51,0,0,0-1.57-1.29Zm-29.44,13.64a2,2,0,1,1,2-2v0a2,2,0,0,1-1.74,2.2,1.29,1.29,0,0,1-.28,0Zm0-3.54a1.54,1.54,0,1,0,1.53,1.56v0a1.53,1.53,0,0,0-1.58-1.26ZM373.47,411.3a2,2,0,1,1,2-2v0a2,2,0,0,1-1.72,2.22h-.3Zm0-3.54a1.54,1.54,0,1,0,1.52,1.55h0a1.54,1.54,0,0,0-1.58-1.24Zm0,18.71a2,2,0,1,1,2-2h0a2,2,0,0,1-1.66,2.27l-.36,0Zm0-3.54a1.54,1.54,0,1,0,1.52,1.55v0a1.54,1.54,0,0,0-1.58-1.19Zm-.75,17.17a2,2,0,1,1,2-2h0a2,2,0,0,1-2,2.34Zm0-3.54a1.54,1.54,0,0,0,0,3.08,1.55,1.55,0,0,0,1.56-1.53v0a1.54,1.54,0,0,0-1.58-1.17Zm-28,12.19a2,2,0,1,1,2-2v0a2,2,0,0,1-1.59,2.3,1.53,1.53,0,0,1-.43,0Zm0-3.54a1.54,1.54,0,1,0,1.52,1.56v0a1.54,1.54,0,0,0-1.58-1.13Zm1.25,19a2,2,0,1,1,2-2h0a2,2,0,0,1-1.51,2.34,1.87,1.87,0,0,1-.58,0Zm0-3.54a1.52,1.52,0,1,0,1.53,1.52h0a1.52,1.52,0,0,0-1.65-1.06Zm7-20.2a2,2,0,1,1,2-2v0A2,2,0,0,1,353,440.45Zm0-3.54a1.54,1.54,0,1,0,1.52,1.56v0A1.54,1.54,0,0,0,353,436.91ZM337,458.24a2,2,0,1,1,2-2v0a2,2,0,0,1-1.94,2h0Zm0-3.54a1.54,1.54,0,1,0,1.54,1.54h0a1.54,1.54,0,0,0-1.54-1.49Zm17.9.73a2,2,0,1,1,2-2v0a2,2,0,0,1-1.91,2h0Zm0-3.54a1.54,1.54,0,1,0,1.52,1.55h0a1.53,1.53,0,0,0-1.51-1.46Zm78.15-60a2,2,0,1,1,2-2v0a2,2,0,0,1-1.87,2.05h-.08Zm0-3.54a1.54,1.54,0,1,0,1.52,1.56v0a1.56,1.56,0,0,0-1.51-1.42Zm21.64,15.31a2,2,0,1,1,2-2h0a2,2,0,0,1-1.86,2.1h-.11Zm0-3.54a1.54,1.54,0,1,0,1.54,1.54v0a1.54,1.54,0,0,0-1.52-1.36Zm-19.89,7.81a2,2,0,1,1,2-2h0a2,2,0,0,1-1.8,2.12h-.14Zm0-3.54a1.52,1.52,0,1,0,1.52,1.52h0a1.5,1.5,0,0,0-1.5-1.31ZM425,401.79a2,2,0,1,1,2-2v0a2,2,0,0,1-1.75,2.18h-.19Zm0-3.54a1.54,1.54,0,1,0,1.52,1.56v0a1.53,1.53,0,0,0-1.5-1.27Zm-19.47,20.11a2,2,0,1,1,2-2v0a2,2,0,0,1-1.72,2.21l-.28,0Zm0-3.54a1.54,1.54,0,1,0,1.52,1.56v0a1.52,1.52,0,0,0-1.56-1.24ZM441.79,384a2,2,0,1,1,2-2v0a2,2,0,0,1-1.68,2.24,1.77,1.77,0,0,1-.32,0Zm0-3.54a1.54,1.54,0,1,0,1.52,1.56v0a1.5,1.5,0,0,0-1.55-1.2Zm2.2,18.27a2,2,0,1,1,2-2v0a2,2,0,0,1-1.66,2.26,1.87,1.87,0,0,1-.34,0Zm0-3.54a1.54,1.54,0,1,0,1.52,1.55h0a1.54,1.54,0,0,0-1.56-1.19Zm-18.91,21.24a2,2,0,1,1,2-2v0a2,2,0,0,1-1.56,2.34,1.6,1.6,0,0,1-.44,0Zm0-3.54a1.54,1.54,0,1,0,1.52,1.56v0a1.53,1.53,0,0,0-1.55-1.1Zm15,23.75a2,2,0,1,1,2-2,2,2,0,0,1-2,2Zm0-3.54a1.53,1.53,0,1,0,1.52,1.52h0a1.51,1.51,0,0,0-1.56-1ZM420.39,456a2,2,0,1,1,2-2v0a2,2,0,0,1-1.43,2.42,1.81,1.81,0,0,1-.57.06Zm0-3.54a1.54,1.54,0,1,0,0,3.08,1.53,1.53,0,0,0,1.55-1.52v0a1.52,1.52,0,0,0-1.55-1Zm25.33,15.62a2,2,0,1,1,2-2v0a2,2,0,0,1-1.35,2.43,2.12,2.12,0,0,1-.66.07Zm0-3.54a1.54,1.54,0,1,0,1.54,1.54h0a1.54,1.54,0,0,0-1.57-.89ZM420.06,471a2,2,0,1,1,2-2v0a2,2,0,0,1-1.33,2.47,1.9,1.9,0,0,1-.67.08Zm0-3.54a1.54,1.54,0,1,0,1.52,1.56v0a1.53,1.53,0,0,0-1.56-.92Zm17-45.68a2,2,0,1,1,2-2h0a2,2,0,0,1-1.26,2.48,1.86,1.86,0,0,1-.74.09Zm0-3.54a1.52,1.52,0,1,0,1.52,1.52h0a1.55,1.55,0,0,0-1.56-.87Zm23.86,15.4a2,2,0,1,1,2-2h0A2,2,0,0,1,460.93,433.62Zm0-3.54a1.54,1.54,0,1,0,1.54,1.54v0a1.54,1.54,0,0,0-1.54-1.49ZM443.6,453.27a2,2,0,1,1,2-2h0a2,2,0,0,1-2,2h-.09Zm0-3.54a1.52,1.52,0,1,0,1.52,1.52h0a1.54,1.54,0,0,0-1.61-1.44h0Zm12.09,10.21a2,2,0,1,1,1.88-2,2.09,2.09,0,0,1,0,.25,2,2,0,0,1-1.94,1.88Zm0-3.54a1.52,1.52,0,1,0,1.52,1.52h0a1.5,1.5,0,0,0-1.59-1.38ZM441.05,318.56a2,2,0,1,1,2-2v0a2,2,0,0,1-1.85,2.1H441Zm0-3.54a1.54,1.54,0,1,0,1.52,1.56v0A1.54,1.54,0,0,0,441,315.2Zm-21.24-39.81a2,2,0,1,1,2-2v0a2,2,0,0,1-1.78,2.13h-.2Zm0-3.54a1.54,1.54,0,1,0,1.52,1.56v0a1.53,1.53,0,0,0-1.54-1.33Zm14.25,28.48a2,2,0,1,1,2-2v0a2,2,0,0,1-1.74,2.16,1.13,1.13,0,0,1-.26,0Zm0-3.54a1.54,1.54,0,1,0,1.54,1.54h0a1.54,1.54,0,0,0-1.56-1.29Zm3.41-54.41a2,2,0,1,1,2-2v0A2,2,0,0,1,437.47,242.2Zm0-3.54a1.54,1.54,0,1,0,1.53,1.56v0A1.53,1.53,0,0,0,437.47,238.66Zm-64.8,39.12a2,2,0,1,1,2-2v0a2,2,0,0,1-1.92,2h0Zm0-3.54a1.54,1.54,0,1,0,1.52,1.56v0a1.53,1.53,0,0,0-1.52-1.43Zm-5.06,15.5a2,2,0,1,1,2-2v0a2,2,0,0,1-1.89,2.07h-.07Zm0-3.54a1.55,1.55,0,0,0-1.56,1.53,1.54,1.54,0,0,0,3.08,0v0a1.53,1.53,0,0,0-1.52-1.4ZM374,241.28a1.42,1.42,0,1,1,.09.12H374Zm0-3.54a1.43,1.43,0,1,1,0,.18Z"/><path class="cls-2" d="M411.24,327.78c-8.32.22-16.43,2.43-24.78,2.82a54.5,54.5,0,0,1-11-.46,38.93,38.93,0,0,1-10.62-3.38c-.14,0,0-.3.13-.23,6.67,3.41,14.81,3.32,22.09,2.63a184.08,184.08,0,0,1,24-1.61.12.12,0,0,1,.17.06A.12.12,0,0,1,411.24,327.78Zm28.32-2c-6.81,3.08-14.58,3.31-21.95,3.54-4,.12-7.95.09-11.91.35A106.58,106.58,0,0,0,394,331.22c-.16,0,0,.28,0,.25a52,52,0,0,1,12.64-.82c4,0,8,.3,12,.23a43.67,43.67,0,0,0,21-5v-.1Zm-67.07,76.77c-1.52,8.85-3.64,17.7-5.31,26.55s-3.24,17.84-4.53,26.8c-.72,5.06-1.54,10.12-2.21,15.19,0,.14.18.19.19,0,3.9-17.6,7.08-35.41,9.79-53.21.75-5.08,1.36-10.22,2.27-15.28a.11.11,0,0,0-.14-.05Zm2.09,24.5c-.28,4-.83,7.91-1.22,11.86s-.78,7.62-1.12,11.45-.61,7.56-.84,11.34-.15,7.78,0,11.67c0,.16.24.14.24,0,.27-3.89.8-7.77,1.12-11.68s.62-7.56.87-11.35.42-7.61.63-11.43.27-7.9.6-11.85c0-.17-.23-.17-.23,0Zm66.88,32.62c-.57-3.54-1.31-7.08-2-10.62-1.42-7.08-3-14.16-4.66-21.1-.92-3.91-1.77-7.86-2.51-11.81,0-.16-.28-.09-.25,0,2.83,14,4.67,28.15,7.74,42.08.42,2,.92,4,1.41,5.93s.87,4,1.47,5.93c0,.19.41.16.39,0A101.31,101.31,0,0,0,441.46,459.71Z"/></g><g id="freepik--Box--inject-2"><rect class="cls-11" x="500.03" y="608.1" width="158.87" height="112.79"/><rect class="cls-5" x="500.03" y="608.1" width="54.09" height="112.79"/><path class="cls-11" d="M503.76,713.05q6-12,11.92-24.13l11.73-24.27L539,640.28q5.79-12.19,11.42-24.48-6,12-11.92,24.14l-11.73,24.25-11.58,24.38Q509.44,700.83,503.76,713.05Z"/><path class="cls-11" d="M503.76,615.87q5.65,12.25,11.42,24.48l11.58,24.37L538.49,689q5.89,12.1,11.92,24.13-5.65-12.27-11.42-24.48l-11.58-24.38L515.68,640Q509.79,627.89,503.76,615.87Z"/><polygon class="cls-6" points="676.33 633.27 571.58 633.27 554.14 608.1 658.89 608.1 676.33 633.27"/><polygon class="cls-6" points="536.69 633.27 482.61 633.27 500.05 608.1 554.14 608.1 536.69 633.27"/></g><g id="freepik--Bag--inject-2"><polygon class="cls-7" points="599.21 736.14 765.44 736.14 741.19 566.82 623.44 566.82 599.21 736.14"/><polygon class="cls-12" points="623.44 566.82 641.92 736.16 599.21 736.16 623.44 566.82"/><path class="cls-5" d="M707.17,578.68c0-.14-3-14.34-6.25-28.66-2.68-11.95-14.55-17.45-24.47-15.84-3.54.56-14.83,3.54-13.36,18.18,1.77,16.81,3,24.94,3,25L659,578.52c0-.34-1.35-8.39-3.06-25.46-1.37-13.61,6.21-23.75,19.27-25.87s28.93,5.31,32.52,21.24C711,562.78,714,577,714,577.16Z"/><path class="cls-2" d="M639.71,734.85c-3.77-1.77-7.46-3.8-11.14-5.79L623.12,726c-1.77-1-3.66-2-5.45-3.11h.71c-2.87,2-5.67,4.14-8.59,6.12s-5.79,4-8.76,5.86c2.67-2.28,5.43-4.48,8.2-6.64s5.59-4.25,8.39-6.39l.31-.24.39.21c1.77,1,3.54,2.1,5.42,3.15l5.31,3.2C632.63,730.32,636.17,732.52,639.71,734.85Z"/><polygon class="cls-2" points="617.95 722.34 618.18 706.11 618.55 689.89 619.51 657.45 620.77 625.02 621.49 608.82 622.38 592.61 622.15 608.84 621.78 625.05 620.84 657.5 619.58 689.93 618.84 706.12 617.95 722.34"/><path class="cls-5" d="M703.57,578a7.08,7.08,0,1,0,7.08-7.08A7.08,7.08,0,0,0,703.57,578Z"/><path class="cls-5" d="M656.08,578a7.08,7.08,0,1,0,7.08-7.08A7.08,7.08,0,0,0,656.08,578Z"/></g><g id="freepik--Chair--inject-2"><rect class="cls-11" x="197.87" y="564.37" width="104.13" height="32.27"/><polygon class="cls-11" points="224.53 596.64 221.25 617.48 198.76 751.62 191.02 751.62 202.85 617.48 204.67 596.64 224.53 596.64"/><polygon class="cls-5" points="204.67 596.64 224.53 596.64 221.25 617.48 202.85 617.48 204.67 596.64"/><polygon class="cls-11" points="308.86 751.62 301.12 751.62 278.62 617.48 275.35 596.64 295.21 596.64 297.03 617.48 308.86 751.62"/><polygon class="cls-5" points="297.03 617.48 278.62 617.48 275.35 596.64 295.21 596.64 297.03 617.48"/></g><g id="freepik--Character--inject-2"><path class="cls-13" d="M131.28,757.53c3.54,1.2,108.37,1.24,112.26-1.22.46-.29.43-13,.74-22.73.46-14.83-19.47-80.86-19.47-80.86l-65,3.17,18.13,66.54s-15,6.63-27.33,12.39h0a147.64,147.64,0,0,0-15.76,8C130.91,746.08,127.72,756.32,131.28,757.53Z"/><path class="cls-5" d="M131.28,757.53c3.54,1.2,108.37,1.24,112.26-1.22.46-.29.67-9.76.74-22.73-26,5.31-95.12,13.65-97.07,8.18-.76-2.16.92-4.62,3.42-6.85a147.57,147.57,0,0,0-15.76,8C130.91,746.08,127.72,756.32,131.28,757.53Z"/><path class="cls-10" d="M286.55,549.44c-12.83,12.76-30.71,20.81-45.91,28.65-13.08,6.73-24.16,13.3-28.32,22.52-3.69,8.14,24.16,87.81,24.16,87.81l-71.41,17.1S132.8,617.46,140.88,579.6c1.31-6.22,7.52-14.27,16.42-23,31.7-31.32,97.36-72,97.36-72H295S311.81,524.32,286.55,549.44Z"/><path class="cls-6" d="M290.52,493.36c-.16-1.77-.34-3.67-.53-5.49a.14.14,0,0,0-.09-.18.14.14,0,0,0-.18.08.17.17,0,0,0,0,.1c1.67,14.69,3,30.82-3.87,44.48-6.68,13.14-20,21-31.87,28.89l-21.63,14.29-10.81,7.08a103,103,0,0,0-8.6,6,25,25,0,0,0-6.27,7.08,17.92,17.92,0,0,0-2.07,10.13c1.77,23.64,22.76,78.41,23.31,80.45.14.49,1,.25.78-.25-5.08-15.77-16.37-43-22.52-74.66a25.35,25.35,0,0,1-.08-12.39,19.35,19.35,0,0,1,5.62-8.31,61.65,61.65,0,0,1,8-6l11-7.28,21.44-14.16c11.72-7.74,24.92-15.26,32.53-27.51C292.59,523.1,291.83,507.71,290.52,493.36Z"/><path class="cls-5" d="M286.55,549.44c-12.83,12.76-30.71,20.81-45.91,28.65-26.91-7.08-60.86-15.93-83.34-21.54,31.7-31.31,97.36-72,97.36-72H295S311.81,524.32,286.55,549.44Z"/><path class="cls-13" d="M3.52,739.23c3.7.72,107.55-13.32,111.07-16.29.42-.34-.64-9.74-2.32-22.62l18.41-78.45-68.4,8.39-21.52,67.4a165.59,165.59,0,0,1-21.08,16.52h0A151.11,151.11,0,0,0,5.14,724.25C1.6,727.93-.17,738.52,3.52,739.23Z"/><path class="cls-5" d="M3.52,739.23c3.7.72,107.55-13.32,111.07-16.29.42-.34-.64-9.74-2.32-22.62-25,8.85-92.43,26.3-95.09,21.15-1-2.05.28-4.71,2.46-7.26A149.83,149.83,0,0,0,5.11,724.29C1.6,727.93-.17,738.52,3.52,739.23Z"/><path class="cls-10" d="M43.54,674.35l73.33,13.21,22.89-84.26c2-27.83,7.08-41.33,23.4-46.41,27.88-8.64,96,23.26,126.85,1.86,25-17.39,5.06-74.19,5.06-74.19H222.65s-8.74,10.62-10.37,16.91c0,0-89.71-6.93-109.75,18.53C75.61,554.11,43.54,674.35,43.54,674.35Z"/><path class="cls-5" d="M175.69,555.63a39,39,0,0,0-12.87,1,29.39,29.39,0,0,0-11,5.6,27.55,27.55,0,0,0-7.38,9.32,47,47,0,0,0-3.54,13.62c-.41,2.7-.66,5.43-.82,8.17s-.26,6.55-.26,8.85c0,.22.28.23.28,0a56.46,56.46,0,0,1,.6-7.34c.32-2.3.71-4.6,1.12-6.89A79,79,0,0,1,145,574.48a29.14,29.14,0,0,1,16.25-16.69,30.12,30.12,0,0,1,7.08-1.89,47.1,47.1,0,0,1,7.32-.23S175.75,555.63,175.69,555.63Z"/><path class="cls-5" d="M279.53,512a31.14,31.14,0,0,1-7.26-2.6,20.36,20.36,0,0,1-6.16-4.32,13.61,13.61,0,0,1-2.6-6c-.3-1.17-.46-2.37-.66-3.54s-.53-2.6-.62-3.91c0-.16-.3-.16-.28,0,.62,4.94-.78,10.46,2.92,14.67a17.78,17.78,0,0,0,6.69,4.3,23,23,0,0,0,7.9,1.93.28.28,0,1,0,.07-.55Z"/><path class="cls-5" d="M293.09,500.63c-.66-2.67-1.44-5.31-2.31-7.91a.14.14,0,0,0-.19-.06.15.15,0,0,0-.07.15,94.5,94.5,0,0,1,4.6,33.63,64.46,64.46,0,0,1-2.18,15.93,19.64,19.64,0,0,1-9,11.86,43.48,43.48,0,0,1-14.66,4.57A101.67,101.67,0,0,1,252,560a326.49,326.49,0,0,1-35.32-3.15c-11.34-1.33-22.71-2.9-34.09-3.93-9.33-.83-19.26-.94-27.9,3.2-8.21,4-13.54,11.47-17,19.67-4,9.26-6.18,19.22-8.85,28.89-3.17,11.52-19.47,74.34-19.81,77,0,.27.39.25.41,0,.58-5.91,14.74-57.88,17.93-69.48l4.8-17.4c1.27-4.63,2.53-9.27,4.12-13.8,3-8.66,7.49-17.35,15.36-22.5,8.41-5.52,18.89-5.93,28.61-5.31,5.47.39,10.92,1.11,16.37,1.77l18,2.25c11.46,1.34,23,3,34.45,3.31a113.39,113.39,0,0,0,17.28-.69,57.87,57.87,0,0,0,15.13-3.54,20.52,20.52,0,0,0,10.25-8.71,36.8,36.8,0,0,0,3.77-14.16A94.92,94.92,0,0,0,293.09,500.63Z"/><path class="cls-5" d="M199.15,347.13c-11.26,9.22-15.83,25.76-15.83,25.76s-11.49,15.93-9.63,25.43a16.87,16.87,0,0,0,9.58,12.39l-.5-5.18s2.68,6.85,13.46,10.62,25.7,1.77,33.63-1.4A29.4,29.4,0,0,0,242,406l-3.54,7.08A21.94,21.94,0,0,0,256.62,403c7.47-10.78-9.22-28.93-10.42-32.59s-.69-29.58-28.17-27.76C218,342.6,206.9,340.78,199.15,347.13Z"/><path class="cls-5" d="M179.48,409.65a17.25,17.25,0,0,1-6.41-8.18,15.79,15.79,0,0,1-.74-10.28,35.36,35.36,0,0,1,6.18-10.92c2.56-3.54,5.31-6.8,7.89-10.32.13-.2-.16-.39-.32-.25a94.73,94.73,0,0,0-7.57,8.2,46.47,46.47,0,0,0-6.18,8.56,17.06,17.06,0,0,0-2.16,9.35,16.41,16.41,0,0,0,2.69,7.43,35.22,35.22,0,0,0,6.46,6.62C179.48,410,179.59,409.76,179.48,409.65Z"/><path class="cls-5" d="M260,391.44c-2.32-9.77-10.25-16.61-14.64-25.35-2.37-4.75-4.05-9.9-7.33-14.16,0-.11-.28,0-.19.16,2.65,3.78,4,8.14,5.75,12.39a69.73,69.73,0,0,0,7,11.93c4.74,6.94,10.42,15.17,8.33,24-1,4.08-3.87,8.46-8.25,9.34a.13.13,0,0,0-.12.13.13.13,0,0,0,.12.12h0a13.36,13.36,0,0,0,8.15-6.73A17,17,0,0,0,260,391.44Z"/><path class="cls-5" d="M260.18,394a17.56,17.56,0,0,0-1.36-10.5,25.17,25.17,0,0,0-7.08-7.94c-3.15-2.57-6.52-5.05-8.32-8.85,0-.15-.3,0-.23.14,2.83,6.21,9,9.57,12.95,14.95,4.46,6.13,3.67,14.38-.4,20.52a28.91,28.91,0,0,1-10,8.94v.11C252.66,407.83,258.91,401.93,260.18,394Z"/><path class="cls-13" d="M240.92,414.68c-6,24.55-22,55.86-34.89,55.7-11.79-.19-38.46-13-49.56-19.82s13-34.32,19.47-30.4c8.85,5.32,24,16.79,26.55,15.94,3.1-1,6.16-5.92,23.77-28.33C233.56,398.69,243.51,404.22,240.92,414.68Z"/><path class="cls-13" d="M164,410c-5.31-1.56-11.22-3.76-17-3.35s-10.15,8.3-10,10.48,3,15.67,8.85,15.35,1.77-10.62,1.89-11.77.28-2.77,1.38-2.71,20.62,8.07,20.62,8.07Z"/><path class="cls-13" d="M163.71,410.8c-.34,0-16.11-5.31-21.88-4.81s-10.14,8.28-10,10.46,3,15.66,8.85,15.36,1.77-10.62,1.9-11.79.28-2.74,1.38-2.69,20.62,8.06,20.62,8.06Z"/><path class="cls-5" d="M142.52,431a6.88,6.88,0,0,0,.78-3.45,12.35,12.35,0,0,0-.41-3.68,20.16,20.16,0,0,1-.86-3.13,6.17,6.17,0,0,1,.63-3.08c.39-.84,1.26-.61,2-.39a24.65,24.65,0,0,1,3.22,1.25c1.14.48,2.25,1,3.37,1.51a30.68,30.68,0,0,1,3.54,1.64v.18c-1-.34-2-.73-3-1.17s-2.25-.9-3.38-1.32-2.09-.87-3.15-1.26c-.37-.14-1.14-.5-1.54-.37s-.6,1.22-.68,1.57a5.49,5.49,0,0,0,.36,3.1,17.06,17.06,0,0,1,.78,3.13,9.06,9.06,0,0,1,0,3,12,12,0,0,1-1.24,2.55C142.65,431.19,142.45,431.07,142.52,431Z"/><path class="cls-13" d="M182.83,425s-16.78-13.7-20.27-16.42c-7-5.44-35.72-15.42-39.65-15.63s-4.94,7.91,14.6,15.24c10.29,3.85,12.39,9.52,12.39,12.72s-2.74,9.31-8.12,9.46-9.28-7.51-14.27-8.11-1.24,8.25,2.53,13.29A32.87,32.87,0,0,0,145.09,446c4.74,1.49,19.47,6.92,19.47,6.92Z"/><path class="cls-5" d="M134.89,426.91c2.11,1.45,4.52,3.36,7.08,3.31a6.45,6.45,0,0,0,5.61-4.23,10.19,10.19,0,0,0,1-7.51,12.61,12.61,0,0,0-4-5.82,30.77,30.77,0,0,0-7.54-4.44c-.12,0,0-.23.11-.18,2.53,1,10.37,3.7,12.28,10.41a10.4,10.4,0,0,1-1.09,7.64A7.46,7.46,0,0,1,143,430.8c-3.15.43-6-2-8.4-3.8C134.63,426.91,134.79,426.84,134.89,426.91Z"/><path class="cls-1" d="M242.23,419.78a110,110,0,0,1-9.13,28.51c-.91,1.77-1.47,2.73-1.47,2.73l-23.12-18.23-3.19-2.52s.43-.65,1.77-2.44c2-2.53,6.06-7.31,13.74-15.63a47.21,47.21,0,0,1,11.63-9.82C241.52,397.61,245,404.89,242.23,419.78Z"/><path class="cls-1" d="M235.59,450.27l-5.31,8.47L204.37,438l-5.79-4.6c.66-.62,6.94-6.8,6.94-6.8l1.65,1.31,3.25,2.57,22.68,17.89Z"/><path class="cls-5" d="M242.23,419.78a110,110,0,0,1-9.13,28.51l2.49,2-5.31,8.47L204.37,438l4.14-5.18,1.91-2.39c8.53-10.75,17-21.48,22.11-28C241.52,397.61,245,404.89,242.23,419.78Z"/><path class="cls-7" d="M210.56,502.12S242.34,507,301,497.2c0,0-29-71.87-49.15-90.28-9.19-8.35-17.35-6.31-23.9,0-1.63,1.6-21.12,30.86-22.2,40.59-.94,8.61,6.71,17.47,6.71,17.47Z"/><path class="cls-13" d="M241.43,404.13c0,1.63-4.62,13.61-11.75,15.17-2.32.49-5.63-12.06-5.63-12.06l-.46-.86-6.39-12.2,12.62-13.88,1.77-1.87s1.54,3.45,3.4,7.77l.27.6c.1.25.21.48.3.71.28.63.58,1.29.85,1.94s.42,1,.62,1.53.42,1.06.63,1.59A85.27,85.27,0,0,1,241.43,404.13Z"/><path class="cls-5" d="M235,386.2a27.74,27.74,0,0,1-11.47,20.18l-6.39-12.2,12.62-13.88,1.77-1.87S233.15,381.88,235,386.2Z"/><path class="cls-13" d="M193.52,378c2.71,24,17.4,25.1,22.57,24.51,4.71-.54,20.64-2.95,20.41-27.11s-12.24-30.5-23-29.83S190.81,354,193.52,378Z"/><path class="cls-5" d="M196.44,373.43c.55-.14,1-.37,1.57-.56a2.59,2.59,0,0,0,1.49-.89.82.82,0,0,0-.14-1,2.07,2.07,0,0,0-2.14-.22,3.11,3.11,0,0,0-1.77,1.37.92.92,0,0,0,.39,1.24A1,1,0,0,0,196.44,373.43Z"/><path class="cls-5" d="M212.85,370.43a13.41,13.41,0,0,1-1.67-.13,2.78,2.78,0,0,1-1.68-.44.92.92,0,0,1-.14-1.05,2.19,2.19,0,0,1,2-.77,3.14,3.14,0,0,1,2.1.83.91.91,0,0,1,0,1.3A.94.94,0,0,1,212.85,370.43Z"/><path class="cls-5" d="M209.84,377.54a.14.14,0,0,1,.14.14c.14,1.63.57,3.54,2.11,3.88m0,.09c-1.84-.06-2.38-2.53-2.25-4.11Z"/><path class="cls-5" d="M211.11,375.68c2.6-.49,3.4,4.75,1,5.21S208.94,376.09,211.11,375.68Z"/><path class="cls-5" d="M212.19,375.79c.5.23,1,.69,1.6.65s1-.65,1.38-1.24h.1a2,2,0,0,1-1.11,2.41c-1,.29-1.77-.51-2.22-1.49C211.87,376,212,375.7,212.19,375.79Z"/><path class="cls-5" d="M200.72,378.5s-.12.1-.1.16c.31,1.62.39,3.54-1,4.3v.09C201.45,382.59,201.31,380.05,200.72,378.5Z"/><path class="cls-5" d="M199,377.1c-2.65.23-2,5.5.43,5.31S201.25,376.92,199,377.1Z"/><path class="cls-5" d="M198,377.58c-.39.33-.74.88-1.24,1s-1.06-.43-1.49-.92h0c.11,1,.55,2,1.54,2.09s1.45-.87,1.58-1.9C198.3,377.72,198.12,377.45,198,377.58Z"/><path class="cls-5" d="M212.05,390.89c-.3.46-.58,1-1.17,1.22a4.07,4.07,0,0,1-1.77,0s-.1,0,0,.11a2.23,2.23,0,0,0,2.22.46,1.8,1.8,0,0,0,1-1.77Z"/><path class="cls-5" d="M204.42,385.93s0,2.48.16,3.63c0,.11.3.12.69.09h0a5.48,5.48,0,0,0,5-2.76c0-.13-.09-.23-.19-.14a8.29,8.29,0,0,1-4.78,2.12c-.13-.3.14-4.25,0-4.23a9.46,9.46,0,0,0-2.52.94c-.16-5.15.52-10.3.29-15.46a.16.16,0,0,0-.16-.15.16.16,0,0,0-.16.15,85.07,85.07,0,0,0-1,16.64C201.75,387.35,204,386.18,204.42,385.93Z"/><path class="cls-5" d="M205.36,389.12a6.94,6.94,0,0,0,2.83,1.91,3.14,3.14,0,0,0,1.77,0c1.31-.43,1.26-1.65,1-2.67a7.69,7.69,0,0,0-.71-1.54A8.7,8.7,0,0,1,205.36,389.12Z"/><path class="cls-14" d="M208.19,391a3.14,3.14,0,0,0,1.77,0c1.31-.43,1.26-1.65,1-2.68A3.1,3.1,0,0,0,208.19,391Z"/><path class="cls-5" d="M234.94,377.4c-2.64,0-10-6.64-11.19-19.28,0,0,1.77,11.28,2.83,12.87s-4.12-3.75-5.31-13.93a41.08,41.08,0,0,1-10.05,6.23c-4.71,1.77-7.67,1.9-8,1.58s6.55-3.1,8.3-5.45c0,0-12.39,6.93-18.23,7.84-.69,0-2.56-13.9,6.11-20.55s23.63-1.33,27.81,2.12c0,0,4.62.3,10.09,6.67S237.77,377.35,234.94,377.4Z"/><path class="cls-13" d="M238.37,383.49a5.72,5.72,0,0,1-1,.51,4,4,0,0,1-1.12.25,3.4,3.4,0,0,1-1.45-.16,4.63,4.63,0,0,1-1.05-.51,5.07,5.07,0,0,1-1.16-1.15v-6.59s3.68-8.44,7.4-7.27S242,381.24,238.37,383.49Z"/><path class="cls-5" d="M239.43,371.84V372a10.29,10.29,0,0,0-4,7.4,2.24,2.24,0,0,1,2.84-1.42,1.51,1.51,0,0,1,.35.14v.16a2.52,2.52,0,0,0-2.55,1.4,11.94,11.94,0,0,0-.85,2.46c-.09.28-.55.23-.52,0h0C234,378.5,235.73,373,239.43,371.84Z"/><path class="cls-9" d="M237.89,393.47a1.59,1.59,0,0,1-1.15.89c-.92.14-2.67-.71-3.34-4.85a13.66,13.66,0,0,1,.37-5.93c.16-.48.28-.78.28-.82a.59.59,0,0,1,.76-.28.56.56,0,0,1,.29.74c-.11.29-.21.58-.29.87a12.53,12.53,0,0,0-.28,5.31c.53,3.38,1.77,4,2,3.89s.23-.12.33-.3c.84-1.52.36-6.21-.63-8.67a3.88,3.88,0,0,0,1.11-.25C238.3,386.53,238.92,391.54,237.89,393.47Z"/><path class="cls-13" d="M249.44,423.28c-8,24.11-44.65,68.87-58.84,71.16-16.46,2.64-58.42-18.92-67.92-28.32-3.77-3.77,21.38-28.09,26.37-25.33C170,452.33,187.48,457,190.63,455.51c4.84-2.3,26.25-23.13,40.31-37.17C248.6,400.5,253.05,412.47,249.44,423.28Z"/><path class="cls-13" d="M123.71,466.86c-2.16-1.17-16.18-15-20-21.12a69.35,69.35,0,0,1-9.18-20.65c-3-11.62-4-19.92-2.3-23.32,1.94-4,2.42-4.56,10.62,15.19,4.6,11.17,10.3,13.22,15.41,13.91A84,84,0,0,1,153.2,444S132,471.36,123.71,466.86Z"/><path class="cls-5" d="M112,386.41l19.26,35.67c.56,1.06.14,2-1,2.19l-19.47,2.87a3.2,3.2,0,0,1-3-1.61L88.52,389.84a1.36,1.36,0,0,1,.23-1.91,1.3,1.3,0,0,1,.7-.28l19.47-2.87A3.2,3.2,0,0,1,112,386.41Z"/><path class="cls-11" d="M113.72,386.23,133,421.92a1.36,1.36,0,0,1-.24,1.91,1.31,1.31,0,0,1-.72.28L112.55,427a3.12,3.12,0,0,1-3-1.61L90.27,389.67a1.35,1.35,0,0,1,.21-1.89,1.3,1.3,0,0,1,.73-.29l19.47-2.87A3.16,3.16,0,0,1,113.72,386.23Z"/><path class="cls-2" d="M113.46,388.2l17.7,32.73c.55,1,.19,1.91-.78,2.05l-17.45,2.57a3,3,0,0,1-2.75-1.54l-17.7-32.73c-1.1-2-.55-2.61.43-2.75l3.54-.51a.8.8,0,0,1,.62.44v.11c.33.64.7.58,1.16.51l8.08-1.18c.46,0,.81-.13.47-.75V387c-.14-.27-.09-.51.11-.55l3.54-.51C111.31,385.83,112.45,386.34,113.46,388.2Z"/><path class="cls-2" d="M103,387.54l-2.21.32a.2.2,0,0,1-.2-.11h0v-.14l2.2-.33a.27.27,0,0,1,.21.12h0a.08.08,0,0,1,0,.12S103,387.54,103,387.54Z"/><polygon class="cls-10" points="120.77 407.93 105.95 410.11 98.38 396.07 113.19 393.9 120.77 407.93"/><polygon class="cls-15" points="115.85 411.14 107.19 412.41 106.75 411.58 115.4 410.31 115.85 411.14"/><polygon class="cls-15" points="118.17 412.25 107.92 413.76 107.7 413.35 117.94 411.85 118.17 412.25"/><polygon class="cls-15" points="118.57 413.01 108.32 414.52 108.11 414.11 118.36 412.61 118.57 413.01"/><polygon class="cls-15" points="118.98 413.77 108.73 415.28 108.52 414.86 118.75 413.35 118.98 413.77"/><polygon class="cls-15" points="97.92 391.52 96.07 391.81 95.88 391.45 97.74 391.19 97.92 391.52"/><polygon class="cls-15" points="98.25 392.16 96.41 392.43 96.22 392.09 98.07 391.81 98.25 392.16"/><polygon class="cls-15" points="98.59 392.78 96.75 393.05 96.55 392.71 98.41 392.44 98.59 392.78"/><path class="cls-10" d="M121.72,410a1,1,0,0,1-.26.5,2.27,2.27,0,0,1-.71-.36c-.44-.28-.66-.74-.28-.79a.58.58,0,0,1,.56.33s-.16-.39.13-.44S121.81,409.67,121.72,410Z"/><polygon class="cls-10" points="125.81 420.13 113.85 421.88 112.11 418.64 124.06 416.89 125.81 420.13"/><path class="cls-13" d="M115.6,430.4c5.31.88-10.23-12.39-9.58-18.47s6.22-3.25,10.3.84c14.16,14.16,26.34,15.48,32.73,28S115.6,430.4,115.6,430.4Z"/><path class="cls-5" d="M199.91,448.22c-1.54,1.13-3,2.32-4.52,3.54a29.37,29.37,0,0,1-4.31,3.12,8.78,8.78,0,0,1-5.81.28c-1.73-.36-3.43-.8-5.12-1.33A153.48,153.48,0,0,1,160,445.88a105.18,105.18,0,0,1-10.82-5.31l.39.48a25.42,25.42,0,0,0-3-4.81,30.92,30.92,0,0,0-4.58-4.71,53.07,53.07,0,0,0-5.68-4.09c-1-.65-2.07-1.29-3.12-1.91l-1.52-1a6.84,6.84,0,0,1-1.77-1.13c.12.17.37,0,.21-.18H130a.13.13,0,0,0,0,.12c.16.3.53.45.8.64l1.45,1.1,2.73,2c2,1.47,4.09,3,6,4.58a44.86,44.86,0,0,1,4.69,4.45c.75.79,1.42,1.66,2.13,2.51a19.41,19.41,0,0,1,1.77,2.62c0,.09,6.39,3.54,9.7,5.31a101.39,101.39,0,0,0,10.18,4.65c3.47,1.4,7,2.68,10.62,3.79a43.74,43.74,0,0,0,5.52,1.4,9,9,0,0,0,5.1,0,19.54,19.54,0,0,0,4.46-3.54c1.77-1.5,3.54-3,5.31-4.58C200.1,448.29,200,448.17,199.91,448.22Z"/><path class="cls-7" d="M199.61,447.28,224,470.21s20.81-25.62,26.32-45.41-4.73-22.5-22.89-4.49C209.68,437.9,199.61,447.28,199.61,447.28Z"/><path class="cls-5" d="M218.65,428.8c-3.17,2.78-6.19,5.76-9.2,8.69-1.47,1.44-2.92,2.87-4.34,4.34-.76.78-1.52,1.54-2.26,2.32a20.25,20.25,0,0,1-2.59,2.48.14.14,0,1,0,.18.21,42.71,42.71,0,0,1,4.64-4.28c1.61-1.45,3.2-2.94,4.76-4.45,3-3,6.11-6,8.85-9.2C218.83,428.84,218.72,428.75,218.65,428.8Z"/><path class="cls-5" d="M244,443.05a21.13,21.13,0,0,1-2.66,2.69l-1.1,1c1.65-2.72,3.22-5.48,4.66-8.3h0c-3.63,5.31-7,10.89-10.62,16.23s-7.08,11.12-10.92,16.4a.14.14,0,1,0,.15.23.1.1,0,0,0,.06-.08c3.79-5.31,7.88-10.42,11.4-15.93,1.4-2.21,2.81-4.42,4.19-6.67a10.37,10.37,0,0,0,1.21-1.08,14.35,14.35,0,0,0,1.32-1.38c.82-1,1.67-1.93,2.54-2.87C244.28,443.12,244.07,442.93,244,443.05Z"/><path class="cls-7" d="M192.62,449.74l7.5-6.17L228,469.8l-6.07,8Z"/><path class="cls-5" d="M224.64,466.35c-3.46-3.54-7.19-6.82-10.8-10.18s-7.49-6.5-11-10a.14.14,0,0,0-.2,0,.14.14,0,0,0,0,.15c3.54,3.43,6.87,7.08,10.52,10.5a142.3,142.3,0,0,0,11.27,9.68C224.58,466.67,224.78,466.49,224.64,466.35Z"/><path class="cls-5" d="M217.11,473.16a63.42,63.42,0,0,1,5.1,4.32h-.6c2-2.71,4-5.31,6.23-7.88v.32c-.65-.71-1.31-1.41-1.93-2.14.76.57,1.52,1.19,2.27,1.77l.14.14-.13.18c-1.87,2.8-3.87,5.47-6,8.07l-.28.37-.3-.32C220.09,476.47,218.56,474.86,217.11,473.16Z"/><path class="cls-5" d="M241.43,409.67a20.31,20.31,0,0,0-4.58,2.65,51.15,51.15,0,0,0-4.27,3.35c-2.65,2.37-5.16,4.87-7.77,7.29h0c1.14-1.38,2.36-2.69,3.54-4a35.41,35.41,0,0,1,4-3.54c1.38-1.1,2.78-2.23,4.24-3.24a21.2,21.2,0,0,1,4.73-2.5h0Z"/></g></svg>