<svg id="Layer_1" data-name="Layer 1" xmlns="http://www.w3.org/2000/svg" viewBox="0 0 800 900"><defs><style>.cls-1{fill:#ebebeb;}.cls-2{fill:#dbdbdb;}.cls-10,.cls-3{fill:#fff;}.cls-4{fill:#c7c7c7;}.cls-5{fill:#a6a6a6;}.cls-6{fill:#e6e6e6;}.cls-10,.cls-11,.cls-7{isolation:isolate;}.cls-16,.cls-7{opacity:0.1;}.cls-8{fill:#263238;}.cls-11,.cls-9{fill:#ffc727;}.cls-10{opacity:0.5;}.cls-11{opacity:0.15;}.cls-12{fill:#455a64;}.cls-13{fill:#37474f;}.cls-14{fill:#008f6b;}.cls-15{opacity:0.2;}.cls-17{fill:#d3766a;}.cls-18{fill:#ff9abb;}</style></defs><g id="freepik--background-complete--inject-7"><path class="cls-1" d="M76.11,575.54l-23.87.51-12.12.2c-4,0-8.13,0-12.18.09h-.8v-.82L27,555.16v-.91h.91l24.08.11c8,0,16.07.2,24.09.29h.51v.49c0,3.46-.17,6.88-.24,10.28Zm0,0-.26-10.3c0-3.38-.2-6.73-.23-10.06l.49.49c-8,.09-16,.29-24.09.29l-24.08.13.91-.91v20.36l-.82-.82c4,0,7.93,0,11.91.11l12,.2Z"/><path class="cls-1" d="M49.24,601.15l-23.87.51-12.12.2c-4.05,0-8.13,0-12.18.09H.26v-.8L.16,580.8v-.93h.91l24.08.11c8,0,16.07.2,24.09.29h.51v.49c0,3.46-.15,6.88-.24,10.28Zm0,0L49,590.86c0-3.39-.2-6.74-.23-10.06l.49.49c-8,.09-16.07.29-24.09.29l-24.08.12.9-.9-.09,20.35-.81-.82c4,0,7.93,0,11.91.11l12,.2Z"/><path class="cls-1" d="M432.94,314.71l-23.87.51-12.12.2c-4.05.09-8.13,0-12.19.11H384v-.82l-.11-20.36v-.91h.91l24.09.13c8,0,16.06.2,24.09.29h.49v.49c0,3.46-.16,6.9-.26,10.3Zm0,0-.26-10.28c0-3.38-.2-6.73-.23-10.08l.49.51c-8,.09-16.05.29-24.09.29l-24.09.11.91-.91-.09,20.36-.82-.8h11.92l12,.2Z"/><path class="cls-1" d="M406.14,340.38l-23.87.51-12.11.2c-4.06,0-8.14,0-12.19.11h-1v-22h.91l24.09.13c8,0,16.06.2,24.08.29h.51v.49c0,3.45-.14,6.89-.23,10.3Zm0,0-.25-10.28c0-3.38-.2-6.75-.24-10.08l.49.51c-8,.09-16.06.29-24.09.29l-24.08.11.91-.91v20.36l-.82-.8c4,0,7.93,0,11.91.09l12,.2Z"/><path class="cls-1" d="M379.31,314.71l-23.89.51-12.12.2c-4,.09-8.11,0-12.17.11h-.82V293.44h.93l24.09.13c8,0,16,.2,24.09.29h.49v.49c0,3.46-.17,6.9-.24,10.3Zm0,0-.26-10.28c-.09-3.38-.22-6.73-.25-10.08l.51.51c-8.05.09-16.07.29-24.09.29l-24.09.11.91-.91-.11,20.36-.8-.8H343l12,.2Z"/><path class="cls-1" d="M740.17,553.11l-23.87.51-12.13.2c-4,0-8.11,0-12.17.1h-.8v-.81l-.09-20.36v-.91H692l24.08.11c8,0,16.07.22,24.09.31h.51v.49c0,3.46-.14,6.89-.24,10.28Zm0,0-.25-10.28c-.09-3.4-.2-6.75-.24-10.08l.49.49c-8,.09-16.06.29-24.08.31l-24.09.11.91-.91-.09,20.36-.82-.82c4,0,7.93,0,11.92.11l12,.2Z"/><path class="cls-1" d="M772.39,127.89l-23.87.51-12.11.2c-4.06,0-8.12,0-12.19.11h-.8v-.82l-.11-20.36v-.9h.91l24.09.1c8,0,16.06.22,24.08.31h.51v.49c0,3.46-.16,6.9-.24,10.28Zm0,0-.25-10.28c0-3.4-.2-6.75-.24-10.08l.49.5c-8,.09-16,.29-24.08.31l-24.09.1.91-.91v20.36l-.82-.82c4,0,7.93,0,11.92.11l12,.2Z"/><path class="cls-1" d="M799.28,153.62l-23.83.45-12.12.2c-4.05,0-8.11,0-12.17.11h-.82v-.76l-.09-20.36v-.91h.93l24.09.11c8,0,16,.22,24.08.31h.49v.49c0,3.46-.16,6.89-.23,10.28Zm0,0-.18-10.34c0-3.4-.2-6.75-.24-10.08l.51.5c-8,.09-16.06.29-24.09.3l-24.08.11.91-.91-.2,20.42-.8-.82c4,0,7.91,0,11.89.11l12,.2Z"/><path class="cls-1" d="M76.11,140.74l-23.87.49-12.12.22h-13v-.8L27,120.29v-.93h.91l24.08.11c8,0,16.07.2,24.09.29h.51v.49c0,3.44-.17,6.88-.24,10.28Zm0,0-.26-10.3c0-3.38-.2-6.73-.23-10.06l.49.49c-8,0-16,.29-24.09.29l-24.08.13.91-.91v20.36l-.82-.82c4,0,7.93,0,11.91.09l12,.22Z"/><path class="cls-2" d="M761.89,195H559.65a20.64,20.64,0,0,0-20.45,20.81V632.08a20.67,20.67,0,0,0,20.45,20.85H761.89a20.67,20.67,0,0,0,20.47-20.85V215.78A20.65,20.65,0,0,0,761.9,195Zm7.68,424.29c0,10.91-8.2,19.83-18.32,19.83H570.33c-10.15,0-18.36-8.86-18.36-19.83V231.57c0-22.32,8.21-23.41,18.36-23.41h36.24c2.09,0,3.82,2.38,3.82,5.35v1.29c0,6.95,3.8,7,8.48,7h83.81c4.71,0,8.48,0,8.48-7v-1.29c0-3,1.71-5.35,3.85-5.35h36.24c10.12,0,18.32,3,18.32,23.41Z"/><path class="cls-3" d="M672.21,213.09H649.34a1.41,1.41,0,0,1-1.4-1.42h0a1.4,1.4,0,0,1,1.4-1.4h22.87a1.4,1.4,0,0,1,1.41,1.38v0h0A1.42,1.42,0,0,1,672.21,213.09Z"/><path class="cls-3" d="M769.59,231.57V619.24c0,10.91-8.2,19.83-18.34,19.83H570.33c-10.15,0-18.36-8.86-18.36-19.83V231.57c0-22.32,8.21-23.41,18.36-23.41h36.24c2.11,0,3.82,2.38,3.82,5.35v1.29c0,6.95,3.8,7,8.49,7h83.8c4.71,0,8.48,0,8.48-7v-1.29c0-3,1.69-5.35,3.83-5.35h36.26C761.39,208.19,769.59,211.12,769.59,231.57Z"/><g id="freepik--u5Zjqx--inject-7"><path class="cls-4" d="M600.31,216.85l-.35.37-.2.18A4.66,4.66,0,0,0,596.4,216a4.6,4.6,0,0,0-3.39,1.4l-.18-.2-.34-.35h0l.45-.4a6.07,6.07,0,0,1,1-.65,5.89,5.89,0,0,1,1.36-.46h1.73a4.77,4.77,0,0,1,1.24.29,5.08,5.08,0,0,1,.85.4,6.55,6.55,0,0,1,.81.57l.36.32Z"/><path class="cls-4" d="M594.12,218.51l-.54-.55a3.73,3.73,0,0,1,2.24-1.12A3.93,3.93,0,0,1,599.2,218l-.55.56a3.19,3.19,0,0,0-4.5,0l0,0Z"/><path class="cls-4" d="M598.11,219.11l-.57.56a1.61,1.61,0,0,0-2.31,0l-.54-.54a2.39,2.39,0,0,1,3.39,0Z"/><path class="cls-4" d="M596.89,220.11a.51.51,0,1,1-.53-.49h0a.49.49,0,0,1,.51.47Z"/></g><path class="cls-4" d="M566.23,217.93a1.46,1.46,0,1,1,1.48,1.43h0A1.45,1.45,0,0,1,566.23,217.93Z"/><path class="cls-4" d="M570.71,217.93a1.44,1.44,0,1,1,1.44,1.43,1.43,1.43,0,0,1-1.44-1.43Z"/><circle class="cls-4" cx="576.69" cy="217.93" r="1.44"/><path class="cls-4" d="M579.79,217.93a1.46,1.46,0,1,1,1.47,1.43h0A1.45,1.45,0,0,1,579.79,217.93Z"/><path class="cls-4" d="M584.43,217.93a1.44,1.44,0,1,1,1.43,1.43,1.43,1.43,0,0,1-1.43-1.43Z"/><path class="cls-4" d="M753.27,221.07H741.52v-5.45h11.75Zm-11.15-.61h10.53v-4.22H742.12Z"/><rect class="cls-4" x="742.5" y="216.54" width="7.57" height="3.58"/><rect class="cls-4" x="753.27" y="216.89" width="1.04" height="2.91"/><path class="cls-5" d="M587.23,260.32v11.95a1.15,1.15,0,0,1-1.15,1.13,1.11,1.11,0,0,1-1.11-1.11v-8.55l-2.91,4.05a1.09,1.09,0,0,1-.93.46h0a1.09,1.09,0,0,1-.92-.46l-2.9-4.05v8.53a1.13,1.13,0,0,1-2.25,0h0V260.32a1.12,1.12,0,0,1,1.11-1.13h0a1.13,1.13,0,0,1,.91.47l4,5.6,4-5.6a1.06,1.06,0,0,1,.91-.47h0A1.17,1.17,0,0,1,587.23,260.32Z"/><path class="cls-5" d="M598.05,270.05h-4.93l-1,2.64a1.16,1.16,0,0,1-1,.71,2.41,2.41,0,0,1-.38,0,1.13,1.13,0,0,1-.66-1.46h0L594.51,260a1.16,1.16,0,0,1,2.14,0l4.48,11.95a1.14,1.14,0,0,1-.66,1.46h0a1.34,1.34,0,0,1-.4,0,1.12,1.12,0,0,1-1-.71Zm-.83-2.24-1.64-4.37-1.64,4.37Z"/><path class="cls-5" d="M613.3,271.7a1.14,1.14,0,0,1-.71,1.42,1.62,1.62,0,0,1-.44,0h0a1.36,1.36,0,0,1-.78-.22,1.75,1.75,0,0,1-.65-.7,5.55,5.55,0,0,1-.42-2.44,1.93,1.93,0,0,0-.24-.88,2,2,0,0,0-.62-.58,4.21,4.21,0,0,0-1.13-.49h-2.4v4.4a1.13,1.13,0,1,1-2.25,0V260.26a1.11,1.11,0,0,1,1.09-1.13h3.67a4.35,4.35,0,0,1,2.77,7.7,3.56,3.56,0,0,1,.71.74,3.9,3.9,0,0,1,.67,2.19,4.82,4.82,0,0,0,0,1.2A1.12,1.12,0,0,1,613.3,271.7Zm-2.84-8.15a2.1,2.1,0,0,0-2.07-2.11h-2.51v4.19h2.49A2.09,2.09,0,0,0,610.46,263.55Z"/><path class="cls-5" d="M626,261.1l-4.17,5.69v5.46a1.11,1.11,0,0,1-1.09,1.13h0a1.13,1.13,0,0,1-1.12-1.13v-5.46l-4.11-5.69a1.12,1.12,0,0,1,.26-1.56,1.11,1.11,0,0,1,1.55.27l3.48,4.74,3.46-4.74a1.11,1.11,0,0,1,1.55-.27,1.12,1.12,0,0,1,.26,1.56Z"/><path class="cls-5" d="M627.87,263.79a1.71,1.71,0,0,0,1.38-1.82,1.43,1.43,0,0,1-1.14-1.36v-.17a1.31,1.31,0,0,1,1.27-1.34h.09c.91,0,1.48.69,1.48,1.82v.2a4,4,0,0,1-1,3,2.85,2.85,0,0,1-1.81.87.56.56,0,0,1-.62-.5v-.08A.59.59,0,0,1,627.87,263.79Z"/><path class="cls-5" d="M632.55,269.87a1,1,0,0,1,1.45-.16h0a6.74,6.74,0,0,0,3.87,1.57,4.22,4.22,0,0,0,2.53-.77,1.82,1.82,0,0,0,.88-1.45,1.18,1.18,0,0,0-.19-.66,2,2,0,0,0-.6-.6,8.26,8.26,0,0,0-2.78-.95h0a10.58,10.58,0,0,1-2.62-.8,4.42,4.42,0,0,1-1.82-1.58,3.2,3.2,0,0,1-.45-1.65,3.77,3.77,0,0,1,1.62-3,5.92,5.92,0,0,1,3.51-1.07,7.91,7.91,0,0,1,4.42,1.62,1,1,0,0,1,.27,1.43,1,1,0,0,1-1.4.34l0,0a5.85,5.85,0,0,0-3.25-1.29,3.88,3.88,0,0,0-2.28.69,1.63,1.63,0,0,0-.78,1.28,1.12,1.12,0,0,0,.15.56,2.09,2.09,0,0,0,.54.53,7.06,7.06,0,0,0,2.55.89h0a12.41,12.41,0,0,1,2.8.85,4.72,4.72,0,0,1,2,1.68,3.3,3.3,0,0,1,.49,1.73,3.9,3.9,0,0,1-1.82,3.14,6.34,6.34,0,0,1-3.75,1.15,8.72,8.72,0,0,1-5.18-2A1,1,0,0,1,632.55,269.87Z"/><path class="cls-5" d="M652.59,272.27V260.32a1.11,1.11,0,0,1,1.1-1.13h0a1.12,1.12,0,0,1,1.15,1.11v4.87h5.24v-4.85a1.11,1.11,0,0,1,1.09-1.13h0a1.13,1.13,0,0,1,1.13,1.13v11.95a1.14,1.14,0,0,1-1.13,1.13,1.11,1.11,0,0,1-1.13-1.1v-4.89h-5.24v4.86a1.13,1.13,0,0,1-1.13,1.13h0a1.11,1.11,0,0,1-1.11-1.11Z"/><path class="cls-5" d="M677.55,261a7.49,7.49,0,0,1,2.06,5.13,7.38,7.38,0,0,1-2.06,5.13,6.61,6.61,0,0,1-4.83,2.19,6.84,6.84,0,0,1-5-2.19,7.28,7.28,0,0,1-2-5.13,7.45,7.45,0,0,1,2-5.13,6.83,6.83,0,0,1,5-2.16A6.59,6.59,0,0,1,677.55,261Zm-.27,5.13a5.26,5.26,0,0,0-1.36-3.54,4.39,4.39,0,0,0-6.2-.31l-.3.31a5.22,5.22,0,0,0,0,7.07,4.35,4.35,0,0,0,6.14.36,3.06,3.06,0,0,0,.36-.36,5.23,5.23,0,0,0,1.29-3.53Z"/><path class="cls-5" d="M688.56,273.4a5.87,5.87,0,0,1-5.86-5.86v-7.3a1.11,1.11,0,0,1,1.09-1.12h0a1.15,1.15,0,0,1,1.15,1.13v7.28a3.64,3.64,0,0,0,7.28,0v-7.28a1.11,1.11,0,0,1,1.09-1.13h0a1.09,1.09,0,0,1,1.11,1.08v7.33a5.86,5.86,0,0,1-5.84,5.88Z"/><path class="cls-5" d="M698.73,269.87a1.07,1.07,0,0,1,1.49-.15,6.75,6.75,0,0,0,3.88,1.57,4.24,4.24,0,0,0,2.53-.77,1.8,1.8,0,0,0,.87-1.45,1.26,1.26,0,0,0-.18-.66,2.14,2.14,0,0,0-.6-.6,8.39,8.39,0,0,0-2.79-.95h0a10.58,10.58,0,0,1-2.62-.8,4.35,4.35,0,0,1-1.82-1.58,3.11,3.11,0,0,1-.45-1.65,3.64,3.64,0,0,1,1.62-3,6,6,0,0,1,3.51-1.07,7.89,7.89,0,0,1,4.42,1.62,1,1,0,0,1,.27,1.43,1,1,0,0,1-1.4.34l0,0a5.91,5.91,0,0,0-3.26-1.29,3.76,3.76,0,0,0-2.27.69,1.62,1.62,0,0,0-.79,1.28,1.12,1.12,0,0,0,.15.56,2.09,2.09,0,0,0,.54.53,7.06,7.06,0,0,0,2.55.89h0a12.25,12.25,0,0,1,2.8.85,4.72,4.72,0,0,1,2,1.68,3.3,3.3,0,0,1,.49,1.73,3.9,3.9,0,0,1-1.82,3.14,6.31,6.31,0,0,1-3.74,1.15,8.81,8.81,0,0,1-5.21-2A1.09,1.09,0,0,1,698.73,269.87Z"/><path class="cls-5" d="M712.7,272.27V260.32a1.11,1.11,0,0,1,1.09-1.13h6.66a1.12,1.12,0,0,1,1.13,1.13,1.15,1.15,0,0,1-1.13,1.12H715v3.64h4.73a1.13,1.13,0,0,1,0,2.26H715V271h5.46a1.13,1.13,0,1,1,0,2.25h-6.57A1.12,1.12,0,0,1,712.7,272.27Z"/><path class="cls-5" d="M580.24,286.77h-2.18v7.37a.77.77,0,0,1-1.53,0v-7.37h-2.18a.76.76,0,0,1-.75-.75v0a.75.75,0,0,1,.73-.76h5.91a.77.77,0,0,1,.77.76h0A.77.77,0,0,1,580.24,286.77Z"/><path class="cls-5" d="M583.26,294.14V286a.76.76,0,0,1,.77-.76h4.51a.74.74,0,0,1,.74.75h0a.76.76,0,0,1-.74.77h-3.75v2.53h3.28a.78.78,0,0,1,.76.76.76.76,0,0,1-.76.76h-3.28v2.55h3.75a.77.77,0,0,1,.76.77.76.76,0,0,1-.76.76H584A.76.76,0,0,1,583.26,294.14Z"/><path class="cls-5" d="M599.74,286v8.14a.77.77,0,0,1-.78.76.76.76,0,0,1-.76-.76h0v-5.81l-2,2.77a.77.77,0,0,1-.62.31h0a.8.8,0,0,1-.64-.31l-2-2.77v5.81a.77.77,0,0,1-.77.76.76.76,0,0,1-.76-.76V286a.76.76,0,0,1,.76-.76h0a.74.74,0,0,1,.62.33l2.73,3.8,2.75-3.8a.74.74,0,0,1,.62-.33h0A.79.79,0,0,1,599.74,286Z"/><path class="cls-5" d="M605.6,291.15h-1.69v3a.76.76,0,0,1-.76.76h0a.79.79,0,0,1-.77-.76V286a.77.77,0,0,1,.77-.76h2.47a3,3,0,0,1,.47,5.91A3.69,3.69,0,0,1,605.6,291.15Zm-1.69-1.53h1.69a1.43,1.43,0,0,0,.33-2.85h-2Z"/><path class="cls-5" d="M610.41,294.14V286a.74.74,0,0,1,.72-.76h4.53a.76.76,0,0,1,.77.76h0a.79.79,0,0,1-.77.77h-3.73v2.53h3.22a.79.79,0,0,1,.75.76.76.76,0,0,1-.75.76h-3.22v2.55h3.73a.77.77,0,1,1,0,1.53h-4.49A.76.76,0,0,1,610.41,294.14Z"/><path class="cls-5" d="M625.23,293.7a.74.74,0,0,1-.44.95h-.34a.9.9,0,0,1-.53-.14,1.25,1.25,0,0,1-.45-.49,3.79,3.79,0,0,1-.29-1.66.92.92,0,0,0-.17-.58,1,1,0,0,0-.4-.4,2.16,2.16,0,0,0-.78-.33h-1.62v3a.76.76,0,0,1-.76.77h0a.76.76,0,0,1-.75-.75v-8.15a.75.75,0,0,1,.73-.76h2.49a2.94,2.94,0,0,1,1.82,5.22,1.94,1.94,0,0,1,.48.51,2.56,2.56,0,0,1,.47,1.49,2.82,2.82,0,0,0,0,.82A.71.71,0,0,1,625.23,293.7Zm-1.93-5.46a1.42,1.42,0,0,0-1.4-1.44h-1.71v2.86h1.7a1.42,1.42,0,0,0,1.41-1.42Z"/><path class="cls-5" d="M632.38,292.63H629l-.67,1.81a.79.79,0,0,1-.73.5h-.25a.77.77,0,0,1-.46-1h0l3-8.11a.78.78,0,0,1,.75-.49.77.77,0,0,1,.73.49l3,8.11a.77.77,0,0,1-.45,1h-.26a.74.74,0,0,1-.7-.5Zm-.56-1.53-1.11-3-1.13,3Z"/><path class="cls-5" d="M640.82,286.77h-2.18v7.37a.74.74,0,0,1-.73.76h0a.76.76,0,0,1-.77-.76h0v-7.37H635a.76.76,0,0,1-.76-.77h0a.74.74,0,0,1,.73-.76h5.85a.76.76,0,0,1,.77.76h0a.76.76,0,0,1-.77.77Z"/><path class="cls-5" d="M647.9,294.9a4,4,0,0,1-4-4h0V286a.74.74,0,0,1,.72-.76h0a.76.76,0,0,1,.76.76h0v4.92a2.46,2.46,0,0,0,4.92,0V286a.76.76,0,0,1,.76-.76h0a.76.76,0,0,1,.75.75h0v4.92A4,4,0,0,1,647.9,294.9Z"/><path class="cls-5" d="M661.16,293.7a.76.76,0,0,1-.49,1h-.29a1,1,0,0,1-.55-.14,1.44,1.44,0,0,1-.43-.49,3.52,3.52,0,0,1-.29-1.66,1.37,1.37,0,0,0-.09-.49,1.08,1.08,0,0,0-.42-.4,2.12,2.12,0,0,0-.77-.33h-1.62v3a.78.78,0,0,1-1.54,0V286a.76.76,0,0,1,.76-.76h2.48a3,3,0,0,1,2.89,3,3,3,0,0,1-1.07,2.22,2.28,2.28,0,0,1,.47.51,2.56,2.56,0,0,1,.45,1.49,5.61,5.61,0,0,0,0,.82A.72.72,0,0,1,661.16,293.7Zm-1.93-5.46a1.42,1.42,0,0,0-1.4-1.44h-1.71v2.86h1.7a1.42,1.42,0,0,0,1.41-1.42Z"/><path class="cls-5" d="M663.38,294.14V286a.75.75,0,0,1,.73-.76h4.55a.74.74,0,0,1,.74.75h0a.76.76,0,0,1-.74.77h-3.75v2.53h3.2a.78.78,0,0,1,.77.76.77.77,0,0,1-.77.76h-3.22v2.55h3.75a.77.77,0,0,1,.76.77.76.76,0,0,1-.76.76h-4.51A.76.76,0,0,1,663.38,294.14Z"/><path class="cls-5" d="M628.22,331.67v8.57a.8.8,0,0,1-1.6,0v-6.12l-2.17,2.9a.8.8,0,0,1-.65.34h0a.86.86,0,0,1-.68-.34l-2.07-2.9v6.12a.82.82,0,0,1-.93.68.81.81,0,0,1-.69-.68v-8.57a.8.8,0,0,1,.8-.8h0a.81.81,0,0,1,.65.32l2.88,4,2.89-4a.8.8,0,0,1,.66-.32h0a.81.81,0,0,1,.9.72S628.22,331.64,628.22,331.67Z"/><path class="cls-5" d="M636,338.63h-3.53l-.71,1.82a.8.8,0,0,1-.75.51.62.62,0,0,1-.27,0,.81.81,0,0,1-.49-1l3.2-8.55a.81.81,0,0,1,.78-.51.78.78,0,0,1,.77.51l3.2,8.55a.81.81,0,0,1-.48,1,.61.61,0,0,1-.27,0,.75.75,0,0,1-.74-.51Zm-.6-1.6-1.17-3.11L633,337Z"/><path class="cls-5" d="M640.26,331.67a.78.78,0,0,1,.76-.8h0a.8.8,0,0,1,.8.8h0v8.57a.8.8,0,0,1-.8.78.78.78,0,0,1-.8-.77h0Z"/><path class="cls-5" d="M646.17,340.24a.79.79,0,0,1-1.58,0v-8.45h0a.74.74,0,0,1,.33-.65.78.78,0,0,1,1.09.16l4.69,6.5v-6a.78.78,0,0,1,.78-.78.79.79,0,0,1,.8.78v8.44a.79.79,0,0,1-.8.79.77.77,0,0,1-.6-.3h0l-4.63-6.45Z"/><path class="cls-5" d="M666.84,339.82a.82.82,0,0,1-.51,1H666a1.09,1.09,0,0,1-.56-.15,1.5,1.5,0,0,1-.46-.51,3.79,3.79,0,0,1-.31-1.82,1.15,1.15,0,0,0-.18-.62,1.09,1.09,0,0,0-.43-.42,3,3,0,0,0-.8-.36h-1.72v3.17a.79.79,0,0,1-.81.78h0a.8.8,0,0,1-.8-.78v-8.57a.78.78,0,0,1,.76-.8h2.64a3.09,3.09,0,0,1,2,5.45,2.42,2.42,0,0,1,.51.55,2.66,2.66,0,0,1,.47,1.57,4,4,0,0,0,0,.85A.86.86,0,0,1,666.84,339.82Zm-2-5.84a1.49,1.49,0,0,0-1.49-1.49h-1.82v3.05h1.82a1.49,1.49,0,0,0,1.49-1.49Z"/><path class="cls-5" d="M676.94,332.12a5.32,5.32,0,0,1,0,7.28,4.74,4.74,0,0,1-3.46,1.54,4.9,4.9,0,0,1-3.64-1.54,5.47,5.47,0,0,1,0-7.28,4.9,4.9,0,0,1,3.64-1.54A4.74,4.74,0,0,1,676.94,332.12Zm-.19,3.64a3.75,3.75,0,0,0-1-2.53,3.14,3.14,0,0,0-4.42-.24l-.24.24a3.77,3.77,0,0,0,0,5.06,3.14,3.14,0,0,0,4.42.24,2.72,2.72,0,0,0,.24-.24,3.76,3.76,0,0,0,1-2.49Z"/><path class="cls-5" d="M689.12,332.12a5.45,5.45,0,0,1,0,7.28,4.69,4.69,0,0,1-3.47,1.54,4.86,4.86,0,0,1-3.55-1.54,5.47,5.47,0,0,1,0-7.28,4.86,4.86,0,0,1,3.55-1.54A4.69,4.69,0,0,1,689.12,332.12Zm-.18,3.64a3.61,3.61,0,0,0-1-2.53,3.11,3.11,0,0,0-4.39-.25l-.25.25a3.75,3.75,0,0,0,0,5.06,3.13,3.13,0,0,0,4.4.25l.24-.25a3.62,3.62,0,0,0,1-2.49Z"/><path class="cls-5" d="M701.59,331.67v8.57a.8.8,0,0,1-1.6,0v-6.12l-2.1,2.9a.8.8,0,0,1-.65.34h0a.82.82,0,0,1-.67-.34l-2.08-2.9v6.12a.82.82,0,0,1-1.62,0v-8.57a.8.8,0,0,1,.8-.8h0a.75.75,0,0,1,.62.32l2.89,4,2.9-4a.78.78,0,0,1,.65-.32h0a.82.82,0,0,1,.86.78Z"/><circle class="cls-1" cx="660.78" cy="560.62" r="12.84"/><polygon class="cls-3" points="668.71 559.31 662.09 559.31 662.09 552.69 659.47 552.69 659.47 559.31 652.85 559.31 652.85 561.93 659.47 561.93 659.47 568.55 662.09 568.55 662.09 561.93 668.71 561.93 668.71 559.31"/><path class="cls-5" d="M645.86,455.28a1.56,1.56,0,0,1-1.56,1.57H634.06a1.63,1.63,0,0,1-1.19-.51,1.55,1.55,0,0,1,.08-2.19h0l8.5-7.57a3.52,3.52,0,0,0,1.22-2.71,3.68,3.68,0,0,0-.95-2.46,3.64,3.64,0,0,0-2.76-1.18,3.86,3.86,0,0,0-2.51.93l-.89.78a1.58,1.58,0,0,1-2.22-.08l0,0a1.54,1.54,0,0,1,.11-2.18l0,0,.87-.78A6.82,6.82,0,0,1,639,437a7,7,0,0,1,5.11,2.24,6.59,6.59,0,0,1,1.82,4.55,6.79,6.79,0,0,1-2.27,5l-5.46,4.82h6.11a1.56,1.56,0,0,1,1.58,1.54Z"/><path class="cls-5" d="M655.81,438.64v16.64a1.6,1.6,0,0,1-1.61,1.57,1.55,1.55,0,0,1-1.57-1.53V441.4l-1.16.66a1.51,1.51,0,0,1-.8.22,1.57,1.57,0,0,1-1.35-.8,1.49,1.49,0,0,1,.4-2.05l.11-.06,3.55-2.06h.54a.34.34,0,0,1,.2,0h.42a.28.28,0,0,1,.18,0H655c.08,0,0,0,.11.09s.09,0,.11.09.09,0,.13.11a.21.21,0,0,1,0,.11l.13.11h0v.36a.38.38,0,0,0,0,.15v.2Z"/><path class="cls-5" d="M659.18,442h0a4.8,4.8,0,0,1,4.54-5.05H664a4.75,4.75,0,0,1,4.71,4.78v.22h0a4.75,4.75,0,1,1-9.48.59,5.8,5.8,0,0,1,0-.59Zm6.91,0h0c0-1.58-.91-2.89-2.2-2.89s-2.16,1.31-2.16,2.83h0c0,1.6.92,2.88,2.22,2.88s2.14-1.29,2.14-2.82Z"/><path class="cls-5" d="M672.57,446.68a10.48,10.48,0,0,1,10.55-10.17,10.94,10.94,0,0,1,6.64,2.2,1.68,1.68,0,0,1,.29,2.28,1.82,1.82,0,0,1-2.31.3,7.27,7.27,0,0,0-4.62-1.56,7.76,7.76,0,0,0-5.18,2,6.9,6.9,0,0,0-2.1,4.91,6.8,6.8,0,0,0,2.1,4.91,7.76,7.76,0,0,0,5.18,2,7.22,7.22,0,0,0,4.62-1.57,1.84,1.84,0,0,1,2.31.31,1.68,1.68,0,0,1-.29,2.28,10.94,10.94,0,0,1-6.64,2.2A10.45,10.45,0,0,1,672.57,446.68Z"/><polygon class="cls-1" points="640.77 423.98 682.05 423.98 661.4 402.84 640.77 423.98"/><path class="cls-4" d="M710.46,484.72l-.25.26a70.59,70.59,0,0,1-8,6.91l-6.08-8.35-6.89-9.48a48.52,48.52,0,0,0,5.46-4.68c.08-.08.17-.16.25-.25Z"/><path class="cls-4" d="M730.68,435.33h-22a47.49,47.49,0,0,0-.64-7.44l11.57-1.82,10.21-1.62A72,72,0,0,1,730.68,435.33Z"/><path class="cls-4" d="M729.79,424.43l-10.21,1.62L708,427.87a46.7,46.7,0,0,0-1.82-7.28L717.34,417l9.83-3.18A69.69,69.69,0,0,1,729.79,424.43Z"/><path class="cls-4" d="M727.22,413.77,717.4,417l-11.16,3.64a46.36,46.36,0,0,0-2.87-6.87l10.44-5.34,9.21-4.67A69.14,69.14,0,0,1,727.22,413.77Z"/><path class="cls-4" d="M730,446.23l-10.21-1.62-11.57-1.82a48.84,48.84,0,0,0,.55-7.44h22A72.14,72.14,0,0,1,730,446.23Z"/><path class="cls-4" d="M668.48,388.3a48.81,48.81,0,0,0-7.44-.62v-22a70,70,0,0,1,10.91.87l-1.62,10.22Z"/><path class="cls-4" d="M723,403.75l-9.21,4.67-10.44,5.35a45.37,45.37,0,0,0-3.89-6.35l9.47-6.89,8.36-6.06A69.38,69.38,0,0,1,723,403.75Z"/><path class="cls-4" d="M689,396.89a46.46,46.46,0,0,0-6.35-3.91l5.31-10.45,4.7-9.2a68.22,68.22,0,0,1,9.29,5.73l-6,8.35Z"/><path class="cls-4" d="M682.67,393a47.85,47.85,0,0,0-6.9-2.88L679.41,379l3.2-9.83a72.12,72.12,0,0,1,10.08,4.19l-4.69,9.2Z"/><path class="cls-4" d="M717.23,394.45l-8.35,6.06-9.48,6.89a45.85,45.85,0,0,0-4.85-5.66l15.59-15.59A69.2,69.2,0,0,1,717.23,394.45Z"/><path class="cls-4" d="M675.72,390.12a47,47,0,0,0-7.28-1.82l1.82-11.55,1.62-10.23a71.56,71.56,0,0,1,10.6,2.59l-3.2,9.82Z"/><path class="cls-4" d="M723.24,467,714,462.33,703.59,457a48.16,48.16,0,0,0,2.82-6.95l11.13,3.64,9.83,3.19A67.23,67.23,0,0,1,723.24,467Z"/><path class="cls-4" d="M710.21,386.15l-15.59,15.59a47.5,47.5,0,0,0-5.66-4.85l6.9-9.48,6-8.35A68.43,68.43,0,0,1,710.21,386.15Z"/><path class="cls-4" d="M727.37,456.87l-9.83-3.19-11.13-3.63a49.26,49.26,0,0,0,1.69-7.28l11.57,1.82,10.21,1.62A73.67,73.67,0,0,1,727.37,456.87Z"/><path class="cls-4" d="M710.46,484.72l-15.59-15.59a47.37,47.37,0,0,0,4.84-5.75l9.48,6.9,8.35,6.05A70,70,0,0,1,710.46,484.72Z"/><path class="cls-4" d="M717.54,476.37l-8.35-6.06-9.48-6.89a48.57,48.57,0,0,0,3.88-6.41L714,462.33l9.21,4.67A69.89,69.89,0,0,1,717.54,476.37Z"/><path class="cls-4" d="M692.84,497.71A69,69,0,0,1,682.68,502l-3.18-9.83L675.86,481a46.79,46.79,0,0,0,6.93-2.91l5.33,10.44Z"/><path class="cls-4" d="M629.14,497.93a68.06,68.06,0,0,1-9.4-5.77l6.07-8.35,6.88-9.46a48.4,48.4,0,0,0,6.46,3.93l-5.33,10.44Z"/><path class="cls-4" d="M619.74,492.16a68,68,0,0,1-8.39-7.15l15.59-15.59a49,49,0,0,0,5.75,4.93l-6.88,9.46Z"/><path class="cls-4" d="M639.33,502.13a72.31,72.31,0,0,1-10.19-4.2l4.68-9.21,5.33-10.44a47.3,47.3,0,0,0,7,2.87l-3.64,11.16Z"/><path class="cls-6" d="M626.94,469.42,611.35,485a70.87,70.87,0,0,1-7.17-8.39l8.35-6.07,9.5-6.9A47.37,47.37,0,0,0,626.94,469.42Z"/><path class="cls-4" d="M661,387.72a46.44,46.44,0,0,0-7.45.54l-1.81-11.57-1.62-10.2a69.92,69.92,0,0,1,10.91-.8Z"/><path class="cls-4" d="M650.07,504.73a69.53,69.53,0,0,1-10.74-2.53l3.19-9.82,3.63-11.15a48.08,48.08,0,0,0,7.37,1.82l-1.82,11.57Z"/><path class="cls-4" d="M682.67,502A72.68,72.68,0,0,1,672,504.59l-1.62-10.21-1.82-11.57a49.37,49.37,0,0,0,7.28-1.82l3.63,11.15Z"/><path class="cls-4" d="M661,505.48a70,70,0,0,1-10.92-.82l1.6-10.21,1.82-11.57a49.94,49.94,0,0,0,7.53.57Z"/><path class="cls-4" d="M702.17,492a68.36,68.36,0,0,1-9.33,5.78l-4.7-9.09-5.33-10.45a46.37,46.37,0,0,0,6.39-4l6.89,9.48Z"/><path class="cls-4" d="M672,504.59a72.56,72.56,0,0,1-10.92.89v-22a49.64,49.64,0,0,0,7.51-.64l1.82,11.57Z"/><path class="cls-6" d="M618.08,457.21l-10.44,5.33-9.2,4.68A70.72,70.72,0,0,1,594.23,457l9.83-3.2,11.15-3.64A48.1,48.1,0,0,0,618.08,457.21Z"/><path class="cls-6" d="M622,463.65l-9.5,6.9-8.35,6.07a68.84,68.84,0,0,1-5.74-9.4l9.2-4.68,10.44-5.33A46.1,46.1,0,0,0,622,463.65Z"/><path class="cls-4" d="M633,396.65a45.89,45.89,0,0,0-5.75,4.84L611.61,385.9a70.9,70.9,0,0,1,8.37-7.1l6.07,8.37Z"/><path class="cls-4" d="M639.35,392.78a45.19,45.19,0,0,0-6.4,3.87l-6.9-9.48L620,378.8a71.29,71.29,0,0,1,9.36-5.67l4.7,9.2Z"/><path class="cls-4" d="M646.28,390a46,46,0,0,0-6.95,2.82L634,382.33l-4.69-9.2A69.72,69.72,0,0,1,639.46,369l3.2,9.84Z"/><path class="cls-4" d="M622.27,407.17l-9.48-6.9-8.35-6.08a70.59,70.59,0,0,1,6.91-8l.26-.25,15.59,15.59-.26.24A46.53,46.53,0,0,0,622.27,407.17Z"/><path class="cls-6" d="M615.21,450.15l-11.15,3.64L594.23,457a71.91,71.91,0,0,1-2.53-10.74l10.21-1.62,11.57-1.82A47,47,0,0,0,615.21,450.15Z"/><path class="cls-4" d="M653.56,388.3a45.49,45.49,0,0,0-7.28,1.69l-3.64-11.13-3.2-9.84a72.35,72.35,0,0,1,10.66-2.5l1.62,10.21Z"/><path class="cls-6" d="M613.53,442.88,602,444.7l-10.2,1.62a69,69,0,0,1-.82-10.92h22A50.69,50.69,0,0,0,613.53,442.88Z"/><path class="cls-6" d="M612.92,435.33h-22a67.69,67.69,0,0,1,.89-10.92L602,426l11.57,1.82A49.24,49.24,0,0,0,612.92,435.33Z"/><path class="cls-4" d="M618.28,413.53l-10.42-5.22-9.21-4.69a68.43,68.43,0,0,1,5.79-9.33l8.35,6.07,9.48,6.9A48.18,48.18,0,0,0,618.28,413.53Z"/><path class="cls-6" d="M613.53,427.8,602,426l-10.2-1.62a70.19,70.19,0,0,1,2.62-10.7l9.82,3.2,11.14,3.64A48.06,48.06,0,0,0,613.53,427.8Z"/><path class="cls-4" d="M615.35,420.48l-11.13-3.64-9.82-3.2a67.15,67.15,0,0,1,4.25-10.13l9.21,4.69,10.42,5.31A48.27,48.27,0,0,0,615.35,420.48Z"/><path class="cls-7" d="M719.56,425.9a58.36,58.36,0,0,0-5.86-17.7,57.6,57.6,0,0,0-4.91-7.91,59.33,59.33,0,0,0-6.09-7.06,57.2,57.2,0,0,0-7.1-6,58.47,58.47,0,0,0-7.93-4.86,59.32,59.32,0,0,0-61.75,4.86,57.1,57.1,0,0,0-7.09,6,59.4,59.4,0,0,0-11,15,58.9,58.9,0,0,0-6.64,27v.37a58.38,58.38,0,0,0,.68,9,55.64,55.64,0,0,0,2.12,9.1,57.18,57.18,0,0,0,3.53,8.66,58,58,0,0,0,4.86,8,60.12,60.12,0,0,0,6.08,7.15,55.88,55.88,0,0,0,7.09,6.13,59.58,59.58,0,0,0,70.41,0,58.28,58.28,0,0,0,7.09-6.13,59.44,59.44,0,0,0,17.29-41.93v-.37A58.73,58.73,0,0,0,719.56,425.9Zm-13.15,24.15a46.19,46.19,0,0,1-2.84,7,49.19,49.19,0,0,1-3.89,6.46,48.2,48.2,0,0,1-10.59,10.7,46.68,46.68,0,0,1-6.42,4,50.87,50.87,0,0,1-7,2.93,46.7,46.7,0,0,1-7.28,1.82,47.8,47.8,0,0,1-15.1,0A47,47,0,0,1,639,478.21a47.73,47.73,0,0,1-6.42-4A46.91,46.91,0,0,1,622,463.53a48.19,48.19,0,0,1-3.9-6.46,48.44,48.44,0,0,1-4.54-14.25,48.57,48.57,0,0,1-.53-7.13,2.16,2.16,0,0,1,0-.36,43.58,43.58,0,0,1,.64-7.48,45.84,45.84,0,0,1,1.81-7.28,46.43,46.43,0,0,1,2.93-6.89,47.32,47.32,0,0,1,4-6.37,49.71,49.71,0,0,1,4.9-5.66,48.32,48.32,0,0,1,5.69-4.8,47.44,47.44,0,0,1,13.28-6.71,44.3,44.3,0,0,1,7.28-1.73,47.81,47.81,0,0,1,35.38,8.44,48.42,48.42,0,0,1,5.7,4.8,50.64,50.64,0,0,1,4.89,5.66,46.33,46.33,0,0,1,3.95,6.37,49.14,49.14,0,0,1,2.93,6.89,47,47,0,0,1,1.82,7.28,44.6,44.6,0,0,1,.63,7.48,2.16,2.16,0,0,1,0,.36,42.76,42.76,0,0,1-2.36,14.36Z"/></g><g id="freepik--Floor--inject-7"><polygon class="cls-8" points="15.36 861.91 111.24 861.45 207.11 861.31 398.86 861 590.61 861.31 686.49 861.45 782.38 861.91 686.49 862.34 590.61 862.51 398.86 862.82 207.11 862.51 111.24 862.34 15.36 861.91"/></g><g id="freepik--Heather--inject-7"><rect class="cls-9" x="512.84" y="793.52" width="201.08" height="20.79"/><rect class="cls-9" x="512.84" y="645.92" width="201.08" height="20.79"/><polygon class="cls-9" points="512.84 626.6 483.79 644.43 483.79 818.75 512.84 833.65 512.84 626.6"/><polygon class="cls-10" points="512.84 626.6 483.79 644.43 483.79 818.75 512.84 833.65 512.84 626.6"/><rect class="cls-9" x="494.39" y="823.34" width="7.86" height="25.71"/><polygon class="cls-9" points="513.6 861.52 505.96 849.06 489.43 849.06 483.04 861.52 513.6 861.52"/><polygon class="cls-10" points="513.6 861.52 505.96 849.06 489.43 849.06 483.04 861.52 513.6 861.52"/><rect class="cls-9" x="724.53" y="823.34" width="7.86" height="25.71"/><polygon class="cls-9" points="743.74 861.52 736.1 849.06 719.56 849.06 713.17 861.52 743.74 861.52"/><polygon class="cls-10" points="743.74 861.52 736.1 849.06 719.56 849.06 713.17 861.52 743.74 861.52"/><polygon class="cls-9" points="713.92 626.6 742.98 644.43 742.98 818.75 713.92 833.65 713.92 626.6"/><polygon class="cls-10" points="713.92 626.6 742.98 644.43 742.98 818.75 713.92 833.65 713.92 626.6"/><polygon class="cls-9" points="749.34 760.23 756.93 764.88 756.93 810.42 749.34 814.32 749.34 760.23"/><polygon class="cls-10" points="749.34 760.23 756.93 764.88 756.93 810.42 749.34 814.32 749.34 760.23"/><rect class="cls-9" x="517.22" y="626.6" width="5.95" height="207.05"/><rect class="cls-10" x="517.22" y="626.6" width="5.95" height="207.05"/><rect class="cls-9" x="528.12" y="626.6" width="5.95" height="207.05"/><rect class="cls-10" x="528.12" y="626.6" width="5.95" height="207.05"/><rect class="cls-9" x="539.02" y="626.6" width="5.95" height="207.05"/><rect class="cls-10" x="539.02" y="626.6" width="5.95" height="207.05"/><rect class="cls-9" x="549.92" y="626.6" width="5.95" height="207.05"/><rect class="cls-10" x="549.92" y="626.6" width="5.95" height="207.05"/><rect class="cls-9" x="560.81" y="626.6" width="5.95" height="207.05"/><rect class="cls-10" x="560.81" y="626.6" width="5.95" height="207.05"/><rect class="cls-9" x="571.69" y="626.6" width="5.95" height="207.05"/><rect class="cls-10" x="571.69" y="626.6" width="5.95" height="207.05"/><rect class="cls-9" x="582.59" y="626.6" width="5.95" height="207.05"/><rect class="cls-10" x="582.59" y="626.6" width="5.95" height="207.05"/><rect class="cls-9" x="593.49" y="626.6" width="5.95" height="207.05"/><rect class="cls-10" x="593.49" y="626.6" width="5.95" height="207.05"/><rect class="cls-9" x="604.38" y="626.6" width="5.95" height="207.05"/><rect class="cls-10" x="604.38" y="626.6" width="5.95" height="207.05"/><rect class="cls-9" x="615.28" y="626.6" width="5.95" height="207.05"/><rect class="cls-10" x="615.28" y="626.6" width="5.95" height="207.05"/><rect class="cls-9" x="626.18" y="626.6" width="5.95" height="207.05"/><rect class="cls-10" x="626.18" y="626.6" width="5.95" height="207.05"/><rect class="cls-9" x="637.08" y="626.6" width="5.95" height="207.05"/><rect class="cls-10" x="637.08" y="626.6" width="5.95" height="207.05"/><rect class="cls-9" x="647.97" y="626.6" width="5.95" height="207.05"/><rect class="cls-10" x="647.97" y="626.6" width="5.95" height="207.05"/><rect class="cls-9" x="658.87" y="626.6" width="5.95" height="207.05"/><rect class="cls-10" x="658.87" y="626.6" width="5.95" height="207.05"/><rect class="cls-9" x="669.77" y="626.6" width="5.95" height="207.05"/><rect class="cls-10" x="669.77" y="626.6" width="5.95" height="207.05"/><rect class="cls-9" x="680.67" y="626.6" width="5.95" height="207.05"/><rect class="cls-10" x="680.67" y="626.6" width="5.95" height="207.05"/><rect class="cls-9" x="691.56" y="626.6" width="5.95" height="207.05"/><rect class="cls-10" x="691.56" y="626.6" width="5.95" height="207.05"/><rect class="cls-9" x="702.44" y="626.6" width="5.95" height="207.05"/><rect class="cls-10" x="702.44" y="626.6" width="5.95" height="207.05"/><path class="cls-9" d="M735.77,803.93a7.28,7.28,0,1,1-7.28-7.28A7.27,7.27,0,0,1,735.77,803.93Z"/><path class="cls-9" d="M732,778.8a3.53,3.53,0,1,1-3.55-3.51h0A3.51,3.51,0,0,1,732,778.8Z"/><rect class="cls-9" x="742.97" y="768.23" width="6.37" height="38.22"/></g><g id="freepik--Lamps--inject-7"><polygon class="cls-11" points="228.82 408.82 23.53 408.82 78.11 286.17 174.24 286.17 228.82 408.82"/><path class="cls-9" d="M145.39,286.17A19.22,19.22,0,1,1,126.18,267h0A19.21,19.21,0,0,1,145.39,286.17Z"/><rect class="cls-12" x="125.27" y="37.18" width="1.82" height="155.69"/><rect class="cls-8" x="114.42" y="179.6" width="23.49" height="25.43"/><path class="cls-13" d="M174.24,286.17H78.11c2-36.57,19.38-95.19,48.07-95.19S172.33,249.6,174.24,286.17Z"/><circle class="cls-9" cx="313.07" cy="223.39" r="19.21"/><rect class="cls-12" x="312.16" y="37.18" width="1.82" height="92.91"/><rect class="cls-8" x="301.33" y="116.81" width="23.49" height="25.43"/><path class="cls-13" d="M361.15,223.38H265c1.95-36.56,19.38-95.23,48.07-95.23S359.22,186.82,361.15,223.38Z"/><polygon class="cls-11" points="415.73 346.04 210.43 346.04 265 223.38 361.15 223.38 415.73 346.04"/></g><g id="freepik--wifi-icons--inject-7"><g id="freepik--u5zjqx--inject-7-2" data-name="freepik--u5zjqx--inject-7"><path class="cls-8" d="M307.65,322.1l-3,2.93L303,326.72a40.28,40.28,0,0,0-57-.13l-.13.13c-.53-.57-1.05-1.13-1.6-1.68l-2.93-2.94h-.09l.22-.18c1.25-1.11,2.45-2.26,3.75-3.32a45.83,45.83,0,0,1,20.13-9.38c1.82-.35,3.82-.53,5.73-.77h5c1.31.09,2.62.15,3.91.29a43.81,43.81,0,0,1,10.53,2.51,47.67,47.67,0,0,1,7.13,3.33,46.74,46.74,0,0,1,6.81,4.77c1.05.91,2.07,1.82,3.13,2.82Z"/><path class="cls-8" d="M255.29,336l-4.68-4.65a33.77,33.77,0,0,1,47.72-.06L293.64,336a27.1,27.1,0,0,0-38.32,0Z"/><path class="cls-8" d="M288.93,340.69l-4.68,4.66a13.88,13.88,0,0,0-19.63,0L260,340.71a20.35,20.35,0,0,1,28.77-.22Z"/></g><g id="freepik--u5zjqx--inject-7-3" data-name="freepik--u5zjqx--inject-7"><path class="cls-8" d="M197.71,271.76l-3-3-1.69-1.67a40.31,40.31,0,0,0,.09-57l-.09-.1,1.65-1.6c1-1,2-1.94,2.95-2.91h0l.18.22c1.1,1.24,2.24,2.46,3.31,3.64a44.33,44.33,0,0,1,5.46,8.66,43.18,43.18,0,0,1,3.86,11.5c.35,1.81.53,3.82.76,5.73v5c-.11,1.29-.16,2.6-.29,3.91a46.58,46.58,0,0,1-10.62,24.45c-.91,1.07-1.82,2.09-2.8,3.13Z"/><path class="cls-8" d="M183.77,219.42c1.55-1.58,3.08-3.11,4.64-4.69a32.85,32.85,0,0,1,9.55,19,33.32,33.32,0,0,1-9.48,28.64l-4.69-4.7a27,27,0,0,0,0-38.2Z"/><path class="cls-8" d="M179.1,253l-4.66-4.66a13.83,13.83,0,0,0,.08-19.55l-.08-.08c1.56-1.54,3.09-3.09,4.64-4.64a20.33,20.33,0,0,1,.21,28.74Z"/></g><g id="freepik--u5zjqx--inject-7-4" data-name="freepik--u5zjqx--inject-7"><path class="cls-8" d="M768.57,730.5l-2.93-3-1.69-1.7a40.28,40.28,0,0,0,.13-57l-.13-.12c.55-.53,1.13-1.06,1.67-1.6l3-2.93v-.09h0l.18.21c1.11,1.26,2.26,2.46,3.31,3.75a43.86,43.86,0,0,1,5.46,8.66,44.9,44.9,0,0,1,3.86,11.48c.34,1.82.53,3.82.76,5.73,0,.66.09,4.89,0,5-.09,1.31-.14,2.62-.29,3.91a44.48,44.48,0,0,1-2.51,10.54,47.15,47.15,0,0,1-3.33,7.13,45.83,45.83,0,0,1-4.76,6.8c-.91,1.06-1.82,2.08-2.82,3.13Z"/><path class="cls-8" d="M754.64,678.14l4.65-4.67a33,33,0,0,1,9.55,19,33.38,33.38,0,0,1-9.49,28.7l-4.68-4.69a27.11,27.11,0,0,0,0-38.31Z"/><path class="cls-8" d="M750,711.78l-4.66-4.66a13.86,13.86,0,0,0,0-19.6l0,0,4.66-4.65a20.36,20.36,0,0,1,.15,28.79Z"/></g></g><g id="freepik--Device--inject-7"><path class="cls-8" d="M637.48,114.54H435.34a20.65,20.65,0,0,0-20.45,20.85V551.47a20.65,20.65,0,0,0,20.45,20.83H637.48a20.66,20.66,0,0,0,20.46-20.83V135.42a20.64,20.64,0,0,0-20.41-20.88Zm7.67,424.07c0,10.91-8.2,19.81-18.32,19.81H446c-10.15,0-18.36-8.86-18.36-19.81V151.11c0-22.31,8.21-23.4,18.36-23.4h36.2c2.11,0,3.84,2.38,3.84,5.35v1.27c0,6.95,3.8,7,8.48,7h83.68c4.72,0,8.48,0,8.48-7v-1.27c0-3,1.69-5.35,3.84-5.35h36.22c10.12,0,18.32,3,18.32,23.4Z"/><path class="cls-3" d="M547.84,132.68H525a1.43,1.43,0,0,1-1.42-1.42h0a1.4,1.4,0,0,1,1.4-1.4h22.87a1.38,1.38,0,0,1,1.4,1.36v0h0a1.4,1.4,0,0,1-1.38,1.42Z"/><path class="cls-3" d="M645.15,151.14v387.5c0,10.92-8.18,19.81-18.3,19.81H446c-10.15,0-18.34-8.85-18.34-19.81V151.14c0-22.3,8.19-23.39,18.34-23.39h36.2c2.11,0,3.84,2.38,3.84,5.35v1.27c0,6.95,3.8,7,8.48,7h83.68c4.72,0,8.48,0,8.48-7V133.1c0-3,1.71-5.35,3.84-5.35h36.24C637,127.75,645.15,130.71,645.15,151.14Z"/><g id="freepik--u5zjqx--inject-7-5" data-name="freepik--u5zjqx--inject-7"><path class="cls-4" d="M476,136.44l-.34.35-.2.2a4.77,4.77,0,0,0-6.75,0h0a1.19,1.19,0,0,1-.19-.2l-.34-.35h0l.45-.38a6.07,6.07,0,0,1,1-.65A5,5,0,0,1,471,135h1.72a6.08,6.08,0,0,1,2.08.69,6.66,6.66,0,0,1,.82.57l.36.34Z"/><path class="cls-4" d="M469.81,138.1l-.54-.57a4,4,0,0,1,5.62,0l-.55.55a3.21,3.21,0,0,0-2.27-.93A3.16,3.16,0,0,0,469.81,138.1Z"/><path class="cls-4" d="M473.76,138.64l-.54.55a1.65,1.65,0,0,0-2.31,0l-.57-.55A2.43,2.43,0,0,1,473.76,138.64Z"/><path class="cls-4" d="M472.56,139.7a.51.51,0,0,1-.51.49.49.49,0,0,1-.49-.49.51.51,0,0,1,.49-.51A.53.53,0,0,1,472.56,139.7Z"/></g><circle class="cls-4" cx="443.29" cy="137.5" r="1.44"/><path class="cls-4" d="M446.4,137.5a1.44,1.44,0,1,1,1.44,1.44,1.43,1.43,0,0,1-1.44-1.44Z"/><circle class="cls-4" cx="452.37" cy="137.5" r="1.44"/><path class="cls-4" d="M455.48,137.5a1.44,1.44,0,1,1,1.44,1.44,1.43,1.43,0,0,1-1.44-1.44Z"/><circle class="cls-4" cx="461.45" cy="137.5" r="1.44"/><path class="cls-4" d="M628.85,140.66H617.17v-5.45h11.76ZM617.72,140h10.51v-4.22H617.72Z"/><rect class="cls-4" x="618.08" y="136.13" width="7.57" height="3.58"/><rect class="cls-4" x="628.85" y="136.48" width="1.04" height="2.91"/><path d="M462.88,179.87v11.95a1.12,1.12,0,0,1-1.13,1.11,1.09,1.09,0,0,1-1-1.11v-8.51l-2.93,4a1.13,1.13,0,0,1-.91.47h0a1.16,1.16,0,0,1-.93-.47l-2.89-4v8.51a1.12,1.12,0,0,1-1.13,1.12,1.13,1.13,0,0,1-1.13-1.12V179.87a1.13,1.13,0,0,1,1.11-1.11h0a1.08,1.08,0,0,1,.89.47l4,5.59,4-5.59a1.11,1.11,0,0,1,.91-.47h0A1.14,1.14,0,0,1,462.88,179.87Z"/><path d="M473.71,189.6H468.8l-1,2.62a1.08,1.08,0,0,1-1.05.71,1.21,1.21,0,0,1-.38,0,1.12,1.12,0,0,1-.66-1.45h0l4.48-11.94a1.16,1.16,0,0,1,1.52-.62,1.14,1.14,0,0,1,.62.62l4.48,11.94a1.14,1.14,0,0,1-.67,1.45,1.28,1.28,0,0,1-.39,0,1.06,1.06,0,0,1-1-.71Zm-.82-2.24L471.25,183l-1.65,4.34Z"/><path d="M489,191.26a1.13,1.13,0,0,1-.71,1.42h-.43a1.57,1.57,0,0,1-.79-.22,2.11,2.11,0,0,1-.65-.71,5.58,5.58,0,0,1-.42-2.42,1.57,1.57,0,0,0-.24-.87,1.78,1.78,0,0,0-.61-.61,4.16,4.16,0,0,0-1.13-.47h-2.39v4.44a1.13,1.13,0,0,1-1.14,1.11h0a1.11,1.11,0,0,1-1.11-1.11V179.87a1.11,1.11,0,0,1,1.11-1.11h3.64a4.33,4.33,0,0,1,2.71,7.6,3.61,3.61,0,0,1,.71.75,3.93,3.93,0,0,1,.67,2.2,5.82,5.82,0,0,0,0,1.18A1.1,1.1,0,0,1,489,191.26Zm-2.76-8.14a2.08,2.08,0,0,0-2-2.11h-2.53v4.17h2.49A2.08,2.08,0,0,0,486.19,183.12Z"/><path d="M501.6,180.67l-4.15,5.69v5.46a1.09,1.09,0,0,1-1.07,1.11h0a1.12,1.12,0,0,1-1.06-1.11v-5.46l-4.11-5.69a1.12,1.12,0,0,1,.27-1.56,1.11,1.11,0,0,1,1.55.27l3.48,4.73,3.45-4.73a1.12,1.12,0,0,1,1.55-.27h0A1.15,1.15,0,0,1,501.6,180.67Z"/><path d="M503.52,183.36a1.82,1.82,0,0,0,1.39-1.82,1.45,1.45,0,0,1-1.17-1.36V180a1.31,1.31,0,0,1,1.27-1.34h.12c.89,0,1.45.69,1.45,1.82v.2a4,4,0,0,1-1,2.94,3,3,0,0,1-1.91.88.55.55,0,0,1-.62-.47v-.1A.57.57,0,0,1,503.52,183.36Z"/><path d="M508.18,189.42a1.06,1.06,0,0,1,1.49-.15h0a6.58,6.58,0,0,0,3.86,1.57,4.24,4.24,0,0,0,2.53-.77,1.8,1.8,0,0,0,.87-1.45,1,1,0,0,0-.18-.64,1.87,1.87,0,0,0-.6-.62,8.1,8.1,0,0,0-2.78-.94h0a11.14,11.14,0,0,1-2.6-.78,4.32,4.32,0,0,1-1.82-1.59,3,3,0,0,1-.48-1.65,3.77,3.77,0,0,1,1.62-3,6.05,6.05,0,0,1,3.39-1.07A7.91,7.91,0,0,1,517.9,180a1,1,0,0,1,.27,1.43,1,1,0,0,1-1.4.34l0,0a5.85,5.85,0,0,0-3.25-1.29,3.94,3.94,0,0,0-2.28.68,1.62,1.62,0,0,0-.76,1.29.92.92,0,0,0,.14.56,1.64,1.64,0,0,0,.55.53,6.89,6.89,0,0,0,2.53.89h0a12,12,0,0,1,2.8.84,4.75,4.75,0,0,1,2,1.69,3.21,3.21,0,0,1,.49,1.71,3.91,3.91,0,0,1-1.82,3.15,6.29,6.29,0,0,1-3.75,1.14,8.72,8.72,0,0,1-5.18-2A1.07,1.07,0,0,1,508.18,189.42Z"/><path d="M528.23,191.82V179.87a1.13,1.13,0,0,1,1.26-1,1.15,1.15,0,0,1,1,1v4.87h5.26v-4.87a1.12,1.12,0,0,1,2.23,0v11.95a1.12,1.12,0,0,1-2.23,0V187h-5.26v4.86a1.13,1.13,0,0,1-1.26,1A1.15,1.15,0,0,1,528.23,191.82Z"/><path d="M553.17,180.52a7.49,7.49,0,0,1,2,5.13,7.3,7.3,0,0,1-2,5.12,6.6,6.6,0,0,1-4.84,2.16,6.8,6.8,0,0,1-5-2.16,7.28,7.28,0,0,1-2-5.12,7.41,7.41,0,0,1,2-5.13,6.8,6.8,0,0,1,5-2.16A6.6,6.6,0,0,1,553.17,180.52Zm-.27,5.13a5.32,5.32,0,0,0-1.37-3.64,4.38,4.38,0,0,0-3.2-1.43A4.46,4.46,0,0,0,545,182a5.18,5.18,0,0,0-1.36,3.64,5,5,0,0,0,1.36,3.51,4.5,4.5,0,0,0,3.29,1.48,4.39,4.39,0,0,0,3.2-1.48A5.13,5.13,0,0,0,552.9,185.65Z"/><path d="M564.18,192.93a5.84,5.84,0,0,1-5.86-5.82v-7.3a1.11,1.11,0,0,1,1.11-1.11,1.14,1.14,0,0,1,1.15,1.11h0v7.28a3.64,3.64,0,1,0,7.27,0v-7.28A1.11,1.11,0,0,1,569,178.7h0a1.09,1.09,0,0,1,1.11,1.08v7.31a5.83,5.83,0,0,1-5.84,5.84Z"/><path d="M574.35,189.42a1,1,0,0,1,1.46-.16h0a6.61,6.61,0,0,0,3.88,1.57,4.27,4.27,0,0,0,2.53-.77,1.8,1.8,0,0,0,.87-1.45,1.11,1.11,0,0,0-.18-.64,2.36,2.36,0,0,0-.6-.62,8.15,8.15,0,0,0-2.79-.94h0a12,12,0,0,1-2.62-.78,4.44,4.44,0,0,1-1.82-1.59,3.1,3.1,0,0,1-.47-1.65,3.77,3.77,0,0,1,1.62-3,6,6,0,0,1,3.51-1.07,7.89,7.89,0,0,1,4.42,1.62,1.06,1.06,0,0,1,.28,1.43,1,1,0,0,1-1.41.34l0,0a5.91,5.91,0,0,0-3.26-1.29,3.91,3.91,0,0,0-2.27.68,1.63,1.63,0,0,0-.77,1.29.93.93,0,0,0,.15.56,1.61,1.61,0,0,0,.54.53,7,7,0,0,0,2.53.89h0a11.75,11.75,0,0,1,2.8.84,4.88,4.88,0,0,1,2,1.69,3.13,3.13,0,0,1,.5,1.71,3.91,3.91,0,0,1-1.82,3.15,6.43,6.43,0,0,1-3.75,1.14,8.78,8.78,0,0,1-5.19-2A1.07,1.07,0,0,1,574.35,189.42Z"/><path d="M588.32,191.82V179.87a1.09,1.09,0,0,1,1.07-1.11h6.66a1.13,1.13,0,0,1,1.11,1.11,1.14,1.14,0,0,1-1.11,1.14h-5.46v3.64h4.75a1.13,1.13,0,0,1,0,2.24h-4.73v3.64h5.46a1.14,1.14,0,0,1,1.1,1.19.34.34,0,0,1,0,.1,1.13,1.13,0,0,1-1.11,1.11h-6.57a1.09,1.09,0,0,1-1.16-1Z"/><path class="cls-14" d="M450,213.65v-8.09a.76.76,0,0,1,.76-.77h0a.76.76,0,0,1,.77.77h0v7.27h3.71a.77.77,0,0,1,.76.77.76.76,0,0,1-.76.76h-4.49A.76.76,0,0,1,450,213.65Z"/><path class="cls-14" d="M457.93,205.56a.77.77,0,1,1,1.53,0h0v8.09a.77.77,0,0,1-1.53,0h0Z"/><path class="cls-14" d="M461.61,209.49a5,5,0,0,1,5.07-5h0a5.11,5.11,0,0,1,3.13,1.07.78.78,0,0,1,.18,1.09v0a.82.82,0,0,1-1.13.13,3.61,3.61,0,0,0-2.17-.75,3.47,3.47,0,0,0-2.47,1,3.34,3.34,0,0,0-1,2.41,3.23,3.23,0,0,0,1,2.36,3.37,3.37,0,0,0,2.47,1,3.77,3.77,0,0,0,1.82-.53v-1.82h-2a.78.78,0,0,1-.78-.78.76.76,0,0,1,.76-.76h2.76a.78.78,0,0,1,.8.76h0v3a.45.45,0,0,1,0,.23h0a.56.56,0,0,1-.25.33,5.16,5.16,0,0,1-3.13,1.08,5,5,0,0,1-5.11-4.9Z"/><path class="cls-14" d="M472.63,213.65v-8.09a.75.75,0,0,1,.73-.77h0a.76.76,0,0,1,.76.77h0v3.29h3.64v-3.29a.75.75,0,0,1,.73-.77h0a.76.76,0,0,1,.77.77h0v8.09a.77.77,0,0,1-.77.77h0a.75.75,0,0,1-.76-.73v-3.31h-3.64v3.27a.77.77,0,0,1-.76.77h0a.76.76,0,0,1-.77-.73Z"/><path class="cls-14" d="M488.28,206.37h-2.09v7.28a.76.76,0,0,1-.73.77h0a.77.77,0,0,1-.76-.77h0v-7.28h-2.19a.76.76,0,0,1-.74-.76.74.74,0,0,1,.73-.76h5.89a.76.76,0,0,1,.76.76h0a.77.77,0,0,1-.79.77Z"/><path class="cls-14" d="M490.81,212a.72.72,0,0,1,1,0,4.5,4.5,0,0,0,2.64,1.06,3,3,0,0,0,1.71-.51,1.23,1.23,0,0,0,.6-1,.76.76,0,0,0-.13-.44,1.06,1.06,0,0,0-.42-.42,5.36,5.36,0,0,0-1.82-.65h0a9,9,0,0,1-1.82-.53,3.22,3.22,0,0,1-1.27-1.07,2.29,2.29,0,0,1-.31-1.13,2.54,2.54,0,0,1,1.09-2,4.06,4.06,0,0,1,2.38-.73,5.31,5.31,0,0,1,3,1.11.69.69,0,0,1,.2,1h0a.7.7,0,0,1-1,.22h0a4,4,0,0,0-2.22-.89,2.71,2.71,0,0,0-1.54.47,1.11,1.11,0,0,0-.51.88.65.65,0,0,0,.09.38,1.29,1.29,0,0,0,.36.34,4.67,4.67,0,0,0,1.73.62h0a6.92,6.92,0,0,1,1.82.59,3.23,3.23,0,0,1,1.38,1.12,2.27,2.27,0,0,1,.33,1.19,2.65,2.65,0,0,1-1.18,2.12,4.39,4.39,0,0,1-2.55.79,5.81,5.81,0,0,1-3.53-1.37.75.75,0,0,1-.11-1Z"/><path class="cls-14" d="M549.24,480a12.83,12.83,0,1,1-12.91-12.74h.09A12.83,12.83,0,0,1,549.24,480Z"/><polygon class="cls-3" points="544.35 478.7 537.73 478.7 537.73 472.1 535.11 472.1 535.11 478.7 528.49 478.7 528.49 481.34 535.11 481.34 535.11 487.94 537.73 487.94 537.73 481.34 544.35 481.34 544.35 478.7"/><rect class="cls-2" x="541.44" y="246.11" width="90.13" height="96.51" rx="11.59"/><path class="cls-14" d="M631.56,262.32V331A11.61,11.61,0,0,1,620,342.62H553A11.59,11.59,0,0,1,541.44,331V262.32Z"/><path class="cls-3" d="M560.52,268.23a2.76,2.76,0,0,1-.14-1.53h.11c.1,0,.23,0,.23.53A3.42,3.42,0,0,1,560.52,268.23Z"/><path class="cls-3" d="M563.12,267.21a3.86,3.86,0,0,1-.2,1.26,3.21,3.21,0,0,1-.2-1.06c0-.36.09-.75.28-.75S563.12,266.88,563.12,267.21Z"/><path class="cls-3" d="M564.23,269.48l-1.2,7.41h-2.25l-1.28-7.48a.77.77,0,0,0,.53.24,1.3,1.3,0,0,0,.46-.18c.4.71.87,1.09,1.38,1.09a1.58,1.58,0,0,0,1.25-1,1.23,1.23,0,0,0,.59.18h0A.77.77,0,0,0,564.23,269.48Z"/><path class="cls-3" d="M570,266.28c-.6,5.46-4.06,6.41-4.62,7.84a23.93,23.93,0,0,0-.71,2.77h-1.1l1.62-9.92a.34.34,0,0,0-.23-.36.29.29,0,0,0-.33.25h0l-.09.51c-.2.82-.64,1.82-.93,1.82a.58.58,0,0,1-.31-.11,5.36,5.36,0,0,0,.37-1.81c0-1.1-.55-1.19-.71-1.19-.51,0-.84.55-.84,1.4a3.07,3.07,0,0,0,.49,1.82c-.22.46-.51.77-.84.77s-.67-.33-1-.93h0a4,4,0,0,0,.48-1.82c0-.86-.42-1.16-.82-1.16a.62.62,0,0,0-.58.38,3.58,3.58,0,0,0,.25,2.49.19.19,0,0,1-.16.09c-.4,0-.77-1-.9-1.82v-.38a.31.31,0,0,0-.34-.26.32.32,0,0,0-.22.38h0l1.69,9.88h-1.09a24.05,24.05,0,0,0-.74-2.77c-.59-1.44-4-2.42-4.7-7.8a8.26,8.26,0,1,1,16.37-2.19,8,8,0,0,1,0,2.19Z"/><path class="cls-3" d="M564.42,277.69h-5a.86.86,0,0,0-.84.85.84.84,0,0,0,.84.84h5a.86.86,0,0,0,1-.72.86.86,0,0,0-.73-1Z"/><path class="cls-3" d="M564.42,279.89h-5a.85.85,0,0,0,0,1.69h5a.86.86,0,0,0,.72-1A.87.87,0,0,0,564.42,279.89Z"/><path class="cls-3" d="M563.38,282.11h-3a.49.49,0,0,0-.51.47v0a.51.51,0,0,0,.51.51h3a.49.49,0,0,0,.49-.49v0A.49.49,0,0,0,563.38,282.11Z"/><path class="cls-3" d="M561.67,256.13a.55.55,0,0,1-.55-.54v-2.24a.57.57,0,0,1,.46-.66.56.56,0,0,1,.65.46.67.67,0,0,1,0,.2v2.25a.55.55,0,0,1-.53.57h0Z"/><path class="cls-3" d="M556.56,257.59a.56.56,0,0,1-.48-.28l-1.16-1.82a.58.58,0,0,1,.18-.78.56.56,0,0,1,.76.2l1.19,1.91a.59.59,0,0,1-.2.78A.48.48,0,0,1,556.56,257.59Z"/><path class="cls-3" d="M552.86,261.41a.61.61,0,0,1-.27,0l-2-1.08a.56.56,0,0,1-.35-.72.57.57,0,0,1,.72-.34.53.53,0,0,1,.15.08l2,1.07a.58.58,0,0,1,.24.77h0A.61.61,0,0,1,552.86,261.41Z"/><path class="cls-3" d="M549.32,266.61a.55.55,0,0,1-.57-.53v0a.59.59,0,0,1,.55-.58h2.23a.53.53,0,0,1,.58.47.22.22,0,0,1,0,.08.55.55,0,0,1-.53.56h-2.26Z"/><path class="cls-3" d="M551.1,272.85a.6.6,0,0,1-.49-.27.54.54,0,0,1,.17-.75l0,0,1.91-1.18a.57.57,0,0,1,.76.2.55.55,0,0,1-.16.75h0l-1.91,1.17A.62.62,0,0,1,551.1,272.85Z"/><path class="cls-3" d="M572.77,272.49a.57.57,0,0,1-.26,0l-2-1.08a.56.56,0,0,1,.54-1l2,1.07a.56.56,0,0,1,.21.77.55.55,0,0,1-.48.29Z"/><path class="cls-3" d="M572.11,266.25a.55.55,0,0,1-.56-.53v0a.54.54,0,0,1,.52-.56h2.26a.59.59,0,0,1,.58.54.57.57,0,0,1-.54.58h-2.26Z"/><path class="cls-3" d="M570.66,261.13a.55.55,0,0,1-.3-1l1.91-1.17a.55.55,0,0,1,.76.17h0a.56.56,0,0,1-.18.78h0L571,261.06A.5.5,0,0,1,570.66,261.13Z"/><path class="cls-3" d="M566.83,257.44a.61.61,0,0,1-.27,0,.56.56,0,0,1-.22-.76l1.08-2a.53.53,0,0,1,.73-.23h0a.54.54,0,0,1,.22.74h0l-1.07,2A.6.6,0,0,1,566.83,257.44Z"/><path class="cls-3" d="M599.73,258v7.8a.75.75,0,0,1-.75.73.73.73,0,0,1-.73-.73v-5.57l-1.82,2.66a.7.7,0,0,1-.6.29h0a.72.72,0,0,1-.61-.29l-1.82-2.66v5.57a.73.73,0,0,1-.73.73h0a.75.75,0,0,1-.73-.73V258a.75.75,0,0,1,.73-.73h0a.71.71,0,0,1,.58.31l2.62,3.64,2.64-3.64a.75.75,0,0,1,.49-.28h0A.78.78,0,0,1,599.73,258Z"/><path class="cls-3" d="M606.79,264.35h-3.21l-.65,1.73a.74.74,0,0,1-.69.46.57.57,0,0,1-.26,0,.74.74,0,0,1-.42-.94h0l2.91-7.78a.77.77,0,0,1,.71-.48.75.75,0,0,1,.7.48l2.92,7.78a.74.74,0,0,1-.43,1,.57.57,0,0,1-.26,0,.72.72,0,0,1-.67-.46Zm-.53-1.45-1.08-2.84-1.07,2.84Z"/><path class="cls-3" d="M610.72,258a.69.69,0,0,1,.69-.73h0a.73.73,0,0,1,.73.73v7.8a.71.71,0,0,1-.69.73h0a.7.7,0,0,1-.72-.69s0,0,0,0Z"/><path class="cls-3" d="M616.1,265.81a.73.73,0,0,1-1.44.23.89.89,0,0,1,0-.23v-7.68h0a.72.72,0,0,1,.29-.6.72.72,0,0,1,1,.14h0l4.28,5.91v-5.46a.73.73,0,0,1,.73-.71.75.75,0,0,1,.73.71v7.68a.75.75,0,0,1-.73.73.69.69,0,0,1-.55-.26v-.09l-4.24-5.86Z"/><path class="cls-3" d="M590.7,277.16a.72.72,0,0,1-.45.92h0a.71.71,0,0,1-.29,0h0a1,1,0,0,1-.53-.15,1.47,1.47,0,0,1-.42-.47,3.71,3.71,0,0,1-.27-1.58,1.17,1.17,0,0,0-.16-.57,1.27,1.27,0,0,0-.4-.4,3,3,0,0,0-.75-.31h-1.55v2.88a.73.73,0,0,1-.72.73h0a.71.71,0,0,1-.73-.69v-7.85a.7.7,0,0,1,.69-.72h2.4a2.84,2.84,0,0,1,2.84,2.84,2.76,2.76,0,0,1-1,2.16,2.37,2.37,0,0,1,.46.49,2.55,2.55,0,0,1,.44,1.44,5.08,5.08,0,0,0,0,.78A.67.67,0,0,1,590.7,277.16Zm-1.82-5.31a1.34,1.34,0,0,0-1.32-1.36H585.9v2.71h1.62a1.35,1.35,0,0,0,1.33-1.33Z"/><path class="cls-3" d="M599.93,270.16a4.88,4.88,0,0,1,0,6.69,4.36,4.36,0,0,1-3.17,1.42,4.44,4.44,0,0,1-3.24-1.42,4.94,4.94,0,0,1,0-6.69,4.4,4.4,0,0,1,3.24-1.42A4.3,4.3,0,0,1,599.93,270.16Zm-.19,3.35a3.39,3.39,0,0,0-.89-2.32,2.86,2.86,0,0,0-4.24,0,3.47,3.47,0,0,0,0,4.63,2.84,2.84,0,0,0,4,.23l.23-.23a3.38,3.38,0,0,0,.89-2.31Z"/><path class="cls-3" d="M611,270.16a4.86,4.86,0,0,1,0,6.69,4.34,4.34,0,0,1-3.16,1.42,4.44,4.44,0,0,1-3.24-1.42,4.92,4.92,0,0,1,0-6.69,4.38,4.38,0,0,1,3.24-1.42A4.3,4.3,0,0,1,611,270.16Zm-.18,3.35a3.48,3.48,0,0,0-.89-2.32,2.84,2.84,0,0,0-4-.23c-.08.08-.16.15-.23.23a3.45,3.45,0,0,0,0,4.63,2.84,2.84,0,0,0,4,.23l.23-.23A3.48,3.48,0,0,0,610.86,273.51Z"/><path class="cls-3" d="M622.41,269.74v7.8a.74.74,0,0,1-.74.73.73.73,0,0,1-.73-.73V272l-1.82,2.63a.7.7,0,0,1-.6.31h0a.7.7,0,0,1-.6-.31L616.1,272v5.56a.74.74,0,0,1-1.47,0v-7.8a.73.73,0,0,1,.72-.73h0a.73.73,0,0,1,.59.31l2.63,3.64,2.64-3.64a.71.71,0,0,1,.58-.31h0A.76.76,0,0,1,622.41,269.74Z"/><path class="cls-3" d="M568.42,310.8a4.55,4.55,0,1,1,9.09-.47h0v1.05a10.69,10.69,0,0,1-.65,3.84,6.57,6.57,0,0,1-2.42,3.2,5.26,5.26,0,0,1-2.8.88,1,1,0,0,1-1.08-1,1.08,1.08,0,0,1,1-1.09,3.33,3.33,0,0,0,1.82-.53,3.93,3.93,0,0,0,1.19-1.31,2.75,2.75,0,0,0,.23-.49,4.38,4.38,0,0,1-1.82.39A4.53,4.53,0,0,1,568.42,310.8Zm2.07,0a2.47,2.47,0,1,0,4.93.42,2.94,2.94,0,0,0,0-.42,2.47,2.47,0,0,0-4.93,0Z"/><path class="cls-3" d="M587.21,311.44a4.47,4.47,0,0,1,1.36,3.29,4.65,4.65,0,0,1-4.63,4.64h0a4.63,4.63,0,0,1-3.26-1.37,1,1,0,0,1,0-1.46l0,0a1.08,1.08,0,0,1,1.51,0,2.39,2.39,0,0,0,1.82.75,2.5,2.5,0,0,0,1.82-.75,2.53,2.53,0,0,0,.74-1.82,2.45,2.45,0,0,0-.74-1.82,2.54,2.54,0,0,0-3.6,0l0,0a1.06,1.06,0,0,1-1.51,0l-.2-.23h0v-.13h0a.92.92,0,0,1,0-.33l.56-4.84a1.11,1.11,0,0,1,.46-.74h.09a1,1,0,0,1,.47-.11h5.46a1.06,1.06,0,0,1,.92,1.2,1.08,1.08,0,0,1-.92.93h-4.6l-.24,1.82a4.85,4.85,0,0,1,1.26-.17A4.59,4.59,0,0,1,587.21,311.44Z"/><path class="cls-3" d="M591.43,309.51h0a3.15,3.15,0,0,1,2.94-3.34h.17a3.11,3.11,0,0,1,3.08,3.14v.17h0a3.1,3.1,0,1,1-6.19,0h0Zm4.51,0h0c0-1-.6-1.82-1.43-1.82a1.65,1.65,0,0,0-1.41,1.82h0c0,1.07.61,1.91,1.44,1.91s1.4-.89,1.4-1.91Zm-2.34,8.73,8.56-11.72a.72.72,0,0,1,.64-.34.73.73,0,0,1,.75.71v0a.81.81,0,0,1-.17.49l-8.58,11.77a.78.78,0,0,1-.66.33.71.71,0,0,1-.73-.69v0a.89.89,0,0,1,.11-.53Zm5.74-2h0a3.15,3.15,0,0,1,2.95-3.34h.17a3.11,3.11,0,0,1,3.06,3.15.81.81,0,0,1,0,.16h0a3.09,3.09,0,1,1-6.17.47,3.68,3.68,0,0,1,0-.47Zm4.52,0h0c0-1-.6-1.82-1.44-1.82s-1.4.88-1.4,1.82h0c0,1.08.6,1.91,1.44,1.91s1.4-.89,1.4-1.91Z"/><rect class="cls-2" x="441.27" y="246.11" width="90.13" height="96.51" rx="11.59"/><path class="cls-3" d="M460.35,268.23a2.67,2.67,0,0,1-.12-1.53h0s.23,0,.23.53A2.83,2.83,0,0,1,460.35,268.23Z"/><path class="cls-3" d="M463,267.21a4.15,4.15,0,0,1-.2,1.26,3,3,0,0,1-.2-1.06c0-.36.09-.75.28-.75S463,266.88,463,267.21Z"/><path class="cls-3" d="M464.08,269.48l-1.22,7.41h-2.29l-1.27-7.48a.7.7,0,0,0,.53.24,1.16,1.16,0,0,0,.43-.18c.4.71.89,1.09,1.4,1.09a1.58,1.58,0,0,0,1.26-1,1.17,1.17,0,0,0,.58.18h0A.82.82,0,0,0,464.08,269.48Z"/><path class="cls-3" d="M469.81,266.28c-.6,5.46-4.05,6.41-4.64,7.84a23.89,23.89,0,0,0-.7,2.77h-1.1L465,267a.3.3,0,0,0-.23-.36.29.29,0,0,0-.33.25h0l-.09.51c-.2.82-.62,1.82-.91,1.82a.51.51,0,0,1-.31-.11,5.1,5.1,0,0,0,.34-1.81c0-1.1-.52-1.19-.69-1.19-.52,0-.85.55-.85,1.4a3.07,3.07,0,0,0,.49,1.82c-.22.46-.51.77-.82.77s-.69-.33-1-.93h0a4,4,0,0,0,.47-1.82c0-.86-.43-1.16-.82-1.16a.6.6,0,0,0-.58.38,3.42,3.42,0,0,0,.26,2.49.26.26,0,0,1-.17.09c-.42,0-.76-1-.89-1.82v-.38a.3.3,0,0,0-.32-.26h0a.34.34,0,0,0-.23.39l1.69,9.88H458.9a22.22,22.22,0,0,0-.75-2.77c-.58-1.44-4-2.42-4.71-7.8a8.26,8.26,0,1,1,16.37-2.19,8,8,0,0,1,0,2.19Z"/><path class="cls-3" d="M464.23,277.69h-5a.85.85,0,1,0-.24,1.69h5.23a.85.85,0,0,0,0-1.69Z"/><path class="cls-3" d="M464.23,279.89h-5a.85.85,0,0,0-.85.84.87.87,0,0,0,.85.85h5a.84.84,0,0,0,.84-.83A.86.86,0,0,0,464.23,279.89Z"/><path class="cls-3" d="M463.21,282.11h-3a.51.51,0,0,0,0,1h3a.51.51,0,0,0,.59-.4.5.5,0,0,0-.4-.6h-.21Z"/><path class="cls-3" d="M483.62,266.1V259a.67.67,0,0,1,.56-.77.66.66,0,0,1,.77.55.81.81,0,0,1,0,.22v6.44h3.27a.7.7,0,0,1,.68.69.68.68,0,0,1-.68.66h-3.85a.65.65,0,0,1-.74-.56A.34.34,0,0,1,483.62,266.1Z"/><path class="cls-3" d="M490.57,259a.64.64,0,0,1,.6-.67h.06a.67.67,0,0,1,.67.67v7.13a.67.67,0,0,1-.67.66.64.64,0,0,1-.66-.62V259Z"/><path class="cls-3" d="M496.92,266.65h0v-.11l-3-7a.68.68,0,0,1,.36-.88.66.66,0,0,1,.85.36h0l2.37,5.58,2.35-5.58a.68.68,0,0,1,.87-.37.7.7,0,0,1,.36.88l-3.22,6.91v.11H497Z"/><path class="cls-3" d="M502.71,259a.65.65,0,0,1,.63-.67h0a.67.67,0,0,1,.67.67v7.13a.67.67,0,0,1-.67.66.66.66,0,0,1-.65-.66Z"/><path class="cls-3" d="M507.64,266.1a.67.67,0,0,1-.66.66.66.66,0,0,1-.67-.64v-7h0a.62.62,0,0,1,.27-.54.63.63,0,0,1,.89.12l0,0,3.91,5.46v-5.06a.66.66,0,0,1,.66-.65.68.68,0,0,1,.65.65v7a.65.65,0,0,1-.65.65.66.66,0,0,1-.51-.24h0l-3.86-5.45Z"/><path class="cls-3" d="M514.64,262.43a4.46,4.46,0,0,1,7.28-3.42.69.69,0,0,1,.14,1l0,0a.72.72,0,0,1-1,.11,3,3,0,0,0-4,.22,2.85,2.85,0,0,0,0,4.18,3,3,0,0,0,2.18.89,3.23,3.23,0,0,0,1.66-.47v-1.66h-1.73a.69.69,0,0,1-.69-.67.67.67,0,0,1,.65-.69h2.44a.67.67,0,0,1,.69.65v2.7a.67.67,0,0,1,0,.2h0a.55.55,0,0,1-.23.29,4.44,4.44,0,0,1-7.19-3.39Z"/><path class="cls-3" d="M490.54,277.16a.72.72,0,0,1-.42.92h0a.71.71,0,0,1-.29,0h0a.92.92,0,0,1-.51-.15,1.12,1.12,0,0,1-.42-.47,3.42,3.42,0,0,1-.29-1.58,1,1,0,0,0-.16-.57,1.48,1.48,0,0,0-.39-.4,3.22,3.22,0,0,0-.74-.31h-1.57v2.88a.73.73,0,0,1-.72.73h0a.71.71,0,0,1-.71-.71v-7.83A.7.7,0,0,1,485,269h2.4a2.82,2.82,0,0,1,2.82,2.82v0a2.76,2.76,0,0,1-1,2.16,2,2,0,0,1,.48.49,2.64,2.64,0,0,1,.43,1.44,3.39,3.39,0,0,0,0,.78A.67.67,0,0,1,490.54,277.16Zm-1.82-5.31a1.36,1.36,0,0,0-1.37-1.36h-1.64v2.71h1.64a1.37,1.37,0,0,0,1.35-1.33Z"/><path class="cls-3" d="M499.76,270.16a4.84,4.84,0,0,1,0,6.69,4.36,4.36,0,0,1-3.17,1.42,4.51,4.51,0,0,1-3.23-1.42,4.92,4.92,0,0,1,0-6.69,4.44,4.44,0,0,1,3.23-1.42A4.3,4.3,0,0,1,499.76,270.16Zm-.16,3.35a3.48,3.48,0,0,0-.91-2.32,2.84,2.84,0,0,0-4-.24l-.24.24a3.41,3.41,0,0,0,0,4.63,2.84,2.84,0,0,0,4,.24l.24-.24A3.48,3.48,0,0,0,499.6,273.51Z"/><path class="cls-3" d="M510.87,270.16a4.86,4.86,0,0,1,0,6.69,4.34,4.34,0,0,1-3.16,1.42,4.44,4.44,0,0,1-3.24-1.42,4.92,4.92,0,0,1,0-6.69,4.38,4.38,0,0,1,3.24-1.42A4.27,4.27,0,0,1,510.87,270.16Zm-.16,3.35a3.43,3.43,0,0,0-.91-2.32,2.82,2.82,0,0,0-2.09-.94,2.91,2.91,0,0,0-2.15.94,3.45,3.45,0,0,0,0,4.63,3,3,0,0,0,2.15.94,2.87,2.87,0,0,0,2.09-.94A3.43,3.43,0,0,0,510.71,273.51Z"/><path class="cls-3" d="M522.24,269.74v7.8a.73.73,0,0,1-1.45,0V272L519,274.61a.7.7,0,0,1-.6.31h0a.74.74,0,0,1-.62-.31L515.93,272v5.56a.73.73,0,1,1-1.45,0h0v-7.8a.73.73,0,0,1,.72-.73h0a.76.76,0,0,1,.59.31l2.63,3.64,2.62-3.64a.76.76,0,0,1,.6-.31h0A.74.74,0,0,1,522.24,269.74Z"/><path class="cls-3" d="M476.55,307.91a6.86,6.86,0,0,1,0,9.46,6.13,6.13,0,0,1-4.46,2,6.3,6.3,0,0,1-4.59-2,7,7,0,0,1,0-9.46,6.21,6.21,0,0,1,4.59-2A6,6,0,0,1,476.55,307.91Zm-.24,4.73a4.92,4.92,0,0,0-1.27-3.28,4,4,0,0,0-6,0,4.74,4.74,0,0,0-1.27,3.28,4.67,4.67,0,0,0,1.27,3.25,4,4,0,0,0,6,0A4.78,4.78,0,0,0,476.31,312.64Z"/><path class="cls-3" d="M482.11,318.35v-11a1,1,0,0,1,1-1h6.11a1,1,0,0,1,0,2.07h-5.07v3.44h4.36a1,1,0,0,1,0,2.08h-4.36v4.49a1,1,0,1,1-2.08,0Z"/><path class="cls-3" d="M493.46,318.35v-11a1,1,0,0,1,1-1h6.15a1.06,1.06,0,0,1,1,1,1,1,0,0,1-1,1h-5.07v3.44h4.36a1,1,0,0,1,0,2.08h-4.36v4.49a1.06,1.06,0,0,1-1.06,1A1,1,0,0,1,493.46,318.35Z"/><rect class="cls-2" x="541.44" y="351.13" width="90.13" height="96.51" rx="11.59"/><path class="cls-3" d="M560.52,373.29a2.68,2.68,0,0,1-.14-1.51h.11c.1,0,.23,0,.23.53A3,3,0,0,1,560.52,373.29Z"/><path class="cls-3" d="M563.12,372.24a3.8,3.8,0,0,1-.2,1.25,3.31,3.31,0,0,1-.2-1c0-.38.09-.76.28-.76S563.12,371.93,563.12,372.24Z"/><path class="cls-3" d="M564.23,374.51l-1.2,7.42h-2.25l-1.28-7.46a.87.87,0,0,0,.53.22,1.14,1.14,0,0,0,.46-.18c.4.71.87,1.09,1.38,1.09a1.54,1.54,0,0,0,1.25-1,1.23,1.23,0,0,0,.59.18h0A.83.83,0,0,0,564.23,374.51Z"/><path class="cls-3" d="M570,371.31c-.6,5.46-4.06,6.4-4.62,7.84a24.3,24.3,0,0,0-.71,2.76h-1.1l1.62-9.93a.34.34,0,0,0-.23-.36.29.29,0,0,0-.33.25h0l-.09.51c-.2.84-.64,1.82-.93,1.82a.68.68,0,0,1-.31-.11,5.14,5.14,0,0,0,.37-1.82c0-1.09-.55-1.18-.71-1.18-.51,0-.84.55-.84,1.4a3.24,3.24,0,0,0,.49,1.82c-.22.44-.51.76-.84.76s-.67-.34-1-.92h0a3.89,3.89,0,0,0,.48-1.82c0-.86-.42-1.17-.82-1.17a.67.67,0,0,0-.58.38,3.6,3.6,0,0,0,.25,2.5.23.23,0,0,1-.16.11c-.4,0-.77-1-.9-1.82v-.39a.33.33,0,0,0-.34-.25.31.31,0,0,0-.22.38h0l1.69,9.88h-1.09a23.36,23.36,0,0,0-.74-2.76c-.59-1.44-4-2.41-4.7-7.79A8.26,8.26,0,0,1,570,369.12a8,8,0,0,1,0,2.19Z"/><path class="cls-3" d="M564.42,382.71h-5a.86.86,0,0,0-.84.84.82.82,0,0,0,.8.84h5a.85.85,0,1,0,.24-1.69.49.49,0,0,0-.24,0Z"/><path class="cls-3" d="M564.42,384.93h-5a.86.86,0,0,0-1,.73.86.86,0,0,0,.72,1h5.24a.85.85,0,0,0,.83-.86A.84.84,0,0,0,564.42,384.93Z"/><path class="cls-3" d="M563.38,387.14h-3a.49.49,0,0,0-.51.47v0a.52.52,0,0,0,.51.49h3a.48.48,0,0,0,.49-.46v0a.49.49,0,0,0-.47-.51Z"/><path class="cls-3" d="M596.23,368h-1.62v2.87a.76.76,0,0,1-.74.73.75.75,0,0,1-.73-.73v-7.8a.71.71,0,0,1,.69-.73h2.4a2.84,2.84,0,1,1,.46,5.66Zm-1.62-1.47h1.62a1.37,1.37,0,1,0,0-2.73h-1.62Z"/><path class="cls-3" d="M600.8,370.85v-7.8a.71.71,0,0,1,.69-.73h0a.74.74,0,0,1,.74.73v7.06h3.64a.74.74,0,0,1,0,1.47h-4.33a.73.73,0,0,1-.78-.67Z"/><path class="cls-3" d="M613,369.4H609.9l-.64,1.71a.76.76,0,0,1-.69.47.57.57,0,0,1-.26,0,.74.74,0,0,1-.43-.94l2.93-7.79a.73.73,0,0,1,.69-.47.75.75,0,0,1,.71.47l2.93,7.79a.74.74,0,0,1-.46.94.49.49,0,0,1-.24,0,.71.71,0,0,1-.67-.47Zm-.55-1.46-1.07-2.85-1.08,2.85Z"/><path class="cls-3" d="M622.3,363.56l-2.71,3.64v3.64a.72.72,0,0,1-.72.72.75.75,0,0,1-.73-.72V367.2l-2.69-3.64a.69.69,0,0,1,.1-1l0,0a.7.7,0,0,1,1,.13h0l2.28,3.11,2.25-3.11a.73.73,0,0,1,1.18.86Z"/><path class="cls-3" d="M590.7,382.21a.72.72,0,0,1-.45.92h-.31a1.08,1.08,0,0,1-.53-.14,1.62,1.62,0,0,1-.42-.48,3.71,3.71,0,0,1-.27-1.58,1.09,1.09,0,0,0-.56-.94,2.77,2.77,0,0,0-.75-.33h-1.55v2.87a.73.73,0,0,1-.72.73h0a.71.71,0,0,1-.73-.69v-7.84a.71.71,0,0,1,.69-.73h2.4a2.83,2.83,0,0,1,1.82,5,2.14,2.14,0,0,1,.46.49,2.42,2.42,0,0,1,.43,1.42,5.08,5.08,0,0,0,0,.78A.68.68,0,0,1,590.7,382.21Zm-1.82-5.33a1.34,1.34,0,0,0-1.32-1.37H585.9v2.73h1.62a1.37,1.37,0,0,0,1.33-1.36Z"/><path class="cls-3" d="M599.93,375.18a4.89,4.89,0,0,1,0,6.7,4.4,4.4,0,0,1-3.17,1.42,4.48,4.48,0,0,1-3.24-1.42,5,5,0,0,1,0-6.7,4.42,4.42,0,0,1,3.24-1.4A4.29,4.29,0,0,1,599.93,375.18Zm-.19,3.35a3.36,3.36,0,0,0-.89-2.31,2.84,2.84,0,0,0-4.24,0,3.46,3.46,0,0,0-.89,2.31,3.34,3.34,0,0,0,.89,2.31,2.89,2.89,0,0,0,2.15,1,2.83,2.83,0,0,0,2.09-1,3.3,3.3,0,0,0,.89-2.31Z"/><path class="cls-3" d="M611,375.18a4.87,4.87,0,0,1,0,6.7,4.37,4.37,0,0,1-3.16,1.42,4.48,4.48,0,0,1-3.24-1.42,4.93,4.93,0,0,1,0-6.7,4.4,4.4,0,0,1,3.24-1.4A4.28,4.28,0,0,1,611,375.18Zm-.18,3.35a3.48,3.48,0,0,0-.89-2.31,2.84,2.84,0,0,0-4-.23,2.5,2.5,0,0,0-.23.23,3.34,3.34,0,0,0-.89,2.31,3.24,3.24,0,0,0,.89,2.31,2.84,2.84,0,0,0,4,.23,2.5,2.5,0,0,0,.23-.23,3.44,3.44,0,0,0,.89-2.31Z"/><path class="cls-3" d="M622.41,374.76v7.81a.75.75,0,0,1-.74.73.73.73,0,0,1-.73-.73V377l-1.82,2.64a.72.72,0,0,1-.6.31h0a.72.72,0,0,1-.6-.31L616.1,377v5.57a.74.74,0,0,1-1.47,0v-7.81a.72.72,0,0,1,.72-.72h0a.7.7,0,0,1,.59.31l2.63,3.63,2.64-3.63a.69.69,0,0,1,.58-.31h0A.76.76,0,0,1,622.41,374.76Z"/><path class="cls-3" d="M579.51,412.93a6.84,6.84,0,0,1,0,9.46,6.09,6.09,0,0,1-4.47,2,6.34,6.34,0,0,1-4.59-2,7,7,0,0,1,0-9.46,6.3,6.3,0,0,1,4.59-2A6,6,0,0,1,579.51,412.93Zm-.23,4.73a4.88,4.88,0,0,0-1.28-3.27,4,4,0,0,0-5.7-.28l-.28.28a4.78,4.78,0,0,0-1.27,3.27,4.69,4.69,0,0,0,1.27,3.26,4,4,0,0,0,5.65.33,2.57,2.57,0,0,0,.33-.33,4.76,4.76,0,0,0,1.28-3.26Z"/><path class="cls-3" d="M585.08,423.38V412.33a1,1,0,0,1,1-1h6.13a1,1,0,0,1,1,1,1.06,1.06,0,0,1-1,1.06h-5.07v3.42h4.36a1,1,0,1,1,0,2.07h-4.36v4.5a1,1,0,0,1-1.06,1h0a1,1,0,0,1-1-1Z"/><path class="cls-3" d="M596.4,423.38V412.33a1,1,0,0,1,1-1h6.15a1,1,0,0,1,1,1,1.08,1.08,0,0,1-1,1.06h-5.06v3.42h4.35a1,1,0,1,1,0,2.07h-4.35v4.5a1,1,0,0,1-1.05,1h0a1,1,0,0,1-1-1Z"/><rect class="cls-2" x="441.27" y="351.13" width="90.13" height="96.51" rx="11.59"/><path class="cls-14" d="M531.4,399.4v36.66a11.61,11.61,0,0,1-11.61,11.58H452.86a11.58,11.58,0,0,1-11.59-11.58V399.4Z"/><path class="cls-3" d="M460.35,373.29a2.59,2.59,0,0,1-.12-1.51h0s.23,0,.23.53A2.72,2.72,0,0,1,460.35,373.29Z"/><path class="cls-3" d="M463,372.24a4.13,4.13,0,0,1-.2,1.25,2.83,2.83,0,0,1-.2-1c0-.38.09-.76.28-.76S463,371.93,463,372.24Z"/><path class="cls-3" d="M464.08,374.51l-1.22,7.42h-2.29l-1.27-7.46a.75.75,0,0,0,.53.22,1.16,1.16,0,0,0,.43-.18c.4.71.89,1.09,1.4,1.09a1.56,1.56,0,0,0,1.26-1,1.07,1.07,0,0,0,.58.18h0A.84.84,0,0,0,464.08,374.51Z"/><path class="cls-3" d="M469.81,371.31c-.6,5.46-4.05,6.4-4.64,7.84a26.55,26.55,0,0,0-.7,2.76h-1.1L465,372a.3.3,0,0,0-.23-.36.29.29,0,0,0-.33.25h0l-.09.51c-.2.84-.62,1.82-.91,1.82a.58.58,0,0,1-.31-.11,4.94,4.94,0,0,0,.34-1.82c0-1.09-.52-1.18-.69-1.18-.52,0-.85.55-.85,1.4a3.24,3.24,0,0,0,.49,1.82c-.22.44-.51.76-.82.76s-.69-.34-1-.92h0a3.88,3.88,0,0,0,.47-1.82c0-.86-.43-1.17-.82-1.17a.64.64,0,0,0-.58.38,3.44,3.44,0,0,0,.26,2.5s-.13.11-.17.11c-.42,0-.76-1-.89-1.82v-.39a.32.32,0,0,0-.33-.25.32.32,0,0,0-.23.38L460,382H458.9a21.61,21.61,0,0,0-.75-2.76c-.58-1.44-4-2.41-4.71-7.79a8.26,8.26,0,0,1,16.36-2.28A8,8,0,0,1,469.81,371.31Z"/><path class="cls-3" d="M464.23,382.71h-5a.86.86,0,0,0-.85.84.84.84,0,0,0,.84.84h5a.85.85,0,0,0,.72-1,.84.84,0,0,0-.72-.72Z"/><path class="cls-3" d="M464.23,384.93h-5a.86.86,0,0,0-.24,1.7h5.23a.86.86,0,0,0,.84-.86A.85.85,0,0,0,464.23,384.93Z"/><path class="cls-3" d="M463.21,387.14h-3a.51.51,0,0,0,0,1h3a.49.49,0,0,0,.49-.49.49.49,0,0,0-.47-.51Z"/><path class="cls-3" d="M461.52,361.16a.57.57,0,0,1-.57-.55v-2.24a.57.57,0,0,1,1.13,0h0v2.24a.54.54,0,0,1-.53.56h0Z"/><path class="cls-3" d="M456.41,362.61a.59.59,0,0,1-.5-.25l-1.16-1.93a.54.54,0,0,1,.18-.75h0a.55.55,0,0,1,.76.18l1.17,1.82a.55.55,0,0,1-.14.76.57.57,0,0,1-.33.09Z"/><path class="cls-3" d="M452.69,366.47a.61.61,0,0,1-.27,0l-2-1.07a.57.57,0,0,1,.54-1l2,1.08a.51.51,0,0,1-.28,1Z"/><path class="cls-3" d="M449.15,371.64a.59.59,0,0,1-.57-.55.57.57,0,0,1,.57-.56h2.23a.56.56,0,0,1,.59.54h0a.6.6,0,0,1-.57.58h-2.25Z"/><path class="cls-3" d="M450.93,377.88a.53.53,0,0,1-.47-.28.55.55,0,0,1,.18-.76l1.93-1.17a.56.56,0,0,1,.76.19.55.55,0,0,1-.16.75h0l-1.93,1.18A.6.6,0,0,1,450.93,377.88Z"/><path class="cls-3" d="M472.62,377.51a.66.66,0,0,1-.28,0l-2-1.09a.53.53,0,0,1-.24-.71l0,0a.56.56,0,0,1,.76-.23h0l2,1.09a.55.55,0,0,1,.22.74h0A.53.53,0,0,1,472.62,377.51Z"/><path class="cls-3" d="M471.94,371.29a.59.59,0,0,1-.56-.55.56.56,0,0,1,.54-.58h2.26a.57.57,0,0,1,0,1.13h-2.26Z"/><path class="cls-3" d="M470.49,366.18a.61.61,0,0,1-.48-.27.6.6,0,0,1,.19-.79l1.92-1.16a.55.55,0,0,1,.76.18v0a.57.57,0,0,1-.18.76l-1.93,1.17A.62.62,0,0,1,470.49,366.18Z"/><path class="cls-3" d="M466.67,362.47a.48.48,0,0,1-.5-.76h0l1.09-2a.56.56,0,0,1,.76-.22.58.58,0,0,1,.22.76l-1.07,2A.63.63,0,0,1,466.67,362.47Z"/><path class="cls-3" d="M484.48,367.69a4.3,4.3,0,0,1,6.95-3.29.64.64,0,0,1,.13.91h0a.67.67,0,0,1-.94.11h0a3.05,3.05,0,0,0-1.82-.62,2.91,2.91,0,0,0-2.09.84,2.76,2.76,0,0,0-.13,3.91l.13.13a2.86,2.86,0,0,0,2.09.85,3.12,3.12,0,0,0,1.6-.45v-1.58h-1.67a.68.68,0,0,1-.66-.68.65.65,0,0,1,.66-.65H491a.67.67,0,0,1,.68.65v2.79h0a.46.46,0,0,1-.22.29,4.42,4.42,0,0,1-2.64.91,4.24,4.24,0,0,1-4.38-4.09Z"/><path class="cls-3" d="M497.7,371.93a3.36,3.36,0,0,1-3.36-3.37h0v-4.15a.63.63,0,0,1,.62-.65h0a.65.65,0,0,1,.66.65v4.15a2.08,2.08,0,1,0,4.15,0h0v-4.15a.65.65,0,1,1,1.29-.21.74.74,0,0,1,0,.21v4.15A3.37,3.37,0,0,1,497.7,371.93Z"/><path class="cls-3" d="M503.23,371.24v-6.88a.64.64,0,0,1,.62-.66h3.82a.66.66,0,0,1,0,1.31h-3.14v2.13h2.71a.66.66,0,0,1,.53.76.64.64,0,0,1-.53.53h-2.71v2.15h3.14a.66.66,0,0,1,.54.76.65.65,0,0,1-.54.53h-3.8a.64.64,0,0,1-.64-.63Z"/><path class="cls-3" d="M509.84,369.83a.61.61,0,0,1,.85,0h0a3.8,3.8,0,0,0,2.24.9,2.46,2.46,0,0,0,1.46-.44,1,1,0,0,0,.49-.84.66.66,0,0,0-.11-.36.84.84,0,0,0-.35-.35,4.27,4.27,0,0,0-1.6-.54h0a7.13,7.13,0,0,1-1.49-.46,2.54,2.54,0,0,1-1.09-.91,1.82,1.82,0,0,1-.28-1,2.11,2.11,0,0,1,1-1.69,3.43,3.43,0,0,1,2-.62,4.57,4.57,0,0,1,2.55.93.59.59,0,0,1,.16.83.6.6,0,0,1-.83.17,3.34,3.34,0,0,0-1.82-.75,2.15,2.15,0,0,0-1.3.4.9.9,0,0,0-.45.73.66.66,0,0,0,.09.33,1.3,1.3,0,0,0,.31.31,4.44,4.44,0,0,0,1.46.5h0a7,7,0,0,1,1.61.5,2.68,2.68,0,0,1,1.17,1,1.9,1.9,0,0,1,.27,1,2.27,2.27,0,0,1-1,1.82,3.67,3.67,0,0,1-2.15.66,4.85,4.85,0,0,1-3-1.17.64.64,0,0,1-.2-.88Z"/><path class="cls-3" d="M522.72,365H520.9v6.23a.66.66,0,0,1-.76.53.64.64,0,0,1-.53-.53V365h-1.82a.65.65,0,0,1-.64-.65.64.64,0,0,1,.62-.66h5a.66.66,0,0,1,.66.66.65.65,0,0,1-.65.65Z"/><path class="cls-3" d="M490.54,382.21a.72.72,0,0,1-.45.92h-.3a1,1,0,0,1-.51-.14,1.15,1.15,0,0,1-.42-.48,3.4,3.4,0,0,1-.29-1.58.92.92,0,0,0-.16-.56A1.09,1.09,0,0,0,488,380a3.28,3.28,0,0,0-.74-.33h-1.57v2.87a.73.73,0,0,1-.72.73h0a.71.71,0,0,1-.71-.71v-7.82A.71.71,0,0,1,485,374h2.4a2.83,2.83,0,0,1,1.82,5,1.69,1.69,0,0,1,.47.49,2.51,2.51,0,0,1,.44,1.42,2.55,2.55,0,0,0,0,.78A.74.74,0,0,1,490.54,382.21Zm-1.82-5.33a1.37,1.37,0,0,0-1.37-1.37h-1.64v2.73h1.64a1.39,1.39,0,0,0,1.35-1.36Z"/><path class="cls-3" d="M499.76,375.18a4.85,4.85,0,0,1,0,6.7,4.4,4.4,0,0,1-3.17,1.42,4.55,4.55,0,0,1-3.23-1.42,4.93,4.93,0,0,1,0-6.7,4.43,4.43,0,0,1,3.23-1.4A4.29,4.29,0,0,1,499.76,375.18Zm-.16,3.35a3.46,3.46,0,0,0-.91-2.31,2.83,2.83,0,0,0-4-.24l-.24.24a3.35,3.35,0,0,0-.9,2.31,3.25,3.25,0,0,0,.9,2.31,2.83,2.83,0,0,0,4,.24,2.72,2.72,0,0,0,.24-.24,3.39,3.39,0,0,0,.91-2.31Z"/><path class="cls-3" d="M510.87,375.18a4.87,4.87,0,0,1,0,6.7,4.37,4.37,0,0,1-3.16,1.42,4.48,4.48,0,0,1-3.24-1.42,4.93,4.93,0,0,1,0-6.7,4.42,4.42,0,0,1,3.24-1.4A4.28,4.28,0,0,1,510.87,375.18Zm-.16,3.35a3.41,3.41,0,0,0-.91-2.31,2.83,2.83,0,0,0-2.09-1,2.92,2.92,0,0,0-2.15,1,3.46,3.46,0,0,0-.89,2.31,3.34,3.34,0,0,0,.89,2.31,2.92,2.92,0,0,0,2.15,1,2.83,2.83,0,0,0,2.09-1,3.35,3.35,0,0,0,.91-2.31Z"/><path class="cls-3" d="M522.24,374.76v7.81a.73.73,0,0,1-.72.73.71.71,0,0,1-.73-.69V377L519,379.64a.72.72,0,0,1-.6.31h0a.77.77,0,0,1-.62-.31L515.93,377v5.57a.73.73,0,0,1-1.45,0h0v-7.81a.72.72,0,0,1,.72-.72h0a.73.73,0,0,1,.59.31l2.63,3.63,2.62-3.63a.74.74,0,0,1,.6-.31h0A.74.74,0,0,1,522.24,374.76Z"/><path class="cls-3" d="M474.47,416.46a4.64,4.64,0,0,1,0,6.56h0a4.52,4.52,0,0,1-3.27,1.36h0a4.48,4.48,0,0,1-3.26-1.36,1,1,0,0,1-.05-1.44l.05,0a1,1,0,0,1,1.47,0l0,0a2.45,2.45,0,0,0,1.82.74,2.38,2.38,0,0,0,1.82-.74,2.55,2.55,0,0,0,.76-1.82,2.4,2.4,0,0,0-.76-1.82,2.36,2.36,0,0,0-1.82-.73,2.52,2.52,0,0,0-1.82.73,1.08,1.08,0,0,1-1.49,0,2.75,2.75,0,0,0-.22-.26h0v-.12h0a.92.92,0,0,1,0-.33l.57-4.84a1.16,1.16,0,0,1,.47-.75h0a1,1,0,0,1,.49-.1h5.46a1.05,1.05,0,0,1,1.07,1v0a1.08,1.08,0,0,1-1.07,1.06H470.1l-.21,1.82a4.08,4.08,0,0,1,1.25-.19A4.64,4.64,0,0,1,474.47,416.46Z"/><path class="cls-3" d="M478.91,417.86a8,8,0,0,1,1.27-4.47,3.93,3.93,0,0,1,5.32-1.62,3.87,3.87,0,0,1,1.61,1.62,8.54,8.54,0,0,1,0,8.93,3.92,3.92,0,0,1-5.31,1.61,3.87,3.87,0,0,1-1.62-1.61A8.09,8.09,0,0,1,478.91,417.86Zm7.39,0a6.23,6.23,0,0,0-.9-3.34,2.15,2.15,0,0,0-1.81-1.13,2.23,2.23,0,0,0-1.82,1.13,6.44,6.44,0,0,0-.9,3.34,6.3,6.3,0,0,0,.9,3.3,2.24,2.24,0,0,0,1.82,1.16,2.16,2.16,0,0,0,1.81-1.16,6,6,0,0,0,.79-3.3Z"/><path class="cls-3" d="M492,414.53h0a3.17,3.17,0,0,1,3-3.34h.14a3.12,3.12,0,0,1,3.07,3.17v.14h0a3.11,3.11,0,0,1-6.19.67,3.75,3.75,0,0,1,0-.67Zm4.52,0h0c0-1-.6-1.82-1.44-1.82s-1.4.86-1.4,1.82h0c0,1.08.6,1.82,1.44,1.82s1.4-.76,1.4-1.82Zm-2.37,8.75,8.59-11.73a.8.8,0,0,1,.63-.35.75.75,0,0,1,.75.75h0a.78.78,0,0,1-.16.47l-8.63,11.74a.74.74,0,0,1-.65.34.73.73,0,0,1-.73-.72v0a.93.93,0,0,1,.2-.48Zm5.77-2h0a3.14,3.14,0,0,1,2.94-3.34H503a3.11,3.11,0,0,1,3.06,3.16v.13h0a3.09,3.09,0,0,1-6.17.48,3.84,3.84,0,0,1,0-.48Zm4.51,0h0c0-1.06-.6-1.91-1.44-1.91s-1.4.85-1.4,1.82h0c0,1,.6,1.82,1.44,1.82s1.4-.73,1.4-1.73Z"/><path class="cls-4" d="M578.2,544.56H494.63a2.29,2.29,0,1,0,0,4.58H578.2a2.29,2.29,0,1,0,0-4.58Z"/></g><g id="freepik--Character--inject-7"><polygon class="cls-9" points="156.88 697.32 89.9 697.32 51.55 506.19 112.89 478.01 156.88 697.32"/><g class="cls-15"><polygon points="156.88 697.32 89.9 697.32 51.55 506.19 112.89 478.01 156.88 697.32"/></g><polygon class="cls-9" points="337.68 697.32 156.88 697.32 112.89 478.01 293.69 478.01 337.68 697.32"/><rect class="cls-9" x="19.82" y="594.77" width="102.66" height="210.63"/><g class="cls-16"><rect x="19.82" y="594.77" width="102.66" height="210.63"/></g><polygon class="cls-9" points="386.96 805.4 358.91 805.4 317.12 594.77 386.96 594.77 386.96 805.4"/><g class="cls-16"><polygon points="386.96 805.4 358.91 805.4 317.12 594.77 386.96 594.77 386.96 805.4"/></g><rect class="cls-9" x="122.48" y="594.77" width="56.42" height="210.63"/><rect class="cls-9" x="386.95" y="594.77" width="56.42" height="210.63"/><rect class="cls-9" x="178.9" y="697.32" width="208.07" height="108.1"/><rect class="cls-9" x="178.9" y="650.58" width="208.07" height="47.17"/><path class="cls-8" d="M136.31,594.77l21.28-.38,21.31-.26h.63v.66l.26,24.65v24.65c0,16.37.13,32.87,0,49.3s0,32.87-.29,49.3-.37,32.87-.71,49.3q-.51-24.63-.71-49.3c-.22-16.37-.24-32.87-.29-49.3s0-32.88,0-49.3V619.44l.23-24.65.66.65-21.3-.27Z"/><path class="cls-8" d="M387,594.77c.45,16.5.65,33,.82,49.48l.25,49.48-.25,49.49-.3,24.74L387,792.7,386.44,768l-.29-24.74-.26-49.49.26-49.48C386.31,627.75,386.51,611.27,387,594.77Z"/><path class="cls-8" d="M387,697.32c-18.2.43-36.5.64-54.74.82l-54.75.23-43.82-.23-27.38-.29L179,697.32l27.29-.53,27.38-.29,43.82-.26,54.75.26C350.45,696.66,368.7,696.88,387,697.32Z"/><path class="cls-8" d="M387,650.58c-18.2.44-36.5.66-54.74.82l-54.75.26-43.82-.26-27.38-.29L179,650.58l27.29-.51,27.38-.31,43.82-.23,54.75.23C350.45,650,368.7,650.15,387,650.58Z"/><polygon class="cls-4" points="58.84 805.4 57.46 822.47 54.2 861.91 39.34 861.91 36.1 822.47 34.72 805.4 58.84 805.4"/><polygon class="cls-5" points="34.72 805.4 58.84 805.4 57.46 822.47 36.1 822.47 34.72 805.4"/><polygon class="cls-4" points="162.76 805.4 161.36 822.47 158.12 861.91 143.26 861.91 140.02 822.47 138.62 805.4 162.76 805.4"/><polygon class="cls-5" points="138.62 805.4 162.76 805.4 161.36 822.47 140.02 822.47 138.62 805.4"/><polygon class="cls-4" points="324.2 805.4 322.8 822.47 319.56 861.91 304.7 861.91 301.46 822.47 300.06 805.4 324.2 805.4"/><polygon class="cls-5" points="300.06 805.4 324.2 805.4 322.8 822.47 301.46 822.47 300.06 805.4"/><polygon class="cls-4" points="428.13 805.4 426.73 822.47 423.5 861.91 408.63 861.91 405.39 822.47 403.99 805.4 428.13 805.4"/><polygon class="cls-5" points="428.13 805.4 426.73 822.47 405.39 822.47 403.99 805.4 428.13 805.4"/><path class="cls-8" d="M209.75,496l-12.41.94a31.7,31.7,0,0,1-4.43-20.65c.16-1.63-3.86,8-1.82,21.14-13.1,1-30.93,2.39-46.49,3.44-.43-5.55-1.11-10.68-1.11-10.68a58.1,58.1,0,0,1-2.29,10.92c-2.13.16-4.2.27-6.2.42a201.1,201.1,0,0,0-1.82-23.65,73.21,73.21,0,0,1-7.13,24.19c-9.88.58-16.38.78-16,.35,14.55-16.54,3.42-25,7.27-39,4.72-16.85,20.27-20.34,19.51-32.75-.59-10.1-2.41-28.4,11.48-33.09a29.21,29.21,0,0,1,29.1-6.73c22.27,6.53,14.27,38.2,15.94,44.49,2.35,8.95,7.15,11.9,10.92,22.05s-1.22,17.5-1.64,24.64S212.24,495.87,209.75,496Z"/><path class="cls-8" d="M109.6,500.24a35.38,35.38,0,0,0,4.59-9.1,17.11,17.11,0,0,0-.26-9.49,86.42,86.42,0,0,1-2.05-9.92,24.29,24.29,0,0,1,.83-10.48,24,24,0,0,1,5.77-9.28,68.26,68.26,0,0,1,8.33-7.05,41.85,41.85,0,0,0,7.7-7.1,17.93,17.93,0,0,0,3.76-9.28,16.42,16.42,0,0,1-2.63,9.92,37.85,37.85,0,0,1-7.41,7.91,84.66,84.66,0,0,0-7.71,7.08,22.63,22.63,0,0,0-5,8.42,24.1,24.1,0,0,0-.82,9.48c.29,3.24,1,6.46,1.58,9.79a31.48,31.48,0,0,1,.48,5.13,14.47,14.47,0,0,1-1.13,5.22A30.42,30.42,0,0,1,109.6,500.24Z"/><path class="cls-8" d="M190.3,401.78a46.61,46.61,0,0,1,3.3,11.92c.65,4.07,1.09,8.17,1.49,12.26l.62,6.11a28.49,28.49,0,0,0,1.14,5.8A30.89,30.89,0,0,0,203.13,448a46.88,46.88,0,0,1,3.75,5.22,26.1,26.1,0,0,1,2.58,5.91,38.24,38.24,0,0,1,1.13,6.26,24.58,24.58,0,0,1-.24,6.41c-.34,2.14-.94,4.16-1.45,6.16a29.58,29.58,0,0,0-.89,6,11.82,11.82,0,0,0,5.67,10.15A12.25,12.25,0,0,1,206.6,484a28.59,28.59,0,0,1,.44-6.33c.35-2.07.86-4.09,1.06-6.08a29.78,29.78,0,0,0-1.3-11.71,27,27,0,0,0-2.45-5.35,41.35,41.35,0,0,0-3.64-4.89,61.08,61.08,0,0,1-3.8-5.12,23.71,23.71,0,0,1-2.77-5.87,30.57,30.57,0,0,1-1-6.3c-.17-2.07-.26-4.13-.35-6.18-.2-4.11-.33-8.21-.64-12.3A54.38,54.38,0,0,0,190.3,401.78Z"/><path class="cls-17" d="M639.68,586.6C636,589,522.21,620.07,517.13,618.51c-.56-.17-1.56-5.28-6.22-18-.22-.6-3.4-2.46-8.26-5-18.3-9.42-60.56-28.45-60.56-28.45l46.15-62.8,68,42.13,17.67,10.92s52,11.73,57.43,14S643.3,584.22,639.68,586.6Z"/><path class="cls-8" d="M639.7,586.6c-3.64,2.4-117.49,33.47-122.57,31.93-.56-.19-1.56-5.3-6.22-18,17-1.22,105.74-16.37,106.46-27.45.28-4.33-14.44-8.81-17.1-9.59,13.77,3.24,28.31,6.79,31,7.93C636.68,573.74,643.3,584.22,639.7,586.6Z"/><path class="cls-8" d="M530.14,525.47l-6.57,12.1L490.83,598s-70.77-30.49-91.91-41c-.69-.35-59.69,65.14-108.87,86.3-37.67,16.23-67.8,7.42-91.5-25.8L257.11,574c48.44-39.17,100.24-95.78,138.39-99.66C436.89,470.17,530.14,525.47,530.14,525.47Z"/><path class="cls-13" d="M515.42,524.93c-6.86,11.86-5,8.36-11.77,20.3-3.29,5.82-19.9,35.13-22.07,41.1,0,.12.15.23.22.12,3.9-5,19.87-34.67,23.05-40.57,6.52-12,4.53-8.66,10.92-20.77a.21.21,0,0,0-.08-.27.2.2,0,0,0-.27.09Z"/><path class="cls-13" d="M518.35,547.18,490.77,598s-70.77-30.49-91.91-41c-.67-.35-59.69,65.14-108.84,86.3-37.72,16.23-67.82,7.42-91.51-25.8L257.05,574c6.41-5.18,12.88-10.68,19.38-16.37C335.9,555.2,466.18,549.49,518.35,547.18Z"/><path class="cls-17" d="M606.8,724.33c-4.22,1-121.8-9.09-126-12.38-.46-.37.36-5.46.4-19.07,0-.66-2.35-3.48-6-7.51-13.92-15.18-47-47.63-47-47.63l65-43,49.21,63,12.73,16.37s44.77,29,49.12,33S611,723.32,606.8,724.33Z"/><path class="cls-8" d="M606.8,724.33c-4.22,1-121.8-9.09-126-12.38-.46-.37.36-5.46.4-19.07,16.37,4.73,104.89,21.1,109.37,11,1.82-4-10.5-13.25-12.74-14.89,11.81,7.79,24.22,16.12,26.38,18.2C608.42,711.2,611,723.32,606.8,724.33Z"/><path class="cls-8" d="M185.39,567.33s-14.77,45.83,7.13,69.13c15.78,16.8,38.81,21.27,59.27,21.07,56.57-.58,112.43-61.45,131.37-62.6,9.72-.58,74.5,82.9,74.5,82.9l65.24-48.39c-13-14.72-89.14-115-133.41-120.85-30.32-4-115.5,48.86-117.27,47.88-2.85-1.6-15.46-9.84-15.46-9.84Z"/><path class="cls-13" d="M512,621.93c-8.05,5.15-15.7,10.91-23.4,16.48s-15.28,11.19-22.83,16.9c-4.29,3.26-8.55,6.51-12.74,9.9a.11.11,0,0,0,0,.15.12.12,0,0,0,.1,0c8-5.26,15.7-10.91,23.42-16.46s15.3-11.19,22.84-16.88c4.3-3.22,8.63-6.44,12.74-9.88C512.28,622,512.11,621.84,512,621.93Z"/><path class="cls-13" d="M232.35,566.15c0-.25-.48-.13-.46.13a30.87,30.87,0,0,1-5.2,20.57c-4.69,6.68-12.19,10.92-18.92,15.23-.66.42,0,1.42.65,1.15a63.79,63.79,0,0,0,12-6.68,30.86,30.86,0,0,0,8.64-8.81A27.29,27.29,0,0,0,232.35,566.15Z"/><path class="cls-13" d="M272.68,561.31c-1.55-1.49-3.18-2.87-4.79-4.31-3.74-3.4-7.53-6.8-11.42-10.06-.36-.29-.93.29-.58.64,2.69,2.65,5.46,5.2,8.28,7.78l4.27,3.95a28.21,28.21,0,0,1,4,3.86,2.19,2.19,0,0,1-.41,3.08,2.24,2.24,0,0,1-1.14.45,6.05,6.05,0,0,1-4.32-1,54.56,54.56,0,0,1-8-6.51c-1.56-1.35-3.13-2.68-4.73-4s-3.45-2.71-5.15-4.11c-.11-.09-.27,0-.16.19,1.51,1.58,2.95,3.25,4.48,4.82s3.05,3.14,4.62,4.69,3,2.87,4.54,4.26a16.19,16.19,0,0,0,4.43,3c2.65,1.11,6.94.82,7.82-2.53A4.55,4.55,0,0,0,272.68,561.31Z"/><path class="cls-13" d="M457.19,658.17C441.58,638.85,399,589.25,389,580.6a9.66,9.66,0,0,0-7.38-2.24,20.36,20.36,0,0,0-7.9,3.64L365,587.24l-18,10.77c-11.24,6.74-22.45,13.59-33.8,20.19a230.32,230.32,0,0,1-31.33,15.7c-20.81,8.22-46.21,11.88-66.35-.22a44.23,44.23,0,0,1-19-24.6c-3.35-10.22-3.88-21.17-3.64-31.85,0-2.58.16-5.17.29-7.75a.1.1,0,0,0-.06-.14.1.1,0,0,0-.14,0,.14.14,0,0,0,0,.09c-1.62,20-1.51,43.41,13.57,58.69,16,16.23,41.48,17.12,62.27,11.61,23.31-6.17,43.94-19.6,64.41-31.88l35.76-21.47c2.89-1.72,5.75-3.63,8.7-5.2s6.31-2.69,9.09-.49c9.46,7.28,67.95,75.41,70,77.77C457,658.82,457.44,658.46,457.19,658.17Z"/><path class="cls-13" d="M318.29,532.31a273.47,273.47,0,0,1,51-21.83,74,74,0,0,1,13.73-2.78,27.22,27.22,0,0,1,7.1.11,39.56,39.56,0,0,1,6.87,1.67,101.52,101.52,0,0,1,24.51,13.44,254.16,254.16,0,0,1,21.61,17.54c6.91,6.21,13.61,12.61,20,19.29a542,542,0,0,1,36.55,41.84c-6-7-12.11-14-18.39-20.78s-12.61-13.53-19.16-20a339.55,339.55,0,0,0-41.71-36.38,100.37,100.37,0,0,0-24-13.32,30.23,30.23,0,0,0-13.32-1.82,83.65,83.65,0,0,0-13.48,2.55,216.93,216.93,0,0,0-26.12,9.09C335,524.42,326.6,528.26,318.29,532.31Z"/><path class="cls-13" d="M241.75,369.65l5.93,55.94c0,1.71,1.2,2.66,2.68,2.12L276.79,418a4.54,4.54,0,0,0,2.66-4.07L273.53,358c0-1.71-1.2-2.65-2.67-2.11l-26.43,9.72A4.58,4.58,0,0,0,241.75,369.65Z"/><path class="cls-12" d="M244.88,368.47l5.91,55.94c0,1.71,1.22,2.66,2.7,2.11l26.43-9.71a4.53,4.53,0,0,0,2.66-4.06l-5.92-56c0-1.71-1.2-2.66-2.67-2.11l-26.43,9.72A4.58,4.58,0,0,0,244.88,368.47Z"/><path class="cls-8" d="M253,368.14a2.4,2.4,0,1,1-4.54,1.57,2.39,2.39,0,0,1,1.48-3h0A2.41,2.41,0,0,1,253,368.14Z"/><path class="cls-17" d="M187.54,489c29.4,23.25,81.1,46.68,94.44,40.24,6.33-3.06,18.33-7.17,23-18.54,10.15-24.81,11.92-61.85,7.95-80.05-1.47-6.82-41.84-6.35-43.84.88-4.5,16.9-5,45.92-6.93,46.7-7,2.87-44.56-6-70.83-12.26C159.45,458.21,175.82,479.72,187.54,489Z"/><path class="cls-17" d="M302.15,400.09c-8-11.95-11.91-13.79-13.33-27.47-.95-9-7.08-12.25-10.57-3.53-5.7,14.26,1.43,31.87,5.65,37.26Z"/><path class="cls-17" d="M313.81,440s-.67-20.41-8-34c-5-9.41-18.32-28.62-50.12-29.89-7.55-.29-18.5,4.62-6.36,9.59,8.62,3.53,15.15,3.16,19.81,6.13,0,0-13.21,7.91-13.21,15.48a137.89,137.89,0,0,0,1.38,19.79,31.57,31.57,0,0,0,3.64,0s.22,7.08,8.15,14.41Z"/><path class="cls-17" d="M299.59,397.81c-5.22-2-16.38-5.94-26.66-6-11.38,0-33.38,2.79-33.36,11.21,0,6.17,8.5,5.8,8.5,5.8s-8.83,3.12-7.61,8.68c1.13,5.08,7.68,4.41,7.68,4.41s-5,2.8-3,7.47c2.44,5.64,12.59-1.16,20,2.42C266.75,432.56,299.59,397.81,299.59,397.81Z"/><path class="cls-8" d="M274.84,403.84a45.26,45.26,0,0,0-26.65,4.73c-.2.12-.23.34,0,.27A110.59,110.59,0,0,1,274.86,404S274.9,403.85,274.84,403.84Z"/><path class="cls-8" d="M274.41,415.33c-4.6-.43-17.43.82-26.33,6.34-.2.1-.2.32,0,.25a120.71,120.71,0,0,1,26.35-6.48S274.46,415.33,274.41,415.33Z"/><path class="cls-9" d="M226.33,517.87l3.72-46.38s-33.4-8.2-51.53-8.69c-10.17-.27-10.52,7.6-4.46,14.55C195.31,501.48,226.33,517.87,226.33,517.87Z"/><path class="cls-14" d="M226.33,517.87l3.72-46.38s-33.4-8.2-51.53-8.69c-10.17-.27-10.52,7.6-4.46,14.55C195.31,501.48,226.33,517.87,226.33,517.87Z"/><path class="cls-7" d="M229.67,476.79l-3.27,41.08s-31-16.38-52.29-40.55c-4.16-4.75-5.29-10-2.29-12.74Z"/><path class="cls-8" d="M222.63,472.53a309.9,309.9,0,0,0-3.82,39.17s.29.11.31,0c1.64-10.62,3.4-32,3.95-39.15C223.07,472.44,222.65,472.4,222.63,472.53Z"/><path class="cls-14" d="M235.77,512.68l36.89,43.48s-72,26-94.36,33.29c0,0-41.52-76.71-28.4-111.62,6.55-17.47,16.57-20,28.94-14.65,3.13,1.35,43,14.79,51.16,27A36.37,36.37,0,0,1,235.77,512.68Z"/><path class="cls-8" d="M219.08,515.54a96.51,96.51,0,0,0-12.73,6.89c-2,1.31-3.93,2.73-5.82,4.19-.95.73-1.93,1.42-2.89,2.09a16.4,16.4,0,0,1-3.24,1.82c-.11,0,0,.18,0,.16a26.33,26.33,0,0,0,3.31-1.23,23.7,23.7,0,0,0,3-1.71c2-1.31,4-2.73,6-4.08,4.1-2.71,8.17-5.46,12.45-7.84C219.47,515.78,219.3,515.43,219.08,515.54Z"/><path class="cls-8" d="M231.69,515.65A106.24,106.24,0,0,0,220.25,519c-1.82.68-3.64,1.46-5.46,2.28-.87.4-1.82.82-2.56,1.23s-1.82,1.06-2.77,1.51c-.09,0,0,.2,0,.17.91-.4,1.82-.66,2.8-1l2.79-1.06c1.81-.69,3.73-1.36,5.58-2.07q5.46-2.16,11.15-4.13C232,515.9,231.89,515.65,231.69,515.65Z"/><path class="cls-17" d="M148.46,473.62C116.59,507,76.93,575.12,84.79,589c8.75,15.48,54.36-31.82,52.92-34.09-1.24-1.95,15-42.52,26.56-73.28S156.36,465.36,148.46,473.62Z"/><path class="cls-14" d="M109.4,513.68l45.77,8.24s11.45-32.43,13.7-50.44c1.28-10.1-4.65-10.5-12.11-5.15C130.63,485.1,109.4,513.68,109.4,513.68Z"/><path class="cls-8" d="M154.88,514.43a308.77,308.77,0,0,0-38.6-7.62s-.15.27,0,.29c10.4,2.69,31.51,6.51,38.58,7.77C154.92,514.88,155.08,514.47,154.88,514.43Z"/><path class="cls-8" d="M149.63,520.92c1.81.19,3.76.42,5.64.68l-.41.21q2.05-7.47,4.52-14.82c1.63-4.91,3.34-9.77,5.33-14.56-1.2,5-2.64,10-4.19,14.94s-3.18,9.82-5,14.66l-.11.31h-.29C153.26,521.87,151.44,521.41,149.63,520.92Z"/><path class="cls-8" d="M161.65,502.29a14.44,14.44,0,0,1,1.57-2.89,18.84,18.84,0,0,1,2.07-2.56,5.93,5.93,0,0,1-.55,1.58,11.2,11.2,0,0,1-.83,1.42A9.76,9.76,0,0,1,161.65,502.29Z"/><path class="cls-17" d="M85.81,590.44c8.64,9.37,28.61,8.64,79,11.55,7,.4,23.07-48.08,15.63-48.9-9.35-1-45.9-3-48.59-2.77C109.2,552,80,584.11,85.81,590.44Z"/><path class="cls-17" d="M170.36,552.2s21.24.29,32.35,3.91c14.86,4.84,25.73,15.13,30,19.72,9,9.59,24,38.95,16.26,44.75-7,5.24-20.81-25.47-20.81-25.47s19.28,29.11,9.73,33.84-23.65-31.87-23.65-31.87,19.14,30.31,8.5,33.67c-8,2.55-22.6-29.94-22.6-29.94s16.27,26.16,8.12,29.11c-9,3.27-24.34-25.86-24.34-25.86-22,4.08-34.13-3-42.17-9.09C139.89,593.53,170.36,552.2,170.36,552.2Z"/><path class="cls-8" d="M222.16,584.56c2.38,3.33,4.82,6.7,6.91,10.23a120.52,120.52,0,0,1,5.79,10.91,69.21,69.21,0,0,1,5.46,15.08c-2.86-9.09-10.12-21.83-12.19-25.47s-4-7.15-6.08-10.68C222,584.54,222.1,584.49,222.16,584.56Z"/><path class="cls-8" d="M209.26,591.86c2.87,4.38,5.88,8.62,8.55,13.15s4.79,9,7.13,13.64c.18.37,0,.35-.27,0-2.53-4.56-5.2-8.58-7.79-13.13s-5-9.1-7.73-13.59Z"/><path class="cls-8" d="M197.07,596.13a117.07,117.07,0,0,1,11.54,21.1c.16.37-.17.3-.35,0-3.64-7.07-6.55-12.73-11.41-20.86C196.78,596.15,196.93,596,197.07,596.13Z"/><path class="cls-8" d="M111.42,557.49c4.11-2.6,15.72-8.7,27.14-7,.13,0,.13.22,0,.2-9.42,0-22.86,4.78-27,7C111.42,557.75,111.42,557.58,111.42,557.49Z"/><path class="cls-17" d="M160.18,467c.76,1.71,10.46,8.24,18.54,6.22,2.63-.65.81-11.82.81-11.82v-1.13l.37-15.7-20-7.81-2.86-1s.18,4.3.47,9.66v1.64a15.36,15.36,0,0,0,.13,2.42c.13.82,0,1.22.13,1.82l.16,1.93A98.54,98.54,0,0,0,160.18,467Z"/><path class="cls-8" d="M157.61,445.44a31.51,31.51,0,0,0,21.94,14.83l.37-15.7-20-7.81-2.85-1S157.32,440.08,157.61,445.44Z"/><path class="cls-17" d="M196.16,416.55c9.35,25.95-5.11,34.46-10.71,36.48-5.08,1.82-22.6,7.39-34.57-17.43s-2.87-37.39,8.51-42.17S186.81,390.63,196.16,416.55Z"/><path class="cls-8" d="M189.83,411.7c-.6.08-1.21.14-1.82.16a3,3,0,0,1-2-.22,1,1,0,0,1-.33-1.15,2.42,2.42,0,0,1,2.13-1.21,3.59,3.59,0,0,1,2.51.56,1,1,0,0,1,.19,1.45A1,1,0,0,1,189.83,411.7Z"/><path class="cls-8" d="M172.93,417.7c.57-.28,1.13-.58,1.67-.91a2.92,2.92,0,0,0,1.53-1.26,1,1,0,0,0-.34-1.14,2.46,2.46,0,0,0-2.46.14,3.52,3.52,0,0,0-1.82,1.82,1,1,0,0,0,.52,1.37A1.05,1.05,0,0,0,172.93,417.7Z"/><path class="cls-8" d="M179,423.32s-.12.13,0,.2c.64,1.82,1.06,3.89-.36,5h0C180.55,427.72,179.92,424.89,179,423.32Z"/><path class="cls-8" d="M176.91,422c-2.94.71-1.31,6.54,1.42,5.88S179.3,421.37,176.91,422Z"/><path class="cls-8" d="M175.79,422.59c-.42.48-.77,1.2-1.37,1.44s-1.4-.2-2-.65c0,0-.11,0,0,.1.31,1.11,1.06,2.15,2.29,2s1.66-1.37,1.62-2.57C176.2,422.67,176,422.41,175.79,422.59Z"/><path class="cls-8" d="M188.36,419.7s.16,0,.18.13c.44,1.82,1.25,3.84,3.06,4m0,.11c-2.08.25-3.12-2.44-3.24-4.24Z"/><path class="cls-8" d="M189.47,417.41c2.85-1,4.67,4.76,2,5.71S187.07,418.23,189.47,417.41Z"/><path class="cls-8" d="M190.8,417.41c.54.16,1.18.58,1.81.43s.91-.92,1.13-1.65h.11c.38,1.09.38,2.36-.62,2.91s-1.82-.22-2.53-1.24C190.5,417.66,190.56,417.41,190.8,417.41Z"/><path class="cls-8" d="M182.37,437.09a2.91,2.91,0,0,0,1.82.71,5.19,5.19,0,0,0,1.82-.91h0a2.55,2.55,0,0,1-2.07,1.53,2,2,0,0,1-1.82-1.29A.31.31,0,0,1,182.37,437.09Z"/><path class="cls-8" d="M188,428.32s1.16,2.59,1.54,3.86c0,.13-.25.27-.69.42h0a6.31,6.31,0,0,1-6.53-.55c-.13-.09,0-.27.15-.22a9.49,9.49,0,0,0,6,0c0-.38-2.12-4.36-1.92-4.43a11.55,11.55,0,0,1,3.05-.19c-2.25-5.45-5.37-10.49-7.53-15.95a.18.18,0,0,1,.14-.22.17.17,0,0,1,.15,0,94.15,94.15,0,0,1,8.86,16.83C191.47,428.61,188.54,428.43,188,428.32Z"/><path class="cls-8" d="M188.54,431.78a7.71,7.71,0,0,1-1.82,3.37,3.48,3.48,0,0,1-1.82.92c-1.55.2-2.11-1.05-2.31-2.25a9.08,9.08,0,0,1,0-1.95A10,10,0,0,0,188.54,431.78Z"/><path class="cls-18" d="M186.63,435.15a3.52,3.52,0,0,1-1.82.92c-1.55.2-2.11-1.05-2.31-2.25A3.62,3.62,0,0,1,186.63,435.15Z"/><path class="cls-8" d="M153.52,437.42c6.49-2.38,1.82-23.25,1.16-25.8.48,1.59,3,10,3.64,10.12a6.12,6.12,0,0,0,2-1.08h0a21.22,21.22,0,0,1-.75-3.05c0-.47.51.94,1.35,2.65l1.11-.72a25.88,25.88,0,0,1-1.46-6.55c0-.84,1.31,2.64,3.08,5.46a83.74,83.74,0,0,1,16.24-8.7c1.62-.6,3-1,4.31-1.38-.8-2.48-1.94-5-1.58-4.5a25.26,25.26,0,0,1,2.53,4.24l1.93-.47c-1-3.53-4.44-8.53-3.64-7.86a25.32,25.32,0,0,1,6.26,7.44c2.53-.31,3.33,0,3.18-.71a30.39,30.39,0,0,0-14.7-15.06c-10.75-5-27.81-1.6-33.14,13.35,0,0-6,7.48-4.57,15.88S149.75,438.78,153.52,437.42Z"/><path class="cls-17" d="M155.7,436.09s-8-6.77-11.24-3.64,4.35,14,9.22,14.45a4.66,4.66,0,0,0,5.42-3.75,2.51,2.51,0,0,0,0-.27Z"/><path class="cls-8" d="M146.71,435.47v.13c3.44.42,5.84,2.88,7.79,5.55a2.58,2.58,0,0,0-3.65,0,1.87,1.87,0,0,0-.26.3.11.11,0,0,0,0,.14.1.1,0,0,0,.14,0,2.88,2.88,0,0,1,3.31.17,14.24,14.24,0,0,1,2.11,2.07c.22.24.69,0,.49-.33h0C155.61,439.46,151.06,434.75,146.71,435.47Z"/></g></svg>