<svg id="Layer_1" data-name="Layer 1" xmlns="http://www.w3.org/2000/svg" viewBox="0 0 800 900"><defs><style>.cls-1{fill:#ebebeb;}.cls-2{fill:#008f6b;}.cls-10,.cls-11,.cls-15,.cls-2,.cls-9{isolation:isolate;}.cls-3{fill:#263238;}.cls-4{fill:#455a64;}.cls-5{fill:#dbdbdb;}.cls-6{fill:#c7c7c7;}.cls-7,.cls-9{fill:#fff;}.cls-8{fill:#ffc727;}.cls-9{opacity:0.6;}.cls-10{opacity:0.2;}.cls-11{opacity:0.1;}.cls-12{opacity:0.8;}.cls-13{fill:#a6a6a6;}.cls-14{opacity:0.4;}.cls-15{fill:#ff383b;}.cls-16{fill:#eb9481;}.cls-17{fill:#37474f;}.cls-18{fill:#ff98b9;}</style></defs><g id="freepik--background-complete--inject-8"><path class="cls-1" d="M790.22,297.55l7.38-11.9L794,283.4a3.36,3.36,0,0,1-1.55-3.14,14.58,14.58,0,0,0,0-2.09,3.38,3.38,0,0,1,1.75-3l3.76-2-6.55-12.38-3.76,2a3.34,3.34,0,0,1-3.47-.23,19.39,19.39,0,0,0-1.78-1.1,3.29,3.29,0,0,1-1.76-3l.13-4.29-14-.44-.12,4.3a3.33,3.33,0,0,1-2,2.93l-.92.47c-.31.16-.6.34-.9.51a3.29,3.29,0,0,1-3.47,0l-3.68-2.27-7.33,11.93,3.64,2.27a3.34,3.34,0,0,1,1.55,3.13,18.08,18.08,0,0,0-.08,2.08,3.34,3.34,0,0,1-1.73,3l-3.76,2,6.62,12.36,3.76-2a3.33,3.33,0,0,1,3.48.22,16.66,16.66,0,0,0,1.76,1.09,3.33,3.33,0,0,1,1.77,3l-.14,4.31,14,.42.14-4.29a3.32,3.32,0,0,1,1.94-2.89c.31-.14.63-.3.93-.47s.6-.32.9-.51a3.32,3.32,0,0,1,3.49,0Zm-11.85-8.78a11.47,11.47,0,1,1,4.7-15.53h0a11.46,11.46,0,0,1-4.69,15.46Z"/><path class="cls-1" d="M652.71,144.2l7.39-11.91L656.45,130a3.35,3.35,0,0,1-1.54-3.14,18.22,18.22,0,0,0,0-2.09,3.34,3.34,0,0,1,1.74-3l3.76-2-6.54-12.39-3.76,2a3.34,3.34,0,0,1-3.48-.23,20.26,20.26,0,0,0-1.78-1.1,3.3,3.3,0,0,1-1.75-3l.12-4.29-14-.44-.13,4.3a3.35,3.35,0,0,1-2,2.94l-.91.46c-.32.16-.6.34-.91.51a3.29,3.29,0,0,1-3.47,0l-3.67-2.27-7.34,11.93,3.65,2.27A3.33,3.33,0,0,1,616,123.6a18.25,18.25,0,0,0-.07,2.09,3.37,3.37,0,0,1-1.73,3l-3.77,2L617,143.08l3.76-2a3.32,3.32,0,0,1,3.47.22,17.89,17.89,0,0,0,1.77,1.09,3.38,3.38,0,0,1,1.77,3l-.14,4.3,14,.42.14-4.28a3.32,3.32,0,0,1,2-2.9c.31-.14.62-.3.92-.47s.61-.32.91-.51a3.31,3.31,0,0,1,3.48,0Zm-11.85-8.78a11.47,11.47,0,1,1,4.7-15.53h0a11.47,11.47,0,0,1-4.69,15.46Z"/><path class="cls-1" d="M556.29,194l7.39-11.9L560,179.82a3.33,3.33,0,0,1-1.54-3.13,18.39,18.39,0,0,0,0-2.1,3.35,3.35,0,0,1,1.74-3l3.76-2-6.54-12.39-3.76,2a3.33,3.33,0,0,1-3.48-.22,20.36,20.36,0,0,0-1.78-1.11,3.3,3.3,0,0,1-1.75-3l.12-4.29-14-.44-.13,4.31a3.34,3.34,0,0,1-2,2.93l-.91.46c-.32.17-.61.34-.91.52a3.29,3.29,0,0,1-3.47,0l-3.67-2.27L514.36,168l3.65,2.27a3.36,3.36,0,0,1,1.54,3.14,18,18,0,0,0-.07,2.08,3.36,3.36,0,0,1-1.73,3l-3.77,2,6.63,12.35,3.76-2a3.34,3.34,0,0,1,3.47.23,20,20,0,0,0,1.77,1.09,3.36,3.36,0,0,1,1.77,3l-.14,4.3,14,.43.14-4.29a3.32,3.32,0,0,1,2-2.9c.31-.14.62-.3.92-.46s.6-.33.91-.52a3.35,3.35,0,0,1,3.48,0Zm-11.85-8.78a11.47,11.47,0,1,1,4.7-15.53h0a11.47,11.47,0,0,1-4.69,15.46Z"/><path class="cls-1" d="M91.05,590.41l-4.87-8.5-2.6,1.5a2.29,2.29,0,0,1-2.5-.09q-.61-.39-1.26-.72a2.34,2.34,0,0,1-1.25-2.08v-3H68.75v3a2.33,2.33,0,0,1-1.25,2.08,11.18,11.18,0,0,0-1.26.73,2.33,2.33,0,0,1-2.51.09l-2.6-1.51-4.91,8.51,2.62,1.5A2.32,2.32,0,0,1,60,594.06v1.44a2.32,2.32,0,0,1-1.14,2.16l-2.62,1.51,4.91,8.51,2.6-1.51a2.33,2.33,0,0,1,2.51.09c.42.26.83.5,1.26.73a2.33,2.33,0,0,1,1.25,2.07v3h9.82v-3A2.33,2.33,0,0,1,79.82,607c.43-.22.85-.47,1.26-.73a2.31,2.31,0,0,1,2.5-.09l2.61,1.51,4.91-8.51-2.61-1.5a2.32,2.32,0,0,1-1.14-2.16v-1.45a2.32,2.32,0,0,1,1.14-2.16Zm-9.38,4.39a8,8,0,1,1-8.06-8h0A8,8,0,0,1,81.67,594.8Z"/><path class="cls-1" d="M51.17,465.39A38.21,38.21,0,1,0,89.38,503.6a38.21,38.21,0,0,0-38.21-38.21Zm0,56A17.85,17.85,0,1,1,69,503.58v0A17.83,17.83,0,0,1,51.17,521.43Z"/><polygon class="cls-1" points="58.52 466.97 43.82 466.97 44.63 456.56 57.7 456.56 58.52 466.97"/><polygon class="cls-1" points="30.54 471.92 20.16 482.3 13.37 474.38 22.61 465.14 30.54 471.92"/><polygon class="cls-1" points="14.26 495.19 14.26 509.89 3.87 509.07 3.87 496.01 14.26 495.19"/><polygon class="cls-1" points="19.22 523.16 29.61 533.55 21.68 540.34 12.43 531.1 19.22 523.16"/><polygon class="cls-1" points="42.49 539.43 57.19 539.43 56.37 549.84 43.31 549.84 42.49 539.43"/><polygon class="cls-1" points="70.47 534.48 80.85 524.1 87.64 532.02 78.39 541.26 70.47 534.48"/><polygon class="cls-1" points="86.74 511.21 86.74 496.51 97.14 497.33 97.14 510.39 86.74 511.21"/><polygon class="cls-1" points="81.79 483.24 71.39 472.85 79.33 466.08 88.58 475.32 81.79 483.24"/><path class="cls-1" d="M729.6,334.5a38.22,38.22,0,1,0,38.21,38.23h0a38.19,38.19,0,0,0-38.2-38.22Zm0,56.05a17.85,17.85,0,1,1,17.85-17.85v0a17.84,17.84,0,0,1-17.84,17.83Z"/><polygon class="cls-1" points="736.95 336.09 722.25 336.09 723.07 325.68 736.13 325.68 736.95 336.09"/><polygon class="cls-1" points="708.97 341.04 698.59 351.42 691.81 343.5 701.05 334.26 708.97 341.04"/><polygon class="cls-1" points="692.7 364.31 692.7 379.01 682.3 378.2 682.3 365.13 692.7 364.31"/><polygon class="cls-1" points="697.65 392.28 708.04 402.68 700.12 409.46 690.88 400.22 697.65 392.28"/><polygon class="cls-1" points="720.94 408.56 735.62 408.56 734.82 418.96 721.74 418.96 720.94 408.56"/><polygon class="cls-1" points="748.9 403.6 759.3 393.22 766.07 401.14 756.83 410.39 748.9 403.6"/><polygon class="cls-1" points="765.18 380.33 765.18 365.63 775.57 366.45 775.57 379.51 765.18 380.33"/><polygon class="cls-1" points="760.22 352.37 749.84 341.97 757.77 335.19 767.01 344.43 760.22 352.37"/></g><g id="freepik--Plant--inject-8"><path class="cls-2" d="M67.46,552.45C56,568,43.93,586.15,41,605.71c0,.29.44.39.5.09a117.63,117.63,0,0,1,5.09-15.65c7.52-2.1,15-3.77,19-11.29,4-7.72,3.54-17.79,2.78-26.21A.53.53,0,0,0,67.46,552.45Z"/><path class="cls-3" d="M46.73,590C51.9,578.38,58.54,566.73,67,557.18c0,0,.15,0,.09.1A138.7,138.7,0,0,0,53.28,579c3.76-3.87,8-7.34,11.59-11.44.08-.08.19,0,.12.12-3.59,4.3-7.53,9-12.18,12.16-1.25,2.31-2.51,4.62-3.76,6.95.31-.18.64-.33,1-.49m0,.09c-.36.17-.71.36-1.07.52-.61,1.09-1.26,2.2-1.83,3.29-.15.25-.49,0-.38-.21Z"/><path class="cls-3" d="M50.57,585.94a67,67,0,0,0,8.84-5.9c.07-.06.19,0,.11.11a46.58,46.58,0,0,1-8.78,6C50.55,586.23,50.43,586,50.57,585.94Z"/><path class="cls-2" d="M39.68,602.8c0,.24.43.22.42,0,0-6.43,0-12.91.1-19.38,1.65-3.33,5.19-5.17,7.66-7.85a35,35,0,0,0,4.59-6.35,46.08,46.08,0,0,0,5.33-17.77c.67-6.89-1.93-29.62-4.84-28.84-1.51.4-6.39,11.66-7.68,15.38a107.48,107.48,0,0,0-4.57,18.87C38.33,572,38.53,587.54,39.68,602.8Z"/><path class="cls-3" d="M39.63,575h0c.35-8.15,2.2-16.38,3.91-24.29,1.85-8.51,4-16.53,8.41-24.13.07-.13.28,0,.21.13a89.29,89.29,0,0,0-6.75,18.52c.29-.45.65-.89,1-1.33.12-.16.4,0,.28.18A13,13,0,0,1,45.27,546h0c-1.5,6.08-2.59,12.31-3.52,18.52l.21-.24m.09.08-.36.61c-.47,3.15-.9,6.27-1.33,9.42C46,569.61,50.75,564,53.46,557h0c-2.64,7.22-6.82,13.64-13.25,18-.11.84-.23,1.68-.35,2.51,0,.18-.3.13-.3,0,0-.74,0-1.48.07-2.22-.06-.1-.1-.22,0-.3Z"/><path class="cls-3" d="M42.29,563.2a130.62,130.62,0,0,0,11.44-19.69c0-.08.16,0,.13.06A63.92,63.92,0,0,1,42.5,563.36.13.13,0,0,1,42.29,563.2Z"/><path class="cls-3" d="M48,541.93c1.78-3.15,3.65-6.21,5.33-9.42,0-.09.16,0,.13.09a49,49,0,0,1-5.18,9.48C48.13,542.24,47.87,542.11,48,541.93Z"/><path class="cls-2" d="M35.32,584.16a66.24,66.24,0,0,1-1.51,12.64c.07.47.13.92.2,1.4a60.56,60.56,0,0,0,2.27-14.15.43.43,0,0,0,0-.44h0a92.49,92.49,0,0,0-1.41-19.16c-2-11.84-6.36-23.2-14.61-32.08a.62.62,0,0,0-.92.19c-3.32,8.48-2.17,18.59.68,27a49.37,49.37,0,0,0,6.55,12.83C29.41,576.45,33,579.83,35.32,584.16Z"/><path class="cls-3" d="M21.25,536.37c7.82,12.71,13.27,27.77,13.93,42.77a.24.24,0,0,1-.48,0c-.17-1.36-.39-2.69-.6-4h0a51.36,51.36,0,0,1-8.88-10.24c0-.06.07-.14.12-.08a108.15,108.15,0,0,0,8.6,9.43c-.55-3.34-1.22-6.61-2-9.79-.21-.24-.41-.49-.61-.73s.09-.39.22-.24l.19.22a111.18,111.18,0,0,0-4.09-13c-2-2.37-4.21-4.43-5.66-7.29m.1-.06a59.69,59.69,0,0,0,3.62,4.8c.53.6,1.1,1.17,1.66,1.76A100.31,100.31,0,0,0,21,536.61c-.14-.25.17-.42.28-.24Z"/><path class="cls-3" d="M22.83,552.05c2.51,3.4,5.42,6.65,7.76,10.16a.1.1,0,0,1-.16.12,51.53,51.53,0,0,1-7.76-10.18C22.59,552,22.75,552,22.83,552.05Z"/><path class="cls-3" d="M31,563l.12.11a.08.08,0,0,1,0,.11.09.09,0,0,1-.12,0h0l-.11-.1C30.75,563.05,30.87,563,31,563Z"/><path class="cls-2" d="M9,560.79a39.17,39.17,0,0,0,8.23,19.37,20.53,20.53,0,0,0,6.7,5.22c2.89,1.44,5.93,3.09,8.93,4.26A59,59,0,0,1,36,600.93c.09-.34.19-.68.29-1C34.37,583.39,23.67,569.25,10,560.18a.68.68,0,0,0-.91.3A.82.82,0,0,0,9,560.79Z"/><path class="cls-3" d="M13.72,565.68a.12.12,0,0,1,.14-.19A56.13,56.13,0,0,1,31.31,587c.1.22-.22.42-.34.2-.64-1.12-1.26-2.21-1.95-3.27h0c-3.12-.59-6.08-2.79-8.4-4.87a.06.06,0,0,1,0-.09.06.06,0,0,1,.09,0,19.55,19.55,0,0,0,3.94,2.8,40.39,40.39,0,0,0,4,1.56c-1.15-1.84-2.37-3.59-3.62-5.3a36.63,36.63,0,0,1-9.39-5.28c-.09-.07,0-.21.08-.15a98.28,98.28,0,0,0,8.78,4.66,75.22,75.22,0,0,0-6.16-7.18c-1.06-.56-2.14-1.13-3.17-1.73a.1.1,0,0,1-.05-.12.07.07,0,0,1,.05,0,10.54,10.54,0,0,1,2.43,1.25A50.54,50.54,0,0,0,13.72,565.68Z"/><path class="cls-3" d="M14,571.39a3.87,3.87,0,0,1,.53.37m-.06.09a2.69,2.69,0,0,1-.55-.31.09.09,0,0,1,0-.12.08.08,0,0,1,.11,0h0Z"/><polygon class="cls-4" points="57.69 636.71 20.18 636.71 23.2 602.53 23.87 595.01 54 595.01 54.67 602.53 57.69 636.71"/><polygon class="cls-3" points="54.67 602.53 23.2 602.53 23.87 595.01 54 595.01 54.67 602.53"/><rect class="cls-4" x="22.08" y="589.74" width="33.72" height="7.46"/></g><g id="freepik--Floor--inject-8"><polygon class="cls-3" points="1.86 636.71 101.63 636.39 201.4 636.29 400.93 636.08 600.47 636.29 700.23 636.39 800 636.71 700.23 637.01 600.47 637.12 400.93 637.33 201.4 637.12 101.63 637.01 1.86 636.71"/></g><g id="freepik--Device--inject-8"><rect class="cls-5" x="124.15" y="260.92" width="553.57" height="370.29"/><rect class="cls-3" x="128.18" y="265.44" width="545.52" height="361.26"/><rect class="cls-6" x="52.05" y="658.99" width="697.77" height="25.42"/><polygon class="cls-5" points="52.05 658.99 124.15 631.21 677.71 631.21 749.82 658.99 52.05 658.99"/><polygon class="cls-3" points="130.58 649.13 177.11 631.21 624.75 631.21 671.28 649.13 130.58 649.13"/><rect class="cls-7" x="158.59" y="292.75" width="484.68" height="306.63"/><rect class="cls-4" x="158.59" y="292.75" width="484.68" height="11.8"/><path class="cls-8" d="M168,298.66a2.92,2.92,0,1,1-2.92-2.93,2.92,2.92,0,0,1,2.92,2.93Z"/><path class="cls-1" d="M179.92,298.66a2.94,2.94,0,1,1-2.95-2.93h0a2.93,2.93,0,0,1,2.93,2.93Z"/><path class="cls-7" d="M191.87,298.66a2.94,2.94,0,1,1-3-2.93h0a2.93,2.93,0,0,1,2.93,2.93Z"/><rect class="cls-8" x="390.36" y="436.53" width="88.31" height="67.75"/><path class="cls-9" d="M399.15,451.34a8,8,0,1,0,6.27-6.27A8,8,0,0,0,399.15,451.34Z"/><polygon class="cls-8" points="419.49 489.69 478.67 489.69 449.08 453.22 419.49 489.69"/><polygon class="cls-10" points="419.49 489.69 478.67 489.69 449.08 453.22 419.49 489.69"/><polygon class="cls-8" points="390.36 489.73 442.84 489.73 416.59 465.98 390.36 489.73"/><polygon class="cls-11" points="390.36 489.73 442.84 489.73 416.59 465.98 390.36 489.73"/><rect class="cls-8" x="390.36" y="489.69" width="88.31" height="14.6"/><rect class="cls-11" x="390.36" y="489.69" width="88.31" height="14.6"/><rect class="cls-5" x="182.52" y="436.53" width="66.34" height="5.58"/><rect class="cls-5" x="182.52" y="449.47" width="191.96" height="5.58"/><rect class="cls-5" x="182.52" y="461.76" width="191.96" height="5.58"/><rect class="cls-5" x="182.52" y="474.04" width="191.96" height="5.58"/><rect class="cls-5" x="182.52" y="486.32" width="191.96" height="5.58"/><rect class="cls-5" x="182.52" y="498.59" width="191.96" height="5.58"/><rect class="cls-5" x="342.39" y="326.97" width="66.34" height="14.94"/><rect class="cls-5" x="342.39" y="352.2" width="136.28" height="5.58"/><rect class="cls-5" x="342.39" y="364.48" width="136.28" height="5.58"/><rect class="cls-5" x="342.39" y="376.75" width="136.28" height="5.58"/><rect class="cls-5" x="342.39" y="389.03" width="136.28" height="5.58"/><rect class="cls-5" x="342.39" y="405.37" width="136.28" height="5.58"/><rect class="cls-5" x="342.39" y="417.65" width="136.28" height="5.58"/><rect class="cls-8" x="498.01" y="326.97" width="121.3" height="15.2"/><rect class="cls-7" x="498.35" y="342.17" width="120.66" height="161.84"/><path class="cls-5" d="M619.34,504.29H498V341.91H619.34Zm-120.6-.54h120V342.45h-120Z"/><polygon class="cls-5" points="498.67 504.12 498.04 503.92 618.69 342.07 619.31 342.27 498.67 504.12"/><polygon class="cls-5" points="618.69 504.12 498.04 342.27 498.67 342.07 619.31 503.92 618.69 504.12"/><rect class="cls-7" x="182.77" y="327.23" width="144.56" height="95.73"/><path class="cls-5" d="M182.55,423.23V327h145v96.22h-145ZM183,327.5v95.24H327.1V327.5Z"/><path class="cls-5" d="M183,327.5q18.23,11.56,36.31,23.37l36.15,23.68,35.94,23.92,17.9,12,17.85,12.18L309,411.08l-18.12-11.74-36.11-23.68-35.94-23.92C206.8,343.71,194.86,335.67,183,327.5Z"/><path class="cls-5" d="M327.12,327.5c-11.86,8.17-23.82,16.21-35.75,24.24l-35.9,23.92-36.12,23.68-18.1,11.74-18.2,11.62,17.83-12.18,17.91-12,35.94-23.92,36.11-23.68Q308.89,339.11,327.12,327.5Z"/></g><g id="freepik--Screens--inject-8"><rect class="cls-7" x="600.13" y="216.28" width="117.42" height="74.9"/><path class="cls-1" d="M718.29,291.92H599.37V215.59H718.29Zm-117.42-1.48H716.8V217H600.87Z"/><rect class="cls-4" x="600.13" y="216.28" width="117.42" height="14.17"/><path class="cls-8" d="M613.42,223.47a3.58,3.58,0,1,1-3.57-3.58h0a3.57,3.57,0,0,1,3.56,3.56Z"/><path class="cls-1" d="M628,223.47a3.58,3.58,0,1,1-3.58-3.58h0a3.57,3.57,0,0,1,3.56,3.56Z"/><path class="cls-7" d="M642.54,223.47a3.58,3.58,0,1,1-3.58-3.58h0a3.57,3.57,0,0,1,3.56,3.56Z"/><path class="cls-1" d="M620.38,258.45a14.47,14.47,0,0,1,14.47-14.2,14.75,14.75,0,0,1,9.12,3.08,2.26,2.26,0,0,1-2.76,3.59,9.85,9.85,0,0,0-6.36-2.17,10.47,10.47,0,0,0-7.1,2.83,9.75,9.75,0,0,0-2.88,6.87,9.51,9.51,0,0,0,2.88,6.86,10.38,10.38,0,0,0,7.1,2.85,10,10,0,0,0,6.36-2.17,2.39,2.39,0,0,1,3.16.43,2.34,2.34,0,0,1-.4,3.16,14.81,14.81,0,0,1-9.12,3.08A14.43,14.43,0,0,1,620.38,258.45Z"/><path class="cls-1" d="M651.16,265.75a2,2,0,0,1,2.88-.27,12.85,12.85,0,0,0,7.52,3,8.5,8.5,0,0,0,4.93-1.45,3.56,3.56,0,0,0,1.7-2.85,2.2,2.2,0,0,0-.36-1.25,3.65,3.65,0,0,0-1.18-1.26,16,16,0,0,0-5.4-1.85h-.08a22.12,22.12,0,0,1-5.09-1.53,8.49,8.49,0,0,1-3.67-3.09,6,6,0,0,1-.91-3.23,7.3,7.3,0,0,1,3.16-5.76,11.57,11.57,0,0,1,6.82-2.09,15.47,15.47,0,0,1,8.61,3.16,2,2,0,0,1,.55,2.79,2,2,0,0,1-2.77.63l0,0c-2-1.34-3.94-2.5-6.35-2.5a7.5,7.5,0,0,0-4.42,1.34,3.13,3.13,0,0,0-1.49,2.51,1.86,1.86,0,0,0,.27,1.1,3.75,3.75,0,0,0,1.07,1,13.71,13.71,0,0,0,4.93,1.74h.07a22.8,22.8,0,0,1,5.46,1.66,9.14,9.14,0,0,1,3.93,3.27,6.28,6.28,0,0,1,1,3.35,7.64,7.64,0,0,1-3.4,6.12,12.37,12.37,0,0,1-7.3,2.24,17,17,0,0,1-10.09-3.94A2.1,2.1,0,0,1,651.16,265.75Z"/><path class="cls-1" d="M677.08,265.75a2,2,0,0,1,2.88-.27,12.85,12.85,0,0,0,7.52,3,8.5,8.5,0,0,0,4.93-1.45,3.56,3.56,0,0,0,1.7-2.85,2.2,2.2,0,0,0-.36-1.25,3.65,3.65,0,0,0-1.18-1.26,16,16,0,0,0-5.4-1.85h-.08a22.12,22.12,0,0,1-5.09-1.53,8.49,8.49,0,0,1-3.67-3.09,6,6,0,0,1-.91-3.23,7.3,7.3,0,0,1,3.15-5.66,11.55,11.55,0,0,1,6.82-2.09,15.44,15.44,0,0,1,8.6,3.16,2,2,0,0,1-2.21,3.42l0,0c-2-1.34-3.94-2.5-6.35-2.5a7.48,7.48,0,0,0-4.42,1.34,3.16,3.16,0,0,0-1.5,2.51,1.92,1.92,0,0,0,.35,1.06,3.88,3.88,0,0,0,1.07,1,13.52,13.52,0,0,0,4.93,1.74h.07a22.67,22.67,0,0,1,5.46,1.66,9.22,9.22,0,0,1,3.94,3.27,6.6,6.6,0,0,1,1,3.35,7.61,7.61,0,0,1-3.4,6.12,12.28,12.28,0,0,1-7.3,2.24,17,17,0,0,1-10-3.93A2.12,2.12,0,0,1,677.08,265.75Z"/><rect class="cls-2" x="670.1" y="319.45" width="65.92" height="29.62"/><path class="cls-7" d="M689.71,335.57H687v4.83a1.26,1.26,0,1,1-2.51,0V327.26a1.25,1.25,0,0,1,1.25-1.25h4a4.77,4.77,0,0,1,0,9.53Zm-2.73-2.5h2.73a2.3,2.3,0,1,0,0-4.59H687Z"/><path class="cls-7" d="M697.49,340.4V327.26a1.25,1.25,0,0,1,2.5,0v5.35h5.77v-5.35a1.26,1.26,0,0,1,2.51,0V340.4a1.26,1.26,0,1,1-2.51,0v-5.34H700v5.34a1.25,1.25,0,1,1-2.5,0Z"/><path class="cls-7" d="M718.48,335.57h-2.74v4.83a1.25,1.25,0,1,1-2.5,0V327.26a1.25,1.25,0,0,1,1.25-1.25h4a4.77,4.77,0,0,1,0,9.53Zm-2.74-2.5h2.74a2.3,2.3,0,0,0,0-4.59h-2.74Z"/><g class="cls-12"><rect class="cls-7" x="430.36" y="451.13" width="195.82" height="137.19"/><path class="cls-1" d="M626.94,589.07H429.62V450.39H626.94Zm-195.83-1.48H625.48V451.88H431.11Z"/><rect class="cls-4" x="430.36" y="451.13" width="195.82" height="14.17"/><path class="cls-1" d="M626.94,466H429.62V450.39H626.94Zm-195.83-1.48H625.48V451.88H431.11Z"/><path class="cls-8" d="M443.67,458.31a3.58,3.58,0,1,1-3.59-3.56h0A3.6,3.6,0,0,1,443.67,458.31Z"/><path class="cls-1" d="M458.23,458.31a3.58,3.58,0,1,1-3.59-3.56h0A3.6,3.6,0,0,1,458.23,458.31Z"/><path class="cls-7" d="M472.78,458.31a3.57,3.57,0,1,1-3.58-3.56h0A3.58,3.58,0,0,1,472.78,458.31Z"/><rect class="cls-1" x="445.56" y="493.48" width="7.57" height="2.77"/><rect class="cls-1" x="458.65" y="493.48" width="86.88" height="2.77"/><rect class="cls-8" x="550.18" y="493.48" width="14.38" height="2.77"/><rect class="cls-13" x="567.7" y="493.48" width="24.87" height="2.77"/><rect class="cls-1" x="453.13" y="500.89" width="7.57" height="2.77"/><rect class="cls-13" x="466.04" y="500.89" width="57.01" height="2.77"/><rect class="cls-13" x="458.65" y="523.09" width="54.45" height="2.77"/><rect class="cls-8" x="466.04" y="508.29" width="38.2" height="2.77"/><rect class="cls-13" x="559.8" y="515.68" width="14.57" height="2.77"/><rect class="cls-13" x="508.49" y="508.29" width="61.01" height="2.77"/><rect class="cls-8" x="458.65" y="530.49" width="72.82" height="2.77"/><rect class="cls-8" x="566.09" y="500.89" width="39.46" height="2.77"/><rect class="cls-1" x="526.63" y="500.89" width="36.33" height="2.77"/><rect class="cls-1" x="572.35" y="508.29" width="24.52" height="2.77"/><rect class="cls-1" x="453.13" y="508.29" width="7.57" height="2.77"/><rect class="cls-13" x="445.56" y="515.68" width="7.57" height="2.77"/><rect class="cls-1" x="458.65" y="515.68" width="44.75" height="2.77"/><rect class="cls-1" x="516.2" y="523.09" width="48.38" height="2.77"/><rect class="cls-8" x="567.7" y="523.09" width="30.79" height="2.77"/><rect class="cls-8" x="507.96" y="515.68" width="48.32" height="2.77"/><rect class="cls-1" x="445.56" y="523.09" width="7.57" height="2.77"/><rect class="cls-1" x="445.56" y="530.49" width="7.57" height="2.77"/><path class="cls-8" d="M450.24,486.19a.66.66,0,0,1,0,.94h0a.64.64,0,0,1-.45.19.71.71,0,0,1-.48-.19l-2.92-3a.06.06,0,0,1,0-.06h0a.14.14,0,0,1,0-.09h0V484h0v-.27h0v-.08h0v-.09h0l.06-.06,2.92-3a.66.66,0,1,1,.93.94h0l-2.51,2.5Z"/><path class="cls-8" d="M452.88,486.53l2.51-6.07a.56.56,0,0,1,1,.44h0L453.92,487a.56.56,0,0,1-.52.35.41.41,0,0,1-.22,0,.56.56,0,0,1-.34-.7Z"/><path class="cls-8" d="M461.51,484.08h0l-.06.08-2.92,3a.71.71,0,0,1-.48.19.66.66,0,0,1-.46-1.13h0l2.5-2.51-2.5-2.51a.66.66,0,0,1,0-.94h0a.68.68,0,0,1,.94,0l2.92,3,.06.07h0v.08h0v.1h0v.27h0v.1h0A.23.23,0,0,1,461.51,484.08Z"/></g><rect class="cls-8" x="116.76" y="456.65" width="79.99" height="29.62"/><path class="cls-7" d="M128.3,477.6V464.46a1.26,1.26,0,1,1,2.51,0v5.35h5.77v-5.35a1.26,1.26,0,1,1,2.51,0V477.6a1.26,1.26,0,0,1-2.51,0v-5.34h-5.77v5.34a1.26,1.26,0,0,1-2.51,0Z"/><path class="cls-7" d="M153.62,465.71h-3.49V477.6a1.25,1.25,0,0,1-2.5,0V465.71h-3.52a1.26,1.26,0,0,1,0-2.51h9.51a1.26,1.26,0,0,1,0,2.51Z"/><path class="cls-7" d="M171.92,464.46V477.6a1.26,1.26,0,0,1-2.51,0v-9.37l-3.18,4.43a1.22,1.22,0,0,1-1,.5h0a1.27,1.27,0,0,1-1-.5L161,468.21v9.37a1.26,1.26,0,0,1-2.51,0V464.46a1.26,1.26,0,0,1,1.25-1.26h.07a1.28,1.28,0,0,1,1,.52l4.44,6.14,4.43-6.14a1.28,1.28,0,0,1,1-.52h0A1.27,1.27,0,0,1,171.92,464.46Z"/><path class="cls-7" d="M177.31,477.6V464.46a1.26,1.26,0,1,1,2.51,0v12h6a1.26,1.26,0,0,1,0,2.51h-7.29a1.27,1.27,0,0,1-1.26-1.25S177.31,477.63,177.31,477.6Z"/><rect class="cls-8" x="711.49" y="421.72" width="44.65" height="29.62"/><path class="cls-7" d="M723.62,439.4a3,3,0,0,0,5.79-.91v-8.55a1.26,1.26,0,0,1,1.57-.83,1.23,1.23,0,0,1,.83.83v8.55a5.35,5.35,0,0,1-10.46,1.64,1.17,1.17,0,0,1,.73-1.48h0a1.18,1.18,0,0,1,1.5.74Z"/><path class="cls-7" d="M734.82,440.06a1.11,1.11,0,0,1,1.57-.15,7.15,7.15,0,0,0,4.12,1.65,4.65,4.65,0,0,0,2.7-.8,1.92,1.92,0,0,0,.92-1.54,1.12,1.12,0,0,0-.2-.69,1.84,1.84,0,0,0-.64-.66,8.54,8.54,0,0,0-2.95-1h0a11.24,11.24,0,0,1-2.79-.84,4.61,4.61,0,0,1-2-1.68,3.28,3.28,0,0,1-.51-1.77,4,4,0,0,1,1.73-3.15,6.35,6.35,0,0,1,3.77-1.14,8.54,8.54,0,0,1,4.7,1.72,1.11,1.11,0,0,1,.3,1.53,1.08,1.08,0,0,1-1.48.36.1.1,0,0,1,0,0,6.22,6.22,0,0,0-3.47-1.37,4,4,0,0,0-2.41.74,1.66,1.66,0,0,0-.83,1.35,1.06,1.06,0,0,0,.16.6,2.1,2.1,0,0,0,.58.57,7.62,7.62,0,0,0,2.7.94h0a13,13,0,0,1,3,.91,5.13,5.13,0,0,1,2.16,1.78,3.65,3.65,0,0,1,.51,1.85,4.14,4.14,0,0,1-1.87,3.34,6.7,6.7,0,0,1-4,1.26,9.24,9.24,0,0,1-5.52-2.16,1.14,1.14,0,0,1-.21-1.6Z"/><rect class="cls-7" x="32.26" y="246.11" width="117.42" height="74.9"/><path class="cls-1" d="M150.42,321.77H31.52v-76.4h118.9ZM33,320.27H148.94v-73.4H33Z"/><rect class="cls-4" x="32.26" y="246.11" width="117.42" height="14.17"/><path class="cls-1" d="M150.42,261H31.52V245.37h118.9ZM33,259.54H148.94V246.87H33Z"/><path class="cls-8" d="M45.55,253.3A3.56,3.56,0,1,1,42,249.74h0A3.56,3.56,0,0,1,45.55,253.3Z"/><path class="cls-1" d="M60.11,253.3a3.56,3.56,0,1,1-3.56-3.56h0A3.56,3.56,0,0,1,60.11,253.3Z"/><path class="cls-7" d="M74.67,253.3a3.58,3.58,0,1,1-3.59-3.56h0A3.56,3.56,0,0,1,74.67,253.3Z"/><path class="cls-1" d="M54.18,288.32a14.49,14.49,0,0,1,14.44-14.23,14.8,14.8,0,0,1,9.12,3.07,2.27,2.27,0,0,1-2.77,3.6h0a9.75,9.75,0,0,0-6.35-2.17,10.44,10.44,0,0,0-7.09,2.84,9.7,9.7,0,0,0-2.89,6.87,9.59,9.59,0,0,0,2.89,6.86A10.37,10.37,0,0,0,68.62,298,9.88,9.88,0,0,0,75,295.83a2.4,2.4,0,0,1,3.16.43,2.33,2.33,0,0,1-.39,3.16,14.8,14.8,0,0,1-9.12,3.07A14.42,14.42,0,0,1,54.18,288.32Z"/><path class="cls-1" d="M92,290.83h-5.6a2.17,2.17,0,0,1,0-4.34H92V281a2.26,2.26,0,0,1,4.5,0v5.49h5.61a2.17,2.17,0,0,1,0,4.34H96.51v5.48a2.26,2.26,0,1,1-4.5.34,1.93,1.93,0,0,1,0-.34Z"/><path class="cls-1" d="M116.48,290.83h-5.61a2.17,2.17,0,0,1,0-4.34h5.61V281a2.2,2.2,0,0,1,2.19-2.24h0A2.24,2.24,0,0,1,121,281v5.49h5.6a2.17,2.17,0,0,1,0,4.34H121v5.48a2.26,2.26,0,0,1-2.24,2.26h0a2.22,2.22,0,0,1-2.24-2.2v-5.54Z"/><rect class="cls-7" x="193.44" y="75.21" width="117.42" height="74.9"/><rect class="cls-4" x="193.44" y="75.21" width="117.42" height="14.17"/><rect class="cls-7" x="386.17" y="150.11" width="117.42" height="74.9"/><rect class="cls-4" x="386.17" y="150.11" width="117.42" height="14.17"/><path class="cls-1" d="M432.66,192.32a14.49,14.49,0,0,1,14.44-14.23,14.8,14.8,0,0,1,9.12,3.07,2.27,2.27,0,0,1-2.77,3.6h0a9.75,9.75,0,0,0-6.35-2.17,10.46,10.46,0,0,0-7.09,2.84,9.7,9.7,0,0,0-2.89,6.87,9.59,9.59,0,0,0,2.89,6.86A10.37,10.37,0,0,0,447.1,202a9.88,9.88,0,0,0,6.35-2.17,2.4,2.4,0,0,1,3.16.43,2.33,2.33,0,0,1-.39,3.16,14.8,14.8,0,0,1-9.12,3.07A14.42,14.42,0,0,1,432.66,192.32Z"/><path class="cls-8" d="M204.84,82.3a3.56,3.56,0,1,1-3.56-3.56h0A3.56,3.56,0,0,1,204.84,82.3Z"/><path class="cls-1" d="M219.4,82.3a3.56,3.56,0,1,1-3.56-3.56h0A3.56,3.56,0,0,1,219.4,82.3Z"/><path class="cls-7" d="M234,82.3a3.58,3.58,0,1,1-3.59-3.56h0A3.56,3.56,0,0,1,234,82.3Z"/><path class="cls-8" d="M398.89,157.19a3.57,3.57,0,1,1-3.57-3.56h0A3.56,3.56,0,0,1,398.89,157.19Z"/><path class="cls-1" d="M413.44,157.19a3.56,3.56,0,1,1-3.56-3.56h0A3.56,3.56,0,0,1,413.44,157.19Z"/><path class="cls-7" d="M428,157.19a3.57,3.57,0,1,1-3.58-3.56h.05A3.56,3.56,0,0,1,428,157.19Z"/></g><g id="freepik--Crane--inject-8"><rect class="cls-3" x="86.69" y="391.56" width="28.04" height="2.73" transform="translate(-254.25 196.62) rotate(-46.68)"/><rect class="cls-4" x="91.1" y="402.61" width="19.7" height="2.73"/><rect class="cls-4" x="91.1" y="381.34" width="19.7" height="2.73"/><rect class="cls-4" x="99.35" y="378.89" width="2.73" height="28.04" transform="translate(-242.08 176.09) rotate(-43.31)"/><rect class="cls-3" x="86.69" y="412.8" width="28.04" height="2.73" transform="translate(-269.7 203.29) rotate(-46.68)"/><rect class="cls-4" x="91.1" y="423.87" width="19.7" height="2.73"/><rect class="cls-4" x="91.1" y="402.61" width="19.7" height="2.73"/><rect class="cls-4" x="99.35" y="400.13" width="2.73" height="28.04" transform="translate(-256.65 181.88) rotate(-43.31)"/><rect class="cls-3" x="86.69" y="434.07" width="28.04" height="2.73" transform="translate(-285.18 209.97) rotate(-46.68)"/><rect class="cls-4" x="91.1" y="445.13" width="19.7" height="2.73"/><rect class="cls-4" x="91.1" y="423.87" width="19.7" height="2.73"/><rect class="cls-4" x="99.36" y="421.4" width="2.73" height="28.04" transform="translate(-271.24 187.68) rotate(-43.31)"/><rect class="cls-3" x="86.69" y="455.33" width="28.04" height="2.73" transform="translate(-300.64 216.64) rotate(-46.68)"/><rect class="cls-4" x="91.1" y="466.39" width="19.7" height="2.73"/><rect class="cls-4" x="91.1" y="445.13" width="19.7" height="2.73"/><rect class="cls-4" x="99.35" y="442.65" width="2.73" height="28.04" transform="translate(-285.82 193.46) rotate(-43.31)"/><rect class="cls-3" x="86.69" y="476.6" width="28.04" height="2.73" transform="translate(-316.12 223.32) rotate(-46.68)"/><rect class="cls-4" x="91.1" y="487.64" width="19.7" height="2.73"/><rect class="cls-4" x="91.1" y="466.39" width="19.7" height="2.73"/><rect class="cls-4" x="99.35" y="463.91" width="2.73" height="28.04" transform="translate(-300.4 199.25) rotate(-43.31)"/><rect class="cls-3" x="88.18" y="498.84" width="28.17" height="2.75" transform="translate(-331.51 230.93) rotate(-46.61)"/><rect class="cls-4" x="91.1" y="508.91" width="19.7" height="2.73"/><rect class="cls-4" x="91.1" y="487.64" width="19.7" height="2.73"/><rect class="cls-4" x="99.35" y="485.18" width="2.73" height="28.04" transform="translate(-314.99 205.04) rotate(-43.31)"/><rect class="cls-3" x="88.23" y="520.18" width="28.17" height="2.75" transform="translate(-347 237.64) rotate(-46.61)"/><rect class="cls-4" x="91.1" y="530.17" width="19.7" height="2.73"/><rect class="cls-4" x="91.1" y="508.91" width="19.7" height="2.73"/><rect class="cls-4" x="99.35" y="506.42" width="2.73" height="28.04" transform="translate(-329.57 210.83) rotate(-43.31)"/><rect class="cls-3" x="86.69" y="540.37" width="28.04" height="2.73" transform="translate(-362.52 243.34) rotate(-46.68)"/><rect class="cls-4" x="91.1" y="551.42" width="19.7" height="2.73"/><rect class="cls-4" x="91.1" y="530.17" width="19.7" height="2.73"/><rect class="cls-4" x="99.36" y="527.69" width="2.73" height="28.04" transform="translate(-344.15 216.62) rotate(-43.31)"/><rect class="cls-3" x="86.7" y="561.61" width="28.04" height="2.73" transform="translate(-377.97 250.01) rotate(-46.68)"/><rect class="cls-4" x="91.1" y="572.69" width="19.7" height="2.73"/><rect class="cls-4" x="91.1" y="551.42" width="19.7" height="2.73"/><rect class="cls-4" x="99.36" y="548.95" width="2.73" height="28.04" transform="translate(-358.73 222.42) rotate(-43.31)"/><rect class="cls-3" x="86.7" y="582.9" width="28.04" height="2.73" transform="translate(-393.57 256.86) rotate(-46.7)"/><rect class="cls-4" x="91.1" y="593.95" width="19.7" height="2.73"/><rect class="cls-4" x="91.1" y="572.69" width="19.7" height="2.73"/><rect class="cls-4" x="99.35" y="570.21" width="2.73" height="28.04" transform="translate(-373.32 228.2) rotate(-43.31)"/><rect class="cls-3" x="86.69" y="604.16" width="28.04" height="2.73" transform="translate(-409.04 263.54) rotate(-46.7)"/><rect class="cls-4" x="91.1" y="615.21" width="19.7" height="2.73"/><rect class="cls-4" x="91.1" y="593.95" width="19.7" height="2.73"/><rect class="cls-4" x="99.36" y="591.47" width="2.73" height="28.04" transform="translate(-387.9 234) rotate(-43.31)"/><rect class="cls-4" x="86.33" y="614.92" width="28.42" height="12.38"/><rect class="cls-4" x="86.32" y="382.47" width="7.12" height="233.24"/><rect class="cls-4" x="107.62" y="382.46" width="7.12" height="233.24"/><polygon class="cls-4" points="301.95 380.79 280.66 359.81 100.98 326.33 46.37 359.98 44.94 357.64 100.44 323.45 281.99 357.28 303.87 378.85 301.95 380.79"/><polygon class="cls-3" points="122.65 362.76 100.76 332.34 79.81 362.71 75.31 359.61 100.66 322.86 127.08 359.56 122.65 362.76"/><rect class="cls-3" x="268.53" y="358.84" width="2.73" height="28.04" transform="translate(-186.55 313.49) rotate(-46.69)"/><rect class="cls-4" x="279.57" y="362.76" width="2.73" height="19.7"/><rect class="cls-4" x="258.31" y="362.76" width="2.73" height="19.7"/><rect class="cls-4" x="255.85" y="371.46" width="28.04" height="2.73" transform="translate(-182.26 286.74) rotate(-43.32)"/><rect class="cls-3" x="247.26" y="358.84" width="2.73" height="28.04" transform="translate(-193.23 298.01) rotate(-46.69)"/><rect class="cls-4" x="258.31" y="362.76" width="2.73" height="19.7"/><rect class="cls-4" x="237.06" y="362.76" width="2.73" height="19.7"/><rect class="cls-4" x="234.6" y="371.46" width="28.04" height="2.73" transform="translate(-188.05 272.15) rotate(-43.32)"/><rect class="cls-3" x="226.01" y="358.85" width="2.73" height="28.04" transform="translate(-199.91 282.55) rotate(-46.69)"/><rect class="cls-4" x="237.06" y="362.76" width="2.73" height="19.7"/><rect class="cls-4" x="215.79" y="362.76" width="2.73" height="19.7"/><rect class="cls-4" x="213.34" y="371.46" width="28.04" height="2.73" transform="translate(-193.84 257.57) rotate(-43.32)"/><rect class="cls-3" x="204.74" y="358.84" width="2.73" height="28.04" transform="translate(-206.58 267.07) rotate(-46.69)"/><rect class="cls-4" x="215.79" y="362.76" width="2.73" height="19.7"/><rect class="cls-4" x="194.54" y="362.76" width="2.73" height="19.7"/><rect class="cls-4" x="192.07" y="371.47" width="28.04" height="2.73" transform="translate(-199.64 242.98) rotate(-43.32)"/><rect class="cls-3" x="183.48" y="358.84" width="2.73" height="28.04" transform="translate(-213.26 251.6) rotate(-46.69)"/><rect class="cls-4" x="194.54" y="362.76" width="2.73" height="19.7"/><rect class="cls-4" x="173.27" y="362.76" width="2.73" height="19.7"/><rect class="cls-4" x="170.82" y="371.46" width="28.04" height="2.73" transform="translate(-205.43 228.4) rotate(-43.32)"/><rect class="cls-3" x="162.22" y="358.84" width="2.73" height="28.04" transform="translate(-219.94 236.13) rotate(-46.69)"/><rect class="cls-4" x="173.27" y="362.76" width="2.73" height="19.7"/><rect class="cls-4" x="152.01" y="362.76" width="2.73" height="19.7"/><rect class="cls-4" x="149.57" y="371.45" width="28.04" height="2.73" transform="translate(-211.21 213.82) rotate(-43.32)"/><rect class="cls-3" x="140.95" y="358.85" width="2.73" height="28.04" transform="translate(-226.62 220.65) rotate(-46.69)"/><rect class="cls-4" x="152.01" y="362.76" width="2.73" height="19.7"/><rect class="cls-4" x="130.76" y="362.76" width="2.73" height="19.7"/><rect class="cls-4" x="128.31" y="371.47" width="28.04" height="2.73" transform="translate(-217.01 199.23) rotate(-43.32)"/><rect class="cls-3" x="119.7" y="358.84" width="2.73" height="28.04" transform="translate(-233.29 205.19) rotate(-46.69)"/><rect class="cls-4" x="130.76" y="362.76" width="2.73" height="19.7"/><rect class="cls-4" x="109.49" y="362.76" width="2.73" height="19.7"/><rect class="cls-4" x="107.05" y="371.46" width="28.04" height="2.73" transform="translate(-222.8 184.64) rotate(-43.32)"/><rect class="cls-3" x="98.43" y="358.83" width="2.73" height="28.04" transform="translate(-239.96 189.71) rotate(-46.69)"/><rect class="cls-4" x="109.49" y="362.76" width="2.73" height="19.7"/><rect class="cls-4" x="88.24" y="362.76" width="2.73" height="19.7"/><rect class="cls-4" x="85.78" y="371.46" width="28.04" height="2.73" transform="translate(-228.6 170.06) rotate(-43.32)"/><rect class="cls-3" x="77.17" y="358.84" width="2.73" height="28.04" transform="translate(-246.65 174.25) rotate(-46.69)"/><rect class="cls-4" x="88.24" y="362.76" width="2.73" height="19.7"/><rect class="cls-4" x="66.98" y="362.76" width="2.73" height="19.7"/><rect class="cls-4" x="64.53" y="371.46" width="28.04" height="2.73" transform="translate(-234.39 155.47) rotate(-43.32)"/><rect class="cls-3" x="55.91" y="358.84" width="2.73" height="28.04" transform="translate(-253.32 158.77) rotate(-46.69)"/><rect class="cls-4" x="66.98" y="362.76" width="2.73" height="19.7"/><rect class="cls-4" x="45.71" y="362.76" width="2.73" height="19.7"/><rect class="cls-4" x="43.27" y="371.47" width="28.04" height="2.73" transform="translate(-240.19 140.89) rotate(-43.32)"/><rect class="cls-3" x="32.55" y="357.61" width="12.36" height="28.42"/><rect class="cls-4" x="44.91" y="357.61" width="12.38" height="28.42"/><rect class="cls-4" x="49.9" y="386.02" width="23.74" height="14.17"/><rect class="cls-4" x="44.91" y="378.9" width="258.96" height="7.12"/><polygon class="cls-4" points="289.1 364.73 44.91 364.73 44.91 357.61 282.14 357.61 289.1 364.73"/><rect class="cls-4" x="284.23" y="362.76" width="2.73" height="19.7"/><path class="cls-3" d="M244.73,511.12c1.65-2.28,3.4-4.49,5.16-6.67s3.57-4.33,5.4-6.45l.49-.57.47.59c2.7,3.37,5.4,6.74,8,10.18l3.94,5.16c1.25,1.76,2.51,3.48,3.76,5.25-1.47-1.6-2.87-3.24-4.3-4.86l-4.21-4.94c-2.8-3.3-5.52-6.64-8.23-10h1c-1.85,2.11-3.7,4.21-5.63,6.27S246.77,509.16,244.73,511.12Z"/><rect class="cls-3" x="242.56" y="388.93" width="2.73" height="85.37"/><rect class="cls-3" x="265.69" y="389.83" width="2.73" height="85.37"/><rect class="cls-4" x="237.66" y="386.02" width="36.03" height="5.81"/><path class="cls-3" d="M257.05,481.09l-.3,6.05-.88-1a9.86,9.86,0,0,1,2.75,1.18,6.59,6.59,0,0,1,2.17,2.13,5.4,5.4,0,0,1-.16,5.76,5.61,5.61,0,0,1-4.86,2.51,6,6,0,0,1-4.53-2.71,5.65,5.65,0,0,0,4.52,2.17,4.87,4.87,0,0,0,4-2.51,4.1,4.1,0,0,0-.27-4.34,6.4,6.4,0,0,0-4-2.11l-.82-.12v-.92l-.31-6.05Z"/><polygon class="cls-4" points="273.69 468.65 273.69 478.54 255.68 482.82 237.67 478.54 237.67 468.65 273.69 468.65"/><path class="cls-3" d="M245.93,474.45a2.1,2.1,0,1,1-2.1-2.09h0a2.09,2.09,0,0,1,2.09,2.08Z"/><path class="cls-3" d="M269.61,474.45a2.1,2.1,0,1,1-2.09-2.09,2.09,2.09,0,0,1,2.09,2.09Z"/><path class="cls-13" d="M105.33,324.89a4.62,4.62,0,1,1-4.63-4.6h0A4.62,4.62,0,0,1,105.33,324.89Z"/><path class="cls-4" d="M102.87,324.89a2.16,2.16,0,1,1-2.16-2.16,2.16,2.16,0,0,1,2.16,2.16Z"/><rect class="cls-3" x="80.64" y="627.3" width="39.79" height="9.4"/><rect class="cls-4" x="72.02" y="636.71" width="57.03" height="18.45"/><path class="cls-8" d="M123.67,402.44H81v-47.1h27.81a9.72,9.72,0,0,1,9.63,8.44Z"/><path class="cls-3" d="M112.09,388.14h-20a2.35,2.35,0,0,1-.64-.09,2.28,2.28,0,0,1-1.6-2.15V360.72h14.19a6.86,6.86,0,0,1,1.43.13,7.92,7.92,0,0,1,6.42,6.74l2.39,18a2.25,2.25,0,0,1-1.93,2.52Z"/><g class="cls-14"><path class="cls-7" d="M110,375a2.3,2.3,0,0,1-.67,1.59L97.79,388.14h-5.6a2.25,2.25,0,0,1-.64-.09l14.63-14.63a2.24,2.24,0,0,1,3.17.13,2.19,2.19,0,0,1,.59,1.45Z"/><path class="cls-7" d="M110.13,363.56,89.94,383.79v-3.16l18.6-18.6A8.24,8.24,0,0,1,110.13,363.56Z"/><path class="cls-7" d="M105.5,360.85,94,372.34a1.68,1.68,0,0,1-2.37-.17,1.7,1.7,0,0,1,0-2.2l9.28-9.27h3.17A6.88,6.88,0,0,1,105.5,360.85Z"/></g><rect class="cls-7" x="211.89" y="494.27" width="79.08" height="119.43" transform="translate(-350.78 640.35) rotate(-73.75)"/><path class="cls-5" d="M182.74,575.37v-.18l22.18-76.12.2.06L320,532.61l-22.24,76.31-.19-.06Zm22.57-75.8-22.05,75.54,114.27,33.31,22-75.57Z"/><path class="cls-15" d="M264.42,557.79A13.55,13.55,0,1,1,255.2,541a13.55,13.55,0,0,1,9.22,16.81Z"/><polygon class="cls-7" points="244.31 557.89 247.52 546.9 259.68 556.4 244.31 557.89"/><rect class="cls-1" x="238.15" y="529.27" width="6.18" height="119.43" transform="translate(-391.72 655.77) rotate(-73.75)"/><rect class="cls-6" x="238.19" y="538.1" width="1.83" height="100.52" transform="translate(-392.66 653.27) rotate(-73.75)"/><rect class="cls-6" x="184.87" y="571.16" width="3.9" height="3.9" transform="translate(-415.68 592.09) rotate(-73.75)"/><rect class="cls-13" x="184.92" y="572.57" width="2.51" height="0.74" transform="translate(-415.97 591.35) rotate(-73.75)"/><rect class="cls-13" x="186.2" y="572.94" width="2.51" height="0.74" transform="translate(-415.42 592.74) rotate(-73.74)"/><rect class="cls-6" x="288.82" y="601.47" width="3.9" height="3.9" transform="translate(-369.92 713.72) rotate(-73.75)"/><rect class="cls-13" x="289.36" y="602.77" width="0.95" height="0.76" transform="translate(-370.32 712.63) rotate(-73.75)"/><polygon class="cls-13" points="290.68 604.54 289.74 603.63 290 602.72 291.28 602.46 290.68 604.54"/><g id="freepik--u5Zjqx--inject-8"><path class="cls-13" d="M291.73,603l.22-.12a1.26,1.26,0,0,1-.48,1.71h0l-.13-.22a1,1,0,0,0,.41-1.38Z"/><path class="cls-13" d="M291.21,604.13l-.13-.22a.44.44,0,0,0,.25-.31.44.44,0,0,0,0-.39l.22-.12a.77.77,0,0,1-.3,1Z"/></g><rect class="cls-6" x="293.29" y="602.77" width="3.9" height="3.9" transform="translate(-367.94 718.95) rotate(-73.75)"/><rect class="cls-13" x="294.07" y="603.28" width="1.62" height="1.62" transform="translate(-367.59 718.14) rotate(-73.75)"/><rect class="cls-7" x="294.76" y="604.65" width="1.62" height="1.62" transform="translate(-368.41 719.8) rotate(-73.75)"/><path class="cls-13" d="M208.91,579.57a2.34,2.34,0,0,0-.07.95l-18.27-5.33.52-1.77,18.28,5.33A1.91,1.91,0,0,0,208.91,579.57Z"/><path class="cls-13" d="M212.92,580.74a2,2,0,0,1-.45.83,2.11,2.11,0,0,1-3,.12,2.14,2.14,0,0,1-.65-1.17,2.34,2.34,0,0,1,.07-.95,1.91,1.91,0,0,1,.46-.82,2.06,2.06,0,0,1,2.12-.6A2.09,2.09,0,0,1,213,579.8,2.14,2.14,0,0,1,212.92,580.74Z"/></g><g id="freepik--Character--inject-8"><path class="cls-16" d="M526,660.76c.79-2.22,41.52-53.79,44.25-54.74.3-.12,17.77,12.85,17.77,12.85.7,1,34.55-5.41,34.55-5.41l-.52,40.64-61.33-2.58s-8.39,4.7-16.06,8.51h0a92.83,92.83,0,0,1-10,4.63C531.51,665.41,525.23,663,526,660.76Z"/><path class="cls-7" d="M534.59,664.68a88.41,88.41,0,0,0,10-4.62h0c7.66-3.77,16-8.52,16-8.52l13.65.58,22.22-34c-4.7.74-8.21,1.16-8.44.84,0,0-17.45-13-17.77-12.85-2.73.95-43.46,52.52-44.25,54.74S531.51,665.41,534.59,664.68Z"/><path class="cls-8" d="M525.67,660.85c.82-2.29,41.73-53.8,44.54-54.79,1-.38,9.61,5.17,17.84,12.84l-26.42,33.19s-24,12.08-27.17,12.82S524.84,663.13,525.67,660.85Z"/><path class="cls-3" d="M528.31,661.74c7.07-8.47,34.79-43.29,41.13-52.2h0c-7.2,8.26-34.62,43.29-41.22,52.15C528,661.81,528.16,661.92,528.31,661.74Z"/><path class="cls-3" d="M538.94,663.07a8.91,8.91,0,0,0,2-6.85,8.63,8.63,0,0,0-3.09-5.59s-.12.06-.07.11A10.24,10.24,0,0,1,538.83,663a.07.07,0,0,0,0,.09Z"/><path class="cls-3" d="M558.62,654.11c2.78-3.42,4.75-8.4,3.62-12.79,0-.16-.27-.1-.31,0a61,61,0,0,1-3.76,12.54.27.27,0,0,0,.23.31A.25.25,0,0,0,558.62,654.11Z"/><path class="cls-3" d="M555.46,656c2.78-3.43,4.75-8.41,3.62-12.8,0-.17-.27-.1-.31,0A60.26,60.26,0,0,1,555,655.64a.28.28,0,0,0,.1.38A.29.29,0,0,0,555.46,656Z"/><path class="cls-3" d="M552.3,657.8c2.78-3.43,4.75-8.4,3.62-12.79,0-.18-.27-.1-.31,0a60.36,60.36,0,0,1-3.76,12.47.28.28,0,0,0,.45.32Z"/><path class="cls-3" d="M549.14,659.64c2.78-3.42,4.75-8.4,3.62-12.79,0-.17-.27-.11-.31,0a60.44,60.44,0,0,1-3.76,12.48.27.27,0,0,0,.1.37A.28.28,0,0,0,549.14,659.64Z"/><path class="cls-3" d="M575.9,618.26c3.07-3.89-3-8.66-6-4.78S572.83,622.15,575.9,618.26Z"/><path class="cls-3" d="M564.88,665.17c2.83-.6,3.17-3.92,2.51-6.21A23.17,23.17,0,0,0,561,648.81a.13.13,0,0,0-.18,0h0a.55.55,0,0,0-.78.4c-.25,3.76-1,7.86-.06,11.64C560.56,663.08,562.18,665.77,564.88,665.17Zm-4-10c.07-1.88.25-3.76.26-5.63,1.26,2,2.51,3.91,3.58,6a26,26,0,0,1,1.33,3.11c.54,1.65.74,7.35-3.3,4.7-2.22-1.49-2-6-1.87-8.24Z"/><path class="cls-3" d="M566.58,639.2c-2.84,2.65-4.45,6.43-6.34,9.75a.53.53,0,0,0,.26.71.49.49,0,0,0,.16.05.13.13,0,0,0,.1.13h0a23,23,0,0,0,10.89-5c1.8-1.53,3.36-4.5,1.31-6.56S568.25,637.66,566.58,639.2Zm3.63-.52c4.82,0,1.53,4.65.16,5.74a28.11,28.11,0,0,1-2.82,1.87,69.63,69.63,0,0,1-6.27,3c1-1.56,1.9-3.22,2.88-4.82,1.13-1.92,3.39-5.85,6.06-5.83Z"/><path class="cls-17" d="M624.59,603.81l27.67-2.18s40-11.58,63-5.52c26.47,6.95,30.21,37.88,3.3,50.28-26.63,12.26-143.84,7.73-143.84,7.73l25.08-37.2s38.58-9.07,72.36-7.24l-47.82,5.52Z"/><path class="cls-3" d="M624.87,611.68c4.11-.68,8.27-1,12.43-1.4s8.38-.68,12.53-.95a251.6,251.6,0,0,1,25.17-.39l2.36.13a3.34,3.34,0,0,0,.51-.11c.41-.09.81-.19,1.26-.26.75-.13,1.52-.22,2.28-.32,1.59-.21,3.19-.35,4.78-.62a.08.08,0,1,1,0,.15c-1.59.33-3.16.76-4.75,1.07l-1.38.26c3.07.23,6.13.53,9.19.87.1,0,.1.16,0,.15-4.17-.33-8.38-.45-12.54-.46s-8.32,0-12.47.13c-8.4.3-16.79.89-25.16,1.58-4.71.4-9.42.88-14.14,1a.42.42,0,0,1-.39-.43A.41.41,0,0,1,624.87,611.68Z"/><path class="cls-3" d="M586.75,653.23c1.55-2.37,2.88-4.9,4.3-7.34l4.25-7.33c2.86-4.89,13.1-21.32,14.11-22.47.06-.07.18,0,.15.1-.49,1.25-6.9,12.16-8.37,14.6-2.94,4.85-6,9.6-9.09,14.39-.86,1.37-1.77,2.72-2.64,4.08s-1.82,2.69-2.64,4.1C586.82,653.45,586.7,653.36,586.75,653.23Z"/><path class="cls-16" d="M724.36,668.28c-.68-2.26-38.87-55.69-41.61-56.77-.3-.13-18.36,12-18.36,12-.75,1-34.24-7.06-34.24-7.06l-1.42,40.63,61.45.33s8.16,5.09,15.63,9.25h0a95.59,95.59,0,0,0,9.85,5.1C718.67,672.65,725.06,670.53,724.36,668.28Z"/><path class="cls-7" d="M715.68,671.77a86.52,86.52,0,0,1-9.84-5.11h0c-7.53-4.16-15.63-9.26-15.63-9.26l-13.67-.07-20.46-35.11c4.68,1,8.16,1.55,8.4,1.26,0,0,18-12.14,18.36-12,2.68,1.07,40.93,54.51,41.61,56.76S718.67,672.65,715.68,671.77Z"/><path class="cls-8" d="M724.72,668.36c-.71-2.31-39.15-55.72-41.89-56.83-1-.43-9.86,4.7-18.44,12l24.82,34.4S712.6,671.1,715.74,672,725.44,670.68,724.72,668.36Z"/><path class="cls-3" d="M722,669.13c-6.67-8.77-32.7-44.89-38.62-54.09,0-.08,0-.1.06,0,6.78,8.57,32.53,44.88,38.7,54C722.32,669.22,722.18,669.31,722,669.13Z"/><path class="cls-3" d="M711.36,670a8.76,8.76,0,0,1-1.67-6.94,8.52,8.52,0,0,1,3.33-5.42s.13,0,.08.1a10.23,10.23,0,0,0-1.63,12.18C711.51,670,711.41,670,711.36,670Z"/><path class="cls-3" d="M692.13,660.07c-2.63-3.54-4.36-8.6-3-12.94,0-.17.29-.09.31,0a61.34,61.34,0,0,0,3.2,12.64.28.28,0,1,1-.48.3Z"/><path class="cls-3" d="M695.19,662c-2.62-3.55-4.35-8.61-3-12.94,0-.17.29-.1.31,0a61.82,61.82,0,0,0,3.2,12.64.3.3,0,0,1-.09.4A.29.29,0,0,1,695.19,662Z"/><path class="cls-3" d="M698.26,664.06c-2.63-3.55-4.35-8.62-3-13,0-.16.29-.09.32.06a59.67,59.67,0,0,0,3.19,12.63.27.27,0,0,1-.11.38A.29.29,0,0,1,698.26,664.06Z"/><path class="cls-3" d="M701.34,666.05c-2.64-3.55-4.36-8.62-3-12.95,0-.17.29-.09.31,0a61.59,61.59,0,0,0,3.19,12.67.27.27,0,0,1-.12.37A.27.27,0,0,1,701.34,666.05Z"/><path class="cls-3" d="M676.56,623.44c-2.89-4,3.37-8.52,6.27-4.48S679.44,627.48,676.56,623.44Z"/><path class="cls-3" d="M690.4,666.76c1.11-3.76.55-7.81.48-11.62a.53.53,0,0,0-.56-.49.59.59,0,0,0-.19.05c0-.06-.12-.1-.18,0a23.22,23.22,0,0,0-6.87,9.82c-.77,2.24-.59,5.59,2.22,6.27S689.75,668.93,690.4,666.76Zm-2.85,2.3c-4.16,2.51-3.76-3.22-3.07-4.85a26,26,0,0,1,1.48-3.05,66.72,66.72,0,0,1,3.85-5.83c-.07,1.87,0,3.76,0,5.62C689.79,663.19,689.84,667.72,687.55,669.06Z"/><path class="cls-3" d="M678.5,643.58c-2.13,2-.71,5,1,6.62a23.27,23.27,0,0,0,10.65,5.5.11.11,0,0,0,.14-.08v0a.54.54,0,0,0,.5-.58.47.47,0,0,0,0-.16c-1.73-3.4-3.16-7.26-5.88-10C683.28,643.2,680.57,641.72,678.5,643.58Zm8.57,6.63c.89,1.66,1.7,3.35,2.65,5a69,69,0,0,1-6.15-3.35,25.27,25.27,0,0,1-2.72-2c-1.32-1.16-4.39-5.95.42-5.74C683.93,644.23,686,648.22,687.07,650.21Z"/><path class="cls-17" d="M628.62,604,601,603.21s-28.44-14.61-51.79-9.64c-26.77,5.69-31.06,39-11.49,51.35,24.79,15.64,137,15.71,137,15.71l-23.13-41.72s-37.07-8.78-70.9-8.59l47.56,7.8Z"/><path class="cls-3" d="M653.17,621.61a.74.74,0,0,1,0-.21v-.18a1.83,1.83,0,0,0-.09-.39,10,10,0,0,0-.59-1.6,4.88,4.88,0,0,0-.42-.74h-.13c-4.09-.87-31.82-5.6-36-6.17s-8.34-1.09-12.54-1.56a247.37,247.37,0,0,0-25.08-1.57H576l-.51-.13c-.41-.1-.79-.22-1.26-.31-.75-.16-1.5-.3-2.27-.43-1.58-.28-3.16-.49-4.73-.83-.1,0-.13.12,0,.15,1.58.39,3.13.89,4.71,1.25l1.36.33q-4.59.12-9.23.44c-.08,0-.1.15,0,.15,4.18-.14,8.39,0,12.54.12s8.31.38,12.44.73c8.38.7,16.74,1.68,25.08,2.77,4.68.62,33,5.52,37.62,5.85h0a1.75,1.75,0,0,0,.12.32c.12.27.24.52.38.77s.26.49.4.72l.21.36.12.16a.76.76,0,0,1,.12.19S653.22,621.71,653.17,621.61Z"/><path class="cls-3" d="M666.1,657.9c-1.44-2.43-2.66-5-4-7.53l-3.94-7.52c-2.62-5-12.08-21.92-13-23.11,0-.08-.19,0-.16.09.44,1.25,6.27,12.54,7.67,15,2.72,5,5.58,9.88,8.39,14.81.8,1.41,1.64,2.8,2.51,4.2s1.69,2.77,2.43,4.22C666,658.07,666.15,658,666.1,657.9Z"/><path class="cls-8" d="M600.43,602.74c1,1.09,66.46,2.59,66.8,2.18.9-1.13-7.53-42.64-14.39-58.54C644.07,526,639.14,524.2,636.2,523a23.2,23.2,0,0,0-12.23-.5c-1.87.77-10,9.88-12.43,17.25C606.65,554.53,599.54,601.82,600.43,602.74Z"/><path class="cls-7" d="M627.75,548.94a9.66,9.66,0,0,0-.85,2.51,10,10,0,0,0-.16,2.68,9.21,9.21,0,0,0,.86-2.51A10,10,0,0,0,627.75,548.94ZM637,591.79a10.46,10.46,0,0,0-1,5.2,9.53,9.53,0,0,0,.85-2.51A9.7,9.7,0,0,0,637,591.79Zm-25-19.24a9.3,9.3,0,0,0-.85,2.51,9.66,9.66,0,0,0-.17,2.68,9.61,9.61,0,0,0,.86-2.5,10.47,10.47,0,0,0,.16-2.74Zm43.5-3.55a9.82,9.82,0,0,0-.85,2.57,10,10,0,0,0-.17,2.68,8.7,8.7,0,0,0,.87-2.51A10.47,10.47,0,0,0,655.49,569Zm-20.56-42.93a9.43,9.43,0,0,0-2.7-.18,9.3,9.3,0,0,0,2.51.85,8.62,8.62,0,0,0,2.68.17A9.26,9.26,0,0,0,634.93,526.07Zm20.56,27.32a11,11,0,0,0-2.18-.68,10.1,10.1,0,0,0-2.69-.16,10.05,10.05,0,0,0,4.88,1h.32Zm-45.14-9.59a2.89,2.89,0,0,1-.18.65,8.55,8.55,0,0,0,2.42.13A8.17,8.17,0,0,0,610.35,543.8Zm9.48,57.92a9.42,9.42,0,0,0-2.7-.16,9.3,9.3,0,0,0,2.51.85,9.63,9.63,0,0,0,2.68.16A9.65,9.65,0,0,0,619.83,601.72Zm1.6-36a9.35,9.35,0,0,0-2.69-.15,10,10,0,0,0,2.5.85,10.12,10.12,0,0,0,2.69.16A8.93,8.93,0,0,0,621.43,565.71Zm45.63,36.36a11.41,11.41,0,0,0-1.17,0,8.08,8.08,0,0,0,1.25.53Zm-22-19.82a9,9,0,0,0-2.68-.18,9.59,9.59,0,0,0,2.5.85,9.43,9.43,0,0,0,2.7.17,8.6,8.6,0,0,0-2.52-.84Zm-22.84-46.13a9.47,9.47,0,0,0-1.79-2,10.26,10.26,0,0,0,1.26,2.41,9.52,9.52,0,0,0,1.79,2,10.14,10.14,0,0,0-1.26-2.42Zm-.46,51.56a9.33,9.33,0,0,0-1.79-2,9,9,0,0,0,1.25,2.4,9.24,9.24,0,0,0,1.77,2,8.94,8.94,0,0,0-1.23-2.4ZM648,601.82a10,10,0,0,0-1.77-2,9.52,9.52,0,0,0,1.25,2.41,9,9,0,0,0,1.78,2A9.24,9.24,0,0,0,648,601.82ZM641.7,561a10.08,10.08,0,0,0-1.78-2,9.52,9.52,0,0,0,1.25,2.41,9.07,9.07,0,0,0,1.79,2,10.11,10.11,0,0,0-1.26-2.36Zm-30.5-6.2a9.68,9.68,0,0,0-2.11,1.88,9,9,0,0,0,2.4-1.26,8.88,8.88,0,0,0,2-1.79,10.1,10.1,0,0,0-2.38,1.22Zm-5,37.79a9.7,9.7,0,0,0-2,1.78,9.29,9.29,0,0,0,2.4-1.25,9.56,9.56,0,0,0,2-1.78,8.91,8.91,0,0,0-2.48,1.3Zm26.12-18.34a9.45,9.45,0,0,0-2,1.76,10.17,10.17,0,0,0,4.43-3,8.84,8.84,0,0,0-2.46,1.27Zm25.08,17.26a9.07,9.07,0,0,0-2,1.8,9.76,9.76,0,0,0,2.39-1.26,9.31,9.31,0,0,0,2-1.78,9.6,9.6,0,0,0-2.43,1.29Zm-17.69-51a9.12,9.12,0,0,0-2,1.8,10.83,10.83,0,0,0,4.43-3,9.14,9.14,0,0,0-2.43,1.24Z"/><path class="cls-16" d="M647.05,528.5c28.22,21.2,52.67,50.64,50.27,60-2.5,9.86-22,20.88-39.21,23.14-3.52.45-14.43-25.42-10.82-26.6,2.81-.93,15.61-4.58,17.14-6.33,1.07-1.25-18.81-29.17-25.27-43.76C632.4,519.62,639.49,522.82,647.05,528.5Z"/><path class="cls-16" d="M654.56,584.26s-10.77,1.08-17.78,2.12c-3.91.58-10.52,2.17-13.2,3.92-4,2.6-19.09,16.05-15.92,19.77,2.89,3.37,7.23-2,7.23-2s-5.3,5.39-1.41,7.87,8.91-5,8.91-5-6,5.34-1.64,7.52c3.83,1.95,10.5-6.08,10.5-6.08s-6.93,4.92-3.22,7.29c4.11,2.63,15.64-8.15,15.64-8.15,9.21,1,14.89.4,21.39-1.42C666.25,609.77,654.56,584.26,654.56,584.26Z"/><path class="cls-3" d="M620.77,612.69c.41-.57.84-1.14,1.25-1.7a36.64,36.64,0,0,1,2.58-3.24c.92-1,1.87-1.93,2.86-2.83s2.2-1.83,3.21-2.82c.08-.09.19,0,.1.11a37.9,37.9,0,0,0-2.87,3.07l-2.73,3.1c-.88,1-1.83,2-2.73,3-.47.48-.89,1-1.33,1.51a10.74,10.74,0,0,1-1.26,1.43s-.1,0-.09-.07A9.69,9.69,0,0,1,620.77,612.69Z"/><path class="cls-3" d="M613.81,609.18a53.83,53.83,0,0,1,4.65-6.09,38.18,38.18,0,0,1,5.68-5.18c.08-.06.16,0,.11.11-1.71,1.92-3.46,3.76-5.2,5.69-.85.93-4.59,5.25-5,5.65C613.91,609.46,613.76,609.34,613.81,609.18Z"/><path class="cls-3" d="M627.21,616.15a54.31,54.31,0,0,1,4.48-5.66,49.13,49.13,0,0,1,5.78-4.59c.08,0,.18.06.1.12-1.8,1.67-3.62,3.3-5.35,5-.84.85-4,4.46-4.86,5.2a.09.09,0,0,1-.13,0A.08.08,0,0,1,627.21,616.15Z"/><path class="cls-8" d="M678.43,554.65l-21.5,13.93S641,543.9,636.87,532.21s.69-11.72,12-3.25S678.43,554.65,678.43,554.65Z"/><path class="cls-7" d="M640.34,540.1c.1.19.19.38.29.58a8.44,8.44,0,0,0,1.44-1.36A7.91,7.91,0,0,0,640.34,540.1ZM665,555.86a9.33,9.33,0,0,0-2,1.79,10.34,10.34,0,0,0,2.4-1.25,8.77,8.77,0,0,0,2-1.78A9.69,9.69,0,0,0,665,555.86Zm-.27-10.29a9.21,9.21,0,0,0-1.78-2,9.89,9.89,0,0,0,1.26,2.41,10.41,10.41,0,0,0,1.79,2,9.17,9.17,0,0,0-1.27-2.42Zm-11.41,7.14a10,10,0,0,0-2.68-.16,10.41,10.41,0,0,0,5.24,1,9.66,9.66,0,0,0-2.56-.86Zm23.49.39a7.69,7.69,0,0,0-1,0,7.84,7.84,0,0,0,1.69.64,6.58,6.58,0,0,1-.68-.64Zm-41.38-26.92a3.64,3.64,0,0,0,0,.66,7.05,7.05,0,0,0,2,.07,8.05,8.05,0,0,0-2-.73Zm18.25,7.92a9.42,9.42,0,0,0-.85,2.51,9.72,9.72,0,0,0-.16,2.69,10,10,0,0,0,1-5.2Z"/><path class="cls-3" d="M673.55,551.56a175.85,175.85,0,0,1-17.9,12.08c-.07,0-.15-.08-.07-.13,1.63-1,10.39-7.44,17.88-12.09C673.55,551.37,673.62,551.5,673.55,551.56Z"/><path class="cls-3" d="M658.31,567.62c-.43.21-.85.44-1.25.68-2.38-4.12-5-8.3-7.39-12.4l-3.57-6c-1.26-2.08-2.36-4.28-3.76-6.27m-.1,0a65,65,0,0,0,2.93,5.84c-.21-.29-.43-.6-.66-.88a24,24,0,0,1-1.53-1.93c-.08-.1-.24,0-.18.1a17.29,17.29,0,0,1,1.25,2c.39.72.86,1.26,1.26,2a10.25,10.25,0,0,0,1.39,1.79,1.24,1.24,0,0,0,.18.22c.65,1.25,1.25,2.4,2,3.58,2.4,4.15,7.83,12.54,7.9,12.54a11.75,11.75,0,0,0,1.56-1s.07-.15,0-.14Z"/><path class="cls-16" d="M611.68,529.49c-22.65,12.26-44,27.09-47.84,37.22-2.51,6.37.87,17.78,3.55,24.64,1.25,3.34,32.75-10.26,30.09-13-6.62-6.79-7.7-9.53-7-10.94.43-.89,25.08-23.06,32-33C632,520.6,621.63,524.07,611.68,529.49Z"/><path class="cls-16" d="M609.93,609.22c-3,1.72-6.59-6-6.59-6a6.43,6.43,0,0,1-1.71,4c-1.87,1.81-5.54-.33-5.54-.33a7.88,7.88,0,0,1-2.51,3.89c-2,1.55-6-.08-6-.08a6.86,6.86,0,0,1-4.31,2.06c-4.39.2-8.22-5.32-10.69-8.78s-6.19-15.66-7.14-17.92l22.31-16s15.49,12.47,17.81,17C607.51,590.8,614.47,606.57,609.93,609.22Z"/><path class="cls-3" d="M603.39,603.16a57.55,57.55,0,0,0-5.47-12.88c0-.1-.19,0-.14.08,2.2,4,3.36,8.78,5.39,12.88a.12.12,0,1,0,.22-.08Z"/><path class="cls-3" d="M596.33,606.62a12,12,0,0,0-1.43-2.84q-.87-1.46-1.77-2.88c-1.25-1.9-2.51-3.76-3.76-5.61,0-.09-.19,0-.14.07q1.83,2.83,3.52,5.76c.57,1,1.12,2,1.67,2.94a14.18,14.18,0,0,0,1.68,2.7.16.16,0,0,0,.21,0A.29.29,0,0,0,596.33,606.62Z"/><path class="cls-3" d="M587.61,610.6a8.46,8.46,0,0,0-1.43-2.51c-.57-.85-1.14-1.72-1.7-2.57-1.12-1.73-2.25-3.45-3.31-5.22,0-.08-.19,0-.14.08,1.06,1.8,2.12,3.61,3.21,5.39.53.88,1.06,1.76,1.62,2.62a8.15,8.15,0,0,0,1.66,2.25S587.62,610.67,587.61,610.6Z"/><path class="cls-8" d="M578.9,547.9l17,16.16s21.73-19.89,27.93-30.62,1.47-11.65-11.16-5.39S578.9,547.9,578.9,547.9Z"/><path class="cls-7" d="M608.93,532.14a9.21,9.21,0,0,0-2,1.78,9,9,0,0,0,2.4-1.26,8.75,8.75,0,0,0,2-1.77A9.21,9.21,0,0,0,608.93,532.14ZM598.06,556a9.45,9.45,0,0,0-1.78-2,10.27,10.27,0,0,0,1.25,2.39,8.63,8.63,0,0,0,1.79,2A10.44,10.44,0,0,0,598.06,556Zm22.38-21.86a9.89,9.89,0,0,0,1.26,2.41l.08.12c.15-.21.3-.42.43-.62A9.7,9.7,0,0,0,620.44,534.1ZM610,543.71a9.33,9.33,0,0,0-2.69-.16,9.53,9.53,0,0,0,2.51.85,9.26,9.26,0,0,0,2.68.16,10,10,0,0,0-2.5-.84Zm-24.52,4.87a9.42,9.42,0,0,0-2.7-.15,10,10,0,0,0,2.51.85,10.45,10.45,0,0,0,2.68.16,9.29,9.29,0,0,0-2.49-.85Zm11.87-7.69a10.41,10.41,0,0,0-1,5.24,9.68,9.68,0,0,0,.86-2.51,9.92,9.92,0,0,0,.16-2.72Z"/><path class="cls-3" d="M599.34,559.67a164.77,164.77,0,0,1-15.05-14.49c-.08-.06,0-.15.1-.09,1.25,1.34,9.15,8.34,15.05,14.48C599.52,559.65,599.41,559.74,599.34,559.67Z"/><path class="cls-3" d="M612.24,540.37c-.81,1.81-1.62,3.62-2.29,5.48v-.37a21.56,21.56,0,0,1,.45-3.39.1.1,0,0,0-.13-.06.12.12,0,0,0-.06.06c-.24,1.12-.44,2.26-.6,3.39-.09.55-.13,1.1-.17,1.65v.27c-.76,2.51-1.25,5-1.9,7.52a.1.1,0,0,0,.13.06.12.12,0,0,0,.06-.06c.65-2.51,1.59-4.83,2.42-7.23s1.48-4.84,2.27-7.24a.11.11,0,0,0,0-.13A.11.11,0,0,0,612.24,540.37Z"/><path class="cls-16" d="M626.21,533.94c3.76.73,9.89-5.21,12.21-9.92a76.31,76.31,0,0,0-1-7.67c-.33-2.51-.64-5.21-.76-7.73,0-.52-15.68,4.51-15.68,4.51a41,41,0,0,1,1.93,9.69,6,6,0,0,1-.08,1V524C622.57,526,622.59,533.24,626.21,533.94Z"/><path class="cls-3" d="M635.68,508.72c-.57,4.31-2.79,14.74-11.29,15.28a11,11,0,0,1-1.62,0,.54.54,0,0,1,0-.18,6,6,0,0,0,0-1,40.14,40.14,0,0,0-1.94-9.64S632.27,509.5,635.68,508.72Z"/><path class="cls-16" d="M634.17,487.77c3,5,4.07,21.52,1.06,26-4.37,6.48-13.46,9.26-19.47,3.57-5.83-5.5-6.79-27-3.26-31.27C617.73,479.78,629.72,480.32,634.17,487.77Z"/><path class="cls-3" d="M622.33,503.09s.11,0,.11.09c0,1.12.27,2.38,1.25,2.69h0C622.5,505.83,622.2,504.15,622.33,503.09Z"/><path class="cls-3" d="M623.25,501.86c1.78-.26,2.16,3.32.51,3.55S621.76,502.08,623.25,501.86Z"/><path class="cls-3" d="M616.15,503.78s-.07.07-.07.12c.15,1.09.15,2.38-.82,2.86v.06C616.48,506.52,616.48,504.8,616.15,503.78Z"/><path class="cls-3" d="M615,502.76c-1.8,0-1.55,3.64.11,3.58S616.54,502.76,615,502.76Z"/><path class="cls-3" d="M624.59,498.86a11.8,11.8,0,0,1-1.46-.08,2.54,2.54,0,0,1-1.5-.36.79.79,0,0,1-.14-.92,1.93,1.93,0,0,1,1.77-.73,2.81,2.81,0,0,1,1.87.71.82.82,0,0,1,0,1.15A.89.89,0,0,1,624.59,498.86Z"/><path class="cls-3" d="M613.13,500.31c.48-.14.9-.34,1.38-.53a2.3,2.3,0,0,0,1.25-.8.75.75,0,0,0-.15-.91,1.89,1.89,0,0,0-1.89-.16,2.8,2.8,0,0,0-1.57,1.26.81.81,0,0,0,.37,1.09A.77.77,0,0,0,613.13,500.31Z"/><path class="cls-3" d="M625.29,513.16c-.23.29-.46.68-.86.76a3,3,0,0,1-1.25-.15m0,.06a1.53,1.53,0,0,0,1.46.45,1.18,1.18,0,0,0,.77-1.08.08.08,0,0,0-.12,0Z"/><path class="cls-3" d="M623.78,510a3.79,3.79,0,0,1-2.35,1.94,4.64,4.64,0,0,1-1.34.22h-.51a.29.29,0,0,1-.24-.23h0a.2.2,0,0,1,0-.11h0v-.09c-.11-.85-.18-2.16-.18-2.16-.29.19-1.8,1.08-1.83.63a57.16,57.16,0,0,1,.24-11.55.11.11,0,0,1,.21,0c.3,3.56,0,7.15.24,10.72a6.7,6.7,0,0,1,1.72-.73c.12,0,0,2.51.15,2.9h0a5.25,5.25,0,0,0,3.76-1.63C623.73,509.82,623.83,509.88,623.78,510Z"/><path class="cls-3" d="M620.54,511.65a4.49,4.49,0,0,0,2,1.25,1.91,1.91,0,0,0,1.25,0c.85-.33.79-1.14.55-1.82a4.53,4.53,0,0,0-.5-1A6,6,0,0,1,620.54,511.65Z"/><path class="cls-18" d="M622.49,512.79a2.05,2.05,0,0,0,1.25,0c.85-.33.79-1.14.55-1.82A2.07,2.07,0,0,0,622.49,512.79Z"/><path class="cls-3" d="M636.93,501.66c-4.07.91-6.54-6.27-6.54-6.27s-7.26.44-9.47-4.6c0,0-5.68,5.75-11.29,5s-5.88-6.87-5.59-8.27,3.76.31,3.76.31-.43-3.43.39-4,2.24,1.26,2.24,1.26a44.38,44.38,0,0,1,12.37-5c6.14-1.25,10.56,4.26,10.56,4.26s3.42,0,5,2S639.53,501.09,636.93,501.66Z"/><path class="cls-3" d="M620.78,489.71a9,9,0,0,0,1.34,3,5.8,5.8,0,0,0,2.51,1.95,8.5,8.5,0,0,0,3.16.53c.54,0,1.09-.09,1.64-.14l1.65-.29c-.53.21-1.06.37-1.6.56a9.26,9.26,0,0,1-1.67.29,7.66,7.66,0,0,1-3.39-.44,5.62,5.62,0,0,1-2.6-2.24A6.77,6.77,0,0,1,620.78,489.71Z"/><path class="cls-3" d="M633.5,485.2a10.38,10.38,0,0,0-3.44-4.05,8.28,8.28,0,0,0-5-1.39,12.08,12.08,0,0,0-1.33.1l-1.25.27c-.86.23-1.69.57-2.51.87a17.48,17.48,0,0,0-2.42,1.19c-.78.44-1.55.93-2.36,1.38.73-.55,1.48-1.07,2.22-1.61a24.33,24.33,0,0,1,2.39-1.34,14,14,0,0,1,5.31-1.4,8.47,8.47,0,0,1,5.26,1.59A9.38,9.38,0,0,1,633.5,485.2Z"/><path class="cls-16" d="M634,501.5s2.42-5.93,5-5.18,1.61,8.78-.89,10.42a2.84,2.84,0,0,1-4-.56l-.07-.09Z"/><path class="cls-3" d="M638.7,498.57h0a7.16,7.16,0,0,0-2.62,5.21,1.58,1.58,0,0,1,2.19-.94V503a1.76,1.76,0,0,0-1.74,1,8.83,8.83,0,0,0-.55,1.72c0,.19-.38.18-.35,0h0C635,503.24,636.13,499.41,638.7,498.57Z"/><path class="cls-3" d="M640.44,525.05a74.26,74.26,0,0,1-5,6.56,12.17,12.17,0,0,1-6.45,4.14c-2.51.45-5,.15-6.27-2.82a18.55,18.55,0,0,1-.89-8,.1.1,0,0,0-.19-.07.09.09,0,0,0,0,.07c-.21,4.06-.27,10.31,3.49,11.37,4.21,1.2,8-1.25,10.63-4.31a37.51,37.51,0,0,0,4.74-6.85Z"/><rect class="cls-6" x="575.75" y="617.8" width="72.23" height="3.24"/><polygon class="cls-13" points="632.53 617.8 635 621.03 575.75 621.03 575.75 617.8 632.53 617.8"/><polygon class="cls-6" points="629.43 621.03 559.03 621.03 553.18 573.22 623.58 573.22 629.43 621.03"/><path class="cls-7" d="M595.59,597.12a4.2,4.2,0,0,1-4.09,4.29h-.11a4.38,4.38,0,0,1-4.37-4.29,4.21,4.21,0,0,1,4.13-4.28h.09A4.38,4.38,0,0,1,595.59,597.12Z"/></g><path class="cls-1" d="M220.82,127.62V108.75h3.1v18.87Zm1.28-7.78v-3h6.5a2,2,0,0,0,1.6-.71,2.86,2.86,0,0,0,.61-1.87,2.73,2.73,0,0,0-.61-1.86,2,2,0,0,0-1.6-.71h-6.5v-3h6.59a5.52,5.52,0,0,1,2.81.69,4.76,4.76,0,0,1,1.87,1.93,6.14,6.14,0,0,1,.67,2.92,6.05,6.05,0,0,1-.68,2.92,4.83,4.83,0,0,1-1.87,1.93,5.36,5.36,0,0,1-2.8.7Zm9,7.78-4.45-8.37,3.21-.59,5,9Z"/><path class="cls-1" d="M243,127.81a5.48,5.48,0,0,1-6-6v-1.51a6.63,6.63,0,0,1,1.51-4.66,5.54,5.54,0,0,1,4.28-1.65,4.74,4.74,0,0,1,4,1.92,8.85,8.85,0,0,1,1.42,5.38v.89h-9.14v-2.27h6.27l0-.15a3.81,3.81,0,0,0-.79-2.18,2.21,2.21,0,0,0-1.78-.79,2.72,2.72,0,0,0-2.15.88,3.6,3.6,0,0,0-.78,2.48v1.71A2.88,2.88,0,0,0,243,125a4,4,0,0,0,1.51-.29,4.37,4.37,0,0,0,1.34-.81l2,1.89a7.52,7.52,0,0,1-2.3,1.49A6.7,6.7,0,0,1,243,127.81Z"/><path class="cls-1" d="M255.58,127.81a5.12,5.12,0,0,1-3.47-1,4,4,0,0,1-1.16-3.14,3.71,3.71,0,0,1,1.17-3,5.28,5.28,0,0,1,3.5-1h3.6l.18,2.41h-3.77a2.1,2.1,0,0,0-1.38.39,1.45,1.45,0,0,0-.46,1.19,1.41,1.41,0,0,0,.6,1.25,3.19,3.19,0,0,0,1.8.41,5.78,5.78,0,0,0,2.19-.32,1.09,1.09,0,0,0,.73-1l.27,1.92a2.21,2.21,0,0,1-.79,1.09,3.87,3.87,0,0,1-1.34.63A6.88,6.88,0,0,1,255.58,127.81Zm3.53-.19v-8.53a2.31,2.31,0,0,0-.67-1.76,2.71,2.71,0,0,0-1.89-.62A5,5,0,0,0,255,117a4.33,4.33,0,0,0-1.35.7l-2.06-1.74a5.19,5.19,0,0,1,2.07-1.43,7.51,7.51,0,0,1,2.86-.52,5.71,5.71,0,0,1,4,1.31A4.79,4.79,0,0,1,262,119v8.65Z"/><path class="cls-1" d="M271.3,127.81a5.86,5.86,0,0,1-4.39-1.58,6,6,0,0,1-1.57-4.46v-1.83a6,6,0,0,1,1.56-4.41,5.9,5.9,0,0,1,4.4-1.57,7.38,7.38,0,0,1,2.92.56,4.92,4.92,0,0,1,2.08,1.6l-2.1,2a3.46,3.46,0,0,0-1.23-.86,3.86,3.86,0,0,0-1.5-.3,3.07,3.07,0,0,0-2.24.79,3,3,0,0,0-.79,2.22v1.83a3.13,3.13,0,0,0,.79,2.27,3,3,0,0,0,2.24.8,3.55,3.55,0,0,0,1.5-.32,3.49,3.49,0,0,0,1.23-.92l2.1,2.1a5,5,0,0,1-2.09,1.56A7.36,7.36,0,0,1,271.3,127.81Z"/><path class="cls-1" d="M277.92,116.87v-2.71h6.33v2.71Zm4.67,10.81a3.08,3.08,0,0,1-2.5-.92,4,4,0,0,1-.78-2.64V110.24h3.1v13.45a1.26,1.26,0,0,0,.2.75.66.66,0,0,0,.57.27h1.07v3Z"/></svg>