<svg xmlns="http://www.w3.org/2000/svg" viewBox="0 0 414.43 437.78"><defs><style>.cls-1{fill:#ebebeb;}.cls-2{fill:#dbdbdb;}.cls-3{fill:#263238;}.cls-4{fill:#d6808a;}.cls-5{fill:#ffc727;}.cls-6{fill:#fff;}.cls-10,.cls-7{isolation:isolate;}.cls-7,.cls-8{opacity:0.1;}.cls-9{fill:#f7a9a0;}.cls-10{opacity:0.06;}.cls-11{fill:#008f6b;}.cls-12{fill:#455a64;}.cls-13{fill:#ff383b;}</style></defs><g id="Layer_2" data-name="Layer 2"><g id="Layer_1-2" data-name="Layer 1"><g id="freepik--background-complete--inject-21"><rect class="cls-1" x="359.15" y="24.52" width="35.16" height="11.19"/><rect class="cls-1" x="117.16" y="157.04" width="35.16" height="11.19"/><path class="cls-1" d="M378.8,10.37,379,21.56l-.24-.23,8.79-.11c5.64-.08,20.53-.16,26.37-.16l-.5.5V10.37l.46.46h-8.71c-5.64-.07-20.61-.32-26.45-.42Zm0,0c5.79-.1,20.69-.35,26.29-.41h9.32V22.1h-.5L396.35,22c-4.38,0-13.19-.13-17.58-.19h-.24V21.6l.23-11.19Z"/><path class="cls-1" d="M279.31,251.44l.24,11.19-.24-.24,8.79-.11c5.64-.08,20.53-.15,26.37-.15l-.5.5V251.44l.46.45h-8.71c-5.64-.06-20.61-.31-26.45-.41Zm0,0c5.78-.1,20.69-.35,26.29-.41l8.87-.05h.45v12.15h-.5l-17.58-.07c-4.39,0-13.19-.19-17.58-.19H279v-.23l.24-11.19Z"/><path class="cls-1" d="M298.92,237.31l.24,11.19-.24-.24,8.79-.11c5.64-.08,20.53-.15,26.37-.15l-.5.5V237.31l.46.45h-8.71c-5.64-.06-20.61-.31-26.45-.41Zm0,0c5.79-.1,20.69-.35,26.29-.41h9.33V249H334L316.46,249c-4.38,0-13.19-.14-17.58-.19h-.24v-.23l.24-11.19Z"/><rect class="cls-1" x="318.41" y="251.46" width="35.16" height="11.19"/><rect class="cls-1" x="0.24" y="10.41" width="35.16" height="11.19"/><rect class="cls-1" x="19.85" y="355.96" width="35.16" height="11.19"/><path class="cls-1" d="M.28,341.81.52,353l-.24-.23,8.79-.11c5.64-.08,20.53-.16,26.37-.16l-.5.5V341.81l.46.46H26.69c-5.64-.07-20.61-.32-26.45-.42Zm0,0c5.78-.09,20.69-.35,26.29-.41h9.32v.45l0,11.19v.51h-.5l-17.58-.06c-4.39,0-13.19-.14-17.58-.2H0V353l.24-11.19Z"/><path class="cls-1" d="M359.19,355.92l.24,11.19-.24-.23c4.38-.06,13.2-.2,17.58-.2l17.58-.07-.5.5V355.92l.46.46H385.6c-5.64-.07-20.61-.32-26.45-.42Zm0,0c5.79-.09,20.69-.35,26.29-.41h9.32v12.17h-.5l-17.58-.06c-4.38,0-13.19-.14-17.58-.2h-.24v-.24l.24-11.19Z"/><path class="cls-1" d="M255,85.63A42.44,42.44,0,1,1,292.33,17.2l.05.06a9.83,9.83,0,0,1-1.57,13.81l-.07.06a10,10,0,0,1-14-1.75A22.35,22.35,0,0,0,256,21.06l-.55.08a22.62,22.62,0,1,0,6.82,44.72,10.2,10.2,0,0,1,11.17,8.43c0,.2,0,.2-.15.43,0,.2.26.17.26.37l2.91,20.8A9.92,9.92,0,0,1,268,107.06l-.46.07a9.67,9.67,0,0,1-10.72-8.5l-1.82-13Zm6.1,43.61a9.79,9.79,0,0,1,8.46-11,10,10,0,0,1,11.17,8.42l.5,3.6a9.9,9.9,0,0,1-8.42,11.17l-.5.07A9.65,9.65,0,0,1,261.65,133l-.51-3.6Z"/><path class="cls-1" d="M351.9,147.88a35.53,35.53,0,1,1,51.4-40.2v0a8.23,8.23,0,0,1-5.78,10.11l-.13,0a8.36,8.36,0,0,1-10.15-6,18.67,18.67,0,0,0-13.17-13.27c-.52-.16-1.05-.31-1.58-.43A18.94,18.94,0,1,0,364,135.05a8.52,8.52,0,0,1,5.79,10.18c-.05.17-.05.17-.26.28-.05.17.08.22.08.37l-4.67,17a8.28,8.28,0,0,1-10.18,5.78l-.39-.1a8.09,8.09,0,0,1-5.4-10.08l2.91-10.61Zm-9.82,35.69.06-.21a8.2,8.2,0,0,1,10.15-5.58A8.42,8.42,0,0,1,358.08,188l-.82,2.94a8.31,8.31,0,0,1-10.18,5.79l-.41-.11a8.09,8.09,0,0,1-5.41-10.08l.81-2.93Z"/><path class="cls-2" d="M300.19,195.59a26.34,26.34,0,1,1,26.73-40.31l0,0a6.08,6.08,0,0,1-1.7,8.45l-.09.06a6.17,6.17,0,0,1-8.54-1.86,13.89,13.89,0,0,0-12.38-6.25h0a14,14,0,1,0,1.49,28,6.32,6.32,0,0,1,6.45,5.81c0,.13-.13.13-.12.26s.15.12.15.24l.68,13a6.13,6.13,0,0,1-5.8,6.45l-.28,0a6,6,0,0,1-6.21-5.79l-.43-8.14Zm1.41,27.25a6.08,6.08,0,0,1,5.82-6.32,6.23,6.23,0,0,1,6.45,5.81l.12,2.25a6.13,6.13,0,0,1-5.8,6.46l-.29,0a6,6,0,0,1-6.17-5.83l-.12-2.25S301.6,222.89,301.6,222.84Z"/></g><g id="freepik--Table--inject-21"><polygon class="cls-3" points="359 403.46 308.36 403.55 207.08 403.72 105.8 403.55 55.16 403.46 4.52 403.22 55.16 402.98 105.8 402.89 207.08 402.72 308.36 402.89 359 402.98 409.64 403.22 359 403.46"/></g><g id="freepik--Character--inject-21"><path class="cls-4" d="M194.22,221.49C175.9,270,151.8,336.81,152.05,340c.31,4.25-69.93,78.15-83.69,53.68-12.35-22,50.48-132.27,100.94-185C181.78,195.66,212.54,173,194.22,221.49Z"/><path class="cls-5" d="M107.44,385.87c-29.11,20.4-51.4,20.74-38.62-22.76C82.08,318,141.94,232.34,169.45,206.56s36.69-17.35,27.34,10.48-42.18,115.87-44.26,123C152.53,340,131.28,369.16,107.44,385.87Z"/><path class="cls-6" d="M186.72,193.36l.76-.38a6.05,6.05,0,0,0,.86.82c2.77,2.17,6.62,1.84,9.77.84.39-.13.78-.27,1.16-.42a4,4,0,0,1,.31.71c-.2.09-.39.16-.58.23C195,196.64,189.54,196.74,186.72,193.36ZM189,204.89a39.11,39.11,0,0,1,9.64,6.1l.24-1c-5.45-4.68-13.23-7.47-19.53-10.24q-.66-.27-1.32-.6l-.77.61C181.08,201.56,185.14,203,189,204.89Zm-18.75,13.59c3.84,4.84,7.3,9.89,12.47,13.4a24.81,24.81,0,0,0,7.61,3.67c.1-.26.19-.52.28-.78a26.43,26.43,0,0,1-10.56-6c-5.47-4.85-9.59-12.49-15.34-17.49-.2.21-.41.42-.61.64a52.69,52.69,0,0,1,6.16,6.6Zm-29,20.59h0c5.81,7.56,15.54,12,24.81,14.07,5.56,1.27,11.31,1.75,16.9,2.89.11-.3.21-.6.32-.89-1.6-.32-3.2-.58-4.8-.82-13.24-2-28.33-4.71-36.65-16ZM130.5,335.65c-4.47,1.11-8.49,4.46-8.22,9.39.37,6.12,6.35,9.84,11.44,11.84l3.69,1.44.74-.83c-4.27-1.61-8.68-3-11.91-6.38-2.31-2.45-3.77-5.9-2.47-9.21,1-2.54,3.45-4.17,6-5,7.81-2.54,14.34,1.81,21.12,5.3l.57-.74c-1.68-.87-3.35-1.8-5-2.68-5-2.66-10.23-4.56-16-3.13Zm19.9-61c5,7.07,11.08,14.72,18.6,19.71.12-.31.23-.61.34-.92-8.78-5.83-15.47-15.3-21.17-23.71-3.78-5.58-7.42-11.27-11.48-16.66-1-1.3-2-2.59-3.06-3.85l-.57.77c2,2.37,3.83,4.9,5.57,7.37,4,5.7,7.78,11.61,11.78,17.3Zm-2,15c-.88-5.75-5.53-10.19-10.32-13-5.57-3.3-12.5-4.76-19-6.85l-.55.81c3.23,1,6.53,1.89,9.73,2.89,6.25,2,12.86,5,16.68,10.58,3.62,5.27,3.31,12.16-1.49,16.64a8.11,8.11,0,0,1-8,2.15c-3.29-1.05-5.43-4-7.21-6.79-3.46-5.45-6.9-10.76-12.55-14.2a22.18,22.18,0,0,0-3.56-1.75l-.57.87a22.14,22.14,0,0,1,5.56,3,32.6,32.6,0,0,1,7.43,7.85c1.75,2.56,3.12,5.34,5.12,7.76,3.31,4.1,8.52,6.07,13.18,2.87a13.63,13.63,0,0,0,5.6-12.81ZM94.83,308c4.6,5.7,11.51,10,17.84,12.5a36.88,36.88,0,0,0,18.52,2.5,26.48,26.48,0,0,0,9-2.91,46.22,46.22,0,0,0,7.92-6c2.6-2.25,5.34-4.52,8.66-5.63a17.55,17.55,0,0,1,7.34-.76c.13-.31.25-.65.38-1a19.16,19.16,0,0,0-5.4.11c-6.3,1-10.55,5.78-15.3,9.6a27.05,27.05,0,0,1-19.28,5.77,42.18,42.18,0,0,1-19.6-6.88,39.52,39.52,0,0,1-9.5-8.32Zm.52,85.39a27.09,27.09,0,0,0-5.36,1,45.06,45.06,0,0,0-9.71,4.56,28.44,28.44,0,0,0,3.53-.76,32.3,32.3,0,0,1,8.8-3.42c.9-.4,1.82-.9,2.75-1.4Zm-5-77.53c9.46,2,18.39,9.54,20.15,18.56,1.37,7.54-3.27,14.08-6,20.72A36.41,36.41,0,0,0,102,373a32.65,32.65,0,0,0,4.58,13.51l.78-.54a32.78,32.78,0,0,1-4.64-18,35.61,35.61,0,0,1,1.63-9.65,87.59,87.59,0,0,1,4.33-9.94c2.62-5.76,4.1-11.69,1.62-17.76-3.14-7.69-11-13.73-19.46-15.54l-.44.78ZM68.26,365.07a2.63,2.63,0,0,0-.17.76,56.26,56.26,0,0,0,7.56,1.94c5.15.8,11.35,0,12.35-6.15.81-4.86-1.75-10.1-5.19-13.4-1.92-1.84-4.16-3.49-6.29-5.24-.13.28-.26.56-.37.84,4.23,3.51,8.71,6.69,10.42,12.23.78,2.54,1,5.57-.4,7.93-2,3.27-6.1,3.42-9.5,3a50,50,0,0,1-8.37-1.93Z"/><path class="cls-7" d="M199.57,194.89c1.6,4.23.67,11.86-2.78,22.15-9.34,27.83-42.19,115.87-44.26,123,0,0-21.25,29.13-45.09,45.83Z"/><path class="cls-5" d="M192.16,189.84c7.93-13,42.32-14.4,51.15-5.8C309.16,248.14,349,403,349,403H154.15C153.61,402.35,162.45,238.41,192.16,189.84Z"/><path class="cls-6" d="M164.89,307.82a16.62,16.62,0,0,0-2.23-.18,7.84,7.84,0,0,0,.14-1.07c8.68.27,17.44,6.25,19.68,14.84,2.91,11-6.23,22.59-17.09,24.28a16.88,16.88,0,0,1-7-.42l.09-1a16.15,16.15,0,0,0,7.57.25c12.21-2.56,20.54-17.38,12.88-28.26A21,21,0,0,0,164.89,307.82Zm163.75,95.24h1c2.44-9.21,4-20.54,11.62-26.83-.1-.34-.2-.67-.31-1l-.3.25C332.66,382.28,331.24,393.41,328.64,403.06Zm-7.42-84.45-.36-.91c-5.64.81-11.37,1.47-17,.25-6.36-1.38-11.7-5.51-13.22-12.06a10.74,10.74,0,0,1,1.1-8.18c1.8-2.82,5-4.23,8.19-4.67a42.66,42.66,0,0,1,11,.37l-.42-1c-2.23-.25-4.47-.47-6.74-.52-5.24-.13-11.1,1.25-13.5,6.46-2.07,4.5-.61,9.92,2.19,13.77,3.62,5,9.67,7,15.62,7.36A65.7,65.7,0,0,0,321.22,318.61Zm-21.5,73.77c-5.27,1-9.43,5.55-10.8,10.62v.05H290a13.57,13.57,0,0,1,6.6-8.55c3.26-1.77,6.55-1.36,10.06-.68,2.79.53,5.78,1.05,8.42-.32,4.15-2.14,4.62-7.38,3.7-11.46-1.25-5.52-5.29-10-9.41-13.7-4.66-4.16-10-7.47-15.08-11-10.14-7-28.45-26.66-18.63-32.27,11.83-6.76,21.92,15.29,32.16,23.77,7.78,6.45,18.13,12.41,28.6,12.23l-.3-.89c-10.36.15-21-5.88-28.2-12.54-8.19-7.55-22.18-31.62-33.07-23.37-11.68,8.86,12.79,29.77,22.89,36.6,5.47,3.69,11,7.48,15.3,12.55,3.52,4.18,6.82,10.39,4.52,15.95-3.06,7.42-12.18,2-17.86,3ZM228.43,269c-12.56,7-11.07,23.45-4.79,34.22,5.87,10.21,15.59,17.39,24.87,24.28,10.55,7.83,21,15.78,27.6,27.39,6.88,12.05,10,26.93,7.44,40.67a36.93,36.93,0,0,1-2.18,7.51h1.26c3.33-8.17,3.34-18.07,2.13-26.3A63.47,63.47,0,0,0,267,341.25c-8.62-8.65-19.15-15-28.47-22.82-9.68-8.13-19.18-19.28-18.68-32.75.27-7.37,4.42-14.53,11.67-17,6.77-2.31,13,1.25,17.09,6.57s6,11.73,8.85,17.73c2.51,5.26,6.53,11.77,12.7,13.11,5.25,1.15,8.63-3.26,9.25-8,.68-5.27-1.71-10.41-4.59-14.67-6.31-9.29-16.82-16.35-20-27.52-.95-3.37-1.41-7.83,2.22-9.74,2.61-1.37,6-.94,8.61.12,6.26,2.53,10.67,8.38,13.84,14.09,1.58,2.84,2.88,5.77,4.22,8.77,1.16,2.54,2.67,5.08,5.48,6,4.43,1.44,8.59-1.22,11.37-4.63-.13-.29-.27-.58-.41-.87A12.19,12.19,0,0,1,294,274.2c-3.78,1.16-6.91-.49-8.73-3.89-1.57-2.9-2.72-6.05-4.27-9a49.73,49.73,0,0,0-5-7.83c-3.42-4.32-8.27-8.45-13.95-9a9,9,0,0,0-6.52,1.56c-2.19,1.79-2.58,4.68-2.19,7.35.79,5.4,3.73,10.2,7.08,14.4,3.61,4.53,7.79,8.56,11.37,13.11,3.46,4.38,6.92,9.86,6.73,15.66-.13,2.71-.92,5.78-3.13,7.52-3.39,2.67-7.74.49-10.5-2-5.1-4.57-7.48-11.4-10.1-17.57-2.35-5.52-5.42-11.24-10.42-14.78a14.82,14.82,0,0,0-16-.79ZM196,332.54c-.44,7.06,2,13.94,5.2,20.22,6.11,11.79,15.68,22,19.35,35a36,36,0,0,1,.88,15.31h1a36.5,36.5,0,0,0-.44-13.54c-1.43-6.38-4.48-12.24-7.88-17.78-7.13-11.65-17.53-23.8-17.13-38.27.14-7,3.85-14,10.46-16.82s13.27.64,17.08,6.22c4.33,6.34,4.57,14.11,4.18,21.53-.41,7.71-.9,15.28.15,23a81.32,81.32,0,0,0,5.91,21.27A69,69,0,0,0,242.8,403h1.36c-1.08-1.48-2.13-3-3.08-4.48a80.27,80.27,0,0,1-12-43.59c.16-8,1.6-16.18-.13-24.13-1.19-5.47-4.3-10.92-9.11-14a14,14,0,0,0-15.51.23,19.68,19.68,0,0,0-8.43,15.46Zm-29.05,44c-6.25,7.45-7.67,17-9.13,26.45h.95c.48-3.14,1-6.14,1.59-9.14,1.42-6.73,3.81-13.67,8.91-18.53,4.71-4.48,12-6.46,17.9-3,7,4,6,12.57,3,18.81-2.07,4.31-5.12,8-7.84,11.91h1.13c1.45-2,3-3.95,4.31-5.95,3.45-5.05,6.78-11.59,5.45-17.89-1.16-5.45-5.9-8.92-11.3-9.45-5.89-.58-11.28,2.37-15,6.81Zm81.9-184a32.31,32.31,0,0,0,3.35.87L250.94,192a42.67,42.67,0,0,1-13.12-6,38.62,38.62,0,0,1-7.82-7l-1.62-.18C233.46,185.42,241.48,190.17,248.81,192.53ZM227,206.62c-1.63,3.07-4.73,5-7.09,7.26-7.31,6.91-8.69,19.67-2.25,27.61,6.28,7.7,18.42,6.79,24.85-.3,3.49-3.86,4-8.51,2.86-13.44-1.3-5.46-5.26-15.22,2.63-17.71,5.42-1.71,11.85,2.29,14.85,6.62,3.52,5.1,5.08,11.3,8.72,16.3,3.09,4.27,7.55,7,12.89,7h.26l-.55-1c-.41,0-.82-.06-1.24-.06-6.61-.6-10.67-5.85-13.45-11.38-2.6-5.18-4.48-11.13-9.13-14.9-3.48-2.83-8.75-5.06-13.2-3.27-5.55,2.22-5.36,8.58-4.09,13.43.8,3.26,2.09,6.58,2,10a11.81,11.81,0,0,1-2.59,7,17.2,17.2,0,0,1-13.76,6.31,14.37,14.37,0,0,1-12.7-8.92,21,21,0,0,1,.17-16.56,20.51,20.51,0,0,1,5.51-7.18c2.25-2,4.88-3.9,6.25-6.7,3.9-8.07-3-19.52-12-19.64-6.81-.08-11.69,5.55-17.81,7.55-2.72.91-6,1.23-8.59-.09-.11.22-.23.45-.34.69,2.92,1.37,6.76,1,9.82-.08,6-2.19,11.46-8.25,18.35-7.13,5.32.85,9.38,5.77,10.5,10.85a11.26,11.26,0,0,1-.87,7.74Zm-21.36,16.56c-.57-11.24-10.39-16.51-19.77-20.58-.11.26-.22.51-.31.77q1.74.74,3.45,1.53c6.13,2.88,12.5,7,14.82,13.69,2.06,5.93.68,13.53-5.83,16-6.32,2.4-13.34-1.71-17.95-5.8-.76-.68-1.5-1.41-2.21-2.17l-.24.86a32.38,32.38,0,0,0,5.12,4.45c4.38,3,10.24,5.48,15.55,3.48C203.34,233.48,205.88,228.36,205.62,223.18Zm-40.69,68.08a35.31,35.31,0,0,0,15.25,7.87c6,1.28,12.24,0,16.67-4.45s6.9-11.28,7.69-17.46A17.31,17.31,0,0,0,197.65,261c-5.5-4.3-12.43-5.7-19.18-6.7-2.27-.34-4.6-.71-6.94-1.13-.06.36-.12.68-.19,1,5.68.93,11.48,1.51,17,3.25,6.44,2,13.06,6.34,14.88,13.24,1.12,4.11.23,8.42-1,12.42a29.56,29.56,0,0,1-4.36,9c-4.54,6.09-11.79,7.83-18.94,5.83a36.25,36.25,0,0,1-13.84-7.65A4.73,4.73,0,0,1,164.93,291.26Z"/><path class="cls-4" d="M138.13,330.75c4.24-.39,62,1.47,76.85,2.78,11.76,1-12.09,78.17-23.09,77.76-79.77-2.93-107.71-4.22-121.71-18.72C60.7,382.74,102.34,334.1,138.13,330.75Z"/><path class="cls-4" d="M162.24,408.48c14,6.11,34.34,12.27,65.34-1.43,0,0,32.8,37.61,44.94,29.61,11-7.18-22.17-40.12-22.17-40.12s32.81,42.8,43.81,36.23c14.5-8.68-24.32-46.68-24.32-46.68s33.5,49.15,45.92,38.76-26.18-46.5-26.18-46.5,31.16,40.56,39.61,30.38c9.37-11.29-23.08-49.29-39.63-60.29-7.93-5.27-27.54-16.67-51.17-18.6-17.65-1.45-49.08,5.55-49.08,5.55S158.86,407,162.24,408.48Z"/><path class="cls-3" d="M276.85,365.19c4.3,4.48,8.37,9.16,12.68,13.64S309,399.59,316.41,412c.31.53-3.77-8.42-13.27-20.35-3.88-4.89-8-9.52-12.34-14S281.72,369.08,277,365A.13.13,0,0,0,276.85,365.19Z"/><path class="cls-3" d="M260.45,380.4C266,386,271.2,392,276.59,397.75s10.77,10.78,16.09,16.63c.4.45.79.39.4-.07-5.1-6.06-9.79-11.92-15.31-17.64s-11.44-10.94-17.2-16.4C260.48,380.19,260.34,380.31,260.45,380.4Z"/><path class="cls-3" d="M243.81,391.11c10,10.4,16.18,17.65,24.12,26.81.4.5.9.48.53,0-7.38-9.59-15.15-19.19-24.38-27.09C243.89,390.66,243.65,391,243.81,391.11Z"/><path class="cls-5" d="M141.64,330.59c-39.83.7-82.06,54.11-73.58,64.63,12.86,16,81.86,22.35,81.86,22.35l55.86-86.2Z"/><path class="cls-6" d="M196.12,331.3h1a20.2,20.2,0,0,0-.18,2.19,31.86,31.86,0,0,0,1.26,9.61l-.67,1A31.91,31.91,0,0,1,196,332.54,10,10,0,0,1,196.12,331.3ZM181,369.69c-5.53-.21-10.53,2.68-14,6.87-6.92,8.25-7.92,19.1-9.53,29.51l1.24-1.92c.53-3.47,1-6.92,1.75-10.25,1.42-6.73,3.81-13.67,8.91-18.53a16.9,16.9,0,0,1,11.07-4.76l.6-.92Zm-76.52-14.52A36.42,36.42,0,0,0,101.91,373c1.32,12,8.92,22.59,20.85,25.75,10.54,2.79,22.9-.73,27.83-11.08,4.18-8.77,2.69-20.8-5.54-26.72-5.8-4.17-13.74-4.47-18.8-9.81-2.31-2.45-3.77-5.9-2.47-9.21,1-2.54,3.45-4.17,6-5,13.07-4.21,22.62,10.79,35.62,8.79a21.81,21.81,0,0,0,16.76-14.61H181a20.58,20.58,0,0,1-14.9,13.45c-7.22,1.52-13.49-2.51-19.6-5.74-5-2.66-10.23-4.56-15.95-3.13-4.47,1.11-8.49,4.43-8.2,9.43.37,6.12,6.35,9.84,11.44,11.84,6.18,2.45,12.38,4.36,15.73,10.57a22,22,0,0,1,1.67,15.94c-3.31,12.53-16.72,17.64-28.54,14.31-13.14-3.7-20.35-16.61-19.95-29.78a35.61,35.61,0,0,1,1.63-9.65,87.59,87.59,0,0,1,4.33-9.94,31,31,0,0,0,2.67-8.36l-.93.55c-1,5.1-3.91,9.83-5.91,14.62ZM78.87,368.06c4.21,0,8.3-1.58,9.14-6.4A12,12,0,0,0,88,358l-.87.87a8.17,8.17,0,0,1-1,5.17c-1.44,2.34-4,3.07-6.53,3.14l-.73.9Zm-2.69,33.22,1.09.55c5.48-3.05,10.77-6.63,17.15-7.37,5.09-.59,11.51.31,14.39,5.11,2.23,3.73,1.4,7.82.4,11.92l.84.16a39.31,39.31,0,0,0,1-4.58c.67-5.22-1.39-10-6.25-12.22-4.56-2.11-10.1-1.86-14.82-.46C85.08,395.84,80.72,398.77,76.18,401.28Z"/><path class="cls-3" d="M97.18,350.28c7.62-5.11,23.6-17.9,58.21-19.46.26,0,.21-.34,0-.34C123.78,330.86,117,333.68,97,350,96.77,350.17,97,350.4,97.18,350.28Z"/><path class="cls-3" d="M129.92,408.14q5.66-7.72,11-15.71c6.31-9.41,12.54-18.91,18.65-28.41s12.23-19,17.85-28.83c.09-.15-.16-.28-.26-.15-3.77,5.15-7.37,10.44-11,15.72-6.42,9.31-12.56,18.83-18.77,28.31s-12.37,19-18,28.79C129.22,408.14,129.69,408.39,129.92,408.14Z"/><path class="cls-7" d="M135.79,331.08l3.59-.39c.76-.05,1.52-.1,2.27-.1l64.16.78-24.47,37.75-46-38h0Z"/><path class="cls-4" d="M225.59,227.08c-18.28,51.9-21.25,99.61-21.45,105.33-.06,1.67-6.52,79.85,19.26,76.33,38.82-5.31,51.62-79,43.43-171.42C263.17,196,245.7,170,225.59,227.08Z"/><path class="cls-5" d="M225.59,227.08c-18.28,51.9-31.31,111.86-31.52,117.58-.06,1.67,3.55,67.6,29.33,64.08,38.82-5.31,51.62-79,43.43-171.42C263.17,196,245.7,170,225.59,227.08Z"/><path class="cls-3" d="M223.35,233.65c-8.43,31.1-21.81,75-28.58,106,3-18.07,8-35.72,12.8-53.39,5-17.6,10.13-35.19,15.78-52.6Z"/><path class="cls-3" d="M217.51,253.37c-1.18-5.06-.22-10.39,1.06-15.39C218.3,243,217.36,248.3,217.51,253.37Z"/><path class="cls-6" d="M247.84,210.11c-7.89,2.49-3.93,12.25-2.63,17.71,1.14,4.93.63,9.58-2.86,13.44-5.69,6.27-15.85,7.73-22.46,2.63.1-.32.2-.63.31-.94a13.62,13.62,0,0,0,8.4,3.18,17.2,17.2,0,0,0,13.76-6.31,11.81,11.81,0,0,0,2.59-7c.14-3.42-1.15-6.74-2-10-1.27-4.85-1.46-11.21,4.09-13.43,4.45-1.79,9.72.44,13.2,3.27a18.28,18.28,0,0,1,3.1,3.3q.35,1.35.66,2.73c-.4-.69-.81-1.35-1.26-2C259.75,212.36,253.31,208.36,247.84,210.11Zm12.59,57.7c2.72,3.42,5.77,6.55,8.64,9.84v-1.34c-5.64-6.26-11.9-12.24-14.23-20.42-1-3.37-1.41-7.83,2.22-9.74,2.61-1.37,6-.94,8.61.12a17.45,17.45,0,0,1,2,.95c0-.35-.08-.7-.08-1.05a15,15,0,0,0-5.51-1.69,9,9,0,0,0-6.53,1.59c-2.19,1.79-2.58,4.68-2.19,7.35C254.15,258.83,257.08,263.62,260.43,267.81Zm-36.86,35.38c5.88,10.21,15.59,17.39,25,24.22a160.42,160.42,0,0,1,17,14c.08-.46.15-.93.22-1.4-8.37-8-18.33-14.15-27.2-21.58-9.68-8.13-19.18-19.28-18.68-32.75.27-7.37,4.42-14.53,11.67-17,6.77-2.31,13,1.25,17.09,6.57s6,11.73,8.85,17.73c2.33,4.88,6,10.84,11.41,12.74a7.45,7.45,0,0,0,.05-1.06,14,14,0,0,1-4-2.57c-5.1-4.57-7.48-11.4-10.1-17.57-2.35-5.52-5.42-11.24-10.42-14.78a14.82,14.82,0,0,0-16-.79c-12.56,7-11.07,23.45-4.86,34.24Zm-3.07,84.57a36.53,36.53,0,0,1-.49,21.07,4.72,4.72,0,0,0,1,.07c.11-.36.23-.72.33-1.08a36.8,36.8,0,0,0,.61-18.29c-1.43-6.38-4.48-12.24-7.88-17.78-7.13-11.65-17.53-23.8-17.13-38.27.14-7,3.85-14,10.46-16.82s13.27.64,17.08,6.22c4.33,6.34,4.57,14.11,4.18,21.53-.41,7.71-.9,15.28.15,23a81.32,81.32,0,0,0,5.91,21.27,72.45,72.45,0,0,0,6.21,11.71c.28-.25.56-.5.83-.76-.23-.36-.46-.71-.68-1.07A80.3,80.3,0,0,1,229.16,355c.16-8,1.6-16.18-.13-24.13-1.19-5.47-4.3-10.92-9.11-14a14,14,0,0,0-15.51.23,18.29,18.29,0,0,0-6.45,7.57,21.62,21.62,0,0,0-2,7.89c-.05.51-.05,1-.05,1.51,0,6.53,2.23,12.89,5.23,18.64C207.25,364.48,216.82,374.72,220.5,387.76Z"/><path class="cls-3" d="M268.62,250c1.05,39.82,2.05,98.07-15,134-7.72,16.1-22,29.15-41,24.94-15.51-4.49-36.62-35.84-45.77-49.49-3.07-4.74-6.12-9.51-9-14.39h0l2.27-2.15L158,345.11c9.14,13.85,19,28.1,29.87,40.94,5.46,6.36,11.17,12.65,18,17.54,4.56,3.53,9.76,4.63,15.4,4.29,36-2.8,42.63-62.1,45-90.23,1.87-22.48,2.45-45.08,2.34-67.65Z"/><path class="cls-3" d="M268.81,268.28c.46-4.28,1.16-8.41,1.64-12.69A27.18,27.18,0,0,1,268.81,268.28Z"/><path class="cls-5" d="M163.4,199.91c-6.51-15.09,6.49-28.08,29.49-33.32,23.93-5.46,59.66-7,76.59,6.74,18.48,14.92,16.86,36.92,12.11,45.92-1.93,3.63-7.68,1.53-7.68,1.53l-17.19-16.3c-20.85-1.44-54.12,29-54.12,29S169.91,215,163.4,199.91Z"/><path class="cls-7" d="M256.72,179.57c-12-12.23-27-14.16-49.39-8.49-14.44,3.65-36.94,13.49-34.61,24.65s27.83,30.69,27.83,30.69S268.73,191.8,256.72,179.57Z"/><path class="cls-4" d="M184.16,192.1v-.55a20,20,0,0,0,0-3.28c-1.4-13.8-8-29.86-8-29.86s48.14-19,48.31-17.37c.85,7.91,2.4,16.46,4,24.11,2.61,12.6,5.24,22.89,4.81,23.89-6.31,15.25-24.39,35.16-36.31,33.66C185.35,221.24,183.81,198.37,184.16,192.1Z"/><path class="cls-3" d="M223.16,141.12c-7.92,1.87-47,17.3-47,17.3s6.61,16.06,8,29.84a18,18,0,0,1,0,3.28v.55a28.16,28.16,0,0,0,5.11-.28C218.46,188,222.5,150.42,223.16,141.12Z"/><path class="cls-4" d="M181.93,65.47c-16,6.9-44.08,68.53-35.65,92.32,8.66,24.53,38.15,29.8,59.66,17.8,14.84-8.25,35.51-55.91,34.26-74.36C238.35,74,205.54,55.3,181.93,65.47Z"/><path class="cls-3" d="M184.44,131.06c.1.06.18-.09.1-.17-2.45-2.31-1.29-6.19.19-9.37.06-.13,0-.5-.13-.39C182.69,123.9,181.08,129,184.44,131.06Z"/><path class="cls-3" d="M185.27,129.69c4.95,1.69,9-8.86,3.64-10.69C184.43,117.48,180.32,128,185.27,129.69Z"/><path class="cls-3" d="M158,120.27a.1.1,0,0,1,0-.19c3.39,0,5.25-3.55,6.39-6.86,0-.19.36-.33.36-.19C164.17,116.34,161.73,121.14,158,120.27Z"/><path class="cls-3" d="M158.26,118.68c-4.73-2.2-.28-12.61,4.82-10.2C167.39,110.48,163,120.88,158.26,118.68Z"/><path class="cls-3" d="M196.52,115.85a8.7,8.7,0,0,0-4.8-4c-2-.77-4.23-1.13-6,.28a2.39,2.39,0,0,0-.55,2.86c1,1.56,2.36,2,4,2.65a41.05,41.05,0,0,0,4.28,1.78C195.45,120,197.61,117.83,196.52,115.85Z"/><path class="cls-3" d="M161.9,95.19A8.77,8.77,0,0,1,168.06,94c2.11.3,4.23,1.06,5.11,3.15a2.4,2.4,0,0,1-.92,2.77c-1.63.87-3,.55-4.8.37a42.22,42.22,0,0,1-4.61-.52C160.8,99.33,160,96.35,161.9,95.19Z"/><path class="cls-3" d="M176.44,151.75c-.88,1.21-2.1,2.21-3.68,1.91a4.71,4.71,0,0,1-3.47-3.37.11.11,0,0,1,0-.13.12.12,0,0,1,.17,0,9.22,9.22,0,0,0,3.2,2.17c1.22.35,2.41-.4,3.48-.87A.19.19,0,0,1,176.44,151.75Z"/><path class="cls-3" d="M174.76,144.94c-4-5.52-11.41-6.11-11.41-6.11.31-1.16,4.06-8,3.74-8.22-1.29-.54-4.1-.45-5.8-.45,4.42-10.26,10.43-19.73,14.66-30a.33.33,0,0,0-.12-.44.34.34,0,0,0-.44.12c-7,9.44-12.37,21.12-17.19,31.62-.58,1.27,4.86,1,6,.89l-2.89,6.82h0c-.08.38,0,1.26.33,1.46,3.57.89,9.07,2.43,12.57,5.68C175.84,147.86,175.82,146.34,174.76,144.94Z"/><path class="cls-3" d="M242.19,109.19c.87-10.6-1-36.43-33.85-45.43-36-10-44.73,24-44.73,24,4.06-7,13.28-20.94,20.06-18.37,3.08,1.17.51,11.17,4.78,13.25s15-2.83,21.69-2.36,14.24,5.83,15.2,14-6.42,27.74-6.28,33,2.45,18.46,10.51,19.2C229.57,146.48,240.54,129.4,242.19,109.19Z"/><path class="cls-1" d="M178,141.25a14.9,14.9,0,0,1-5.32-20.36h0a14.88,14.88,0,1,1,8.72,21.82A14.6,14.6,0,0,1,178,141.25Zm-3.58-19.41a12.85,12.85,0,1,0,17.6-4.55,12.85,12.85,0,0,0-17.6,4.55Z"/><path class="cls-1" d="M149,129c-5.63-2.35-7.63-10.43-4.46-18a17.79,17.79,0,0,1,6.93-8.37c3-1.85,6.25-2.24,9-1.06a9.9,9.9,0,0,1,5.58,7.2A17.74,17.74,0,0,1,165,119.57c-3,7.16-9.53,11.33-15,9.75A5.84,5.84,0,0,1,149,129Zm3.55-24.67a15.8,15.8,0,0,0-6.12,7.44c-2.75,6.56-1.24,13.46,3.39,15.41s10.61-1.82,13.37-8.37a15.83,15.83,0,0,0,1-9.58,7.92,7.92,0,0,0-4.41-5.82c-.24-.09-.48-.18-.72-.25A8.23,8.23,0,0,0,152.57,104.32Z"/><path class="cls-1" d="M165.06,118.76l-.81-1.81c4.82-2.19,8.65,2.19,10,4.81l-1.77.91C172.35,122.48,169.38,116.8,165.06,118.76Z"/><path class="cls-1" d="M228.38,141.9c-2.75-1.72-22.42-8.07-29.75-10.36l.6-1.9c1.08.34,26.63,8.36,30.2,10.58,3.82,2.38,4.58,10.56,4.65,11.48l-2,.16C231.94,149.62,230.92,143.48,228.38,141.9Z"/><path class="cls-4" d="M210.53,153.21s1.1,8.64,10.44,7.62,23.71-22.1,17.41-27.94-21.53,7.34-21.53,7.34Z"/><path class="cls-3" d="M215.3,154.32l-.08.13c-.36.56.53,1.09.95.63a26.54,26.54,0,0,1,4-4c2.15-1.54,4-1.52,6.34-.37.16.08.37-.13.25-.28-2.43-2.87-5.16-2.27-7.5-.51,3.66-5.19,8.22-9.94,14.82-10.85h0a.12.12,0,0,0,.12-.12.12.12,0,0,0-.12-.12C225.74,137.48,217.08,146.69,215.3,154.32Z"/><path class="cls-5" d="M202.6,233.48c34.88-29.6,54.12-29,54.12-29l3.52-24.17c-32.4,3.25-59.69,46.11-59.69,46.11Z"/><path class="cls-3" d="M256.52,204.23a29.4,29.4,0,0,0-4.49.33c-1.48.25-3,.45-4.43.81a70.61,70.61,0,0,0-16.89,6.2,111.13,111.13,0,0,0-15.29,9.4c-2.33,1.83-4.69,3.67-7,5.56l-6.7,5.95,1.54-.2c-2.94-1.51-5.84-3.2-8.73-4.87s-5.75-3.41-8.53-5.26c-5.53-3.74-11-7.63-15.62-12.55a51.5,51.5,0,0,0,6.77,7.53,82.2,82.2,0,0,0,7.82,6.48,146.92,146.92,0,0,0,17,11.07l.8.44.75-.65,6.69-5.75,6.93-5.43a134.36,134.36,0,0,1,14.77-9.49,77.26,77.26,0,0,1,16.1-6.87c5.6-1.56,11.51-2.67,17.39-1.74A26.62,26.62,0,0,0,256.52,204.23Z"/><path class="cls-3" d="M265.82,212.09a88.56,88.56,0,0,0-9.1-7.63,98.18,98.18,0,0,0,17.19,16.32A89.78,89.78,0,0,0,265.82,212.09Z"/><path class="cls-5" d="M210.88,217.59c-.22,8.11,2.58,18.09-.9,31.57-3.44,13.26-17.77,28.65-9.93,30.26s12.8-23.7,13.27-30.84a178.87,178.87,0,0,0-.42-30.7Z"/><g class="cls-8"><path d="M210.88,217.59c-.22,8.11,2.58,18.09-.9,31.57-3.44,13.26-17.77,28.65-9.93,30.26s12.8-23.7,13.27-30.84a178.87,178.87,0,0,0-.42-30.7Z"/></g><path class="cls-5" d="M188,219.41c-1.91,7.07-6.91,15.07-7.32,27.69-.42,12.44,8.09,29.48.86,28.87s-5-23.9-3.61-30.23a161.69,161.69,0,0,1,8.24-26.59Z"/><g class="cls-8"><path d="M188,219.41c-1.91,7.07-6.91,15.07-7.32,27.69-.42,12.44,8.09,29.48.86,28.87s-5-23.9-3.61-30.23a161.69,161.69,0,0,1,8.24-26.59Z"/></g><path class="cls-4" d="M247.69,372c.65-30-19.48-78.69-29.76-115.9-3.23-11.6-84.21,30.57-80,41,22.1,54.79,57,102.73,78.25,106C230.89,405.4,247.16,395.37,247.69,372Z"/><path class="cls-9" d="M211.33,248.55c3.6-20-4.83-42-4.12-53,1.11-17.12,4.65-21,2.26-24.81s-16,1.06-20.59,11.48-5.42,28.1-10.58,34.42S209.52,258.58,211.33,248.55Z"/><path class="cls-4" d="M211.33,248.55c3.6-20-4.83-42-4.12-53,1.11-17.12,4.65-21,2.26-24.81s-16,1.06-20.59,11.48-5.42,28.1-10.58,34.42S209.52,258.58,211.33,248.55Z"/><path class="cls-10" d="M211.33,248.55c3.6-20-4.83-42-4.12-53,1.11-17.12,4.65-21,2.26-24.81s-16,1.06-20.59,11.48-5.42,28.1-10.58,34.42S209.52,258.58,211.33,248.55Z"/><path class="cls-4" d="M195.72,193.39c10.51,10.14,23.78,69.37,23.78,69.37l-77.45,39.4c-4.94-6.92-13.56-20.86-20.43-32.09-6.4-10.49-19.62-24.82-15.4-36.77,2.46-7,9.24-10.2,9.24-10.2s-1.18-12.41,4.75-16.55c5.71-4,12.76-3.56,12.76-3.56s-2.86-11.9,3.7-15.55C142.4,184.24,149,186,149,186s-18.14-16.41-10.91-23.15C149.08,152.56,186.83,184.85,195.72,193.39Z"/><path class="cls-3" d="M148.84,186a.33.33,0,0,0,0,.46c9.68,9,21.75,16.16,31.08,25.57a.22.22,0,0,0,.33,0,.24.24,0,0,0,0-.33c-9.46-9.35-19.4-18.93-31-25.75A.33.33,0,0,0,148.84,186Z"/><path class="cls-3" d="M133.24,202.58a.47.47,0,0,0,0,.66c1.58,2.6,4,4.71,6.07,6.88q3.39,3.45,6.72,7c4.46,4.72,8.77,9.57,13,14.48.2.23.51-.1.33-.33q-6-7.71-12.35-15.11c-2.11-2.46-4.27-4.9-6.47-7.29-2-2.22-4.07-4.69-6.65-6.31A.47.47,0,0,0,133.24,202.58Z"/><path class="cls-3" d="M115.48,223.29a.16.16,0,0,0-.1.2c.86,2.41,3.15,4.58,4.81,6.47q2.9,3.34,5.89,6.64c4,4.49,8.14,8.88,12.2,13.33.2.22.53-.11.33-.33-4-4.4-7.8-8.93-11.62-13.46q-2.86-3.39-5.69-6.84c-1.69-2-3.39-4.68-5.69-6A.2.2,0,0,0,115.48,223.29Z"/><path class="cls-3" d="M156.35,164.49c10.82,4.67,20.36,11.92,29.66,19.07a100.87,100.87,0,0,1,9.94,8.87c5,5.56,7.38,13,9.38,20-1.12-2.68-2.25-5.39-3.58-8-1.94-3.85-3.94-7.78-7-10.85a128,128,0,0,0-9.91-8.54c-9.24-7.18-25-18.74-38.15-24.18Z"/><path class="cls-5" d="M254.18,350.28c1.53,44.93-18.78,57-37.47,58.3s-58.77-63.51-58.77-63.51l76.65-67.33S253.81,339,254.18,350.28Z"/><path class="cls-6" d="M223.61,303.13a35.83,35.83,0,0,1-4.27-12l.76-.67c1.55,11.38,9.9,20.86,18.43,28,3.38,2.84,6.93,5.48,10.48,8.11.14.55.29,1.09.43,1.63l-1-.72C239.16,320.58,229.45,313.4,223.61,303.13Zm-19.22,13.95A19.67,19.67,0,0,0,196,332.61c-.44,7.06,2,14,5.18,20.15,6.11,11.79,15.68,22,19.35,35a36.49,36.49,0,0,1-.3,20.48l1.07-.17a1.83,1.83,0,0,0,.08-.25,36.8,36.8,0,0,0,.61-18.29c-1.43-6.38-4.48-12.24-7.88-17.78-7.13-11.65-17.53-23.8-17.13-38.27.14-7,3.84-14.05,10.45-16.83s13.27.64,17.08,6.22c4.33,6.34,4.57,14.11,4.18,21.53-.41,7.71-.9,15.28.15,23a81.32,81.32,0,0,0,5.91,21.27A77.92,77.92,0,0,0,240,399c.28-.26.56-.53.83-.81A80.23,80.23,0,0,1,229.14,355c.16-8,1.6-16.18-.13-24.13-1.19-5.47-4.3-10.92-9.11-14a14,14,0,0,0-15.51.23Zm-22.46,52.67a15.39,15.39,0,0,0-6.66.85c.21.27.4.54.6.81a13.73,13.73,0,0,1,11.31.92c6.52,3.76,6.09,11.54,3.52,17.64.24.27.49.54.72.81,1.67-3.67,2.63-7.67,1.81-11.57-1.16-5.45-5.9-8.92-11.3-9.45Zm-24-24.72.05.09a17.35,17.35,0,0,0,7.41.53c10.28-1.6,19-12,17.45-22.5l-1,.91c.79,9.14-6.33,18.42-15.77,20.42a16.26,16.26,0,0,1-7.31-.13Z"/><path class="cls-3" d="M235.8,305.59a.25.25,0,0,1,0,.35c-3.57,4.21-7.54,8.13-11.35,12.13-6.75,7.06-13.68,13.95-20.68,20.79q-5.24,5.13-10.52,10.22c-1.8,1.73-3.67,3.51-5.45,5.13s-3.76,3-5.5,4.68a.15.15,0,0,1-.2,0,.18.18,0,0,1,0-.25c2-2.05,3.82-4.51,5.66-6.46s3.71-3.86,5.58-5.77Q203.58,336,214,325.68q5.24-5.15,10.59-10.16c3.56-3.34,7.06-6.8,10.81-9.93A.25.25,0,0,1,235.8,305.59Z"/><path class="cls-3" d="M225.92,285.37l8.5-7.83.29-.26c3,7.82,5.75,15.71,8.36,23.66,4.58,14.75,9.5,29.56,11.67,44.91a86.06,86.06,0,0,1-2.1,27.75,113.46,113.46,0,0,0-.08-27.5q-2-10.52-5-20.8c-4.36-15.83-9-31.59-13.22-47.47l.43.12-8.86,7.42Z"/></g><g id="freepik--Plant--inject-21"><path class="cls-11" d="M5.13,308c-.85,9.59-1.47,21,3.15,29.85,4.53,8.56,13,10.51,21.61,12.88a133,133,0,0,1,5.8,17.83c.08.33.58.22.58-.11-3.33-22.27-17-42.88-30.12-60.64C5.89,307.48,5.19,307.48,5.13,308Z"/><path class="cls-3" d="M29.34,350.81c-.71-1.25-1.39-2.5-2.08-3.75-.42-.18-.82-.39-1.23-.6-.06,0,0-.1.06-.1.36.18.73.36,1.09.56Q25,343,22.85,339c-5.31-3.63-9.77-8.95-13.86-13.85-.08-.13,0-.23.13-.13,4.12,4.64,8.87,8.59,13.22,13-4.67-8.58-9.46-17-15.75-24.76a.06.06,0,0,1,0-.1.07.07,0,0,1,.1,0c9.61,10.87,17.17,24.14,23.06,37.36C29.89,350.81,29.5,351.05,29.34,350.81Z"/><path class="cls-3" d="M25.19,346.17a52.88,52.88,0,0,1-10-6.85c-.09-.12,0-.19.12-.12a77.72,77.72,0,0,0,10.07,6.72C25.54,346,25.4,346.25,25.19,346.17Z"/><path class="cls-11" d="M36.64,312.79a122.34,122.34,0,0,0-5.22-21.5c-1.47-4.23-7-17.06-8.74-17.52-3.3-.9-6.28,25-5.51,32.83a52.3,52.3,0,0,0,6.07,20.23,38.79,38.79,0,0,0,5.23,7.29c2.81,3,6.84,5.13,8.72,8.92.12,7.37.05,14.74.12,22.07,0,.26.48.27.48,0C39.08,347.74,39.32,330,36.64,312.79Z"/><path class="cls-3" d="M37.91,333.55a.19.19,0,0,1-.07.26c.08.84.08,1.69.08,2.54,0,.15-.34.2-.34,0-.14-1-.27-1.86-.4-2.86-7.32-5-12.09-12.31-15.09-20.54h.06c3.08,7.94,8.53,14.38,14.92,19.84-.52-3.55-1-7.13-1.52-10.72-.14-.24-.29-.47-.42-.71,0-.08.06-.14.11-.08l.24.27c-1-7.09-2.28-14.16-4-21.09a.06.06,0,0,1-.06,0,12.68,12.68,0,0,1-1.56-2.2c-.14-.19.18-.38.32-.19.35.52.75,1,1.09,1.52a102.2,102.2,0,0,0-7.68-21.09c-.09-.15.15-.31.24-.15,5,8.65,7.46,17.78,9.57,27.48,2,9,4,18.37,4.44,27.65h0Z"/><path class="cls-3" d="M34.6,320.21c-5.7-6.43-9.93-14.55-12.93-22.55,0-.06.16-.15.16-.06,3.55,8,8.11,15.13,13,22.42C34.93,320.17,34.7,320.34,34.6,320.21Z"/><path class="cls-3" d="M28,296a55.5,55.5,0,0,1-5.89-10.81c-.05-.09.09-.19.15-.09,1.9,3.65,4.06,7.14,6.06,10.72C28.45,296,28.16,296.16,28,296Z"/><path class="cls-3" d="M29.08,297.42v-.07C29.17,297.35,29.08,297.42,29.08,297.42Z"/><path class="cls-11" d="M52.66,330.57A56,56,0,0,0,60.12,316c3.23-9.62,4.55-21.13.76-30.78l-.05-.07a.68.68,0,0,0-.95-.14c-9.4,10.1-14.36,23-16.63,36.51a106.61,106.61,0,0,0-1.6,21.84h0a.5.5,0,0,0,0,.5,68.58,68.58,0,0,0,2.59,16.11c.07-.58.15-1.06.22-1.58a74.66,74.66,0,0,1-1.71-14.45C45.37,338.94,49.48,335.11,52.66,330.57Z"/><path class="cls-3" d="M58.92,289.45a.2.2,0,0,1,.16.23,114.68,114.68,0,0,0-7.28,15.21c.62-.67,1.28-1.31,1.88-2,1.51-1.73,2.79-3.6,4.12-5.47a.08.08,0,0,1,.08,0s.06.06,0,.09c-1.65,3.3-4.19,5.6-6.45,8.3a127.47,127.47,0,0,0-4.66,14.79l.21-.23c.16-.19.51,0,.27.26s-.47.55-.71.83q-1.29,5.49-2.29,11.15a122.53,122.53,0,0,0,9.82-10.68c.06-.08.13,0,.13.09-2.64,4.42-6.42,8.14-10.11,11.67h0c-.24,1.51-.48,3-.69,4.56,0,.31-.53.23-.53-.07.75-17.08,7-34.22,15.86-48.68A.2.2,0,0,1,58.92,289.45Z"/><path class="cls-3" d="M57.16,307.43c-2.49,4-5.4,8.38-8.84,11.61-.1.09-.27,0-.19-.14,2.68-4,6-7.71,8.84-11.58C57.08,307.2,57.24,307.31,57.16,307.43Z"/><path class="cls-3" d="M47.86,319.93l-.12.12c-.13.08-.22-.05-.13-.13l.12-.13C47.81,319.71,48,319.84,47.86,319.93Z"/><path class="cls-11" d="M72.63,316.8a.76.76,0,0,0-1-.26C56,326.87,43.79,343,41.6,361.8l.33,1.13a66.28,66.28,0,0,1,3.6-12.79c3.41-1.34,6.87-3.22,10.17-4.86a23.17,23.17,0,0,0,7.63-5.95c4.77-5.73,8.68-14.61,9.4-22.05A.75.75,0,0,0,72.63,316.8Z"/><path class="cls-3" d="M62.9,327.05a13.69,13.69,0,0,1,2.77-1.36.11.11,0,0,1,.11.05.09.09,0,0,1,0,.13c-1.17.72-2.4,1.36-3.61,2a92.36,92.36,0,0,0-7,8.18,104.07,104.07,0,0,0,9.94-5.31h0a.1.1,0,1,1,.07.18,41.23,41.23,0,0,1-10.69,6q-2.13,2.88-4.13,6a47.71,47.71,0,0,0,4.52-1.79A21.4,21.4,0,0,0,59.39,338c.1-.06.17,0,.1.1-2.64,2.38-6,4.89-9.57,5.56h0c-.75,1.22-1.49,2.45-2.21,3.72-.15.26-.5,0-.39-.22a63.68,63.68,0,0,1,19.86-24.48.13.13,0,0,1,.16.2C65.79,324.21,64.34,325.62,62.9,327.05Z"/><path class="cls-3" d="M67.08,329.48a4.29,4.29,0,0,1-.59.39c-.08,0-.14-.1-.08-.1a6.51,6.51,0,0,1,.6-.43C67.08,329.27,67.22,329.48,67.08,329.48Z"/><polygon class="cls-12" points="20.72 364.82 21.47 356.24 55.78 356.24 56.54 364.82 59.99 403.72 17.27 403.72 20.72 364.82"/><polygon class="cls-3" points="21.47 356.24 55.78 356.24 56.54 364.82 20.72 364.82 21.47 356.24"/><rect class="cls-12" x="19.43" y="350.24" width="38.39" height="8.49"/></g><g id="freepik--speech-bubble--inject-21"><path class="cls-6" d="M101.15,99.15a10.48,10.48,0,1,1,9.55,11.35,10.48,10.48,0,0,1-9.55-11.35Z"/><path class="cls-3" d="M120,93l.08.09a10.85,10.85,0,0,1-1.41,15.28c-7.28,6-18.37.07-17.47-9.25C101.86,89.81,113.81,85.9,120,93Zm-18.79,6.12c-.77,9.12,10.06,14.6,16.92,8.6a10.26,10.26,0,0,0,1.21-14.17c-5.73-7.1-17.33-3.56-18.14,5.57Z"/><path class="cls-6" d="M135.24,104.73a5.83,5.83,0,1,1-6.31,5.31A5.84,5.84,0,0,1,135.24,104.73Z"/><path class="cls-3" d="M128.93,110a6.09,6.09,0,1,1,5.57,6.6,6.12,6.12,0,0,1-5.57-6.6Zm11.12,1c.42-7.39-10.24-8.37-11.12-1C128.53,117.49,139.2,118.36,140.05,111Z"/><path class="cls-6" d="M12.69,44.07A16.79,16.79,0,0,1,30.43,16.82a25.69,25.69,0,0,1,44.09-7A30.61,30.61,0,0,1,115.74,54.1,20.83,20.83,0,0,1,96.17,86.74,18.36,18.36,0,0,1,92.74,86a25.14,25.14,0,0,1-4.85,4.87,25.66,25.66,0,0,1-36-4.78A30.61,30.61,0,0,1,9.6,54.21,30.13,30.13,0,0,1,12.69,44.07Z"/><path class="cls-3" d="M9.59,54.21a29.26,29.26,0,0,1,3.07-10.12A16.88,16.88,0,0,1,26.38,15.88a15.43,15.43,0,0,1,4.09.79l-.19.09c7-18.71,32-22.72,44.47-7.13l-.41-.07A30.89,30.89,0,0,1,95.17,4.38c24,2.64,36,31.07,20.91,50v-.54c10.13,14.47-1,34.41-18.62,33.32a19.17,19.17,0,0,1-4.81-.83l.34-.11a25.55,25.55,0,0,1-4.9,4.9,25.92,25.92,0,0,1-36.34-4.9l.21.06A30.74,30.74,0,0,1,9.6,54.21Zm0,0A30.56,30.56,0,0,0,51.82,86l.12-.06L52,86a25.06,25.06,0,0,0,5,4.92,25.44,25.44,0,0,0,35.59-5.26,18.37,18.37,0,0,0,4.88.85c17,1,27.66-18.26,17.86-32.15l-.19-.27.21-.27c14.49-18.46,3.08-46-20.28-48.71a30.15,30.15,0,0,0-20.4,5l-.24.16-.17-.22C62-5.39,37.39-1.37,30.52,17.06a16.72,16.72,0,0,0-17.8,27A30.24,30.24,0,0,0,9.6,54.21Z"/></g><g id="freepik--Symbol--inject-21"><path class="cls-13" d="M61.87,52.54a13.69,13.69,0,1,1,13.82-21c.06.08.11.17.16.25A3.2,3.2,0,1,1,70.34,35a7.2,7.2,0,0,0-6.44-3.23l-.45,0a7.3,7.3,0,1,0,1.27,14.54,3.27,3.27,0,0,1,3.36,3c0,.1-.11.06-.1.13s.08.06.08.13l.38,6.76a3.19,3.19,0,0,1-3,3.36h-.17a3.1,3.1,0,0,1-3.19-3l-.25-4.23Zm.76,14.15a3.15,3.15,0,0,1,3-3.29,3.23,3.23,0,0,1,3.36,3l.07,1.17a3.21,3.21,0,0,1-3,3.37h-.15a3.11,3.11,0,0,1-3.21-3l-.07-1.17Z"/></g></g></g></svg>