<?xml version="1.0" encoding="utf-8"?>
<!-- Generator: Adobe Illustrator 26.0.1, SVG Export Plug-In . SVG Version: 6.00 Build 0)  -->
<svg version="1.1" id="Layer_1" xmlns="http://www.w3.org/2000/svg" xmlns:xlink="http://www.w3.org/1999/xlink" x="0px" y="0px"
	 viewBox="0 0 414.4 437.8" style="enable-background:new 0 0 414.4 437.8;" xml:space="preserve">
<style type="text/css">
	.st0{fill:#EBEBEB;}
	.st1{fill:#DBDBDB;}
	.st2{fill:#263238;}
	.st3{fill:#D6808A;}
	.st4{fill:#FFC727;}
	.st5{fill:#FFFFFF;}
	.st6{opacity:0.1;enable-background:new    ;}
	.st7{opacity:0.1;}
	.st8{fill:#F7A9A0;}
	.st9{opacity:6.000000e-02;enable-background:new    ;}
	.st10{fill:#008F6B;}
	.st11{fill:#455A64;}
	.st12{fill:#FF383B;}
</style>
<g id="Layer_2_00000043429431526990405690000008444951120024043426_">
	<g id="Layer_1-2">
		<g id="freepik--background-complete--inject-21">
			<rect x="359.1" y="24.5" class="st0" width="35.2" height="11.2"/>
			<rect x="117.2" y="157" class="st0" width="35.2" height="11.2"/>
			<path class="st0" d="M378.8,10.4l0.2,11.2l-0.2-0.2l8.8-0.1c5.6-0.1,20.5-0.2,26.4-0.2l-0.5,0.5V10.4l0.5,0.5h-8.7
				C399.5,10.8,384.6,10.5,378.8,10.4L378.8,10.4z M378.8,10.4c5.8-0.1,20.7-0.4,26.3-0.4h9.3v12.1h-0.5L396.4,22
				c-4.4,0-13.2-0.1-17.6-0.2h-0.2v-0.2L378.8,10.4L378.8,10.4z"/>
			<path class="st0" d="M279.3,251.4l0.2,11.2l-0.2-0.2l8.8-0.1c5.6-0.1,20.5-0.1,26.4-0.1l-0.5,0.5v-11.2l0.5,0.4h-8.7
				C300.1,251.8,285.1,251.6,279.3,251.4L279.3,251.4z M279.3,251.4c5.8-0.1,20.7-0.4,26.3-0.4l8.9-0.1h0.5v12.2h-0.5l-17.6-0.1
				c-4.4,0-13.2-0.2-17.6-0.2H279v-0.2L279.3,251.4L279.3,251.4z"/>
			<path class="st0" d="M298.9,237.3l0.2,11.2l-0.2-0.2l8.8-0.1c5.6-0.1,20.5-0.1,26.4-0.1l-0.5,0.5v-11.2l0.5,0.4h-8.7
				C319.7,237.7,304.7,237.4,298.9,237.3L298.9,237.3z M298.9,237.3c5.8-0.1,20.7-0.4,26.3-0.4h9.3V249H334h-17.5
				c-4.4,0-13.2-0.1-17.6-0.2h-0.2v-0.2L298.9,237.3L298.9,237.3z"/>
			<rect x="318.4" y="251.5" class="st0" width="35.2" height="11.2"/>
			<rect x="0.2" y="10.4" class="st0" width="35.2" height="11.2"/>
			<rect x="19.9" y="356" class="st0" width="35.2" height="11.2"/>
			<path class="st0" d="M0.3,341.8L0.5,353l-0.2-0.2l8.8-0.1c5.6-0.1,20.5-0.2,26.4-0.2l-0.5,0.5v-11.2l0.5,0.5h-8.7
				C21.1,342.2,6.1,341.9,0.3,341.8L0.3,341.8z M0.3,341.8c5.8-0.1,20.7-0.4,26.3-0.4h9.3v0.5V353v0.5h-0.5l-17.6-0.1
				c-4.4,0-13.2-0.1-17.6-0.2H0V353L0.3,341.8L0.3,341.8z"/>
			<path class="st0" d="M359.2,355.9l0.2,11.2l-0.2-0.2c4.4-0.1,13.2-0.2,17.6-0.2l17.6-0.1l-0.5,0.5v-11.2l0.5,0.5h-8.7
				C380,356.3,365,356.1,359.2,355.9L359.2,355.9z M359.2,355.9c5.8-0.1,20.7-0.4,26.3-0.4h9.3v12.2h-0.5l-17.6-0.1
				c-4.4,0-13.2-0.1-17.6-0.2h-0.2v-0.2L359.2,355.9L359.2,355.9z"/>
			<path class="st0" d="M373.4,141.8C373.4,141.8,373.4,141.8,373.4,141.8c1.6,5.1-1.1,10.5-6.2,12.2l-0.4,0.1
				c-5.2,1.6-10.8-1.4-12.3-6.6l-6-20.1c-0.1-0.2,0.2-0.3,0.1-0.4c-0.2-0.1-0.2-0.1-0.3-0.3c-1.4-5.2,1.5-10.6,6.7-12.3
				c0.2,0,0.3-0.1,0.5-0.1c12-3.6,18.8-16.1,15.3-28.1c-3.6-12-16.1-18.8-28.1-15.3l-0.5,0.2c-7.7,2.3-13.5,8.4-15.4,16.2
				c-1.3,5.4-6.7,8.7-12,7.4l-0.1,0c-5.3-1.3-8.5-6.6-7.2-11.9l0-0.1c2.7-11.3,10-21.1,20.1-26.9c20.3-11.7,46.3-4.6,57.9,15.7
				s4.6,46.3-15.7,57.9L373.4,141.8z M382.3,171.6l1,3.5c1.6,5.1-1.1,10.5-6.2,12.2l-0.5,0.1c-5.2,1.5-10.7-1.4-12.3-6.7l-1-3.5
				c-1.5-5.2,1.5-10.7,6.7-12.3c0,0,0,0,0,0c5.2-1.6,10.6,1.3,12.2,6.5L382.3,171.6z"/>
			<path class="st0" d="M266.1,75.9l2.9,10.6c1.3,4.3-1.1,8.8-5.4,10.1l-0.4,0.1c-4.4,1.2-9-1.4-10.2-5.8l-4.7-17
				c0-0.1,0.1-0.2,0.1-0.4c-0.2-0.1-0.2-0.1-0.3-0.3c-1.1-4.4,1.5-8.9,5.8-10.2c10.2-2.3,16.6-12.5,14.2-22.7
				c-2.3-10.2-12.5-16.6-22.7-14.2c-0.5,0.1-1.1,0.3-1.6,0.4c-6.4,1.7-11.5,6.8-13.2,13.3c-1.2,4.5-5.7,7.1-10.1,6h-0.1c0,0,0,0,0,0
				c-4.4-1.2-7-5.7-5.8-10.1l0,0c2.5-9.5,8.8-17.5,17.3-22.2c17.2-9.4,38.8-3.1,48.2,14.1C289.6,45,283.3,66.5,266.1,75.9
				L266.1,75.9z M275.9,111.7l0.8,2.9c1.3,4.3-1.1,8.8-5.4,10.1l-0.4,0.1c-4.4,1.2-9-1.4-10.2-5.8l-0.8-2.9
				c-1.2-4.4,1.4-8.9,5.8-10.2c4.3-1.3,8.9,1.2,10.1,5.6L275.9,111.7L275.9,111.7z"/>
			<path class="st1" d="M319.9,195.5l-0.4,8.1c0,0,0,0,0,0c-0.1,3.3-2.9,5.9-6.2,5.8H313c0,0,0,0,0,0c-3.4-0.2-6-3.1-5.8-6.4l0.7-13
				c0-0.1,0.1-0.1,0.1-0.2s-0.1-0.1-0.1-0.3c0.3-3.3,3.1-5.9,6.5-5.8c7.7,0.4,14.3-5.5,14.7-13.3s-5.5-14.3-13.3-14.7l0,0
				c-4.9-0.3-9.7,2.1-12.4,6.2c0,0,0,0,0,0c-1.8,2.9-5.7,3.7-8.5,1.8l-0.1-0.1c0,0,0,0,0,0c-2.8-1.9-3.5-5.6-1.7-8.4l0,0
				c4-6.1,10.3-10.3,17.4-11.5c14.3-2.6,28,6.9,30.6,21.3C343.7,179.3,334.2,193,319.9,195.5L319.9,195.5z M318.5,223l-0.1,2.2
				c0,0,0,0,0,0c-0.1,3.3-2.9,5.9-6.2,5.8h-0.3c0,0,0,0,0,0c-3.4-0.2-6-3.1-5.8-6.5l0.1-2.2c0.2-3.4,3.1-5.9,6.5-5.8
				c3.4,0.1,6,3,5.8,6.3C318.5,222.9,318.5,223,318.5,223z"/>
		</g>
		<g id="freepik--Table--inject-21">
			<polygon class="st2" points="359,403.5 308.4,403.5 207.1,403.7 105.8,403.5 55.2,403.5 4.5,403.2 55.2,403 105.8,402.9 
				207.1,402.7 308.4,402.9 359,403 409.6,403.2 			"/>
		</g>
		<g id="freepik--Character--inject-21">
			<path class="st3" d="M194.2,221.5C175.9,270,151.8,336.8,152.1,340c0.3,4.2-69.9,78.1-83.7,53.7c-12.3-22,50.5-132.3,100.9-185
				C181.8,195.7,212.5,173,194.2,221.5z"/>
			<path class="st4" d="M107.4,385.9c-29.1,20.4-51.4,20.7-38.6-22.8c13.3-45.1,73.1-130.8,100.6-156.5s36.7-17.4,27.3,10.5
				s-42.2,115.9-44.3,123C152.5,340,131.3,369.2,107.4,385.9z"/>
			<path class="st5" d="M186.7,193.4l0.8-0.4c0.3,0.3,0.5,0.6,0.9,0.8c2.8,2.2,6.6,1.8,9.8,0.8c0.4-0.1,0.8-0.3,1.2-0.4
				c0.1,0.2,0.2,0.5,0.3,0.7c-0.2,0.1-0.4,0.2-0.6,0.2C195,196.6,189.5,196.7,186.7,193.4z M189,204.9c3.5,1.6,6.7,3.6,9.6,6.1
				l0.2-1c-5.4-4.7-13.2-7.5-19.5-10.2c-0.4-0.2-0.9-0.4-1.3-0.6l-0.8,0.6C181.1,201.6,185.1,203,189,204.9z M170.2,218.5
				c3.8,4.8,7.3,9.9,12.5,13.4c2.3,1.6,4.9,2.9,7.6,3.7c0.1-0.3,0.2-0.5,0.3-0.8c-3.9-1.2-7.6-3.2-10.6-6
				c-5.5-4.9-9.6-12.5-15.3-17.5c-0.2,0.2-0.4,0.4-0.6,0.6C166.3,213.9,168.4,216.1,170.2,218.5L170.2,218.5z M141.2,239.1
				L141.2,239.1c5.8,7.6,15.5,12,24.8,14.1c5.6,1.3,11.3,1.8,16.9,2.9c0.1-0.3,0.2-0.6,0.3-0.9c-1.6-0.3-3.2-0.6-4.8-0.8
				c-13.2-2-28.3-4.7-36.7-16L141.2,239.1z M130.5,335.6c-4.5,1.1-8.5,4.5-8.2,9.4c0.4,6.1,6.4,9.8,11.4,11.8l3.7,1.4l0.7-0.8
				c-4.3-1.6-8.7-3-11.9-6.4c-2.3-2.5-3.8-5.9-2.5-9.2c1-2.5,3.4-4.2,6-5c7.8-2.5,14.3,1.8,21.1,5.3l0.6-0.7c-1.7-0.9-3.4-1.8-5-2.7
				C141.5,336.1,136.2,334.2,130.5,335.6L130.5,335.6z M150.4,274.6c5,7.1,11.1,14.7,18.6,19.7c0.1-0.3,0.2-0.6,0.3-0.9
				c-8.8-5.8-15.5-15.3-21.2-23.7c-3.8-5.6-7.4-11.3-11.5-16.7c-1-1.3-2-2.6-3.1-3.9l-0.6,0.8c2,2.4,3.8,4.9,5.6,7.4
				C142.6,263.1,146.4,269,150.4,274.6L150.4,274.6z M148.4,289.6c-0.9-5.8-5.5-10.2-10.3-13c-5.6-3.3-12.5-4.8-19-6.9l-0.6,0.8
				c3.2,1,6.5,1.9,9.7,2.9c6.2,2,12.9,5,16.7,10.6c3.6,5.3,3.3,12.2-1.5,16.6c-2.1,2.1-5.1,3-8,2.1c-3.3-1-5.4-4-7.2-6.8
				c-3.5-5.5-6.9-10.8-12.6-14.2c-1.1-0.7-2.3-1.3-3.6-1.8l-0.6,0.9c2,0.7,3.9,1.7,5.6,3c2.9,2.2,5.4,4.8,7.4,7.9
				c1.8,2.6,3.1,5.3,5.1,7.8c3.3,4.1,8.5,6.1,13.2,2.9C146.9,299.6,149.1,294.6,148.4,289.6L148.4,289.6z M94.8,308
				c4.6,5.7,11.5,10,17.8,12.5c5.9,2.4,12.2,3.3,18.5,2.5c3.2-0.4,6.2-1.4,9-2.9c2.8-1.7,5.5-3.7,7.9-6c2.6-2.2,5.3-4.5,8.7-5.6
				c2.4-0.8,4.9-1,7.3-0.8c0.1-0.3,0.2-0.6,0.4-1c-1.8-0.2-3.6-0.2-5.4,0.1c-6.3,1-10.6,5.8-15.3,9.6c-5.4,4.3-12.4,6.4-19.3,5.8
				c-7-0.6-13.7-3-19.6-6.9c-3.6-2.2-6.8-5.1-9.5-8.3L94.8,308z M95.3,393.4c-1.8,0.2-3.6,0.5-5.4,1c-3.4,1.1-6.7,2.7-9.7,4.6
				c1.2-0.2,2.4-0.4,3.5-0.8c2.7-1.6,5.7-2.7,8.8-3.4C93.5,394.4,94.4,393.9,95.3,393.4L95.3,393.4z M90.3,315.9
				c9.5,2,18.4,9.5,20.2,18.6c1.4,7.5-3.3,14.1-6,20.7c-2.3,5.6-3.2,11.8-2.5,17.9c0.5,4.8,2.1,9.4,4.6,13.5l0.8-0.5
				c-3.3-5.4-4.9-11.7-4.6-18c0.1-3.3,0.6-6.5,1.6-9.6c1.2-3.4,2.7-6.7,4.3-9.9c2.6-5.8,4.1-11.7,1.6-17.8
				c-3.1-7.7-11-13.7-19.5-15.5L90.3,315.9L90.3,315.9z M68.3,365.1c-0.1,0.2-0.2,0.5-0.2,0.8c2.5,0.8,5,1.5,7.6,1.9
				c5.2,0.8,11.3,0,12.3-6.1c0.8-4.9-1.8-10.1-5.2-13.4c-1.9-1.8-4.2-3.5-6.3-5.2c-0.1,0.3-0.3,0.6-0.4,0.8
				c4.2,3.5,8.7,6.7,10.4,12.2c0.8,2.5,1,5.6-0.4,7.9c-2,3.3-6.1,3.4-9.5,3C73.8,366.6,71,365.9,68.3,365.1L68.3,365.1z"/>
			<path class="st6" d="M199.6,194.9c1.6,4.2,0.7,11.9-2.8,22.1c-9.3,27.8-42.2,115.9-44.3,123c0,0-21.2,29.1-45.1,45.8L199.6,194.9
				z"/>
			<path class="st4" d="M192.2,189.8c7.9-13,42.3-14.4,51.1-5.8C309.2,248.1,349,403,349,403H154.1
				C153.6,402.4,162.4,238.4,192.2,189.8z"/>
			<path class="st5" d="M164.9,307.8c-0.7-0.1-1.5-0.2-2.2-0.2c0.1-0.4,0.1-0.7,0.1-1.1c8.7,0.3,17.4,6.2,19.7,14.8
				c2.9,11-6.2,22.6-17.1,24.3c-2.3,0.4-4.7,0.2-7-0.4l0.1-1c2.5,0.7,5.1,0.8,7.6,0.2c12.2-2.6,20.5-17.4,12.9-28.3
				C175.6,311.7,170.5,308.6,164.9,307.8z M328.6,403.1h1c2.4-9.2,4-20.5,11.6-26.8c-0.1-0.3-0.2-0.7-0.3-1l-0.3,0.2
				C332.7,382.3,331.2,393.4,328.6,403.1z M321.2,318.6l-0.4-0.9c-5.6,0.8-11.4,1.5-17,0.2c-6.4-1.4-11.7-5.5-13.2-12.1
				c-0.7-2.8-0.3-5.7,1.1-8.2c1.8-2.8,5-4.2,8.2-4.7c3.7-0.4,7.4-0.2,11,0.4l-0.4-1c-2.2-0.2-4.5-0.5-6.7-0.5
				c-5.2-0.1-11.1,1.2-13.5,6.5c-2.1,4.5-0.6,9.9,2.2,13.8c3.6,5,9.7,7,15.6,7.4C312.5,319.6,316.9,319.3,321.2,318.6z M299.7,392.4
				c-5.3,1-9.4,5.5-10.8,10.6v0h1.1c0.9-3.6,3.3-6.7,6.6-8.5c3.3-1.8,6.5-1.4,10.1-0.7c2.8,0.5,5.8,1,8.4-0.3
				c4.1-2.1,4.6-7.4,3.7-11.5c-1.2-5.5-5.3-10-9.4-13.7c-4.7-4.2-10-7.5-15.1-11c-10.1-7-28.5-26.7-18.6-32.3
				c11.8-6.8,21.9,15.3,32.2,23.8c7.8,6.5,18.1,12.4,28.6,12.2l-0.3-0.9c-10.4,0.1-21-5.9-28.2-12.5c-8.2-7.5-22.2-31.6-33.1-23.4
				c-11.7,8.9,12.8,29.8,22.9,36.6c5.5,3.7,11,7.5,15.3,12.5c3.5,4.2,6.8,10.4,4.5,16C314.5,396.8,305.4,391.4,299.7,392.4
				L299.7,392.4z M228.4,269c-12.6,7-11.1,23.5-4.8,34.2c5.9,10.2,15.6,17.4,24.9,24.3c10.6,7.8,21,15.8,27.6,27.4
				c6.9,12,10,26.9,7.4,40.7c-0.5,2.6-1.2,5.1-2.2,7.5h1.3c3.3-8.2,3.3-18.1,2.1-26.3c-2-13.4-8.2-25.9-17.8-35.5
				c-8.6-8.6-19.1-15-28.5-22.8c-9.7-8.1-19.2-19.3-18.7-32.8c0.3-7.4,4.4-14.5,11.7-17c6.8-2.3,13,1.2,17.1,6.6s6,11.7,8.8,17.7
				c2.5,5.3,6.5,11.8,12.7,13.1c5.2,1.1,8.6-3.3,9.2-8c0.7-5.3-1.7-10.4-4.6-14.7c-6.3-9.3-16.8-16.4-20-27.5
				c-0.9-3.4-1.4-7.8,2.2-9.7c2.6-1.4,6-0.9,8.6,0.1c6.3,2.5,10.7,8.4,13.8,14.1c1.6,2.8,2.9,5.8,4.2,8.8c1.2,2.5,2.7,5.1,5.5,6
				c4.4,1.4,8.6-1.2,11.4-4.6c-0.1-0.3-0.3-0.6-0.4-0.9c-1.5,2.1-3.7,3.7-6.1,4.6c-3.8,1.2-6.9-0.5-8.7-3.9c-1.6-2.9-2.7-6-4.3-9
				c-1.4-2.8-3.1-5.4-5-7.8c-3.4-4.3-8.3-8.4-14-9c-2.3-0.3-4.6,0.2-6.5,1.6c-2.2,1.8-2.6,4.7-2.2,7.4c0.8,5.4,3.7,10.2,7.1,14.4
				c3.6,4.5,7.8,8.6,11.4,13.1c3.5,4.4,6.9,9.9,6.7,15.7c-0.1,2.7-0.9,5.8-3.1,7.5c-3.4,2.7-7.7,0.5-10.5-2
				c-5.1-4.6-7.5-11.4-10.1-17.6c-2.4-5.5-5.4-11.2-10.4-14.8C239.7,266.4,233.4,266,228.4,269L228.4,269z M196,332.5
				c-0.4,7.1,2,13.9,5.2,20.2c6.1,11.8,15.7,22,19.4,35c1.4,5,1.7,10.2,0.9,15.3h1c0.7-4.5,0.6-9.1-0.4-13.5
				c-1.4-6.4-4.5-12.2-7.9-17.8c-7.1-11.6-17.5-23.8-17.1-38.3c0.1-7,3.9-14,10.5-16.8s13.3,0.6,17.1,6.2c4.3,6.3,4.6,14.1,4.2,21.5
				c-0.4,7.7-0.9,15.3,0.1,23c1,7.3,3,14.5,5.9,21.3c2.1,5.1,4.8,9.9,8,14.3h1.4c-1.1-1.5-2.1-3-3.1-4.5
				c-8.1-13.1-12.3-28.2-12-43.6c0.2-8,1.6-16.2-0.1-24.1c-1.2-5.5-4.3-10.9-9.1-14c-4.7-3.1-10.9-3-15.5,0.2
				c-5.1,3.5-8.2,9.3-8.4,15.5L196,332.5z M166.9,376.5c-6.2,7.5-7.7,17-9.1,26.5h0.9c0.5-3.1,1-6.1,1.6-9.1
				c1.4-6.7,3.8-13.7,8.9-18.5c4.7-4.5,12-6.5,17.9-3c7,4,6,12.6,3,18.8c-2.1,4.3-5.1,8-7.8,11.9h1.1c1.4-2,3-4,4.3-6
				c3.4-5,6.8-11.6,5.4-17.9c-1.2-5.5-5.9-8.9-11.3-9.5C176,369.2,170.6,372.1,166.9,376.5L166.9,376.5z M248.9,192.5
				c1.1,0.3,2.2,0.6,3.4,0.9l-1.3-1.4c-4.7-1.2-9.1-3.3-13.1-6c-2.9-2-5.5-4.3-7.8-7l-1.6-0.2C233.5,185.4,241.5,190.2,248.9,192.5
				L248.9,192.5z M227,206.6c-1.6,3.1-4.7,5-7.1,7.3c-7.3,6.9-8.7,19.7-2.2,27.6c6.3,7.7,18.4,6.8,24.9-0.3c3.5-3.9,4-8.5,2.9-13.4
				c-1.3-5.5-5.3-15.2,2.6-17.7c5.4-1.7,11.8,2.3,14.8,6.6c3.5,5.1,5.1,11.3,8.7,16.3c3.1,4.3,7.5,7,12.9,7h0.3l-0.5-1
				c-0.4,0-0.8-0.1-1.2-0.1c-6.6-0.6-10.7-5.9-13.5-11.4c-2.6-5.2-4.5-11.1-9.1-14.9c-3.5-2.8-8.8-5.1-13.2-3.3
				c-5.6,2.2-5.4,8.6-4.1,13.4c0.8,3.3,2.1,6.6,2,10c-0.1,2.6-1,5-2.6,7c-3.4,4.1-8.4,6.4-13.8,6.3c-5.6-0.2-10.6-3.7-12.7-8.9
				c-2.2-5.3-2.2-11.3,0.2-16.6c1.3-2.8,3.2-5.2,5.5-7.2c2.2-2,4.9-3.9,6.2-6.7c3.9-8.1-3-19.5-12-19.6c-6.8-0.1-11.7,5.6-17.8,7.6
				c-2.7,0.9-6,1.2-8.6-0.1c-0.1,0.2-0.2,0.4-0.3,0.7c2.9,1.4,6.8,1,9.8-0.1c6-2.2,11.5-8.2,18.4-7.1c5.3,0.9,9.4,5.8,10.5,10.9
				C228.5,201.5,228.2,204.2,227,206.6L227,206.6z M205.6,223.2c-0.6-11.2-10.4-16.5-19.8-20.6c-0.1,0.3-0.2,0.5-0.3,0.8
				c1.2,0.5,2.3,1,3.4,1.5c6.1,2.9,12.5,7,14.8,13.7c2.1,5.9,0.7,13.5-5.8,16c-6.3,2.4-13.3-1.7-17.9-5.8c-0.8-0.7-1.5-1.4-2.2-2.2
				l-0.2,0.9c1.5,1.7,3.3,3.2,5.1,4.4c4.4,3,10.2,5.5,15.6,3.5C203.3,233.5,205.9,228.4,205.6,223.2L205.6,223.2z M164.9,291.3
				c4.4,3.8,9.6,6.5,15.2,7.9c6,1.3,12.2,0,16.7-4.5s6.9-11.3,7.7-17.5c0.8-6.3-1.8-12.5-6.9-16.2c-5.5-4.3-12.4-5.7-19.2-6.7
				c-2.3-0.3-4.6-0.7-6.9-1.1c-0.1,0.4-0.1,0.7-0.2,1c5.7,0.9,11.5,1.5,17,3.2c6.4,2,13.1,6.3,14.9,13.2c1.1,4.1,0.2,8.4-1,12.4
				c-0.9,3.2-2.4,6.3-4.4,9c-4.5,6.1-11.8,7.8-18.9,5.8c-5.1-1.5-9.8-4.1-13.8-7.6C165.1,290.6,165,290.9,164.9,291.3L164.9,291.3z"
				/>
			<path class="st3" d="M138.1,330.8c4.2-0.4,62,1.5,76.9,2.8c11.8,1-12.1,78.2-23.1,77.8c-79.8-2.9-107.7-4.2-121.7-18.7
				C60.7,382.7,102.3,334.1,138.1,330.8z"/>
			<path class="st3" d="M162.2,408.5c14,6.1,34.3,12.3,65.3-1.4c0,0,32.8,37.6,44.9,29.6c11-7.2-22.2-40.1-22.2-40.1
				s32.8,42.8,43.8,36.2c14.5-8.7-24.3-46.7-24.3-46.7s33.5,49.1,45.9,38.8s-26.2-46.5-26.2-46.5s31.2,40.6,39.6,30.4
				c9.4-11.3-23.1-49.3-39.6-60.3c-7.9-5.3-27.5-16.7-51.2-18.6c-17.6-1.5-49.1,5.5-49.1,5.5S158.9,407,162.2,408.5z"/>
			<path class="st2" d="M276.9,365.2c4.3,4.5,8.4,9.2,12.7,13.6s19.5,20.8,26.9,33.2c0.3,0.5-3.8-8.4-13.3-20.4
				c-3.9-4.9-8-9.5-12.3-14s-9.1-8.6-13.8-12.6c-0.1,0-0.1,0-0.2,0.1C276.8,365.1,276.8,365.2,276.9,365.2z"/>
			<path class="st2" d="M260.5,380.4c5.5,5.6,10.8,11.6,16.1,17.4s10.8,10.8,16.1,16.6c0.4,0.5,0.8,0.4,0.4-0.1
				c-5.1-6.1-9.8-11.9-15.3-17.6s-11.4-10.9-17.2-16.4C260.5,380.2,260.3,380.3,260.5,380.4z"/>
			<path class="st2" d="M243.8,391.1c10,10.4,16.2,17.6,24.1,26.8c0.4,0.5,0.9,0.5,0.5,0c-7.4-9.6-15.1-19.2-24.4-27.1
				C243.9,390.7,243.6,391,243.8,391.1z"/>
			<path class="st4" d="M141.6,330.6c-39.8,0.7-82.1,54.1-73.6,64.6c12.9,16,81.9,22.4,81.9,22.4l55.9-86.2L141.6,330.6z"/>
			<path class="st5" d="M196.1,331.3h1c-0.1,0.7-0.2,1.5-0.2,2.2c-0.1,3.2,0.4,6.5,1.3,9.6l-0.7,1c-1.2-3.7-1.7-7.6-1.5-11.6
				C196,332.1,196.1,331.7,196.1,331.3z M181,369.7c-5.5-0.2-10.5,2.7-14,6.9c-6.9,8.2-7.9,19.1-9.5,29.5l1.2-1.9
				c0.5-3.5,1-6.9,1.8-10.2c1.4-6.7,3.8-13.7,8.9-18.5c3-2.9,6.9-4.6,11.1-4.8L181,369.7L181,369.7z M104.5,355.2
				c-2.3,5.6-3.2,11.8-2.6,17.8c1.3,12,8.9,22.6,20.8,25.8c10.5,2.8,22.9-0.7,27.8-11.1c4.2-8.8,2.7-20.8-5.5-26.7
				c-5.8-4.2-13.7-4.5-18.8-9.8c-2.3-2.5-3.8-5.9-2.5-9.2c1-2.5,3.4-4.2,6-5c13.1-4.2,22.6,10.8,35.6,8.8c7.8-1.4,14.3-7,16.8-14.6
				H181c-2.3,6.8-7.9,11.9-14.9,13.5c-7.2,1.5-13.5-2.5-19.6-5.7c-5-2.7-10.2-4.6-15.9-3.1c-4.5,1.1-8.5,4.4-8.2,9.4
				c0.4,6.1,6.4,9.8,11.4,11.8c6.2,2.5,12.4,4.4,15.7,10.6c2.5,4.9,3.1,10.6,1.7,15.9c-3.3,12.5-16.7,17.6-28.5,14.3
				c-13.1-3.7-20.3-16.6-20-29.8c0.1-3.3,0.6-6.5,1.6-9.6c1.2-3.4,2.7-6.7,4.3-9.9c1.3-2.6,2.2-5.5,2.7-8.4l-0.9,0.5
				C109.4,345.7,106.5,350.4,104.5,355.2L104.5,355.2z M78.9,368.1c4.2,0,8.3-1.6,9.1-6.4c0.2-1.2,0.2-2.4,0-3.7l-0.9,0.9
				c0.2,1.8-0.1,3.6-1,5.2c-1.4,2.3-4,3.1-6.5,3.1L78.9,368.1L78.9,368.1z M76.2,401.3l1.1,0.5c5.5-3,10.8-6.6,17.2-7.4
				c5.1-0.6,11.5,0.3,14.4,5.1c2.2,3.7,1.4,7.8,0.4,11.9l0.8,0.2c0.4-1.5,0.8-3,1-4.6c0.7-5.2-1.4-10-6.2-12.2
				c-4.6-2.1-10.1-1.9-14.8-0.5C85.1,395.8,80.7,398.8,76.2,401.3z"/>
			<path class="st2" d="M97.2,350.3c7.6-5.1,23.6-17.9,58.2-19.5c0.3,0,0.2-0.3,0-0.3c-31.6,0.4-38.4,3.2-58.4,19.5
				C96.8,350.2,97,350.4,97.2,350.3z"/>
			<path class="st2" d="M129.9,408.1c3.8-5.1,7.4-10.4,11-15.7c6.3-9.4,12.5-18.9,18.6-28.4s12.2-19,17.9-28.8
				c0.1-0.1-0.2-0.3-0.3-0.1c-3.8,5.1-7.4,10.4-11,15.7c-6.4,9.3-12.6,18.8-18.8,28.3s-12.4,19-18,28.8
				C129.2,408.1,129.7,408.4,129.9,408.1z"/>
			<path class="st6" d="M135.8,331.1l3.6-0.4c0.8,0,1.5-0.1,2.3-0.1l64.2,0.8l-24.5,37.8l-46-38l0,0L135.8,331.1z"/>
			<path class="st3" d="M225.6,227.1c-18.3,51.9-21.2,99.6-21.4,105.3c-0.1,1.7-6.5,79.9,19.3,76.3c38.8-5.3,51.6-79,43.4-171.4
				C263.2,196,245.7,170,225.6,227.1z"/>
			<path class="st4" d="M225.6,227.1c-18.3,51.9-31.3,111.9-31.5,117.6c-0.1,1.7,3.6,67.6,29.3,64.1c38.8-5.3,51.6-79,43.4-171.4
				C263.2,196,245.7,170,225.6,227.1z"/>
			<path class="st2" d="M223.4,233.6c-8.4,31.1-21.8,75-28.6,106c3-18.1,8-35.7,12.8-53.4C212.6,268.7,217.7,251.1,223.4,233.6
				L223.4,233.6z"/>
			<path class="st2" d="M217.5,253.4c-1.2-5.1-0.2-10.4,1.1-15.4C218.3,243,217.4,248.3,217.5,253.4z"/>
			<path class="st5" d="M247.8,210.1c-7.9,2.5-3.9,12.2-2.6,17.7c1.1,4.9,0.6,9.6-2.9,13.4c-5.7,6.3-15.9,7.7-22.5,2.6
				c0.1-0.3,0.2-0.6,0.3-0.9c2.4,2,5.3,3.1,8.4,3.2c5.3,0.1,10.4-2.2,13.8-6.3c1.6-2,2.5-4.4,2.6-7c0.1-3.4-1.1-6.7-2-10
				c-1.3-4.9-1.5-11.2,4.1-13.4c4.4-1.8,9.7,0.4,13.2,3.3c1.2,1,2.2,2.1,3.1,3.3c0.2,0.9,0.5,1.8,0.7,2.7c-0.4-0.7-0.8-1.4-1.3-2
				C259.8,212.4,253.3,208.4,247.8,210.1z M260.4,267.8c2.7,3.4,5.8,6.5,8.6,9.8v-1.3c-5.6-6.3-11.9-12.2-14.2-20.4
				c-1-3.4-1.4-7.8,2.2-9.7c2.6-1.4,6-0.9,8.6,0.1c0.7,0.3,1.4,0.6,2,0.9c0-0.4-0.1-0.7-0.1-1.1c-1.7-0.9-3.6-1.5-5.5-1.7
				c-2.3-0.3-4.6,0.2-6.5,1.6c-2.2,1.8-2.6,4.7-2.2,7.4C254.1,258.8,257.1,263.6,260.4,267.8z M223.6,303.2
				c5.9,10.2,15.6,17.4,25,24.2c6,4.3,11.7,8.9,17,14c0.1-0.5,0.1-0.9,0.2-1.4c-8.4-8-18.3-14.1-27.2-21.6
				c-9.7-8.1-19.2-19.3-18.7-32.8c0.3-7.4,4.4-14.5,11.7-17c6.8-2.3,13,1.2,17.1,6.6s6,11.7,8.8,17.7c2.3,4.9,6,10.8,11.4,12.7
				c0-0.4,0.1-0.7,0-1.1c-1.5-0.6-2.8-1.5-4-2.6c-5.1-4.6-7.5-11.4-10.1-17.6c-2.4-5.5-5.4-11.2-10.4-14.8c-4.7-3.4-11-3.7-16-0.8
				C215.9,276,217.4,292.4,223.6,303.2L223.6,303.2z M220.5,387.8c1.9,6.9,1.7,14.2-0.5,21.1c0.3,0.1,0.7,0.1,1,0.1
				c0.1-0.4,0.2-0.7,0.3-1.1c1.7-5.9,1.9-12.2,0.6-18.3c-1.4-6.4-4.5-12.2-7.9-17.8c-7.1-11.6-17.5-23.8-17.1-38.3
				c0.1-7,3.9-14,10.5-16.8s13.3,0.6,17.1,6.2c4.3,6.3,4.6,14.1,4.2,21.5c-0.4,7.7-0.9,15.3,0.1,23c1,7.3,3,14.5,5.9,21.3
				c1.7,4.1,3.8,8,6.2,11.7c0.3-0.2,0.6-0.5,0.8-0.8c-0.2-0.4-0.5-0.7-0.7-1.1c-8.1-13.1-12.2-28.2-11.9-43.6
				c0.2-8,1.6-16.2-0.1-24.1c-1.2-5.5-4.3-10.9-9.1-14c-4.7-3.1-10.9-3-15.5,0.2c-2.8,1.9-5,4.5-6.4,7.6c-1.2,2.5-1.8,5.2-2,7.9
				c-0.1,0.5-0.1,1-0.1,1.5c0,6.5,2.2,12.9,5.2,18.6C207.2,364.5,216.8,374.7,220.5,387.8L220.5,387.8z"/>
			<path class="st2" d="M268.6,250c1,39.8,2,98.1-15,134c-7.7,16.1-22,29.1-41,24.9c-15.5-4.5-36.6-35.8-45.8-49.5
				c-3.1-4.7-6.1-9.5-9-14.4l0,0l2.3-2.1l-2.1,2.2c9.1,13.9,19,28.1,29.9,40.9c5.5,6.4,11.2,12.6,18,17.5c4.6,3.5,9.8,4.6,15.4,4.3
				c36-2.8,42.6-62.1,45-90.2C268.1,295.2,268.7,272.6,268.6,250L268.6,250z"/>
			<path class="st2" d="M268.8,268.3c0.5-4.3,1.2-8.4,1.6-12.7C270.9,259.9,270.4,264.2,268.8,268.3z"/>
			<path class="st4" d="M163.4,199.9c-6.5-15.1,6.5-28.1,29.5-33.3c23.9-5.5,59.7-7,76.6,6.7c18.5,14.9,16.9,36.9,12.1,45.9
				c-1.9,3.6-7.7,1.5-7.7,1.5l-17.2-16.3c-20.9-1.4-54.1,29-54.1,29S169.9,215,163.4,199.9z"/>
			<path class="st6" d="M256.7,179.6c-12-12.2-27-14.2-49.4-8.5c-14.4,3.6-36.9,13.5-34.6,24.6s27.8,30.7,27.8,30.7
				S268.7,191.8,256.7,179.6z"/>
			<path class="st3" d="M184.2,192.1v-0.6c0.1-1.1,0.1-2.2,0-3.3c-1.4-13.8-8-29.9-8-29.9s48.1-19,48.3-17.4
				c0.9,7.9,2.4,16.5,4,24.1c2.6,12.6,5.2,22.9,4.8,23.9c-6.3,15.2-24.4,35.2-36.3,33.7C185.4,221.2,183.8,198.4,184.2,192.1z"/>
			<path class="st2" d="M223.2,141.1c-7.9,1.9-47,17.3-47,17.3s6.6,16.1,8,29.8c0.1,1.1,0.1,2.2,0,3.3v0.6c1.7,0.1,3.4,0,5.1-0.3
				C218.5,188,222.5,150.4,223.2,141.1z"/>
			<path class="st3" d="M181.9,65.5c-16,6.9-44.1,68.5-35.6,92.3c8.7,24.5,38.1,29.8,59.7,17.8c14.8-8.2,35.5-55.9,34.3-74.4
				C238.4,74,205.5,55.3,181.9,65.5z"/>
			<path class="st2" d="M184.4,131.1c0.1,0.1,0.2-0.1,0.1-0.2c-2.4-2.3-1.3-6.2,0.2-9.4c0.1-0.1,0-0.5-0.1-0.4
				C182.7,123.9,181.1,129,184.4,131.1z"/>
			<path class="st2" d="M185.3,129.7c4.9,1.7,9-8.9,3.6-10.7C184.4,117.5,180.3,128,185.3,129.7z"/>
			<path class="st2" d="M158,120.3c-0.1,0-0.1-0.1-0.1-0.1c0,0,0-0.1,0.1-0.1c3.4,0,5.2-3.6,6.4-6.9c0-0.2,0.4-0.3,0.4-0.2
				C164.2,116.3,161.7,121.1,158,120.3z"/>
			<path class="st2" d="M158.3,118.7c-4.7-2.2-0.3-12.6,4.8-10.2C167.4,110.5,163,120.9,158.3,118.7z"/>
			<path class="st2" d="M196.5,115.8c-1-1.9-2.8-3.3-4.8-4c-2-0.8-4.2-1.1-6,0.3c-0.8,0.7-1,1.9-0.6,2.9c1,1.6,2.4,2,4,2.7
				c1.4,0.7,2.8,1.3,4.3,1.8C195.4,120,197.6,117.8,196.5,115.8z"/>
			<path class="st2" d="M161.9,95.2c1.8-1.1,4-1.6,6.2-1.2c2.1,0.3,4.2,1.1,5.1,3.2c0.4,1,0,2.2-0.9,2.8c-1.6,0.9-3,0.6-4.8,0.4
				c-1.5-0.1-3.1-0.3-4.6-0.5C160.8,99.3,160,96.3,161.9,95.2z"/>
			<path class="st2" d="M176.4,151.8c-0.9,1.2-2.1,2.2-3.7,1.9c-1.7-0.4-3-1.7-3.5-3.4c0,0,0-0.1,0-0.1c0,0,0.1,0,0.2,0c0,0,0,0,0,0
				c0.9,0.9,2,1.7,3.2,2.2c1.2,0.4,2.4-0.4,3.5-0.9c0.1-0.1,0.2-0.1,0.3,0S176.5,151.7,176.4,151.8z"/>
			<path class="st2" d="M174.8,144.9c-4-5.5-11.4-6.1-11.4-6.1c0.3-1.2,4.1-8,3.7-8.2c-1.3-0.5-4.1-0.4-5.8-0.4
				c4.4-10.3,10.4-19.7,14.7-30c0.1-0.2,0-0.3-0.1-0.4c-0.2-0.1-0.3,0-0.4,0.1c-7,9.4-12.4,21.1-17.2,31.6c-0.6,1.3,4.9,1,6,0.9
				l-2.9,6.8l0,0c-0.1,0.4,0,1.3,0.3,1.5c3.6,0.9,9.1,2.4,12.6,5.7C175.8,147.9,175.8,146.3,174.8,144.9z"/>
			<path class="st2" d="M242.2,109.2c0.9-10.6-1-36.4-33.9-45.4c-36-10-44.7,24-44.7,24c4.1-7,13.3-20.9,20.1-18.4
				c3.1,1.2,0.5,11.2,4.8,13.2s15-2.8,21.7-2.4s14.2,5.8,15.2,14s-6.4,27.7-6.3,33c0.1,5.3,2.4,18.5,10.5,19.2
				C229.6,146.5,240.5,129.4,242.2,109.2z"/>
			<path class="st0" d="M178,141.2c-7.1-4.2-9.5-13.3-5.3-20.4l0,0c4.2-7.1,13.3-9.5,20.4-5.3c7.1,4.2,9.5,13.3,5.3,20.4
				c-3.4,5.9-10.4,8.7-17,6.8C180.2,142.4,179.1,141.9,178,141.2z M174.4,121.8c-3.6,6.1-1.6,14,4.6,17.6c6.1,3.6,14,1.6,17.6-4.6
				c3.6-6.1,1.6-14-4.5-17.6C185.9,113.7,178,115.7,174.4,121.8C174.4,121.8,174.4,121.8,174.4,121.8z"/>
			<path class="st0" d="M149,129c-5.6-2.3-7.6-10.4-4.5-18c1.4-3.4,3.8-6.4,6.9-8.4c3-1.8,6.2-2.2,9-1.1c2.9,1.4,5,4,5.6,7.2
				c0.8,3.6,0.4,7.4-1,10.8c-3,7.2-9.5,11.3-15,9.8C149.7,129.2,149.3,129.1,149,129z M152.6,104.3c-2.8,1.8-4.9,4.4-6.1,7.4
				c-2.8,6.6-1.2,13.5,3.4,15.4c4.6,1.9,10.6-1.8,13.4-8.4c1.3-3,1.7-6.4,1-9.6c-0.4-2.5-2.1-4.7-4.4-5.8c-0.2-0.1-0.5-0.2-0.7-0.2
				C156.8,102.6,154.5,103,152.6,104.3L152.6,104.3z"/>
			<path class="st0" d="M165.1,118.8l-0.8-1.8c4.8-2.2,8.6,2.2,10,4.8l-1.8,0.9C172.4,122.5,169.4,116.8,165.1,118.8z"/>
			<path class="st0" d="M228.4,141.9c-2.8-1.7-22.4-8.1-29.8-10.4l0.6-1.9c1.1,0.3,26.6,8.4,30.2,10.6c3.8,2.4,4.6,10.6,4.6,11.5
				l-2,0.2C231.9,149.6,230.9,143.5,228.4,141.9z"/>
			<path class="st3" d="M210.5,153.2c0,0,1.1,8.6,10.4,7.6s23.7-22.1,17.4-27.9s-21.5,7.3-21.5,7.3L210.5,153.2z"/>
			<path class="st2" d="M215.3,154.3l-0.1,0.1c-0.4,0.6,0.5,1.1,0.9,0.6c1.2-1.5,2.5-2.8,4-4c2.1-1.5,4-1.5,6.3-0.4
				c0.2,0.1,0.4-0.1,0.2-0.3c-2.4-2.9-5.2-2.3-7.5-0.5c3.7-5.2,8.2-9.9,14.8-10.9l0,0c0.1,0,0.1-0.1,0.1-0.1s-0.1-0.1-0.1-0.1
				C225.7,137.5,217.1,146.7,215.3,154.3z"/>
			<path class="st4" d="M202.6,233.5c34.9-29.6,54.1-29,54.1-29l3.5-24.2c-32.4,3.2-59.7,46.1-59.7,46.1L202.6,233.5z"/>
			<path class="st2" d="M256.5,204.2c-1.5,0-3,0.1-4.5,0.3c-1.5,0.2-3,0.4-4.4,0.8c-5.9,1.3-11.5,3.4-16.9,6.2
				c-5.3,2.7-10.5,5.9-15.3,9.4c-2.3,1.8-4.7,3.7-7,5.6l-6.7,5.9l1.5-0.2c-2.9-1.5-5.8-3.2-8.7-4.9s-5.8-3.4-8.5-5.3
				c-5.5-3.7-11-7.6-15.6-12.6c2,2.7,4.3,5.2,6.8,7.5c2.5,2.3,5.1,4.5,7.8,6.5c5.4,4.1,11.1,7.8,17,11.1l0.8,0.4l0.8-0.6l6.7-5.8
				l6.9-5.4c4.7-3.5,9.6-6.7,14.8-9.5c5.1-2.9,10.5-5.2,16.1-6.9c5.6-1.6,11.5-2.7,17.4-1.7C262.5,204.4,259.5,204,256.5,204.2z"/>
			<path class="st2" d="M265.8,212.1c-2.9-2.7-5.9-5.3-9.1-7.6c5,6.1,10.8,11.6,17.2,16.3C271.4,217.7,268.7,214.8,265.8,212.1z"/>
			<path class="st4" d="M210.9,217.6c-0.2,8.1,2.6,18.1-0.9,31.6c-3.4,13.3-17.8,28.6-9.9,30.3s12.8-23.7,13.3-30.8
				c0.7-10.2,0.6-20.5-0.4-30.7L210.9,217.6z"/>
			<g class="st7">
				<path d="M210.9,217.6c-0.2,8.1,2.6,18.1-0.9,31.6c-3.4,13.3-17.8,28.6-9.9,30.3s12.8-23.7,13.3-30.8c0.7-10.2,0.6-20.5-0.4-30.7
					L210.9,217.6z"/>
			</g>
			<path class="st4" d="M188,219.4c-1.9,7.1-6.9,15.1-7.3,27.7c-0.4,12.4,8.1,29.5,0.9,28.9s-5-23.9-3.6-30.2c2-9.1,4.7-18,8.2-26.6
				L188,219.4z"/>
			<g class="st7">
				<path d="M188,219.4c-1.9,7.1-6.9,15.1-7.3,27.7c-0.4,12.4,8.1,29.5,0.9,28.9s-5-23.9-3.6-30.2c2-9.1,4.7-18,8.2-26.6L188,219.4z
					"/>
			</g>
			<path class="st3" d="M247.7,372c0.6-30-19.5-78.7-29.8-115.9c-3.2-11.6-84.2,30.6-80,41c22.1,54.8,57,102.7,78.2,106
				C230.9,405.4,247.2,395.4,247.7,372z"/>
			<path class="st8" d="M211.3,248.6c3.6-20-4.8-42-4.1-53c1.1-17.1,4.6-21,2.3-24.8s-16,1.1-20.6,11.5s-5.4,28.1-10.6,34.4
				S209.5,258.6,211.3,248.6z"/>
			<path class="st3" d="M211.3,248.6c3.6-20-4.8-42-4.1-53c1.1-17.1,4.6-21,2.3-24.8s-16,1.1-20.6,11.5s-5.4,28.1-10.6,34.4
				S209.5,258.6,211.3,248.6z"/>
			<path class="st9" d="M211.3,248.6c3.6-20-4.8-42-4.1-53c1.1-17.1,4.6-21,2.3-24.8s-16,1.1-20.6,11.5s-5.4,28.1-10.6,34.4
				S209.5,258.6,211.3,248.6z"/>
			<path class="st3" d="M195.7,193.4c10.5,10.1,23.8,69.4,23.8,69.4l-77.4,39.4c-4.9-6.9-13.6-20.9-20.4-32.1
				c-6.4-10.5-19.6-24.8-15.4-36.8c2.5-7,9.2-10.2,9.2-10.2s-1.2-12.4,4.8-16.6c5.7-4,12.8-3.6,12.8-3.6s-2.9-11.9,3.7-15.6
				c5.7-3.2,12.3-1.4,12.3-1.4s-18.1-16.4-10.9-23.1C149.1,152.6,186.8,184.9,195.7,193.4z"/>
			<path class="st2" d="M148.8,186c-0.1,0.1-0.1,0.3,0,0.5c9.7,9,21.8,16.2,31.1,25.6c0.1,0.1,0.2,0.1,0.3,0c0,0,0,0,0,0
				c0.1-0.1,0.1-0.2,0-0.3c-9.5-9.4-19.4-18.9-31-25.8C149.1,185.9,148.9,185.9,148.8,186z"/>
			<path class="st2" d="M133.2,202.6c-0.2,0.2-0.2,0.5,0,0.7c1.6,2.6,4,4.7,6.1,6.9c2.3,2.3,4.5,4.6,6.7,7c4.5,4.7,8.8,9.6,13,14.5
				c0.2,0.2,0.5-0.1,0.3-0.3c-4-5.1-8.1-10.2-12.4-15.1c-2.1-2.5-4.3-4.9-6.5-7.3c-2-2.2-4.1-4.7-6.6-6.3
				C133.7,202.4,133.4,202.4,133.2,202.6z"/>
			<path class="st2" d="M115.5,223.3c-0.1,0-0.1,0.1-0.1,0.2c0.9,2.4,3.2,4.6,4.8,6.5c1.9,2.2,3.9,4.4,5.9,6.6
				c4,4.5,8.1,8.9,12.2,13.3c0.2,0.2,0.5-0.1,0.3-0.3c-4-4.4-7.8-8.9-11.6-13.5c-1.9-2.3-3.8-4.5-5.7-6.8c-1.7-2-3.4-4.7-5.7-6
				C115.6,223.3,115.5,223.3,115.5,223.3z"/>
			<path class="st2" d="M156.4,164.5c10.8,4.7,20.4,11.9,29.7,19.1c3.5,2.7,6.8,5.7,9.9,8.9c5,5.6,7.4,13,9.4,20
				c-1.1-2.7-2.2-5.4-3.6-8c-1.9-3.9-3.9-7.8-7-10.9c-3.2-3-6.5-5.9-9.9-8.5c-9.2-7.2-25-18.7-38.2-24.2L156.4,164.5z"/>
			<path class="st4" d="M254.2,350.3c1.5,44.9-18.8,57-37.5,58.3s-58.8-63.5-58.8-63.5l76.7-67.3C234.6,277.7,253.8,339,254.2,350.3
				z"/>
			<path class="st5" d="M223.6,303.1c-2.1-3.7-3.6-7.8-4.3-12l0.8-0.7c1.6,11.4,9.9,20.9,18.4,28c3.4,2.8,6.9,5.5,10.5,8.1
				c0.1,0.5,0.3,1.1,0.4,1.6l-1-0.7C239.2,320.6,229.4,313.4,223.6,303.1z M204.4,317.1c-5.1,3.6-8.2,9.3-8.4,15.5
				c-0.4,7.1,2,14,5.2,20.1c6.1,11.8,15.7,22,19.4,35c1.9,6.7,1.8,13.8-0.3,20.5l1.1-0.2c0-0.1,0.1-0.2,0.1-0.2
				c1.7-5.9,1.9-12.2,0.6-18.3c-1.4-6.4-4.5-12.2-7.9-17.8c-7.1-11.6-17.5-23.8-17.1-38.3c0.1-7,3.8-14,10.4-16.8s13.3,0.6,17.1,6.2
				c4.3,6.3,4.6,14.1,4.2,21.5c-0.4,7.7-0.9,15.3,0.1,23c1,7.3,3,14.5,5.9,21.3c1.5,3.6,3.2,7,5.3,10.3c0.3-0.3,0.6-0.5,0.8-0.8
				c-7.9-13-12-28-11.7-43.2c0.2-8,1.6-16.2-0.1-24.1c-1.2-5.5-4.3-10.9-9.1-14C215.2,313.8,209,313.9,204.4,317.1L204.4,317.1z
				 M181.9,369.8c-2.3-0.2-4.5,0.1-6.7,0.9c0.2,0.3,0.4,0.5,0.6,0.8c3.7-1.3,7.8-1,11.3,0.9c6.5,3.8,6.1,11.5,3.5,17.6
				c0.2,0.3,0.5,0.5,0.7,0.8c1.7-3.7,2.6-7.7,1.8-11.6C192.1,373.8,187.3,370.3,181.9,369.8L181.9,369.8z M157.9,345L157.9,345
				c2.5,0.8,5,1,7.5,0.6c10.3-1.6,19-12,17.4-22.5l-1,0.9c0.8,9.1-6.3,18.4-15.8,20.4c-2.4,0.5-4.9,0.5-7.3-0.1L157.9,345z"/>
			<path class="st2" d="M235.8,305.6c0.1,0.1,0.1,0.3,0,0.4c-3.6,4.2-7.5,8.1-11.4,12.1c-6.8,7.1-13.7,14-20.7,20.8
				c-3.5,3.4-7,6.8-10.5,10.2c-1.8,1.7-3.7,3.5-5.4,5.1s-3.8,3-5.5,4.7c-0.1,0.1-0.1,0.1-0.2,0c-0.1-0.1-0.1-0.2,0-0.2
				c2-2,3.8-4.5,5.7-6.5s3.7-3.9,5.6-5.8c6.8-6.9,13.7-13.9,20.7-20.7c3.5-3.4,7-6.8,10.6-10.2c3.6-3.3,7.1-6.8,10.8-9.9
				C235.5,305.5,235.6,305.5,235.8,305.6C235.8,305.6,235.8,305.6,235.8,305.6z"/>
			<path class="st2" d="M225.9,285.4l8.5-7.8l0.3-0.3c3,7.8,5.8,15.7,8.4,23.7c4.6,14.8,9.5,29.6,11.7,44.9
				c0.8,9.3,0.1,18.7-2.1,27.8c1.1-9.1,1.1-18.4-0.1-27.5c-1.3-7-3-13.9-5-20.8c-4.4-15.8-9-31.6-13.2-47.5l0.4,0.1L225.9,285.4
				L225.9,285.4z"/>
		</g>
		<g id="freepik--Plant--inject-21">
			<path class="st10" d="M5.1,308c-0.8,9.6-1.5,21,3.2,29.9c4.5,8.6,13,10.5,21.6,12.9c2.4,5.8,4.3,11.8,5.8,17.8
				c0.1,0.3,0.6,0.2,0.6-0.1c-3.3-22.3-17-42.9-30.1-60.6C5.9,307.5,5.2,307.5,5.1,308z"/>
			<path class="st2" d="M29.3,350.8c-0.7-1.2-1.4-2.5-2.1-3.8c-0.4-0.2-0.8-0.4-1.2-0.6c-0.1,0,0-0.1,0.1-0.1
				c0.4,0.2,0.7,0.4,1.1,0.6c-1.5-2.6-2.9-5.3-4.3-7.9c-5.3-3.6-9.8-9-13.9-13.9c-0.1-0.1,0-0.2,0.1-0.1c4.1,4.6,8.9,8.6,13.2,13
				c-4.7-8.6-9.5-17-15.8-24.8c0,0,0-0.1,0-0.1c0,0,0,0,0,0c0,0,0.1,0,0.1,0c0,0,0,0,0,0c9.6,10.9,17.2,24.1,23.1,37.4
				C29.9,350.8,29.5,351,29.3,350.8z"/>
			<path class="st2" d="M25.2,346.2c-3.6-1.9-6.9-4.2-10-6.9c-0.1-0.1,0-0.2,0.1-0.1c3.2,2.5,6.5,4.7,10.1,6.7
				C25.5,346,25.4,346.2,25.2,346.2z"/>
			<path class="st10" d="M36.6,312.8c-1.1-7.3-2.8-14.5-5.2-21.5c-1.5-4.2-7-17.1-8.7-17.5c-3.3-0.9-6.3,25-5.5,32.8
				c0.6,7.1,2.7,14,6.1,20.2c1.5,2.6,3.2,5.1,5.2,7.3c2.8,3,6.8,5.1,8.7,8.9c0.1,7.4,0,14.7,0.1,22.1c0,0.3,0.5,0.3,0.5,0
				C39.1,347.7,39.3,330,36.6,312.8z"/>
			<path class="st2" d="M37.9,333.5c0.1,0.1,0,0.2-0.1,0.3c0,0,0,0,0,0c0.1,0.8,0.1,1.7,0.1,2.5c0,0.1-0.3,0.2-0.3,0
				c-0.1-1-0.3-1.9-0.4-2.9c-7.3-5-12.1-12.3-15.1-20.5h0.1c3.1,7.9,8.5,14.4,14.9,19.8c-0.5-3.5-1-7.1-1.5-10.7
				c-0.1-0.2-0.3-0.5-0.4-0.7c0-0.1,0.1-0.1,0.1-0.1l0.2,0.3c-1-7.1-2.3-14.2-4-21.1c0,0,0,0-0.1,0c-0.6-0.7-1.1-1.4-1.6-2.2
				c-0.1-0.2,0.2-0.4,0.3-0.2c0.4,0.5,0.8,1,1.1,1.5c-1.8-7.3-4.4-14.4-7.7-21.1c-0.1-0.1,0.1-0.3,0.2-0.1c5,8.6,7.5,17.8,9.6,27.5
				C35.4,314.8,37.4,324.2,37.9,333.5L37.9,333.5L37.9,333.5z"/>
			<path class="st2" d="M34.6,320.2c-5.7-6.4-9.9-14.5-12.9-22.5c0-0.1,0.2-0.1,0.2-0.1c3.5,8,8.1,15.1,13,22.4
				C34.9,320.2,34.7,320.3,34.6,320.2z"/>
			<path class="st2" d="M28,296c-2.4-3.4-4.3-7-5.9-10.8c0-0.1,0.1-0.2,0.1-0.1c1.9,3.6,4.1,7.1,6.1,10.7
				C28.5,296,28.2,296.2,28,296z"/>
			<path class="st2" d="M29.1,297.4L29.1,297.4C29.2,297.4,29.1,297.4,29.1,297.4z"/>
			<path class="st10" d="M52.7,330.6c3.2-4.5,5.7-9.4,7.5-14.6c3.2-9.6,4.5-21.1,0.8-30.8l0-0.1c-0.2-0.3-0.6-0.4-1-0.1
				c-9.4,10.1-14.4,23-16.6,36.5c-1.3,7.2-1.8,14.5-1.6,21.8l0,0c-0.1,0.2-0.1,0.3,0,0.5c0.2,5.5,1.1,10.9,2.6,16.1
				c0.1-0.6,0.2-1.1,0.2-1.6c-1-4.7-1.6-9.6-1.7-14.5C45.4,338.9,49.5,335.1,52.7,330.6z"/>
			<path class="st2" d="M58.9,289.5c0.1,0,0.2,0.1,0.2,0.2c-2.8,4.9-5.2,10-7.3,15.2c0.6-0.7,1.3-1.3,1.9-2c1.5-1.7,2.8-3.6,4.1-5.5
				c0,0,0.1,0,0.1,0c0,0,0.1,0.1,0,0.1c-1.7,3.3-4.2,5.6-6.5,8.3c-1.9,4.8-3.4,9.8-4.7,14.8l0.2-0.2c0.2-0.2,0.5,0,0.3,0.3
				s-0.5,0.5-0.7,0.8c-0.9,3.7-1.6,7.4-2.3,11.1c3.5-3.4,6.8-6.9,9.8-10.7c0.1-0.1,0.1,0,0.1,0.1c-2.6,4.4-6.4,8.1-10.1,11.7l0,0
				c-0.2,1.5-0.5,3-0.7,4.6c0,0.3-0.5,0.2-0.5-0.1c0.8-17.1,7-34.2,15.9-48.7C58.8,289.5,58.9,289.4,58.9,289.5z"/>
			<path class="st2" d="M57.2,307.4c-2.5,4-5.4,8.4-8.8,11.6c-0.1,0.1-0.3,0-0.2-0.1c2.7-4,6-7.7,8.8-11.6
				C57.1,307.2,57.2,307.3,57.2,307.4z"/>
			<path class="st2" d="M47.9,319.9l-0.1,0.1c-0.1,0.1-0.2,0-0.1-0.1l0.1-0.1C47.8,319.7,48,319.8,47.9,319.9z"/>
			<path class="st10" d="M72.6,316.8c-0.2-0.3-0.6-0.4-1-0.3c-15.6,10.3-27.8,26.5-30,45.3l0.3,1.1c0.8-4.4,2-8.7,3.6-12.8
				c3.4-1.3,6.9-3.2,10.2-4.9c2.9-1.4,5.5-3.5,7.6-6c4.8-5.7,8.7-14.6,9.4-22C72.8,317.1,72.7,316.9,72.6,316.8z"/>
			<path class="st2" d="M62.9,327c0.9-0.6,1.8-1,2.8-1.4c0,0,0.1,0,0.1,0c0,0,0,0.1,0,0.1c0,0,0,0,0,0c-1.2,0.7-2.4,1.4-3.6,2
				c-2.5,2.6-4.8,5.3-7,8.2c3.4-1.6,6.7-3.4,9.9-5.3l0,0c0,0,0.1,0,0.1,0c0,0,0,0.1,0,0.1c0,0,0,0,0,0c-3.2,2.5-6.8,4.5-10.7,6
				c-1.4,1.9-2.8,3.9-4.1,6c1.5-0.5,3-1.1,4.5-1.8c1.6-0.8,3.1-1.9,4.5-3.1c0.1-0.1,0.2,0,0.1,0.1c-2.6,2.4-6,4.9-9.6,5.6l0,0
				c-0.8,1.2-1.5,2.5-2.2,3.7c-0.2,0.3-0.5,0-0.4-0.2c4.5-9.7,11.3-18.1,19.9-24.5c0.1,0,0.1,0,0.2,0.1c0,0,0,0.1,0,0.1
				C65.8,324.2,64.3,325.6,62.9,327z"/>
			<path class="st2" d="M67.1,329.5c-0.2,0.1-0.4,0.3-0.6,0.4c-0.1,0-0.1-0.1-0.1-0.1c0.2-0.2,0.4-0.3,0.6-0.4
				C67.1,329.3,67.2,329.5,67.1,329.5z"/>
			<polygon class="st11" points="20.7,364.8 21.5,356.2 55.8,356.2 56.5,364.8 60,403.7 17.3,403.7 			"/>
			<polygon class="st2" points="21.5,356.2 55.8,356.2 56.5,364.8 20.7,364.8 			"/>
			<rect x="19.4" y="350.2" class="st11" width="38.4" height="8.5"/>
		</g>
		<g id="freepik--speech-bubble--inject-21">
			<path class="st5" d="M101.2,99.2c0.5-5.8,5.6-10,11.3-9.5c5.8,0.5,10,5.6,9.5,11.3c-0.5,5.8-5.6,10-11.3,9.5
				C104.9,110,100.7,104.9,101.2,99.2C101.1,99.2,101.1,99.2,101.2,99.2z"/>
			<path class="st2" d="M120,93L120,93c3.9,4.7,3.3,11.5-1.3,15.4c0,0,0,0,0,0c-7.3,6-18.4,0.1-17.5-9.2
				C101.9,89.8,113.8,85.9,120,93z M101.2,99.1c-0.8,9.1,10.1,14.6,16.9,8.6c4.1-3.6,4.7-9.9,1.2-14.2C113.6,86.5,102,90,101.2,99.1
				L101.2,99.1z"/>
			<path class="st5" d="M135.2,104.7c3.2,0.3,5.6,3.1,5.3,6.3c-0.3,3.2-3.1,5.6-6.3,5.3c-3.2-0.3-5.6-3.1-5.3-6.3
				C129.2,106.8,132,104.5,135.2,104.7z"/>
			<path class="st2" d="M128.9,110c0.3-3.4,3.2-5.8,6.6-5.5s5.8,3.2,5.5,6.6c-0.3,3.3-3.2,5.8-6.6,5.5
				C131.1,116.3,128.7,113.4,128.9,110z M140,111c0.4-7.4-10.2-8.4-11.1-1C128.5,117.5,139.2,118.4,140,111L140,111z"/>
			<path class="st5" d="M12.7,44.1c-6.3-6.8-5.8-17.5,1-23.7c4.5-4.1,10.9-5.5,16.7-3.5c5-13.3,19.8-20,33.1-15
				c4.3,1.6,8.1,4.4,11,8c14-9.5,33-5.8,42.5,8.2c7.5,11,7,25.6-1.3,36.1c6.6,9.4,4.3,22.4-5.1,29c-4.2,3-9.4,4.2-14.5,3.6
				c-1.2-0.1-2.3-0.4-3.4-0.7c-1.4,1.8-3,3.5-4.8,4.9c-11.2,8.6-27.4,6.5-36-4.7c0,0,0,0,0,0c-15.6,6.6-33.5-0.7-40.1-16.3
				C9.7,64.9,9,59.5,9.6,54.2C10,50.7,11.1,47.2,12.7,44.1z"/>
			<path class="st2" d="M9.6,54.2c0.4-3.5,1.4-7,3.1-10.1c-6.3-6.9-5.8-17.6,1.1-23.8c3.4-3.1,8-4.7,12.6-4.4
				c1.4,0.1,2.8,0.3,4.1,0.8l-0.2,0.1c7-18.7,32-22.7,44.5-7.1l-0.4-0.1c6.1-4.2,13.5-6,20.8-5.2c24,2.6,36,31.1,20.9,50v-0.5
				c10.1,14.5-1,34.4-18.6,33.3c-1.6-0.1-3.2-0.3-4.8-0.8l0.3-0.1c-1.4,1.8-3.1,3.5-4.9,4.9c-11.4,8.7-27.6,6.5-36.3-4.9
				c0,0,0,0,0,0l0.2,0.1c-15.7,6.5-33.7-0.9-40.2-16.5C9.7,64.8,9,59.5,9.6,54.2L9.6,54.2z M9.6,54.2c-2,16.8,9.9,32,26.7,34
				c5.3,0.6,10.6-0.1,15.5-2.2l0.1-0.1L52,86c1.4,1.9,3.1,3.5,5,4.9c11.3,8.4,27.2,6,35.6-5.3c1.6,0.5,3.2,0.8,4.9,0.8
				c17,1,27.7-18.3,17.9-32.2l-0.2-0.3l0.2-0.3c14.5-18.5,3.1-46-20.3-48.7c-7.2-0.8-14.4,0.9-20.4,5l-0.2,0.2L74.3,10
				C62-5.4,37.4-1.4,30.5,17.1c-8.7-3-18.2,1.7-21.2,10.5c-1.9,5.7-0.6,12,3.4,16.5C11.1,47.2,10,50.7,9.6,54.2L9.6,54.2z"/>
		</g>
		<g id="freepik--Symbol--inject-21">
			<path class="st12" d="M65.2,52.5l-0.2,4.2c-0.1,1.7-1.5,3.1-3.2,3h-0.2c-1.8-0.1-3.1-1.6-3-3.4l0.4-6.8c0-0.1,0.1-0.1,0.1-0.1
				s-0.1,0-0.1-0.1c0.1-1.7,1.6-3.1,3.4-3c0.1,0,0.2,0,0.4,0c4,0.2,7.5-2.8,7.7-6.8c0.2-4-2.8-7.5-6.8-7.7h-0.5
				c-2.6-0.2-5,1.1-6.4,3.2c-0.1,0.2-0.2,0.3-0.3,0.5c-1,1.4-3,1.8-4.5,0.8c-1.4-1-1.8-3-0.8-4.5c0.1-0.1,0.1-0.2,0.2-0.2
				c2.1-3.2,5.3-5.3,9.1-6c7.4-1.3,14.5,3.7,15.9,11.1C77.5,44.1,72.6,51.2,65.2,52.5L65.2,52.5z M64.4,66.8l-0.1,1.2
				c-0.1,1.7-1.5,3.1-3.2,3h-0.2c-1.8-0.1-3.1-1.6-3-3.4l0.1-1.2c0.1-1.7,1.6-3.1,3.4-3C63.1,63.5,64.4,65,64.4,66.8L64.4,66.8z"/>
		</g>
	</g>
</g>
</svg>
